<?xml version="1.0" encoding="utf-8"?>
<svg xmlns="http://www.w3.org/2000/svg" xmlns:xlink="http://www.w3.org/1999/xlink" width="600" height="400" viewBox="0 0 2400 1600">
<defs>
  <clipPath id="clip320">
    <rect x="0" y="0" width="2400" height="1600"/>
  </clipPath>
</defs>
<path clip-path="url(#clip320)" d="
M0 1600 L2400 1600 L2400 0 L0 0  Z
  " fill="#ffffff" fill-rule="evenodd" fill-opacity="1"/>
<defs>
  <clipPath id="clip321">
    <rect x="480" y="0" width="1681" height="1600"/>
  </clipPath>
</defs>
<path clip-path="url(#clip320)" d="
M175.445 1423.18 L2017.68 1423.18 L2017.68 123.472 L175.445 123.472  Z
  " fill="#ffffff" fill-rule="evenodd" fill-opacity="1"/>
<defs>
  <clipPath id="clip322">
    <rect x="175" y="123" width="1843" height="1301"/>
  </clipPath>
</defs>
<polyline clip-path="url(#clip320)" style="stroke:#000000; stroke-linecap:butt; stroke-linejoin:round; stroke-width:4; stroke-opacity:1; fill:none" points="
  175.445,1423.18 2017.68,1423.18 
  "/>
<polyline clip-path="url(#clip320)" style="stroke:#000000; stroke-linecap:butt; stroke-linejoin:round; stroke-width:4; stroke-opacity:1; fill:none" points="
  227.584,1423.18 227.584,1404.28 
  "/>
<polyline clip-path="url(#clip320)" style="stroke:#000000; stroke-linecap:butt; stroke-linejoin:round; stroke-width:4; stroke-opacity:1; fill:none" points="
  1965.54,1423.18 1965.54,1404.28 
  "/>
<path clip-path="url(#clip320)" d="M-22.1718 1481.64 L-5.85241 1481.64 L-5.85241 1485.58 L-27.7967 1485.58 L-27.7967 1481.64 Q-25.1347 1478.89 -20.5514 1474.26 Q-15.9449 1469.61 -14.7644 1468.27 Q-12.519 1465.74 -11.6394 1464.01 Q-10.7366 1462.25 -10.7366 1460.56 Q-10.7366 1457.8 -12.6811 1456.07 Q-14.6024 1454.33 -17.7042 1454.33 Q-19.9033 1454.33 -22.357 1455.09 Q-24.7875 1455.86 -27.5653 1457.41 L-27.5653 1452.69 Q-24.7412 1451.55 -22.2875 1450.97 Q-19.8338 1450.39 -17.7968 1450.39 Q-12.4264 1450.39 -9.23202 1453.08 Q-6.03759 1455.77 -6.03759 1460.26 Q-6.03759 1462.39 -6.84777 1464.31 Q-7.63481 1466.2 -9.74128 1468.8 Q-10.32 1469.47 -13.4218 1472.69 Q-16.5236 1475.88 -22.1718 1481.64 Z" fill="#000000" fill-rule="evenodd" fill-opacity="1" /><path clip-path="url(#clip320)" d="M13.9623 1454.1 Q10.3512 1454.1 8.52251 1457.66 Q6.71697 1461.2 6.71697 1468.33 Q6.71697 1475.44 8.52251 1479.01 Q10.3512 1482.55 13.9623 1482.55 Q17.5965 1482.55 19.4021 1479.01 Q21.2308 1475.44 21.2308 1468.33 Q21.2308 1461.2 19.4021 1457.66 Q17.5965 1454.1 13.9623 1454.1 M13.9623 1450.39 Q19.7725 1450.39 22.828 1455 Q25.9067 1459.58 25.9067 1468.33 Q25.9067 1477.06 22.828 1481.67 Q19.7725 1486.25 13.9623 1486.25 Q8.15215 1486.25 5.07346 1481.67 Q2.01792 1477.06 2.01792 1468.33 Q2.01792 1459.58 5.07346 1455 Q8.15215 1450.39 13.9623 1450.39 Z" fill="#000000" fill-rule="evenodd" fill-opacity="1" /><path clip-path="url(#clip320)" d="M38.152 1481.64 L54.4713 1481.64 L54.4713 1485.58 L32.527 1485.58 L32.527 1481.64 Q35.189 1478.89 39.7723 1474.26 Q44.3788 1469.61 45.5594 1468.27 Q47.8047 1465.74 48.6843 1464.01 Q49.5871 1462.25 49.5871 1460.56 Q49.5871 1457.8 47.6427 1456.07 Q45.7214 1454.33 42.6196 1454.33 Q40.4205 1454.33 37.9668 1455.09 Q35.5363 1455.86 32.7585 1457.41 L32.7585 1452.69 Q35.5826 1451.55 38.0362 1450.97 Q40.4899 1450.39 42.527 1450.39 Q47.8973 1450.39 51.0917 1453.08 Q54.2862 1455.77 54.2862 1460.26 Q54.2862 1462.39 53.476 1464.31 Q52.6889 1466.2 50.5825 1468.8 Q50.0038 1469.47 46.9019 1472.69 Q43.8001 1475.88 38.152 1481.64 Z" fill="#000000" fill-rule="evenodd" fill-opacity="1" /><path clip-path="url(#clip320)" d="M74.2861 1454.1 Q70.675 1454.1 68.8463 1457.66 Q67.0407 1461.2 67.0407 1468.33 Q67.0407 1475.44 68.8463 1479.01 Q70.675 1482.55 74.2861 1482.55 Q77.9203 1482.55 79.7258 1479.01 Q81.5545 1475.44 81.5545 1468.33 Q81.5545 1461.2 79.7258 1457.66 Q77.9203 1454.1 74.2861 1454.1 M74.2861 1450.39 Q80.0962 1450.39 83.1517 1455 Q86.2304 1459.58 86.2304 1468.33 Q86.2304 1477.06 83.1517 1481.67 Q80.0962 1486.25 74.2861 1486.25 Q68.4759 1486.25 65.3972 1481.67 Q62.3417 1477.06 62.3417 1468.33 Q62.3417 1459.58 65.3972 1455 Q68.4759 1450.39 74.2861 1450.39 Z" fill="#000000" fill-rule="evenodd" fill-opacity="1" /><path clip-path="url(#clip320)" d="M91.6934 1470.7 L104.17 1470.7 L104.17 1474.49 L91.6934 1474.49 L91.6934 1470.7 Z" fill="#000000" fill-rule="evenodd" fill-opacity="1" /><path clip-path="url(#clip320)" d="M121.554 1454.1 Q117.943 1454.1 116.115 1457.66 Q114.309 1461.2 114.309 1468.33 Q114.309 1475.44 116.115 1479.01 Q117.943 1482.55 121.554 1482.55 Q125.189 1482.55 126.994 1479.01 Q128.823 1475.44 128.823 1468.33 Q128.823 1461.2 126.994 1457.66 Q125.189 1454.1 121.554 1454.1 M121.554 1450.39 Q127.364 1450.39 130.42 1455 Q133.499 1459.58 133.499 1468.33 Q133.499 1477.06 130.42 1481.67 Q127.364 1486.25 121.554 1486.25 Q115.744 1486.25 112.665 1481.67 Q109.61 1477.06 109.61 1468.33 Q109.61 1459.58 112.665 1455 Q115.744 1450.39 121.554 1450.39 Z" fill="#000000" fill-rule="evenodd" fill-opacity="1" /><path clip-path="url(#clip320)" d="M142.526 1481.64 L150.165 1481.64 L150.165 1455.28 L141.855 1456.95 L141.855 1452.69 L150.119 1451.02 L154.795 1451.02 L154.795 1481.64 L162.434 1481.64 L162.434 1485.58 L142.526 1485.58 L142.526 1481.64 Z" fill="#000000" fill-rule="evenodd" fill-opacity="1" /><path clip-path="url(#clip320)" d="M169.124 1470.7 L181.6 1470.7 L181.6 1474.49 L169.124 1474.49 L169.124 1470.7 Z" fill="#000000" fill-rule="evenodd" fill-opacity="1" /><path clip-path="url(#clip320)" d="M198.984 1454.1 Q195.373 1454.1 193.545 1457.66 Q191.739 1461.2 191.739 1468.33 Q191.739 1475.44 193.545 1479.01 Q195.373 1482.55 198.984 1482.55 Q202.619 1482.55 204.424 1479.01 Q206.253 1475.44 206.253 1468.33 Q206.253 1461.2 204.424 1457.66 Q202.619 1454.1 198.984 1454.1 M198.984 1450.39 Q204.795 1450.39 207.85 1455 Q210.929 1459.58 210.929 1468.33 Q210.929 1477.06 207.85 1481.67 Q204.795 1486.25 198.984 1486.25 Q193.174 1486.25 190.096 1481.67 Q187.04 1477.06 187.04 1468.33 Q187.04 1459.58 190.096 1455 Q193.174 1450.39 198.984 1450.39 Z" fill="#000000" fill-rule="evenodd" fill-opacity="1" /><path clip-path="url(#clip320)" d="M219.957 1481.64 L227.595 1481.64 L227.595 1455.28 L219.285 1456.95 L219.285 1452.69 L227.549 1451.02 L232.225 1451.02 L232.225 1481.64 L239.864 1481.64 L239.864 1485.58 L219.957 1485.58 L219.957 1481.64 Z" fill="#000000" fill-rule="evenodd" fill-opacity="1" /><path clip-path="url(#clip320)" d="M244.1 1451.02 L273.336 1451.02 L273.336 1454.96 L261.067 1454.96 L261.067 1485.58 L256.368 1485.58 L256.368 1454.96 L244.1 1454.96 L244.1 1451.02 Z" fill="#000000" fill-rule="evenodd" fill-opacity="1" /><path clip-path="url(#clip320)" d="M288.266 1454.1 Q284.655 1454.1 282.827 1457.66 Q281.021 1461.2 281.021 1468.33 Q281.021 1475.44 282.827 1479.01 Q284.655 1482.55 288.266 1482.55 Q291.901 1482.55 293.706 1479.01 Q295.535 1475.44 295.535 1468.33 Q295.535 1461.2 293.706 1457.66 Q291.901 1454.1 288.266 1454.1 M288.266 1450.39 Q294.077 1450.39 297.132 1455 Q300.211 1459.58 300.211 1468.33 Q300.211 1477.06 297.132 1481.67 Q294.077 1486.25 288.266 1486.25 Q282.456 1486.25 279.378 1481.67 Q276.322 1477.06 276.322 1468.33 Q276.322 1459.58 279.378 1455 Q282.456 1450.39 288.266 1450.39 Z" fill="#000000" fill-rule="evenodd" fill-opacity="1" /><path clip-path="url(#clip320)" d="M318.428 1454.1 Q314.817 1454.1 312.988 1457.66 Q311.183 1461.2 311.183 1468.33 Q311.183 1475.44 312.988 1479.01 Q314.817 1482.55 318.428 1482.55 Q322.063 1482.55 323.868 1479.01 Q325.697 1475.44 325.697 1468.33 Q325.697 1461.2 323.868 1457.66 Q322.063 1454.1 318.428 1454.1 M318.428 1450.39 Q324.238 1450.39 327.294 1455 Q330.373 1459.58 330.373 1468.33 Q330.373 1477.06 327.294 1481.67 Q324.238 1486.25 318.428 1486.25 Q312.618 1486.25 309.539 1481.67 Q306.484 1477.06 306.484 1468.33 Q306.484 1459.58 309.539 1455 Q312.618 1450.39 318.428 1450.39 Z" fill="#000000" fill-rule="evenodd" fill-opacity="1" /><path clip-path="url(#clip320)" d="M339.076 1479.7 L343.961 1479.7 L343.961 1485.58 L339.076 1485.58 L339.076 1479.7 M339.076 1461.07 L343.961 1461.07 L343.961 1466.95 L339.076 1466.95 L339.076 1461.07 Z" fill="#000000" fill-rule="evenodd" fill-opacity="1" /><path clip-path="url(#clip320)" d="M364.562 1454.1 Q360.951 1454.1 359.122 1457.66 Q357.317 1461.2 357.317 1468.33 Q357.317 1475.44 359.122 1479.01 Q360.951 1482.55 364.562 1482.55 Q368.197 1482.55 370.002 1479.01 Q371.831 1475.44 371.831 1468.33 Q371.831 1461.2 370.002 1457.66 Q368.197 1454.1 364.562 1454.1 M364.562 1450.39 Q370.372 1450.39 373.428 1455 Q376.507 1459.58 376.507 1468.33 Q376.507 1477.06 373.428 1481.67 Q370.372 1486.25 364.562 1486.25 Q358.752 1486.25 355.673 1481.67 Q352.618 1477.06 352.618 1468.33 Q352.618 1459.58 355.673 1455 Q358.752 1450.39 364.562 1450.39 Z" fill="#000000" fill-rule="evenodd" fill-opacity="1" /><path clip-path="url(#clip320)" d="M394.724 1454.1 Q391.113 1454.1 389.284 1457.66 Q387.479 1461.2 387.479 1468.33 Q387.479 1475.44 389.284 1479.01 Q391.113 1482.55 394.724 1482.55 Q398.358 1482.55 400.164 1479.01 Q401.993 1475.44 401.993 1468.33 Q401.993 1461.2 400.164 1457.66 Q398.358 1454.1 394.724 1454.1 M394.724 1450.39 Q400.534 1450.39 403.59 1455 Q406.669 1459.58 406.669 1468.33 Q406.669 1477.06 403.59 1481.67 Q400.534 1486.25 394.724 1486.25 Q388.914 1486.25 385.835 1481.67 Q382.78 1477.06 382.78 1468.33 Q382.78 1459.58 385.835 1455 Q388.914 1450.39 394.724 1450.39 Z" fill="#000000" fill-rule="evenodd" fill-opacity="1" /><path clip-path="url(#clip320)" d="M415.372 1479.7 L420.256 1479.7 L420.256 1485.58 L415.372 1485.58 L415.372 1479.7 M415.372 1461.07 L420.256 1461.07 L420.256 1466.95 L415.372 1466.95 L415.372 1461.07 Z" fill="#000000" fill-rule="evenodd" fill-opacity="1" /><path clip-path="url(#clip320)" d="M440.858 1454.1 Q437.247 1454.1 435.418 1457.66 Q433.613 1461.2 433.613 1468.33 Q433.613 1475.44 435.418 1479.01 Q437.247 1482.55 440.858 1482.55 Q444.492 1482.55 446.298 1479.01 Q448.127 1475.44 448.127 1468.33 Q448.127 1461.2 446.298 1457.66 Q444.492 1454.1 440.858 1454.1 M440.858 1450.39 Q446.668 1450.39 449.724 1455 Q452.803 1459.58 452.803 1468.33 Q452.803 1477.06 449.724 1481.67 Q446.668 1486.25 440.858 1486.25 Q435.048 1486.25 431.969 1481.67 Q428.914 1477.06 428.914 1468.33 Q428.914 1459.58 431.969 1455 Q435.048 1450.39 440.858 1450.39 Z" fill="#000000" fill-rule="evenodd" fill-opacity="1" /><path clip-path="url(#clip320)" d="M471.02 1454.1 Q467.409 1454.1 465.58 1457.66 Q463.775 1461.2 463.775 1468.33 Q463.775 1475.44 465.58 1479.01 Q467.409 1482.55 471.02 1482.55 Q474.654 1482.55 476.46 1479.01 Q478.289 1475.44 478.289 1468.33 Q478.289 1461.2 476.46 1457.66 Q474.654 1454.1 471.02 1454.1 M471.02 1450.39 Q476.83 1450.39 479.886 1455 Q482.964 1459.58 482.964 1468.33 Q482.964 1477.06 479.886 1481.67 Q476.83 1486.25 471.02 1486.25 Q465.21 1486.25 462.131 1481.67 Q459.076 1477.06 459.076 1468.33 Q459.076 1459.58 462.131 1455 Q465.21 1450.39 471.02 1450.39 Z" fill="#000000" fill-rule="evenodd" fill-opacity="1" /><path clip-path="url(#clip320)" d="M1715.78 1481.64 L1732.1 1481.64 L1732.1 1485.58 L1710.16 1485.58 L1710.16 1481.64 Q1712.82 1478.89 1717.4 1474.26 Q1722.01 1469.61 1723.19 1468.27 Q1725.44 1465.74 1726.31 1464.01 Q1727.22 1462.25 1727.22 1460.56 Q1727.22 1457.8 1725.27 1456.07 Q1723.35 1454.33 1720.25 1454.33 Q1718.05 1454.33 1715.6 1455.09 Q1713.17 1455.86 1710.39 1457.41 L1710.39 1452.69 Q1713.21 1451.55 1715.67 1450.97 Q1718.12 1450.39 1720.16 1450.39 Q1725.53 1450.39 1728.72 1453.08 Q1731.92 1455.77 1731.92 1460.26 Q1731.92 1462.39 1731.11 1464.31 Q1730.32 1466.2 1728.21 1468.8 Q1727.63 1469.47 1724.53 1472.69 Q1721.43 1475.88 1715.78 1481.64 Z" fill="#000000" fill-rule="evenodd" fill-opacity="1" /><path clip-path="url(#clip320)" d="M1751.92 1454.1 Q1748.31 1454.1 1746.48 1457.66 Q1744.67 1461.2 1744.67 1468.33 Q1744.67 1475.44 1746.48 1479.01 Q1748.31 1482.55 1751.92 1482.55 Q1755.55 1482.55 1757.36 1479.01 Q1759.19 1475.44 1759.19 1468.33 Q1759.19 1461.2 1757.36 1457.66 Q1755.55 1454.1 1751.92 1454.1 M1751.92 1450.39 Q1757.73 1450.39 1760.78 1455 Q1763.86 1459.58 1763.86 1468.33 Q1763.86 1477.06 1760.78 1481.67 Q1757.73 1486.25 1751.92 1486.25 Q1746.11 1486.25 1743.03 1481.67 Q1739.97 1477.06 1739.97 1468.33 Q1739.97 1459.58 1743.03 1455 Q1746.11 1450.39 1751.92 1450.39 Z" fill="#000000" fill-rule="evenodd" fill-opacity="1" /><path clip-path="url(#clip320)" d="M1776.11 1481.64 L1792.43 1481.64 L1792.43 1485.58 L1770.48 1485.58 L1770.48 1481.64 Q1773.14 1478.89 1777.73 1474.26 Q1782.33 1469.61 1783.51 1468.27 Q1785.76 1465.74 1786.64 1464.01 Q1787.54 1462.25 1787.54 1460.56 Q1787.54 1457.8 1785.6 1456.07 Q1783.68 1454.33 1780.57 1454.33 Q1778.37 1454.33 1775.92 1455.09 Q1773.49 1455.86 1770.71 1457.41 L1770.71 1452.69 Q1773.54 1451.55 1775.99 1450.97 Q1778.44 1450.39 1780.48 1450.39 Q1785.85 1450.39 1789.05 1453.08 Q1792.24 1455.77 1792.24 1460.26 Q1792.24 1462.39 1791.43 1464.31 Q1790.64 1466.2 1788.54 1468.8 Q1787.96 1469.47 1784.86 1472.69 Q1781.75 1475.88 1776.11 1481.64 Z" fill="#000000" fill-rule="evenodd" fill-opacity="1" /><path clip-path="url(#clip320)" d="M1812.24 1454.1 Q1808.63 1454.1 1806.8 1457.66 Q1805 1461.2 1805 1468.33 Q1805 1475.44 1806.8 1479.01 Q1808.63 1482.55 1812.24 1482.55 Q1815.87 1482.55 1817.68 1479.01 Q1819.51 1475.44 1819.51 1468.33 Q1819.51 1461.2 1817.68 1457.66 Q1815.87 1454.1 1812.24 1454.1 M1812.24 1450.39 Q1818.05 1450.39 1821.11 1455 Q1824.18 1459.58 1824.18 1468.33 Q1824.18 1477.06 1821.11 1481.67 Q1818.05 1486.25 1812.24 1486.25 Q1806.43 1486.25 1803.35 1481.67 Q1800.3 1477.06 1800.3 1468.33 Q1800.3 1459.58 1803.35 1455 Q1806.43 1450.39 1812.24 1450.39 Z" fill="#000000" fill-rule="evenodd" fill-opacity="1" /><path clip-path="url(#clip320)" d="M1829.65 1470.7 L1842.12 1470.7 L1842.12 1474.49 L1829.65 1474.49 L1829.65 1470.7 Z" fill="#000000" fill-rule="evenodd" fill-opacity="1" /><path clip-path="url(#clip320)" d="M1859.51 1454.1 Q1855.9 1454.1 1854.07 1457.66 Q1852.26 1461.2 1852.26 1468.33 Q1852.26 1475.44 1854.07 1479.01 Q1855.9 1482.55 1859.51 1482.55 Q1863.14 1482.55 1864.95 1479.01 Q1866.78 1475.44 1866.78 1468.33 Q1866.78 1461.2 1864.95 1457.66 Q1863.14 1454.1 1859.51 1454.1 M1859.51 1450.39 Q1865.32 1450.39 1868.37 1455 Q1871.45 1459.58 1871.45 1468.33 Q1871.45 1477.06 1868.37 1481.67 Q1865.32 1486.25 1859.51 1486.25 Q1853.7 1486.25 1850.62 1481.67 Q1847.56 1477.06 1847.56 1468.33 Q1847.56 1459.58 1850.62 1455 Q1853.7 1450.39 1859.51 1450.39 Z" fill="#000000" fill-rule="evenodd" fill-opacity="1" /><path clip-path="url(#clip320)" d="M1880.48 1481.64 L1888.12 1481.64 L1888.12 1455.28 L1879.81 1456.95 L1879.81 1452.69 L1888.07 1451.02 L1892.75 1451.02 L1892.75 1481.64 L1900.39 1481.64 L1900.39 1485.58 L1880.48 1485.58 L1880.48 1481.64 Z" fill="#000000" fill-rule="evenodd" fill-opacity="1" /><path clip-path="url(#clip320)" d="M1907.08 1470.7 L1919.55 1470.7 L1919.55 1474.49 L1907.08 1474.49 L1907.08 1470.7 Z" fill="#000000" fill-rule="evenodd" fill-opacity="1" /><path clip-path="url(#clip320)" d="M1936.94 1454.1 Q1933.33 1454.1 1931.5 1457.66 Q1929.69 1461.2 1929.69 1468.33 Q1929.69 1475.44 1931.5 1479.01 Q1933.33 1482.55 1936.94 1482.55 Q1940.57 1482.55 1942.38 1479.01 Q1944.21 1475.44 1944.21 1468.33 Q1944.21 1461.2 1942.38 1457.66 Q1940.57 1454.1 1936.94 1454.1 M1936.94 1450.39 Q1942.75 1450.39 1945.8 1455 Q1948.88 1459.58 1948.88 1468.33 Q1948.88 1477.06 1945.8 1481.67 Q1942.75 1486.25 1936.94 1486.25 Q1931.13 1486.25 1928.05 1481.67 Q1924.99 1477.06 1924.99 1468.33 Q1924.99 1459.58 1928.05 1455 Q1931.13 1450.39 1936.94 1450.39 Z" fill="#000000" fill-rule="evenodd" fill-opacity="1" /><path clip-path="url(#clip320)" d="M1961.13 1481.64 L1977.45 1481.64 L1977.45 1485.58 L1955.5 1485.58 L1955.5 1481.64 Q1958.17 1478.89 1962.75 1474.26 Q1967.36 1469.61 1968.54 1468.27 Q1970.78 1465.74 1971.66 1464.01 Q1972.56 1462.25 1972.56 1460.56 Q1972.56 1457.8 1970.62 1456.07 Q1968.7 1454.33 1965.6 1454.33 Q1963.4 1454.33 1960.94 1455.09 Q1958.51 1455.86 1955.74 1457.41 L1955.74 1452.69 Q1958.56 1451.55 1961.01 1450.97 Q1963.47 1450.39 1965.5 1450.39 Q1970.87 1450.39 1974.07 1453.08 Q1977.26 1455.77 1977.26 1460.26 Q1977.26 1462.39 1976.45 1464.31 Q1975.67 1466.2 1973.56 1468.8 Q1972.98 1469.47 1969.88 1472.69 Q1966.78 1475.88 1961.13 1481.64 Z" fill="#000000" fill-rule="evenodd" fill-opacity="1" /><path clip-path="url(#clip320)" d="M1982.05 1451.02 L2011.29 1451.02 L2011.29 1454.96 L1999.02 1454.96 L1999.02 1485.58 L1994.32 1485.58 L1994.32 1454.96 L1982.05 1454.96 L1982.05 1451.02 Z" fill="#000000" fill-rule="evenodd" fill-opacity="1" /><path clip-path="url(#clip320)" d="M2020.25 1481.64 L2036.57 1481.64 L2036.57 1485.58 L2014.62 1485.58 L2014.62 1481.64 Q2017.29 1478.89 2021.87 1474.26 Q2026.48 1469.61 2027.66 1468.27 Q2029.9 1465.74 2030.78 1464.01 Q2031.68 1462.25 2031.68 1460.56 Q2031.68 1457.8 2029.74 1456.07 Q2027.82 1454.33 2024.72 1454.33 Q2022.52 1454.33 2020.06 1455.09 Q2017.63 1455.86 2014.86 1457.41 L2014.86 1452.69 Q2017.68 1451.55 2020.13 1450.97 Q2022.59 1450.39 2024.62 1450.39 Q2029.99 1450.39 2033.19 1453.08 Q2036.38 1455.77 2036.38 1460.26 Q2036.38 1462.39 2035.57 1464.31 Q2034.79 1466.2 2032.68 1468.8 Q2032.1 1469.47 2029 1472.69 Q2025.9 1475.88 2020.25 1481.64 Z" fill="#000000" fill-rule="evenodd" fill-opacity="1" /><path clip-path="url(#clip320)" d="M2060.55 1466.95 Q2063.91 1467.66 2065.78 1469.93 Q2067.68 1472.2 2067.68 1475.53 Q2067.68 1480.65 2064.16 1483.45 Q2060.64 1486.25 2054.16 1486.25 Q2051.98 1486.25 2049.67 1485.81 Q2047.38 1485.39 2044.92 1484.54 L2044.92 1480.02 Q2046.87 1481.16 2049.18 1481.74 Q2051.5 1482.32 2054.02 1482.32 Q2058.42 1482.32 2060.71 1480.58 Q2063.03 1478.84 2063.03 1475.53 Q2063.03 1472.48 2060.87 1470.77 Q2058.74 1469.03 2054.92 1469.03 L2050.9 1469.03 L2050.9 1465.19 L2055.11 1465.19 Q2058.56 1465.19 2060.39 1463.82 Q2062.22 1462.43 2062.22 1459.84 Q2062.22 1457.18 2060.32 1455.77 Q2058.44 1454.33 2054.92 1454.33 Q2053 1454.33 2050.8 1454.75 Q2048.6 1455.16 2045.97 1456.04 L2045.97 1451.88 Q2048.63 1451.14 2050.94 1450.77 Q2053.28 1450.39 2055.34 1450.39 Q2060.67 1450.39 2063.77 1452.83 Q2066.87 1455.23 2066.87 1459.35 Q2066.87 1462.22 2065.23 1464.21 Q2063.58 1466.18 2060.55 1466.95 Z" fill="#000000" fill-rule="evenodd" fill-opacity="1" /><path clip-path="url(#clip320)" d="M2077.03 1479.7 L2081.91 1479.7 L2081.91 1485.58 L2077.03 1485.58 L2077.03 1479.7 M2077.03 1461.07 L2081.91 1461.07 L2081.91 1466.95 L2077.03 1466.95 L2077.03 1461.07 Z" fill="#000000" fill-rule="evenodd" fill-opacity="1" /><path clip-path="url(#clip320)" d="M2102.52 1454.1 Q2098.91 1454.1 2097.08 1457.66 Q2095.27 1461.2 2095.27 1468.33 Q2095.27 1475.44 2097.08 1479.01 Q2098.91 1482.55 2102.52 1482.55 Q2106.15 1482.55 2107.96 1479.01 Q2109.79 1475.44 2109.79 1468.33 Q2109.79 1461.2 2107.96 1457.66 Q2106.15 1454.1 2102.52 1454.1 M2102.52 1450.39 Q2108.33 1450.39 2111.38 1455 Q2114.46 1459.58 2114.46 1468.33 Q2114.46 1477.06 2111.38 1481.67 Q2108.33 1486.25 2102.52 1486.25 Q2096.71 1486.25 2093.63 1481.67 Q2090.57 1477.06 2090.57 1468.33 Q2090.57 1459.58 2093.63 1455 Q2096.71 1450.39 2102.52 1450.39 Z" fill="#000000" fill-rule="evenodd" fill-opacity="1" /><path clip-path="url(#clip320)" d="M2132.68 1454.1 Q2129.07 1454.1 2127.24 1457.66 Q2125.43 1461.2 2125.43 1468.33 Q2125.43 1475.44 2127.24 1479.01 Q2129.07 1482.55 2132.68 1482.55 Q2136.31 1482.55 2138.12 1479.01 Q2139.95 1475.44 2139.95 1468.33 Q2139.95 1461.2 2138.12 1457.66 Q2136.31 1454.1 2132.68 1454.1 M2132.68 1450.39 Q2138.49 1450.39 2141.54 1455 Q2144.62 1459.58 2144.62 1468.33 Q2144.62 1477.06 2141.54 1481.67 Q2138.49 1486.25 2132.68 1486.25 Q2126.87 1486.25 2123.79 1481.67 Q2120.73 1477.06 2120.73 1468.33 Q2120.73 1459.58 2123.79 1455 Q2126.87 1450.39 2132.68 1450.39 Z" fill="#000000" fill-rule="evenodd" fill-opacity="1" /><path clip-path="url(#clip320)" d="M2153.33 1479.7 L2158.21 1479.7 L2158.21 1485.58 L2153.33 1485.58 L2153.33 1479.7 M2153.33 1461.07 L2158.21 1461.07 L2158.21 1466.95 L2153.33 1466.95 L2153.33 1461.07 Z" fill="#000000" fill-rule="evenodd" fill-opacity="1" /><path clip-path="url(#clip320)" d="M2178.81 1454.1 Q2175.2 1454.1 2173.37 1457.66 Q2171.57 1461.2 2171.57 1468.33 Q2171.57 1475.44 2173.37 1479.01 Q2175.2 1482.55 2178.81 1482.55 Q2182.45 1482.55 2184.25 1479.01 Q2186.08 1475.44 2186.08 1468.33 Q2186.08 1461.2 2184.25 1457.66 Q2182.45 1454.1 2178.81 1454.1 M2178.81 1450.39 Q2184.62 1450.39 2187.68 1455 Q2190.76 1459.58 2190.76 1468.33 Q2190.76 1477.06 2187.68 1481.67 Q2184.62 1486.25 2178.81 1486.25 Q2173 1486.25 2169.92 1481.67 Q2166.87 1477.06 2166.87 1468.33 Q2166.87 1459.58 2169.92 1455 Q2173 1450.39 2178.81 1450.39 Z" fill="#000000" fill-rule="evenodd" fill-opacity="1" /><path clip-path="url(#clip320)" d="M2208.97 1454.1 Q2205.36 1454.1 2203.53 1457.66 Q2201.73 1461.2 2201.73 1468.33 Q2201.73 1475.44 2203.53 1479.01 Q2205.36 1482.55 2208.97 1482.55 Q2212.61 1482.55 2214.41 1479.01 Q2216.24 1475.44 2216.24 1468.33 Q2216.24 1461.2 2214.41 1457.66 Q2212.61 1454.1 2208.97 1454.1 M2208.97 1450.39 Q2214.78 1450.39 2217.84 1455 Q2220.92 1459.58 2220.92 1468.33 Q2220.92 1477.06 2217.84 1481.67 Q2214.78 1486.25 2208.97 1486.25 Q2203.16 1486.25 2200.09 1481.67 Q2197.03 1477.06 2197.03 1468.33 Q2197.03 1459.58 2200.09 1455 Q2203.16 1450.39 2208.97 1450.39 Z" fill="#000000" fill-rule="evenodd" fill-opacity="1" /><path clip-path="url(#clip320)" d="M1000.25 1562.63 L1022.69 1562.63 L1022.69 1568.04 L992.514 1568.04 L992.514 1562.63 Q996.174 1558.85 1002.48 1552.48 Q1008.81 1546.08 1010.43 1544.24 Q1013.52 1540.77 1014.73 1538.38 Q1015.97 1535.96 1015.97 1533.64 Q1015.97 1529.85 1013.3 1527.46 Q1010.66 1525.08 1006.39 1525.08 Q1003.37 1525.08 999.993 1526.13 Q996.651 1527.18 992.832 1529.31 L992.832 1522.82 Q996.715 1521.26 1000.09 1520.46 Q1003.46 1519.66 1006.26 1519.66 Q1013.65 1519.66 1018.04 1523.36 Q1022.43 1527.05 1022.43 1533.22 Q1022.43 1536.15 1021.32 1538.79 Q1020.24 1541.4 1017.34 1544.97 Q1016.54 1545.89 1012.28 1550.32 Q1008.01 1554.71 1000.25 1562.63 Z" fill="#000000" fill-rule="evenodd" fill-opacity="1" /><path clip-path="url(#clip320)" d="M1079.53 1537.81 L1079.53 1518.52 L1085.39 1518.52 L1085.39 1568.04 L1079.53 1568.04 L1079.53 1562.7 Q1077.69 1565.88 1074.85 1567.44 Q1072.05 1568.97 1068.11 1568.97 Q1061.65 1568.97 1057.57 1563.81 Q1053.53 1558.65 1053.53 1550.25 Q1053.53 1541.85 1057.57 1536.69 Q1061.65 1531.54 1068.11 1531.54 Q1072.05 1531.54 1074.85 1533.1 Q1077.69 1534.62 1079.53 1537.81 M1059.58 1550.25 Q1059.58 1556.71 1062.22 1560.4 Q1064.89 1564.07 1069.54 1564.07 Q1074.19 1564.07 1076.86 1560.4 Q1079.53 1556.71 1079.53 1550.25 Q1079.53 1543.79 1076.86 1540.13 Q1074.19 1536.44 1069.54 1536.44 Q1064.89 1536.44 1062.22 1540.13 Q1059.58 1543.79 1059.58 1550.25 Z" fill="#000000" fill-rule="evenodd" fill-opacity="1" /><path clip-path="url(#clip320)" d="M1113.65 1550.12 Q1106.56 1550.12 1103.82 1551.75 Q1101.08 1553.37 1101.08 1557.29 Q1101.08 1560.4 1103.12 1562.25 Q1105.19 1564.07 1108.72 1564.07 Q1113.59 1564.07 1116.52 1560.63 Q1119.48 1557.16 1119.48 1551.43 L1119.48 1550.12 L1113.65 1550.12 M1125.33 1547.71 L1125.33 1568.04 L1119.48 1568.04 L1119.48 1562.63 Q1117.47 1565.88 1114.48 1567.44 Q1111.49 1568.97 1107.16 1568.97 Q1101.69 1568.97 1098.44 1565.91 Q1095.22 1562.82 1095.22 1557.67 Q1095.22 1551.65 1099.23 1548.6 Q1103.28 1545.54 1111.27 1545.54 L1119.48 1545.54 L1119.48 1544.97 Q1119.48 1540.93 1116.8 1538.73 Q1114.16 1536.5 1109.36 1536.5 Q1106.3 1536.5 1103.4 1537.23 Q1100.51 1537.97 1097.83 1539.43 L1097.83 1534.02 Q1101.05 1532.78 1104.07 1532.17 Q1107.1 1531.54 1109.96 1531.54 Q1117.7 1531.54 1121.51 1535.55 Q1125.33 1539.56 1125.33 1547.71 Z" fill="#000000" fill-rule="evenodd" fill-opacity="1" /><path clip-path="url(#clip320)" d="M1152.23 1571.35 Q1149.75 1577.72 1147.39 1579.66 Q1145.04 1581.6 1141.09 1581.6 L1136.41 1581.6 L1136.41 1576.7 L1139.85 1576.7 Q1142.27 1576.7 1143.6 1575.56 Q1144.94 1574.41 1146.56 1570.14 L1147.61 1567.47 L1133.2 1532.4 L1139.4 1532.4 L1150.54 1560.28 L1161.68 1532.4 L1167.89 1532.4 L1152.23 1571.35 Z" fill="#000000" fill-rule="evenodd" fill-opacity="1" /><path clip-path="url(#clip320)" d="M1198.7 1533.45 L1198.7 1538.98 Q1196.22 1537.71 1193.54 1537.07 Q1190.87 1536.44 1188 1536.44 Q1183.64 1536.44 1181.45 1537.77 Q1179.28 1539.11 1179.28 1541.79 Q1179.28 1543.82 1180.84 1545 Q1182.4 1546.15 1187.11 1547.2 L1189.12 1547.64 Q1195.36 1548.98 1197.97 1551.43 Q1200.61 1553.85 1200.61 1558.21 Q1200.61 1563.17 1196.66 1566.07 Q1192.75 1568.97 1185.87 1568.97 Q1183.01 1568.97 1179.89 1568.39 Q1176.8 1567.85 1173.36 1566.74 L1173.36 1560.69 Q1176.61 1562.38 1179.76 1563.24 Q1182.91 1564.07 1186 1564.07 Q1190.14 1564.07 1192.36 1562.66 Q1194.59 1561.23 1194.59 1558.65 Q1194.59 1556.27 1192.97 1554.99 Q1191.38 1553.72 1185.94 1552.54 L1183.9 1552.07 Q1178.46 1550.92 1176.04 1548.56 Q1173.62 1546.18 1173.62 1542.04 Q1173.62 1537.01 1177.18 1534.27 Q1180.75 1531.54 1187.3 1531.54 Q1190.55 1531.54 1193.42 1532.01 Q1196.28 1532.49 1198.7 1533.45 Z" fill="#000000" fill-rule="evenodd" fill-opacity="1" /><polyline clip-path="url(#clip320)" style="stroke:#000000; stroke-linecap:butt; stroke-linejoin:round; stroke-width:4; stroke-opacity:1; fill:none" points="
  175.445,1423.18 175.445,123.472 
  "/>
<polyline clip-path="url(#clip320)" style="stroke:#000000; stroke-linecap:butt; stroke-linejoin:round; stroke-width:4; stroke-opacity:1; fill:none" points="
  175.445,1423.18 191.435,1423.18 
  "/>
<polyline clip-path="url(#clip320)" style="stroke:#000000; stroke-linecap:butt; stroke-linejoin:round; stroke-width:4; stroke-opacity:1; fill:none" points="
  175.445,1130.44 191.435,1130.44 
  "/>
<polyline clip-path="url(#clip320)" style="stroke:#000000; stroke-linecap:butt; stroke-linejoin:round; stroke-width:4; stroke-opacity:1; fill:none" points="
  175.445,837.707 191.435,837.707 
  "/>
<polyline clip-path="url(#clip320)" style="stroke:#000000; stroke-linecap:butt; stroke-linejoin:round; stroke-width:4; stroke-opacity:1; fill:none" points="
  175.445,544.971 191.435,544.971 
  "/>
<polyline clip-path="url(#clip320)" style="stroke:#000000; stroke-linecap:butt; stroke-linejoin:round; stroke-width:4; stroke-opacity:1; fill:none" points="
  175.445,252.235 191.435,252.235 
  "/>
<path clip-path="url(#clip320)" d="M127.501 1408.98 Q123.89 1408.98 122.061 1412.54 Q120.255 1416.08 120.255 1423.21 Q120.255 1430.32 122.061 1433.89 Q123.89 1437.43 127.501 1437.43 Q131.135 1437.43 132.941 1433.89 Q134.769 1430.32 134.769 1423.21 Q134.769 1416.08 132.941 1412.54 Q131.135 1408.98 127.501 1408.98 M127.501 1405.27 Q133.311 1405.27 136.367 1409.88 Q139.445 1414.46 139.445 1423.21 Q139.445 1431.94 136.367 1436.55 Q133.311 1441.13 127.501 1441.13 Q121.691 1441.13 118.612 1436.55 Q115.556 1431.94 115.556 1423.21 Q115.556 1414.46 118.612 1409.88 Q121.691 1405.27 127.501 1405.27 Z" fill="#000000" fill-rule="evenodd" fill-opacity="1" /><path clip-path="url(#clip320)" d="M123.126 1143.79 L139.445 1143.79 L139.445 1147.72 L117.501 1147.72 L117.501 1143.79 Q120.163 1141.03 124.746 1136.4 Q129.353 1131.75 130.533 1130.41 Q132.779 1127.89 133.658 1126.15 Q134.561 1124.39 134.561 1122.7 Q134.561 1119.95 132.617 1118.21 Q130.695 1116.47 127.593 1116.47 Q125.394 1116.47 122.941 1117.24 Q120.51 1118 117.732 1119.55 L117.732 1114.83 Q120.556 1113.7 123.01 1113.12 Q125.464 1112.54 127.501 1112.54 Q132.871 1112.54 136.066 1115.22 Q139.26 1117.91 139.26 1122.4 Q139.26 1124.53 138.45 1126.45 Q137.663 1128.35 135.556 1130.94 Q134.978 1131.61 131.876 1134.83 Q128.774 1138.02 123.126 1143.79 Z" fill="#000000" fill-rule="evenodd" fill-opacity="1" /><path clip-path="url(#clip320)" d="M129.862 824.501 L118.056 842.95 L129.862 842.95 L129.862 824.501 M128.635 820.427 L134.515 820.427 L134.515 842.95 L139.445 842.95 L139.445 846.839 L134.515 846.839 L134.515 854.987 L129.862 854.987 L129.862 846.839 L114.26 846.839 L114.26 842.325 L128.635 820.427 Z" fill="#000000" fill-rule="evenodd" fill-opacity="1" /><path clip-path="url(#clip320)" d="M127.917 543.108 Q124.769 543.108 122.918 545.261 Q121.089 547.413 121.089 551.163 Q121.089 554.89 122.918 557.066 Q124.769 559.219 127.917 559.219 Q131.066 559.219 132.894 557.066 Q134.746 554.89 134.746 551.163 Q134.746 547.413 132.894 545.261 Q131.066 543.108 127.917 543.108 M137.2 528.455 L137.2 532.714 Q135.441 531.881 133.635 531.441 Q131.853 531.001 130.093 531.001 Q125.464 531.001 123.01 534.126 Q120.58 537.251 120.232 543.571 Q121.598 541.557 123.658 540.492 Q125.718 539.404 128.195 539.404 Q133.404 539.404 136.413 542.575 Q139.445 545.723 139.445 551.163 Q139.445 556.487 136.297 559.705 Q133.149 562.922 127.917 562.922 Q121.922 562.922 118.751 558.339 Q115.58 553.733 115.58 545.006 Q115.58 536.812 119.468 531.95 Q123.357 527.066 129.908 527.066 Q131.667 527.066 133.45 527.413 Q135.255 527.761 137.2 528.455 Z" fill="#000000" fill-rule="evenodd" fill-opacity="1" /><path clip-path="url(#clip320)" d="M127.593 253.103 Q124.26 253.103 122.339 254.885 Q120.441 256.668 120.441 259.793 Q120.441 262.918 122.339 264.7 Q124.26 266.483 127.593 266.483 Q130.927 266.483 132.848 264.7 Q134.769 262.895 134.769 259.793 Q134.769 256.668 132.848 254.885 Q130.95 253.103 127.593 253.103 M122.918 251.112 Q119.908 250.372 118.218 248.311 Q116.552 246.251 116.552 243.288 Q116.552 239.145 119.492 236.737 Q122.455 234.33 127.593 234.33 Q132.755 234.33 135.695 236.737 Q138.635 239.145 138.635 243.288 Q138.635 246.251 136.945 248.311 Q135.279 250.372 132.292 251.112 Q135.672 251.899 137.547 254.191 Q139.445 256.483 139.445 259.793 Q139.445 264.816 136.367 267.501 Q133.311 270.186 127.593 270.186 Q121.876 270.186 118.797 267.501 Q115.742 264.816 115.742 259.793 Q115.742 256.483 117.64 254.191 Q119.538 251.899 122.918 251.112 M121.205 243.728 Q121.205 246.413 122.871 247.918 Q124.561 249.422 127.593 249.422 Q130.603 249.422 132.292 247.918 Q134.005 246.413 134.005 243.728 Q134.005 241.043 132.292 239.538 Q130.603 238.034 127.593 238.034 Q124.561 238.034 122.871 239.538 Q121.205 241.043 121.205 243.728 Z" fill="#000000" fill-rule="evenodd" fill-opacity="1" /><path clip-path="url(#clip320)" d="M16.4842 829.408 L16.4842 819.827 L48.8219 807.701 L16.4842 795.51 L16.4842 785.93 L64.0042 785.93 L64.0042 792.2 L22.277 792.2 L54.8694 804.454 L54.8694 810.915 L22.277 823.169 L64.0042 823.169 L64.0042 829.408 L16.4842 829.408 Z" fill="#000000" fill-rule="evenodd" fill-opacity="1" /><path clip-path="url(#clip320)" d="M16.4842 777.4 L16.4842 770.907 L56.6518 760.913 L16.4842 750.951 L16.4842 743.725 L56.6518 733.731 L16.4842 723.769 L16.4842 717.244 L64.0042 729.18 L64.0042 737.264 L22.7544 747.29 L64.0042 757.412 L64.0042 765.496 L16.4842 777.4 Z" fill="#000000" fill-rule="evenodd" fill-opacity="1" /><path clip-path="url(#clip320)" d="M936.672 18.8205 L936.672 65.8515 L946.556 65.8515 Q959.073 65.8515 964.866 60.1802 Q970.699 54.509 970.699 42.2752 Q970.699 30.1225 964.866 24.4918 Q959.073 18.8205 946.556 18.8205 L936.672 18.8205 M928.489 12.096 L945.3 12.096 Q962.881 12.096 971.105 19.4281 Q979.328 26.7198 979.328 42.2752 Q979.328 57.9117 971.064 65.2439 Q962.8 72.576 945.3 72.576 L928.489 72.576 L928.489 12.096 Z" fill="#000000" fill-rule="evenodd" fill-opacity="1" /><path clip-path="url(#clip320)" d="M1030.86 48.0275 L1030.86 51.6733 L996.585 51.6733 Q997.071 59.3701 1001.2 63.421 Q1005.38 67.4314 1012.79 67.4314 Q1017.08 67.4314 1021.09 66.3781 Q1025.14 65.3249 1029.11 63.2184 L1029.11 70.267 Q1025.1 71.9684 1020.89 72.8596 Q1016.68 73.7508 1012.34 73.7508 Q1001.49 73.7508 995.126 67.4314 Q988.807 61.1119 988.807 50.3365 Q988.807 39.1965 994.802 32.6746 Q1000.84 26.1121 1011.05 26.1121 Q1020.2 26.1121 1025.51 32.0264 Q1030.86 37.9003 1030.86 48.0275 M1023.4 45.84 Q1023.32 39.7232 1019.96 36.0774 Q1016.64 32.4315 1011.13 32.4315 Q1004.89 32.4315 1001.12 35.9558 Q997.395 39.4801 996.828 45.8805 L1023.4 45.84 Z" fill="#000000" fill-rule="evenodd" fill-opacity="1" /><path clip-path="url(#clip320)" d="M1078.41 35.9153 Q1081.21 30.8922 1085.1 28.5022 Q1088.99 26.1121 1094.25 26.1121 Q1101.34 26.1121 1105.19 31.0947 Q1109.04 36.0368 1109.04 45.1919 L1109.04 72.576 L1101.54 72.576 L1101.54 45.4349 Q1101.54 38.913 1099.23 35.7533 Q1096.93 32.5936 1092.19 32.5936 Q1086.39 32.5936 1083.03 36.4419 Q1079.67 40.2903 1079.67 46.9338 L1079.67 72.576 L1072.17 72.576 L1072.17 45.4349 Q1072.17 38.8725 1069.87 35.7533 Q1067.56 32.5936 1062.74 32.5936 Q1057.02 32.5936 1053.66 36.4824 Q1050.3 40.3308 1050.3 46.9338 L1050.3 72.576 L1042.81 72.576 L1042.81 27.2059 L1050.3 27.2059 L1050.3 34.2544 Q1052.85 30.082 1056.42 28.0971 Q1059.98 26.1121 1064.88 26.1121 Q1069.83 26.1121 1073.27 28.6237 Q1076.75 31.1352 1078.41 35.9153 Z" fill="#000000" fill-rule="evenodd" fill-opacity="1" /><path clip-path="url(#clip320)" d="M1144.52 49.7694 Q1135.49 49.7694 1132.01 51.8354 Q1128.52 53.9013 1128.52 58.8839 Q1128.52 62.8538 1131.12 65.2034 Q1133.75 67.5124 1138.24 67.5124 Q1144.44 67.5124 1148.17 63.1374 Q1151.94 58.7219 1151.94 51.4303 L1151.94 49.7694 L1144.52 49.7694 M1159.39 46.6907 L1159.39 72.576 L1151.94 72.576 L1151.94 65.6895 Q1149.38 69.8214 1145.58 71.8063 Q1141.77 73.7508 1136.26 73.7508 Q1129.29 73.7508 1125.16 69.8619 Q1121.07 65.9325 1121.07 59.3701 Q1121.07 51.7138 1126.17 47.825 Q1131.32 43.9361 1141.49 43.9361 L1151.94 43.9361 L1151.94 43.2069 Q1151.94 38.0623 1148.53 35.2672 Q1145.17 32.4315 1139.06 32.4315 Q1135.17 32.4315 1131.48 33.3632 Q1127.79 34.295 1124.39 36.1584 L1124.39 29.2718 Q1128.48 27.692 1132.33 26.9223 Q1136.18 26.1121 1139.82 26.1121 Q1149.67 26.1121 1154.53 31.2163 Q1159.39 36.3204 1159.39 46.6907 Z" fill="#000000" fill-rule="evenodd" fill-opacity="1" /><path clip-path="url(#clip320)" d="M1212.46 45.1919 L1212.46 72.576 L1205 72.576 L1205 45.4349 Q1205 38.994 1202.49 35.7938 Q1199.98 32.5936 1194.96 32.5936 Q1188.92 32.5936 1185.44 36.4419 Q1181.95 40.2903 1181.95 46.9338 L1181.95 72.576 L1174.46 72.576 L1174.46 27.2059 L1181.95 27.2059 L1181.95 34.2544 Q1184.63 30.163 1188.23 28.1376 Q1191.88 26.1121 1196.62 26.1121 Q1204.44 26.1121 1208.45 30.9732 Q1212.46 35.7938 1212.46 45.1919 Z" fill="#000000" fill-rule="evenodd" fill-opacity="1" /><path clip-path="url(#clip320)" d="M1257.18 34.0924 L1257.18 9.54393 L1264.63 9.54393 L1264.63 72.576 L1257.18 72.576 L1257.18 65.7705 Q1254.83 69.8214 1251.22 71.8063 Q1247.66 73.7508 1242.64 73.7508 Q1234.41 73.7508 1229.23 67.1883 Q1224.08 60.6258 1224.08 49.9314 Q1224.08 39.2371 1229.23 32.6746 Q1234.41 26.1121 1242.64 26.1121 Q1247.66 26.1121 1251.22 28.0971 Q1254.83 30.0415 1257.18 34.0924 M1231.78 49.9314 Q1231.78 58.1548 1235.14 62.8538 Q1238.55 67.5124 1244.46 67.5124 Q1250.37 67.5124 1253.78 62.8538 Q1257.18 58.1548 1257.18 49.9314 Q1257.18 41.7081 1253.78 37.0496 Q1250.37 32.3505 1244.46 32.3505 Q1238.55 32.3505 1235.14 37.0496 Q1231.78 41.7081 1231.78 49.9314 Z" fill="#000000" fill-rule="evenodd" fill-opacity="1" /><polyline clip-path="url(#clip322)" style="stroke:#636875; stroke-linecap:butt; stroke-linejoin:round; stroke-width:4; stroke-opacity:1; fill:none" points="
  227.584,555.45 264.562,627.281 301.539,678.96 338.517,710.104 375.495,715.389 412.473,695.53 449.45,608.455 486.428,454.786 523.406,297.872 560.384,230.898 
  597.361,200.292 634.339,181.949 671.317,166.22 708.295,197.274 745.272,227.587 782.25,247.22 819.228,251.815 856.206,212.583 893.183,123.472 930.161,133.024 
  967.139,217.826 1004.12,307.798 1041.09,408.792 1078.07,491.744 1115.05,525.169 1152.03,586.837 1189.01,653.244 1225.98,690.602 1262.96,703.859 1299.94,705.501 
  1336.92,677.461 1373.89,608.376 1410.87,523.8 1447.85,440.593 1484.83,374.776 1521.81,350.89 1558.78,339.293 1595.76,363.548 1632.74,395.896 1669.72,410.48 
  1706.69,394.791 1743.67,318.506 1780.65,185.029 1817.63,198.111 1854.6,294.629 1891.58,374.281 1928.56,452.467 1965.54,525.344 
  "/>
<path clip-path="url(#clip320)" d="
M2090.25 799.246 L2352.76 799.246 L2352.76 695.566 L2090.25 695.566  Z
  " fill="#ffffff" fill-rule="evenodd" fill-opacity="1"/>
<polyline clip-path="url(#clip320)" style="stroke:#000000; stroke-linecap:butt; stroke-linejoin:round; stroke-width:4; stroke-opacity:1; fill:none" points="
  2090.25,799.246 2352.76,799.246 2352.76,695.566 2090.25,695.566 2090.25,799.246 
  "/>
<polyline clip-path="url(#clip320)" style="stroke:#636875; stroke-linecap:butt; stroke-linejoin:round; stroke-width:4; stroke-opacity:1; fill:none" points="
  2114.45,747.406 2259.6,747.406 
  "/>
<path clip-path="url(#clip320)" d="M2284.46 760.751 L2292.1 760.751 L2292.1 734.385 L2283.79 736.052 L2283.79 731.793 L2292.06 730.126 L2296.73 730.126 L2296.73 760.751 L2304.37 760.751 L2304.37 764.686 L2284.46 764.686 L2284.46 760.751 Z" fill="#000000" fill-rule="evenodd" fill-opacity="1" /></svg>
