<?xml version="1.0" encoding="utf-8"?>
<svg xmlns="http://www.w3.org/2000/svg" xmlns:xlink="http://www.w3.org/1999/xlink" width="600" height="400" viewBox="0 0 2400 1600">
<defs>
  <clipPath id="clip100">
    <rect x="0" y="0" width="2400" height="1600"/>
  </clipPath>
</defs>
<path clip-path="url(#clip100)" d="
M0 1600 L2400 1600 L2400 0 L0 0  Z
  " fill="#ffffff" fill-rule="evenodd" fill-opacity="1"/>
<defs>
  <clipPath id="clip101">
    <rect x="480" y="0" width="1681" height="1600"/>
  </clipPath>
</defs>
<path clip-path="url(#clip100)" d="
M305.618 1423.18 L2352.76 1423.18 L2352.76 123.472 L305.618 123.472  Z
  " fill="#ffffff" fill-rule="evenodd" fill-opacity="1"/>
<defs>
  <clipPath id="clip102">
    <rect x="305" y="123" width="2048" height="1301"/>
  </clipPath>
</defs>
<polyline clip-path="url(#clip100)" style="stroke:#000000; stroke-linecap:butt; stroke-linejoin:round; stroke-width:4; stroke-opacity:1; fill:none" points="
  305.618,1423.18 2352.76,1423.18 
  "/>
<polyline clip-path="url(#clip100)" style="stroke:#000000; stroke-linecap:butt; stroke-linejoin:round; stroke-width:4; stroke-opacity:1; fill:none" points="
  570.043,1423.18 570.043,1404.28 
  "/>
<polyline clip-path="url(#clip100)" style="stroke:#000000; stroke-linecap:butt; stroke-linejoin:round; stroke-width:4; stroke-opacity:1; fill:none" points="
  949.615,1423.18 949.615,1404.28 
  "/>
<polyline clip-path="url(#clip100)" style="stroke:#000000; stroke-linecap:butt; stroke-linejoin:round; stroke-width:4; stroke-opacity:1; fill:none" points="
  1329.19,1423.18 1329.19,1404.28 
  "/>
<polyline clip-path="url(#clip100)" style="stroke:#000000; stroke-linecap:butt; stroke-linejoin:round; stroke-width:4; stroke-opacity:1; fill:none" points="
  1708.76,1423.18 1708.76,1404.28 
  "/>
<polyline clip-path="url(#clip100)" style="stroke:#000000; stroke-linecap:butt; stroke-linejoin:round; stroke-width:4; stroke-opacity:1; fill:none" points="
  2088.33,1423.18 2088.33,1404.28 
  "/>
<path clip-path="url(#clip100)" d="M541.594 1455.63 L535.252 1472.83 L547.96 1472.83 L541.594 1455.63 M538.955 1451.02 L544.256 1451.02 L557.427 1485.58 L552.566 1485.58 L549.418 1476.71 L533.839 1476.71 L530.691 1485.58 L525.761 1485.58 L538.955 1451.02 Z" fill="#000000" fill-rule="evenodd" fill-opacity="1" /><path clip-path="url(#clip100)" d="M562.288 1449.56 L566.548 1449.56 L566.548 1485.58 L562.288 1485.58 L562.288 1449.56 Z" fill="#000000" fill-rule="evenodd" fill-opacity="1" /><path clip-path="url(#clip100)" d="M579.673 1452.29 L579.673 1459.65 L588.446 1459.65 L588.446 1462.96 L579.673 1462.96 L579.673 1477.04 Q579.673 1480.21 580.529 1481.11 Q581.409 1482.02 584.071 1482.02 L588.446 1482.02 L588.446 1485.58 L584.071 1485.58 Q579.14 1485.58 577.265 1483.75 Q575.39 1481.9 575.39 1477.04 L575.39 1462.96 L572.265 1462.96 L572.265 1459.65 L575.39 1459.65 L575.39 1452.29 L579.673 1452.29 Z" fill="#000000" fill-rule="evenodd" fill-opacity="1" /><path clip-path="url(#clip100)" d="M605.83 1472.55 Q600.668 1472.55 598.677 1473.73 Q596.686 1474.91 596.686 1477.76 Q596.686 1480.02 598.168 1481.37 Q599.672 1482.69 602.242 1482.69 Q605.784 1482.69 607.913 1480.19 Q610.066 1477.66 610.066 1473.5 L610.066 1472.55 L605.83 1472.55 M614.325 1470.79 L614.325 1485.58 L610.066 1485.58 L610.066 1481.64 Q608.608 1484.01 606.432 1485.14 Q604.256 1486.25 601.108 1486.25 Q597.126 1486.25 594.765 1484.03 Q592.427 1481.78 592.427 1478.03 Q592.427 1473.66 595.344 1471.44 Q598.284 1469.21 604.094 1469.21 L610.066 1469.21 L610.066 1468.8 Q610.066 1465.86 608.121 1464.26 Q606.2 1462.64 602.705 1462.64 Q600.483 1462.64 598.376 1463.17 Q596.27 1463.7 594.325 1464.77 L594.325 1460.83 Q596.663 1459.93 598.862 1459.49 Q601.061 1459.03 603.145 1459.03 Q608.77 1459.03 611.547 1461.95 Q614.325 1464.86 614.325 1470.79 Z" fill="#000000" fill-rule="evenodd" fill-opacity="1" /><path clip-path="url(#clip100)" d="M857.15 1469.08 L857.15 1481.74 L864.65 1481.74 Q868.423 1481.74 870.229 1480.19 Q872.058 1478.61 872.058 1475.39 Q872.058 1472.15 870.229 1470.63 Q868.423 1469.08 864.65 1469.08 L857.15 1469.08 M857.15 1454.86 L857.15 1465.28 L864.071 1465.28 Q867.497 1465.28 869.164 1464.01 Q870.854 1462.71 870.854 1460.07 Q870.854 1457.45 869.164 1456.16 Q867.497 1454.86 864.071 1454.86 L857.15 1454.86 M852.474 1451.02 L864.419 1451.02 Q869.766 1451.02 872.659 1453.24 Q875.553 1455.46 875.553 1459.56 Q875.553 1462.73 874.071 1464.61 Q872.59 1466.48 869.72 1466.95 Q873.169 1467.69 875.067 1470.05 Q876.988 1472.39 876.988 1475.9 Q876.988 1480.53 873.84 1483.06 Q870.692 1485.58 864.882 1485.58 L852.474 1485.58 L852.474 1451.02 Z" fill="#000000" fill-rule="evenodd" fill-opacity="1" /><path clip-path="url(#clip100)" d="M899.835 1463.64 Q899.118 1463.22 898.261 1463.03 Q897.428 1462.83 896.409 1462.83 Q892.798 1462.83 890.854 1465.19 Q888.932 1467.52 888.932 1471.92 L888.932 1485.58 L884.65 1485.58 L884.65 1459.65 L888.932 1459.65 L888.932 1463.68 Q890.275 1461.32 892.428 1460.19 Q894.581 1459.03 897.659 1459.03 Q898.099 1459.03 898.631 1459.1 Q899.164 1459.14 899.812 1459.26 L899.835 1463.64 Z" fill="#000000" fill-rule="evenodd" fill-opacity="1" /><path clip-path="url(#clip100)" d="M904.303 1459.65 L908.562 1459.65 L908.562 1485.58 L904.303 1485.58 L904.303 1459.65 M904.303 1449.56 L908.562 1449.56 L908.562 1454.96 L904.303 1454.96 L904.303 1449.56 Z" fill="#000000" fill-rule="evenodd" fill-opacity="1" /><path clip-path="url(#clip100)" d="M934.534 1472.32 Q934.534 1467.69 932.613 1465.14 Q930.715 1462.59 927.266 1462.59 Q923.84 1462.59 921.918 1465.14 Q920.02 1467.69 920.02 1472.32 Q920.02 1476.92 921.918 1479.47 Q923.84 1482.02 927.266 1482.02 Q930.715 1482.02 932.613 1479.47 Q934.534 1476.92 934.534 1472.32 M938.793 1482.36 Q938.793 1488.98 935.853 1492.2 Q932.914 1495.44 926.849 1495.44 Q924.604 1495.44 922.613 1495.09 Q920.622 1494.77 918.747 1494.08 L918.747 1489.93 Q920.622 1490.95 922.451 1491.44 Q924.279 1491.92 926.178 1491.92 Q930.367 1491.92 932.451 1489.72 Q934.534 1487.55 934.534 1483.13 L934.534 1481.02 Q933.215 1483.31 931.154 1484.45 Q929.094 1485.58 926.224 1485.58 Q921.455 1485.58 918.539 1481.95 Q915.622 1478.31 915.622 1472.32 Q915.622 1466.3 918.539 1462.66 Q921.455 1459.03 926.224 1459.03 Q929.094 1459.03 931.154 1460.16 Q933.215 1461.3 934.534 1463.59 L934.534 1459.65 L938.793 1459.65 L938.793 1482.36 Z" fill="#000000" fill-rule="evenodd" fill-opacity="1" /><path clip-path="url(#clip100)" d="M969.117 1469.93 L969.117 1485.58 L964.858 1485.58 L964.858 1470.07 Q964.858 1466.39 963.423 1464.56 Q961.988 1462.73 959.117 1462.73 Q955.668 1462.73 953.677 1464.93 Q951.687 1467.13 951.687 1470.93 L951.687 1485.58 L947.404 1485.58 L947.404 1449.56 L951.687 1449.56 L951.687 1463.68 Q953.214 1461.34 955.275 1460.19 Q957.358 1459.03 960.066 1459.03 Q964.534 1459.03 966.826 1461.81 Q969.117 1464.56 969.117 1469.93 Z" fill="#000000" fill-rule="evenodd" fill-opacity="1" /><path clip-path="url(#clip100)" d="M981.825 1452.29 L981.825 1459.65 L990.599 1459.65 L990.599 1462.96 L981.825 1462.96 L981.825 1477.04 Q981.825 1480.21 982.682 1481.11 Q983.562 1482.02 986.224 1482.02 L990.599 1482.02 L990.599 1485.58 L986.224 1485.58 Q981.293 1485.58 979.418 1483.75 Q977.543 1481.9 977.543 1477.04 L977.543 1462.96 L974.418 1462.96 L974.418 1459.65 L977.543 1459.65 L977.543 1452.29 L981.825 1452.29 Z" fill="#000000" fill-rule="evenodd" fill-opacity="1" /><path clip-path="url(#clip100)" d="M1006.25 1462.64 Q1002.82 1462.64 1000.83 1465.33 Q998.839 1467.99 998.839 1472.64 Q998.839 1477.29 1000.81 1479.98 Q1002.8 1482.64 1006.25 1482.64 Q1009.65 1482.64 1011.64 1479.95 Q1013.63 1477.27 1013.63 1472.64 Q1013.63 1468.03 1011.64 1465.35 Q1009.65 1462.64 1006.25 1462.64 M1006.25 1459.03 Q1011.8 1459.03 1014.97 1462.64 Q1018.14 1466.25 1018.14 1472.64 Q1018.14 1479.01 1014.97 1482.64 Q1011.8 1486.25 1006.25 1486.25 Q1000.67 1486.25 997.497 1482.64 Q994.349 1479.01 994.349 1472.64 Q994.349 1466.25 997.497 1462.64 Q1000.67 1459.03 1006.25 1459.03 Z" fill="#000000" fill-rule="evenodd" fill-opacity="1" /><path clip-path="url(#clip100)" d="M1046.76 1469.93 L1046.76 1485.58 L1042.5 1485.58 L1042.5 1470.07 Q1042.5 1466.39 1041.06 1464.56 Q1039.63 1462.73 1036.76 1462.73 Q1033.31 1462.73 1031.32 1464.93 Q1029.33 1467.13 1029.33 1470.93 L1029.33 1485.58 L1025.04 1485.58 L1025.04 1459.65 L1029.33 1459.65 L1029.33 1463.68 Q1030.85 1461.34 1032.91 1460.19 Q1035 1459.03 1037.7 1459.03 Q1042.17 1459.03 1044.46 1461.81 Q1046.76 1464.56 1046.76 1469.93 Z" fill="#000000" fill-rule="evenodd" fill-opacity="1" /><path clip-path="url(#clip100)" d="M1231.68 1454.86 L1231.68 1467.85 L1237.56 1467.85 Q1240.82 1467.85 1242.6 1466.16 Q1244.38 1464.47 1244.38 1461.34 Q1244.38 1458.24 1242.6 1456.55 Q1240.82 1454.86 1237.56 1454.86 L1231.68 1454.86 M1227 1451.02 L1237.56 1451.02 Q1243.37 1451.02 1246.33 1453.66 Q1249.31 1456.27 1249.31 1461.34 Q1249.31 1466.46 1246.33 1469.08 Q1243.37 1471.69 1237.56 1471.69 L1231.68 1471.69 L1231.68 1485.58 L1227 1485.58 L1227 1451.02 Z" fill="#000000" fill-rule="evenodd" fill-opacity="1" /><path clip-path="url(#clip100)" d="M1265.06 1472.55 Q1259.89 1472.55 1257.9 1473.73 Q1255.91 1474.91 1255.91 1477.76 Q1255.91 1480.02 1257.39 1481.37 Q1258.9 1482.69 1261.47 1482.69 Q1265.01 1482.69 1267.14 1480.19 Q1269.29 1477.66 1269.29 1473.5 L1269.29 1472.55 L1265.06 1472.55 M1273.55 1470.79 L1273.55 1485.58 L1269.29 1485.58 L1269.29 1481.64 Q1267.83 1484.01 1265.66 1485.14 Q1263.48 1486.25 1260.33 1486.25 Q1256.35 1486.25 1253.99 1484.03 Q1251.65 1481.78 1251.65 1478.03 Q1251.65 1473.66 1254.57 1471.44 Q1257.51 1469.21 1263.32 1469.21 L1269.29 1469.21 L1269.29 1468.8 Q1269.29 1465.86 1267.35 1464.26 Q1265.43 1462.64 1261.93 1462.64 Q1259.71 1462.64 1257.6 1463.17 Q1255.5 1463.7 1253.55 1464.77 L1253.55 1460.83 Q1255.89 1459.93 1258.09 1459.49 Q1260.29 1459.03 1262.37 1459.03 Q1268 1459.03 1270.77 1461.95 Q1273.55 1464.86 1273.55 1470.79 Z" fill="#000000" fill-rule="evenodd" fill-opacity="1" /><path clip-path="url(#clip100)" d="M1297.35 1463.64 Q1296.63 1463.22 1295.77 1463.03 Q1294.94 1462.83 1293.92 1462.83 Q1290.31 1462.83 1288.37 1465.19 Q1286.44 1467.52 1286.44 1471.92 L1286.44 1485.58 L1282.16 1485.58 L1282.16 1459.65 L1286.44 1459.65 L1286.44 1463.68 Q1287.79 1461.32 1289.94 1460.19 Q1292.09 1459.03 1295.17 1459.03 Q1295.61 1459.03 1296.14 1459.1 Q1296.68 1459.14 1297.32 1459.26 L1297.35 1463.64 Z" fill="#000000" fill-rule="evenodd" fill-opacity="1" /><path clip-path="url(#clip100)" d="M1301.65 1449.56 L1305.93 1449.56 L1305.93 1470.83 L1318.64 1459.65 L1324.08 1459.65 L1310.33 1471.78 L1324.66 1485.58 L1319.11 1485.58 L1305.93 1472.92 L1305.93 1485.58 L1301.65 1485.58 L1301.65 1449.56 Z" fill="#000000" fill-rule="evenodd" fill-opacity="1" /><path clip-path="url(#clip100)" d="M1370.4 1453.68 L1370.4 1458.61 Q1368.04 1456.41 1365.36 1455.33 Q1362.69 1454.24 1359.68 1454.24 Q1353.76 1454.24 1350.61 1457.87 Q1347.46 1461.48 1347.46 1468.33 Q1347.46 1475.16 1350.61 1478.8 Q1353.76 1482.41 1359.68 1482.41 Q1362.69 1482.41 1365.36 1481.32 Q1368.04 1480.23 1370.4 1478.03 L1370.4 1482.92 Q1367.95 1484.58 1365.19 1485.42 Q1362.46 1486.25 1359.41 1486.25 Q1351.56 1486.25 1347.05 1481.46 Q1342.53 1476.64 1342.53 1468.33 Q1342.53 1460 1347.05 1455.21 Q1351.56 1450.39 1359.41 1450.39 Q1362.51 1450.39 1365.24 1451.23 Q1367.99 1452.04 1370.4 1453.68 Z" fill="#000000" fill-rule="evenodd" fill-opacity="1" /><path clip-path="url(#clip100)" d="M1377.44 1459.65 L1381.7 1459.65 L1381.7 1485.58 L1377.44 1485.58 L1377.44 1459.65 M1377.44 1449.56 L1381.7 1449.56 L1381.7 1454.96 L1377.44 1454.96 L1377.44 1449.56 Z" fill="#000000" fill-rule="evenodd" fill-opacity="1" /><path clip-path="url(#clip100)" d="M1394.82 1452.29 L1394.82 1459.65 L1403.6 1459.65 L1403.6 1462.96 L1394.82 1462.96 L1394.82 1477.04 Q1394.82 1480.21 1395.68 1481.11 Q1396.56 1482.02 1399.22 1482.02 L1403.6 1482.02 L1403.6 1485.58 L1399.22 1485.58 Q1394.29 1485.58 1392.42 1483.75 Q1390.54 1481.9 1390.54 1477.04 L1390.54 1462.96 L1387.42 1462.96 L1387.42 1459.65 L1390.54 1459.65 L1390.54 1452.29 L1394.82 1452.29 Z" fill="#000000" fill-rule="evenodd" fill-opacity="1" /><path clip-path="url(#clip100)" d="M1419.99 1487.99 Q1418.18 1492.62 1416.47 1494.03 Q1414.75 1495.44 1411.88 1495.44 L1408.48 1495.44 L1408.48 1491.88 L1410.98 1491.88 Q1412.74 1491.88 1413.71 1491.04 Q1414.68 1490.21 1415.86 1487.11 L1416.63 1485.16 L1406.14 1459.65 L1410.66 1459.65 L1418.76 1479.93 L1426.86 1459.65 L1431.37 1459.65 L1419.99 1487.99 Z" fill="#000000" fill-rule="evenodd" fill-opacity="1" /><path clip-path="url(#clip100)" d="M1637.16 1452.15 L1637.16 1456.71 Q1634.5 1455.44 1632.14 1454.82 Q1629.78 1454.19 1627.58 1454.19 Q1623.76 1454.19 1621.68 1455.67 Q1619.62 1457.15 1619.62 1459.89 Q1619.62 1462.18 1620.98 1463.36 Q1622.37 1464.52 1626.21 1465.23 L1629.04 1465.81 Q1634.27 1466.81 1636.75 1469.33 Q1639.25 1471.83 1639.25 1476.04 Q1639.25 1481.07 1635.87 1483.66 Q1632.51 1486.25 1626 1486.25 Q1623.55 1486.25 1620.77 1485.7 Q1618.02 1485.14 1615.06 1484.05 L1615.06 1479.24 Q1617.9 1480.83 1620.63 1481.64 Q1623.37 1482.45 1626 1482.45 Q1630.01 1482.45 1632.19 1480.88 Q1634.36 1479.31 1634.36 1476.39 Q1634.36 1473.84 1632.79 1472.41 Q1631.24 1470.97 1627.67 1470.26 L1624.82 1469.7 Q1619.59 1468.66 1617.25 1466.44 Q1614.92 1464.21 1614.92 1460.26 Q1614.92 1455.67 1618.13 1453.03 Q1621.38 1450.39 1627.05 1450.39 Q1629.48 1450.39 1632 1450.83 Q1634.52 1451.27 1637.16 1452.15 Z" fill="#000000" fill-rule="evenodd" fill-opacity="1" /><path clip-path="url(#clip100)" d="M1656.4 1462.64 Q1652.97 1462.64 1650.98 1465.33 Q1648.99 1467.99 1648.99 1472.64 Q1648.99 1477.29 1650.96 1479.98 Q1652.95 1482.64 1656.4 1482.64 Q1659.8 1482.64 1661.79 1479.95 Q1663.78 1477.27 1663.78 1472.64 Q1663.78 1468.03 1661.79 1465.35 Q1659.8 1462.64 1656.4 1462.64 M1656.4 1459.03 Q1661.95 1459.03 1665.12 1462.64 Q1668.3 1466.25 1668.3 1472.64 Q1668.3 1479.01 1665.12 1482.64 Q1661.95 1486.25 1656.4 1486.25 Q1650.82 1486.25 1647.65 1482.64 Q1644.5 1479.01 1644.5 1472.64 Q1644.5 1466.25 1647.65 1462.64 Q1650.82 1459.03 1656.4 1459.03 Z" fill="#000000" fill-rule="evenodd" fill-opacity="1" /><path clip-path="url(#clip100)" d="M1675.36 1449.56 L1679.62 1449.56 L1679.62 1485.58 L1675.36 1485.58 L1675.36 1449.56 Z" fill="#000000" fill-rule="evenodd" fill-opacity="1" /><path clip-path="url(#clip100)" d="M1688.53 1459.65 L1692.79 1459.65 L1692.79 1485.58 L1688.53 1485.58 L1688.53 1459.65 M1688.53 1449.56 L1692.79 1449.56 L1692.79 1454.96 L1688.53 1454.96 L1688.53 1449.56 Z" fill="#000000" fill-rule="evenodd" fill-opacity="1" /><path clip-path="url(#clip100)" d="M1705.91 1452.29 L1705.91 1459.65 L1714.68 1459.65 L1714.68 1462.96 L1705.91 1462.96 L1705.91 1477.04 Q1705.91 1480.21 1706.77 1481.11 Q1707.65 1482.02 1710.31 1482.02 L1714.68 1482.02 L1714.68 1485.58 L1710.31 1485.58 Q1705.38 1485.58 1703.5 1483.75 Q1701.63 1481.9 1701.63 1477.04 L1701.63 1462.96 L1698.5 1462.96 L1698.5 1459.65 L1701.63 1459.65 L1701.63 1452.29 L1705.91 1452.29 Z" fill="#000000" fill-rule="evenodd" fill-opacity="1" /><path clip-path="url(#clip100)" d="M1719.85 1475.35 L1719.85 1459.65 L1724.11 1459.65 L1724.11 1475.19 Q1724.11 1478.87 1725.54 1480.72 Q1726.98 1482.55 1729.85 1482.55 Q1733.3 1482.55 1735.29 1480.35 Q1737.3 1478.15 1737.3 1474.35 L1737.3 1459.65 L1741.56 1459.65 L1741.56 1485.58 L1737.3 1485.58 L1737.3 1481.6 Q1735.75 1483.96 1733.69 1485.12 Q1731.65 1486.25 1728.94 1486.25 Q1724.48 1486.25 1722.16 1483.47 Q1719.85 1480.7 1719.85 1475.35 M1730.56 1459.03 L1730.56 1459.03 Z" fill="#000000" fill-rule="evenodd" fill-opacity="1" /><path clip-path="url(#clip100)" d="M1767.39 1463.59 L1767.39 1449.56 L1771.65 1449.56 L1771.65 1485.58 L1767.39 1485.58 L1767.39 1481.69 Q1766.05 1484.01 1763.99 1485.14 Q1761.95 1486.25 1759.08 1486.25 Q1754.38 1486.25 1751.42 1482.5 Q1748.48 1478.75 1748.48 1472.64 Q1748.48 1466.53 1751.42 1462.78 Q1754.38 1459.03 1759.08 1459.03 Q1761.95 1459.03 1763.99 1460.16 Q1766.05 1461.27 1767.39 1463.59 M1752.88 1472.64 Q1752.88 1477.34 1754.8 1480.02 Q1756.74 1482.69 1760.12 1482.69 Q1763.5 1482.69 1765.45 1480.02 Q1767.39 1477.34 1767.39 1472.64 Q1767.39 1467.94 1765.45 1465.28 Q1763.5 1462.59 1760.12 1462.59 Q1756.74 1462.59 1754.8 1465.28 Q1752.88 1467.94 1752.88 1472.64 Z" fill="#000000" fill-rule="evenodd" fill-opacity="1" /><path clip-path="url(#clip100)" d="M1802.6 1471.55 L1802.6 1473.64 L1783.02 1473.64 Q1783.3 1478.03 1785.66 1480.35 Q1788.04 1482.64 1792.28 1482.64 Q1794.73 1482.64 1797.02 1482.04 Q1799.34 1481.44 1801.61 1480.23 L1801.61 1484.26 Q1799.31 1485.23 1796.91 1485.74 Q1794.5 1486.25 1792.02 1486.25 Q1785.82 1486.25 1782.18 1482.64 Q1778.57 1479.03 1778.57 1472.87 Q1778.57 1466.51 1782 1462.78 Q1785.45 1459.03 1791.28 1459.03 Q1796.51 1459.03 1799.55 1462.41 Q1802.6 1465.77 1802.6 1471.55 M1798.34 1470.3 Q1798.3 1466.81 1796.37 1464.72 Q1794.48 1462.64 1791.33 1462.64 Q1787.76 1462.64 1785.61 1464.65 Q1783.48 1466.67 1783.16 1470.33 L1798.34 1470.3 Z" fill="#000000" fill-rule="evenodd" fill-opacity="1" /><path clip-path="url(#clip100)" d="M1996.1 1452.15 L1996.1 1456.71 Q1993.44 1455.44 1991.07 1454.82 Q1988.71 1454.19 1986.51 1454.19 Q1982.69 1454.19 1980.61 1455.67 Q1978.55 1457.15 1978.55 1459.89 Q1978.55 1462.18 1979.92 1463.36 Q1981.31 1464.52 1985.15 1465.23 L1987.97 1465.81 Q1993.2 1466.81 1995.68 1469.33 Q1998.18 1471.83 1998.18 1476.04 Q1998.18 1481.07 1994.8 1483.66 Q1991.44 1486.25 1984.94 1486.25 Q1982.49 1486.25 1979.71 1485.7 Q1976.95 1485.14 1973.99 1484.05 L1973.99 1479.24 Q1976.84 1480.83 1979.57 1481.64 Q1982.3 1482.45 1984.94 1482.45 Q1988.94 1482.45 1991.12 1480.88 Q1993.3 1479.31 1993.3 1476.39 Q1993.3 1473.84 1991.72 1472.41 Q1990.17 1470.97 1986.61 1470.26 L1983.76 1469.7 Q1978.53 1468.66 1976.19 1466.44 Q1973.85 1464.21 1973.85 1460.26 Q1973.85 1455.67 1977.07 1453.03 Q1980.31 1450.39 1985.98 1450.39 Q1988.41 1450.39 1990.94 1450.83 Q1993.46 1451.27 1996.1 1452.15 Z" fill="#000000" fill-rule="evenodd" fill-opacity="1" /><path clip-path="url(#clip100)" d="M2004.85 1475.35 L2004.85 1459.65 L2009.11 1459.65 L2009.11 1475.19 Q2009.11 1478.87 2010.54 1480.72 Q2011.98 1482.55 2014.85 1482.55 Q2018.3 1482.55 2020.29 1480.35 Q2022.3 1478.15 2022.3 1474.35 L2022.3 1459.65 L2026.56 1459.65 L2026.56 1485.58 L2022.3 1485.58 L2022.3 1481.6 Q2020.75 1483.96 2018.69 1485.12 Q2016.65 1486.25 2013.94 1486.25 Q2009.48 1486.25 2007.16 1483.47 Q2004.85 1480.7 2004.85 1475.35 M2015.57 1459.03 L2015.57 1459.03 Z" fill="#000000" fill-rule="evenodd" fill-opacity="1" /><path clip-path="url(#clip100)" d="M2056.88 1469.93 L2056.88 1485.58 L2052.63 1485.58 L2052.63 1470.07 Q2052.63 1466.39 2051.19 1464.56 Q2049.75 1462.73 2046.88 1462.73 Q2043.44 1462.73 2041.44 1464.93 Q2039.45 1467.13 2039.45 1470.93 L2039.45 1485.58 L2035.17 1485.58 L2035.17 1459.65 L2039.45 1459.65 L2039.45 1463.68 Q2040.98 1461.34 2043.04 1460.19 Q2045.13 1459.03 2047.83 1459.03 Q2052.3 1459.03 2054.59 1461.81 Q2056.88 1464.56 2056.88 1469.93 Z" fill="#000000" fill-rule="evenodd" fill-opacity="1" /><path clip-path="url(#clip100)" d="M2082.44 1463.59 L2082.44 1449.56 L2086.7 1449.56 L2086.7 1485.58 L2082.44 1485.58 L2082.44 1481.69 Q2081.1 1484.01 2079.04 1485.14 Q2077 1486.25 2074.13 1486.25 Q2069.43 1486.25 2066.47 1482.5 Q2063.53 1478.75 2063.53 1472.64 Q2063.53 1466.53 2066.47 1462.78 Q2069.43 1459.03 2074.13 1459.03 Q2077 1459.03 2079.04 1460.16 Q2081.1 1461.27 2082.44 1463.59 M2067.93 1472.64 Q2067.93 1477.34 2069.85 1480.02 Q2071.79 1482.69 2075.17 1482.69 Q2078.55 1482.69 2080.5 1480.02 Q2082.44 1477.34 2082.44 1472.64 Q2082.44 1467.94 2080.5 1465.28 Q2078.55 1462.59 2075.17 1462.59 Q2071.79 1462.59 2069.85 1465.28 Q2067.93 1467.94 2067.93 1472.64 Z" fill="#000000" fill-rule="evenodd" fill-opacity="1" /><path clip-path="url(#clip100)" d="M2107.25 1472.55 Q2102.09 1472.55 2100.1 1473.73 Q2098.11 1474.91 2098.11 1477.76 Q2098.11 1480.02 2099.59 1481.37 Q2101.1 1482.69 2103.67 1482.69 Q2107.21 1482.69 2109.34 1480.19 Q2111.49 1477.66 2111.49 1473.5 L2111.49 1472.55 L2107.25 1472.55 M2115.75 1470.79 L2115.75 1485.58 L2111.49 1485.58 L2111.49 1481.64 Q2110.03 1484.01 2107.86 1485.14 Q2105.68 1486.25 2102.53 1486.25 Q2098.55 1486.25 2096.19 1484.03 Q2093.85 1481.78 2093.85 1478.03 Q2093.85 1473.66 2096.77 1471.44 Q2099.71 1469.21 2105.52 1469.21 L2111.49 1469.21 L2111.49 1468.8 Q2111.49 1465.86 2109.55 1464.26 Q2107.62 1462.64 2104.13 1462.64 Q2101.91 1462.64 2099.8 1463.17 Q2097.69 1463.7 2095.75 1464.77 L2095.75 1460.83 Q2098.09 1459.93 2100.29 1459.49 Q2102.49 1459.03 2104.57 1459.03 Q2110.19 1459.03 2112.97 1461.95 Q2115.75 1464.86 2115.75 1470.79 Z" fill="#000000" fill-rule="evenodd" fill-opacity="1" /><path clip-path="url(#clip100)" d="M2146.07 1469.93 L2146.07 1485.58 L2141.81 1485.58 L2141.81 1470.07 Q2141.81 1466.39 2140.38 1464.56 Q2138.94 1462.73 2136.07 1462.73 Q2132.62 1462.73 2130.63 1464.93 Q2128.64 1467.13 2128.64 1470.93 L2128.64 1485.58 L2124.36 1485.58 L2124.36 1459.65 L2128.64 1459.65 L2128.64 1463.68 Q2130.17 1461.34 2132.23 1460.19 Q2134.31 1459.03 2137.02 1459.03 Q2141.49 1459.03 2143.78 1461.81 Q2146.07 1464.56 2146.07 1469.93 Z" fill="#000000" fill-rule="evenodd" fill-opacity="1" /><path clip-path="url(#clip100)" d="M2173.23 1460.65 L2173.23 1464.63 Q2171.42 1463.64 2169.59 1463.15 Q2167.79 1462.64 2165.93 1462.64 Q2161.79 1462.64 2159.5 1465.28 Q2157.21 1467.89 2157.21 1472.64 Q2157.21 1477.39 2159.5 1480.02 Q2161.79 1482.64 2165.93 1482.64 Q2167.79 1482.64 2169.59 1482.15 Q2171.42 1481.64 2173.23 1480.65 L2173.23 1484.58 Q2171.44 1485.42 2169.52 1485.83 Q2167.62 1486.25 2165.47 1486.25 Q2159.62 1486.25 2156.17 1482.57 Q2152.72 1478.89 2152.72 1472.64 Q2152.72 1466.3 2156.19 1462.66 Q2159.68 1459.03 2165.75 1459.03 Q2167.72 1459.03 2169.59 1459.45 Q2171.47 1459.84 2173.23 1460.65 Z" fill="#000000" fill-rule="evenodd" fill-opacity="1" /><path clip-path="url(#clip100)" d="M2202.81 1471.55 L2202.81 1473.64 L2183.23 1473.64 Q2183.5 1478.03 2185.87 1480.35 Q2188.25 1482.64 2192.49 1482.64 Q2194.94 1482.64 2197.23 1482.04 Q2199.55 1481.44 2201.81 1480.23 L2201.81 1484.26 Q2199.52 1485.23 2197.12 1485.74 Q2194.71 1486.25 2192.23 1486.25 Q2186.03 1486.25 2182.39 1482.64 Q2178.78 1479.03 2178.78 1472.87 Q2178.78 1466.51 2182.21 1462.78 Q2185.66 1459.03 2191.49 1459.03 Q2196.72 1459.03 2199.75 1462.41 Q2202.81 1465.77 2202.81 1471.55 M2198.55 1470.3 Q2198.5 1466.81 2196.58 1464.72 Q2194.68 1462.64 2191.54 1462.64 Q2187.97 1462.64 2185.82 1464.65 Q2183.69 1466.67 2183.37 1470.33 L2198.55 1470.3 Z" fill="#000000" fill-rule="evenodd" fill-opacity="1" /><path clip-path="url(#clip100)" d="M1243.62 1562.63 L1254.12 1562.63 L1254.12 1526.38 L1242.69 1528.67 L1242.69 1522.82 L1254.06 1520.52 L1260.49 1520.52 L1260.49 1562.63 L1270.99 1562.63 L1270.99 1568.04 L1243.62 1568.04 L1243.62 1562.63 Z" fill="#000000" fill-rule="evenodd" fill-opacity="1" /><path clip-path="url(#clip100)" d="M1327.32 1537.81 L1327.32 1518.52 L1333.18 1518.52 L1333.18 1568.04 L1327.32 1568.04 L1327.32 1562.7 Q1325.48 1565.88 1322.65 1567.44 Q1319.85 1568.97 1315.9 1568.97 Q1309.44 1568.97 1305.36 1563.81 Q1301.32 1558.65 1301.32 1550.25 Q1301.32 1541.85 1305.36 1536.69 Q1309.44 1531.54 1315.9 1531.54 Q1319.85 1531.54 1322.65 1533.1 Q1325.48 1534.62 1327.32 1537.81 M1307.37 1550.25 Q1307.37 1556.71 1310.01 1560.4 Q1312.68 1564.07 1317.33 1564.07 Q1321.98 1564.07 1324.65 1560.4 Q1327.32 1556.71 1327.32 1550.25 Q1327.32 1543.79 1324.65 1540.13 Q1321.98 1536.44 1317.33 1536.44 Q1312.68 1536.44 1310.01 1540.13 Q1307.37 1543.79 1307.37 1550.25 Z" fill="#000000" fill-rule="evenodd" fill-opacity="1" /><path clip-path="url(#clip100)" d="M1361.45 1550.12 Q1354.35 1550.12 1351.61 1551.75 Q1348.87 1553.37 1348.87 1557.29 Q1348.87 1560.4 1350.91 1562.25 Q1352.98 1564.07 1356.51 1564.07 Q1361.38 1564.07 1364.31 1560.63 Q1367.27 1557.16 1367.27 1551.43 L1367.27 1550.12 L1361.45 1550.12 M1373.13 1547.71 L1373.13 1568.04 L1367.27 1568.04 L1367.27 1562.63 Q1365.26 1565.88 1362.27 1567.44 Q1359.28 1568.97 1354.95 1568.97 Q1349.48 1568.97 1346.23 1565.91 Q1343.02 1562.82 1343.02 1557.67 Q1343.02 1551.65 1347.03 1548.6 Q1351.07 1545.54 1359.06 1545.54 L1367.27 1545.54 L1367.27 1544.97 Q1367.27 1540.93 1364.6 1538.73 Q1361.95 1536.5 1357.15 1536.5 Q1354.09 1536.5 1351.2 1537.23 Q1348.3 1537.97 1345.63 1539.43 L1345.63 1534.02 Q1348.84 1532.78 1351.86 1532.17 Q1354.89 1531.54 1357.75 1531.54 Q1365.49 1531.54 1369.31 1535.55 Q1373.13 1539.56 1373.13 1547.71 Z" fill="#000000" fill-rule="evenodd" fill-opacity="1" /><path clip-path="url(#clip100)" d="M1400.02 1571.35 Q1397.54 1577.72 1395.18 1579.66 Q1392.83 1581.6 1388.88 1581.6 L1384.2 1581.6 L1384.2 1576.7 L1387.64 1576.7 Q1390.06 1576.7 1391.4 1575.56 Q1392.73 1574.41 1394.36 1570.14 L1395.41 1567.47 L1380.99 1532.4 L1387.19 1532.4 L1398.33 1560.28 L1409.47 1532.4 L1415.68 1532.4 L1400.02 1571.35 Z" fill="#000000" fill-rule="evenodd" fill-opacity="1" /><polyline clip-path="url(#clip100)" style="stroke:#000000; stroke-linecap:butt; stroke-linejoin:round; stroke-width:4; stroke-opacity:1; fill:none" points="
  305.618,1423.18 305.618,123.472 
  "/>
<polyline clip-path="url(#clip100)" style="stroke:#000000; stroke-linecap:butt; stroke-linejoin:round; stroke-width:4; stroke-opacity:1; fill:none" points="
  305.618,1423.18 324.516,1423.18 
  "/>
<polyline clip-path="url(#clip100)" style="stroke:#000000; stroke-linecap:butt; stroke-linejoin:round; stroke-width:4; stroke-opacity:1; fill:none" points="
  305.618,1231.15 324.516,1231.15 
  "/>
<polyline clip-path="url(#clip100)" style="stroke:#000000; stroke-linecap:butt; stroke-linejoin:round; stroke-width:4; stroke-opacity:1; fill:none" points="
  305.618,1039.12 324.516,1039.12 
  "/>
<polyline clip-path="url(#clip100)" style="stroke:#000000; stroke-linecap:butt; stroke-linejoin:round; stroke-width:4; stroke-opacity:1; fill:none" points="
  305.618,847.092 324.516,847.092 
  "/>
<polyline clip-path="url(#clip100)" style="stroke:#000000; stroke-linecap:butt; stroke-linejoin:round; stroke-width:4; stroke-opacity:1; fill:none" points="
  305.618,655.063 324.516,655.063 
  "/>
<polyline clip-path="url(#clip100)" style="stroke:#000000; stroke-linecap:butt; stroke-linejoin:round; stroke-width:4; stroke-opacity:1; fill:none" points="
  305.618,463.034 324.516,463.034 
  "/>
<polyline clip-path="url(#clip100)" style="stroke:#000000; stroke-linecap:butt; stroke-linejoin:round; stroke-width:4; stroke-opacity:1; fill:none" points="
  305.618,271.005 324.516,271.005 
  "/>
<path clip-path="url(#clip100)" d="M257.674 1408.98 Q254.063 1408.98 252.234 1412.54 Q250.428 1416.08 250.428 1423.21 Q250.428 1430.32 252.234 1433.89 Q254.063 1437.43 257.674 1437.43 Q261.308 1437.43 263.113 1433.89 Q264.942 1430.32 264.942 1423.21 Q264.942 1416.08 263.113 1412.54 Q261.308 1408.98 257.674 1408.98 M257.674 1405.27 Q263.484 1405.27 266.539 1409.88 Q269.618 1414.46 269.618 1423.21 Q269.618 1431.94 266.539 1436.55 Q263.484 1441.13 257.674 1441.13 Q251.863 1441.13 248.785 1436.55 Q245.729 1431.94 245.729 1423.21 Q245.729 1414.46 248.785 1409.88 Q251.863 1405.27 257.674 1405.27 Z" fill="#000000" fill-rule="evenodd" fill-opacity="1" /><path clip-path="url(#clip100)" d="M57.7745 1250.94 L74.0939 1250.94 L74.0939 1254.88 L52.1495 1254.88 L52.1495 1250.94 Q54.8115 1248.19 59.3949 1243.56 Q64.0013 1238.91 65.1819 1237.56 Q67.4272 1235.04 68.3068 1233.3 Q69.2096 1231.55 69.2096 1229.86 Q69.2096 1227.1 67.2652 1225.36 Q65.3439 1223.63 62.2421 1223.63 Q60.043 1223.63 57.5893 1224.39 Q55.1588 1225.16 52.381 1226.71 L52.381 1221.98 Q55.2051 1220.85 57.6588 1220.27 Q60.1124 1219.69 62.1495 1219.69 Q67.5198 1219.69 70.7142 1222.38 Q73.9087 1225.06 73.9087 1229.55 Q73.9087 1231.68 73.0985 1233.61 Q72.3115 1235.5 70.205 1238.1 Q69.6263 1238.77 66.5245 1241.98 Q63.4226 1245.18 57.7745 1250.94 Z" fill="#000000" fill-rule="evenodd" fill-opacity="1" /><path clip-path="url(#clip100)" d="M83.9086 1249 L88.7928 1249 L88.7928 1254.88 L83.9086 1254.88 L83.9086 1249 Z" fill="#000000" fill-rule="evenodd" fill-opacity="1" /><path clip-path="url(#clip100)" d="M108.978 1223.4 Q105.367 1223.4 103.538 1226.96 Q101.733 1230.5 101.733 1237.63 Q101.733 1244.74 103.538 1248.3 Q105.367 1251.85 108.978 1251.85 Q112.612 1251.85 114.418 1248.3 Q116.246 1244.74 116.246 1237.63 Q116.246 1230.5 114.418 1226.96 Q112.612 1223.4 108.978 1223.4 M108.978 1219.69 Q114.788 1219.69 117.844 1224.3 Q120.922 1228.88 120.922 1237.63 Q120.922 1246.36 117.844 1250.97 Q114.788 1255.55 108.978 1255.55 Q103.168 1255.55 100.089 1250.97 Q97.0335 1246.36 97.0335 1237.63 Q97.0335 1228.88 100.089 1224.3 Q103.168 1219.69 108.978 1219.69 Z" fill="#000000" fill-rule="evenodd" fill-opacity="1" /><path clip-path="url(#clip100)" d="M139.14 1223.4 Q135.529 1223.4 133.7 1226.96 Q131.894 1230.5 131.894 1237.63 Q131.894 1244.74 133.7 1248.3 Q135.529 1251.85 139.14 1251.85 Q142.774 1251.85 144.58 1248.3 Q146.408 1244.74 146.408 1237.63 Q146.408 1230.5 144.58 1226.96 Q142.774 1223.4 139.14 1223.4 M139.14 1219.69 Q144.95 1219.69 148.005 1224.3 Q151.084 1228.88 151.084 1237.63 Q151.084 1246.36 148.005 1250.97 Q144.95 1255.55 139.14 1255.55 Q133.33 1255.55 130.251 1250.97 Q127.195 1246.36 127.195 1237.63 Q127.195 1228.88 130.251 1224.3 Q133.33 1219.69 139.14 1219.69 Z" fill="#000000" fill-rule="evenodd" fill-opacity="1" /><path clip-path="url(#clip100)" d="M187.473 1229.42 L176.894 1240.04 L187.473 1250.62 L184.718 1253.42 L174.093 1242.8 L163.468 1253.42 L160.737 1250.62 L171.292 1240.04 L160.737 1229.42 L163.468 1226.61 L174.093 1237.24 L184.718 1226.61 L187.473 1229.42 Z" fill="#000000" fill-rule="evenodd" fill-opacity="1" /><path clip-path="url(#clip100)" d="M199.834 1250.94 L207.473 1250.94 L207.473 1224.58 L199.163 1226.24 L199.163 1221.98 L207.426 1220.32 L212.102 1220.32 L212.102 1250.94 L219.741 1250.94 L219.741 1254.88 L199.834 1254.88 L199.834 1250.94 Z" fill="#000000" fill-rule="evenodd" fill-opacity="1" /><path clip-path="url(#clip100)" d="M239.186 1223.4 Q235.574 1223.4 233.746 1226.96 Q231.94 1230.5 231.94 1237.63 Q231.94 1244.74 233.746 1248.3 Q235.574 1251.85 239.186 1251.85 Q242.82 1251.85 244.625 1248.3 Q246.454 1244.74 246.454 1237.63 Q246.454 1230.5 244.625 1226.96 Q242.82 1223.4 239.186 1223.4 M239.186 1219.69 Q244.996 1219.69 248.051 1224.3 Q251.13 1228.88 251.13 1237.63 Q251.13 1246.36 248.051 1250.97 Q244.996 1255.55 239.186 1255.55 Q233.375 1255.55 230.297 1250.97 Q227.241 1246.36 227.241 1237.63 Q227.241 1228.88 230.297 1224.3 Q233.375 1219.69 239.186 1219.69 Z" fill="#000000" fill-rule="evenodd" fill-opacity="1" /><path clip-path="url(#clip100)" d="M263.825 1212.33 Q266.552 1212.91 268.076 1214.75 Q269.618 1216.6 269.618 1219.31 Q269.618 1223.46 266.759 1225.74 Q263.9 1228.01 258.634 1228.01 Q256.866 1228.01 254.986 1227.66 Q253.124 1227.32 251.13 1226.62 L251.13 1222.95 Q252.71 1223.88 254.591 1224.35 Q256.471 1224.82 258.521 1224.82 Q262.095 1224.82 263.957 1223.41 Q265.838 1221.99 265.838 1219.31 Q265.838 1216.82 264.088 1215.43 Q262.358 1214.02 259.255 1214.02 L255.982 1214.02 L255.982 1210.9 L259.405 1210.9 Q262.208 1210.9 263.694 1209.79 Q265.179 1208.66 265.179 1206.55 Q265.179 1204.39 263.637 1203.24 Q262.114 1202.08 259.255 1202.08 Q257.694 1202.08 255.907 1202.42 Q254.12 1202.75 251.976 1203.47 L251.976 1200.08 Q254.139 1199.48 256.02 1199.18 Q257.92 1198.88 259.593 1198.88 Q263.919 1198.88 266.439 1200.85 Q268.96 1202.81 268.96 1206.16 Q268.96 1208.49 267.624 1210.11 Q266.289 1211.71 263.825 1212.33 Z" fill="#000000" fill-rule="evenodd" fill-opacity="1" /><path clip-path="url(#clip100)" d="M66.5939 1032.36 L54.7884 1050.81 L66.5939 1050.81 L66.5939 1032.36 M65.367 1028.29 L71.2466 1028.29 L71.2466 1050.81 L76.1772 1050.81 L76.1772 1054.7 L71.2466 1054.7 L71.2466 1062.85 L66.5939 1062.85 L66.5939 1054.7 L50.9921 1054.7 L50.9921 1050.19 L65.367 1028.29 Z" fill="#000000" fill-rule="evenodd" fill-opacity="1" /><path clip-path="url(#clip100)" d="M83.9086 1056.97 L88.7928 1056.97 L88.7928 1062.85 L83.9086 1062.85 L83.9086 1056.97 Z" fill="#000000" fill-rule="evenodd" fill-opacity="1" /><path clip-path="url(#clip100)" d="M108.978 1031.37 Q105.367 1031.37 103.538 1034.93 Q101.733 1038.47 101.733 1045.6 Q101.733 1052.71 103.538 1056.28 Q105.367 1059.82 108.978 1059.82 Q112.612 1059.82 114.418 1056.28 Q116.246 1052.71 116.246 1045.6 Q116.246 1038.47 114.418 1034.93 Q112.612 1031.37 108.978 1031.37 M108.978 1027.66 Q114.788 1027.66 117.844 1032.27 Q120.922 1036.85 120.922 1045.6 Q120.922 1054.33 117.844 1058.94 Q114.788 1063.52 108.978 1063.52 Q103.168 1063.52 100.089 1058.94 Q97.0335 1054.33 97.0335 1045.6 Q97.0335 1036.85 100.089 1032.27 Q103.168 1027.66 108.978 1027.66 Z" fill="#000000" fill-rule="evenodd" fill-opacity="1" /><path clip-path="url(#clip100)" d="M139.14 1031.37 Q135.529 1031.37 133.7 1034.93 Q131.894 1038.47 131.894 1045.6 Q131.894 1052.71 133.7 1056.28 Q135.529 1059.82 139.14 1059.82 Q142.774 1059.82 144.58 1056.28 Q146.408 1052.71 146.408 1045.6 Q146.408 1038.47 144.58 1034.93 Q142.774 1031.37 139.14 1031.37 M139.14 1027.66 Q144.95 1027.66 148.005 1032.27 Q151.084 1036.85 151.084 1045.6 Q151.084 1054.33 148.005 1058.94 Q144.95 1063.52 139.14 1063.52 Q133.33 1063.52 130.251 1058.94 Q127.195 1054.33 127.195 1045.6 Q127.195 1036.85 130.251 1032.27 Q133.33 1027.66 139.14 1027.66 Z" fill="#000000" fill-rule="evenodd" fill-opacity="1" /><path clip-path="url(#clip100)" d="M187.473 1037.39 L176.894 1048.01 L187.473 1058.59 L184.718 1061.39 L174.093 1050.77 L163.468 1061.39 L160.737 1058.59 L171.292 1048.01 L160.737 1037.39 L163.468 1034.59 L174.093 1045.21 L184.718 1034.59 L187.473 1037.39 Z" fill="#000000" fill-rule="evenodd" fill-opacity="1" /><path clip-path="url(#clip100)" d="M199.834 1058.91 L207.473 1058.91 L207.473 1032.55 L199.163 1034.22 L199.163 1029.96 L207.426 1028.29 L212.102 1028.29 L212.102 1058.91 L219.741 1058.91 L219.741 1062.85 L199.834 1062.85 L199.834 1058.91 Z" fill="#000000" fill-rule="evenodd" fill-opacity="1" /><path clip-path="url(#clip100)" d="M239.186 1031.37 Q235.574 1031.37 233.746 1034.93 Q231.94 1038.47 231.94 1045.6 Q231.94 1052.71 233.746 1056.28 Q235.574 1059.82 239.186 1059.82 Q242.82 1059.82 244.625 1056.28 Q246.454 1052.71 246.454 1045.6 Q246.454 1038.47 244.625 1034.93 Q242.82 1031.37 239.186 1031.37 M239.186 1027.66 Q244.996 1027.66 248.051 1032.27 Q251.13 1036.85 251.13 1045.6 Q251.13 1054.33 248.051 1058.94 Q244.996 1063.52 239.186 1063.52 Q233.375 1063.52 230.297 1058.94 Q227.241 1054.33 227.241 1045.6 Q227.241 1036.85 230.297 1032.27 Q233.375 1027.66 239.186 1027.66 Z" fill="#000000" fill-rule="evenodd" fill-opacity="1" /><path clip-path="url(#clip100)" d="M263.825 1020.3 Q266.552 1020.88 268.076 1022.72 Q269.618 1024.57 269.618 1027.28 Q269.618 1031.43 266.759 1033.71 Q263.9 1035.98 258.634 1035.98 Q256.866 1035.98 254.986 1035.63 Q253.124 1035.29 251.13 1034.59 L251.13 1030.92 Q252.71 1031.85 254.591 1032.32 Q256.471 1032.79 258.521 1032.79 Q262.095 1032.79 263.957 1031.38 Q265.838 1029.97 265.838 1027.28 Q265.838 1024.79 264.088 1023.4 Q262.358 1021.99 259.255 1021.99 L255.982 1021.99 L255.982 1018.87 L259.405 1018.87 Q262.208 1018.87 263.694 1017.76 Q265.179 1016.63 265.179 1014.52 Q265.179 1012.36 263.637 1011.21 Q262.114 1010.05 259.255 1010.05 Q257.694 1010.05 255.907 1010.39 Q254.12 1010.73 251.976 1011.44 L251.976 1008.05 Q254.139 1007.45 256.02 1007.15 Q257.92 1006.85 259.593 1006.85 Q263.919 1006.85 266.439 1008.83 Q268.96 1010.78 268.96 1014.13 Q268.96 1016.46 267.624 1018.08 Q266.289 1019.68 263.825 1020.3 Z" fill="#000000" fill-rule="evenodd" fill-opacity="1" /><path clip-path="url(#clip100)" d="M64.3254 851.677 Q61.1773 851.677 59.3254 853.829 Q57.4967 855.982 57.4967 859.732 Q57.4967 863.459 59.3254 865.635 Q61.1773 867.788 64.3254 867.788 Q67.4735 867.788 69.3022 865.635 Q71.1541 863.459 71.1541 859.732 Q71.1541 855.982 69.3022 853.829 Q67.4735 851.677 64.3254 851.677 M73.6077 837.024 L73.6077 841.283 Q71.8485 840.45 70.0429 840.01 Q68.2606 839.57 66.5013 839.57 Q61.8717 839.57 59.418 842.695 Q56.9875 845.82 56.6402 852.14 Q58.006 850.126 60.0662 849.061 Q62.1263 847.973 64.6032 847.973 Q69.8115 847.973 72.8207 851.144 Q75.8531 854.292 75.8531 859.732 Q75.8531 865.056 72.705 868.274 Q69.5568 871.491 64.3254 871.491 Q58.33 871.491 55.1588 866.908 Q51.9875 862.302 51.9875 853.575 Q51.9875 845.38 55.8764 840.519 Q59.7652 835.635 66.3161 835.635 Q68.0754 835.635 69.8578 835.982 Q71.6633 836.329 73.6077 837.024 Z" fill="#000000" fill-rule="evenodd" fill-opacity="1" /><path clip-path="url(#clip100)" d="M83.9086 864.94 L88.7928 864.94 L88.7928 870.82 L83.9086 870.82 L83.9086 864.94 Z" fill="#000000" fill-rule="evenodd" fill-opacity="1" /><path clip-path="url(#clip100)" d="M108.978 839.339 Q105.367 839.339 103.538 842.903 Q101.733 846.445 101.733 853.575 Q101.733 860.681 103.538 864.246 Q105.367 867.788 108.978 867.788 Q112.612 867.788 114.418 864.246 Q116.246 860.681 116.246 853.575 Q116.246 846.445 114.418 842.903 Q112.612 839.339 108.978 839.339 M108.978 835.635 Q114.788 835.635 117.844 840.241 Q120.922 844.825 120.922 853.575 Q120.922 862.302 117.844 866.908 Q114.788 871.491 108.978 871.491 Q103.168 871.491 100.089 866.908 Q97.0335 862.302 97.0335 853.575 Q97.0335 844.825 100.089 840.241 Q103.168 835.635 108.978 835.635 Z" fill="#000000" fill-rule="evenodd" fill-opacity="1" /><path clip-path="url(#clip100)" d="M139.14 839.339 Q135.529 839.339 133.7 842.903 Q131.894 846.445 131.894 853.575 Q131.894 860.681 133.7 864.246 Q135.529 867.788 139.14 867.788 Q142.774 867.788 144.58 864.246 Q146.408 860.681 146.408 853.575 Q146.408 846.445 144.58 842.903 Q142.774 839.339 139.14 839.339 M139.14 835.635 Q144.95 835.635 148.005 840.241 Q151.084 844.825 151.084 853.575 Q151.084 862.302 148.005 866.908 Q144.95 871.491 139.14 871.491 Q133.33 871.491 130.251 866.908 Q127.195 862.302 127.195 853.575 Q127.195 844.825 130.251 840.241 Q133.33 835.635 139.14 835.635 Z" fill="#000000" fill-rule="evenodd" fill-opacity="1" /><path clip-path="url(#clip100)" d="M187.473 845.357 L176.894 855.982 L187.473 866.561 L184.718 869.362 L174.093 858.737 L163.468 869.362 L160.737 866.561 L171.292 855.982 L160.737 845.357 L163.468 842.556 L174.093 853.181 L184.718 842.556 L187.473 845.357 Z" fill="#000000" fill-rule="evenodd" fill-opacity="1" /><path clip-path="url(#clip100)" d="M199.834 866.885 L207.473 866.885 L207.473 840.519 L199.163 842.186 L199.163 837.927 L207.426 836.26 L212.102 836.26 L212.102 866.885 L219.741 866.885 L219.741 870.82 L199.834 870.82 L199.834 866.885 Z" fill="#000000" fill-rule="evenodd" fill-opacity="1" /><path clip-path="url(#clip100)" d="M239.186 839.339 Q235.574 839.339 233.746 842.903 Q231.94 846.445 231.94 853.575 Q231.94 860.681 233.746 864.246 Q235.574 867.788 239.186 867.788 Q242.82 867.788 244.625 864.246 Q246.454 860.681 246.454 853.575 Q246.454 846.445 244.625 842.903 Q242.82 839.339 239.186 839.339 M239.186 835.635 Q244.996 835.635 248.051 840.241 Q251.13 844.825 251.13 853.575 Q251.13 862.302 248.051 866.908 Q244.996 871.491 239.186 871.491 Q233.375 871.491 230.297 866.908 Q227.241 862.302 227.241 853.575 Q227.241 844.825 230.297 840.241 Q233.375 835.635 239.186 835.635 Z" fill="#000000" fill-rule="evenodd" fill-opacity="1" /><path clip-path="url(#clip100)" d="M263.825 828.269 Q266.552 828.852 268.076 830.696 Q269.618 832.539 269.618 835.247 Q269.618 839.404 266.759 841.679 Q263.9 843.955 258.634 843.955 Q256.866 843.955 254.986 843.598 Q253.124 843.259 251.13 842.563 L251.13 838.896 Q252.71 839.817 254.591 840.288 Q256.471 840.758 258.521 840.758 Q262.095 840.758 263.957 839.347 Q265.838 837.937 265.838 835.247 Q265.838 832.764 264.088 831.373 Q262.358 829.962 259.255 829.962 L255.982 829.962 L255.982 826.84 L259.405 826.84 Q262.208 826.84 263.694 825.73 Q265.179 824.602 265.179 822.495 Q265.179 820.332 263.637 819.185 Q262.114 818.019 259.255 818.019 Q257.694 818.019 255.907 818.358 Q254.12 818.696 251.976 819.411 L251.976 816.025 Q254.139 815.424 256.02 815.123 Q257.92 814.822 259.593 814.822 Q263.919 814.822 266.439 816.797 Q268.96 818.753 268.96 822.1 Q268.96 824.433 267.624 826.05 Q266.289 827.649 263.825 828.269 Z" fill="#000000" fill-rule="evenodd" fill-opacity="1" /><path clip-path="url(#clip100)" d="M63.7467 662.379 Q60.4134 662.379 58.4921 664.161 Q56.5939 665.944 56.5939 669.069 Q56.5939 672.194 58.4921 673.976 Q60.4134 675.758 63.7467 675.758 Q67.08 675.758 69.0013 673.976 Q70.9226 672.171 70.9226 669.069 Q70.9226 665.944 69.0013 664.161 Q67.1032 662.379 63.7467 662.379 M59.0708 660.388 Q56.0615 659.647 54.3717 657.587 Q52.7051 655.527 52.7051 652.564 Q52.7051 648.421 55.6449 646.013 Q58.6078 643.606 63.7467 643.606 Q68.9087 643.606 71.8485 646.013 Q74.7883 648.421 74.7883 652.564 Q74.7883 655.527 73.0985 657.587 Q71.4318 659.647 68.4457 660.388 Q71.8253 661.175 73.7003 663.467 Q75.5985 665.759 75.5985 669.069 Q75.5985 674.092 72.5198 676.777 Q69.4642 679.462 63.7467 679.462 Q58.0291 679.462 54.9504 676.777 Q51.8949 674.092 51.8949 669.069 Q51.8949 665.759 53.793 663.467 Q55.6912 661.175 59.0708 660.388 M57.3578 653.004 Q57.3578 655.689 59.0245 657.194 Q60.7143 658.698 63.7467 658.698 Q66.7559 658.698 68.4457 657.194 Q70.1587 655.689 70.1587 653.004 Q70.1587 650.319 68.4457 648.814 Q66.7559 647.31 63.7467 647.31 Q60.7143 647.31 59.0245 648.814 Q57.3578 650.319 57.3578 653.004 Z" fill="#000000" fill-rule="evenodd" fill-opacity="1" /><path clip-path="url(#clip100)" d="M83.9086 672.911 L88.7928 672.911 L88.7928 678.791 L83.9086 678.791 L83.9086 672.911 Z" fill="#000000" fill-rule="evenodd" fill-opacity="1" /><path clip-path="url(#clip100)" d="M108.978 647.31 Q105.367 647.31 103.538 650.874 Q101.733 654.416 101.733 661.546 Q101.733 668.652 103.538 672.217 Q105.367 675.758 108.978 675.758 Q112.612 675.758 114.418 672.217 Q116.246 668.652 116.246 661.546 Q116.246 654.416 114.418 650.874 Q112.612 647.31 108.978 647.31 M108.978 643.606 Q114.788 643.606 117.844 648.212 Q120.922 652.796 120.922 661.546 Q120.922 670.272 117.844 674.879 Q114.788 679.462 108.978 679.462 Q103.168 679.462 100.089 674.879 Q97.0335 670.272 97.0335 661.546 Q97.0335 652.796 100.089 648.212 Q103.168 643.606 108.978 643.606 Z" fill="#000000" fill-rule="evenodd" fill-opacity="1" /><path clip-path="url(#clip100)" d="M139.14 647.31 Q135.529 647.31 133.7 650.874 Q131.894 654.416 131.894 661.546 Q131.894 668.652 133.7 672.217 Q135.529 675.758 139.14 675.758 Q142.774 675.758 144.58 672.217 Q146.408 668.652 146.408 661.546 Q146.408 654.416 144.58 650.874 Q142.774 647.31 139.14 647.31 M139.14 643.606 Q144.95 643.606 148.005 648.212 Q151.084 652.796 151.084 661.546 Q151.084 670.272 148.005 674.879 Q144.95 679.462 139.14 679.462 Q133.33 679.462 130.251 674.879 Q127.195 670.272 127.195 661.546 Q127.195 652.796 130.251 648.212 Q133.33 643.606 139.14 643.606 Z" fill="#000000" fill-rule="evenodd" fill-opacity="1" /><path clip-path="url(#clip100)" d="M187.473 653.328 L176.894 663.953 L187.473 674.532 L184.718 677.333 L174.093 666.708 L163.468 677.333 L160.737 674.532 L171.292 663.953 L160.737 653.328 L163.468 650.527 L174.093 661.152 L184.718 650.527 L187.473 653.328 Z" fill="#000000" fill-rule="evenodd" fill-opacity="1" /><path clip-path="url(#clip100)" d="M199.834 674.856 L207.473 674.856 L207.473 648.49 L199.163 650.157 L199.163 645.898 L207.426 644.231 L212.102 644.231 L212.102 674.856 L219.741 674.856 L219.741 678.791 L199.834 678.791 L199.834 674.856 Z" fill="#000000" fill-rule="evenodd" fill-opacity="1" /><path clip-path="url(#clip100)" d="M239.186 647.31 Q235.574 647.31 233.746 650.874 Q231.94 654.416 231.94 661.546 Q231.94 668.652 233.746 672.217 Q235.574 675.758 239.186 675.758 Q242.82 675.758 244.625 672.217 Q246.454 668.652 246.454 661.546 Q246.454 654.416 244.625 650.874 Q242.82 647.31 239.186 647.31 M239.186 643.606 Q244.996 643.606 248.051 648.212 Q251.13 652.796 251.13 661.546 Q251.13 670.272 248.051 674.879 Q244.996 679.462 239.186 679.462 Q233.375 679.462 230.297 674.879 Q227.241 670.272 227.241 661.546 Q227.241 652.796 230.297 648.212 Q233.375 643.606 239.186 643.606 Z" fill="#000000" fill-rule="evenodd" fill-opacity="1" /><path clip-path="url(#clip100)" d="M263.825 636.24 Q266.552 636.823 268.076 638.666 Q269.618 640.51 269.618 643.218 Q269.618 647.374 266.759 649.65 Q263.9 651.926 258.634 651.926 Q256.866 651.926 254.986 651.569 Q253.124 651.23 251.13 650.534 L251.13 646.867 Q252.71 647.788 254.591 648.258 Q256.471 648.729 258.521 648.729 Q262.095 648.729 263.957 647.318 Q265.838 645.907 265.838 643.218 Q265.838 640.735 264.088 639.343 Q262.358 637.933 259.255 637.933 L255.982 637.933 L255.982 634.811 L259.405 634.811 Q262.208 634.811 263.694 633.701 Q265.179 632.573 265.179 630.466 Q265.179 628.303 263.637 627.156 Q262.114 625.99 259.255 625.99 Q257.694 625.99 255.907 626.329 Q254.12 626.667 251.976 627.382 L251.976 623.996 Q254.139 623.394 256.02 623.094 Q257.92 622.793 259.593 622.793 Q263.919 622.793 266.439 624.767 Q268.96 626.723 268.96 630.071 Q268.96 632.403 267.624 634.021 Q266.289 635.62 263.825 636.24 Z" fill="#000000" fill-rule="evenodd" fill-opacity="1" /><path clip-path="url(#clip100)" d="M52.5821 482.827 L60.221 482.827 L60.221 456.461 L51.9108 458.128 L51.9108 453.868 L60.1747 452.202 L64.8506 452.202 L64.8506 482.827 L72.4894 482.827 L72.4894 486.762 L52.5821 486.762 L52.5821 482.827 Z" fill="#000000" fill-rule="evenodd" fill-opacity="1" /><path clip-path="url(#clip100)" d="M81.9338 480.882 L86.818 480.882 L86.818 486.762 L81.9338 486.762 L81.9338 480.882 Z" fill="#000000" fill-rule="evenodd" fill-opacity="1" /><path clip-path="url(#clip100)" d="M107.003 455.28 Q103.392 455.28 101.563 458.845 Q99.7578 462.387 99.7578 469.516 Q99.7578 476.623 101.563 480.188 Q103.392 483.729 107.003 483.729 Q110.637 483.729 112.443 480.188 Q114.272 476.623 114.272 469.516 Q114.272 462.387 112.443 458.845 Q110.637 455.28 107.003 455.28 M107.003 451.577 Q112.813 451.577 115.869 456.183 Q118.947 460.766 118.947 469.516 Q118.947 478.243 115.869 482.85 Q112.813 487.433 107.003 487.433 Q101.193 487.433 98.1143 482.85 Q95.0587 478.243 95.0587 469.516 Q95.0587 460.766 98.1143 456.183 Q101.193 451.577 107.003 451.577 Z" fill="#000000" fill-rule="evenodd" fill-opacity="1" /><path clip-path="url(#clip100)" d="M137.165 455.28 Q133.554 455.28 131.725 458.845 Q129.92 462.387 129.92 469.516 Q129.92 476.623 131.725 480.188 Q133.554 483.729 137.165 483.729 Q140.799 483.729 142.605 480.188 Q144.433 476.623 144.433 469.516 Q144.433 462.387 142.605 458.845 Q140.799 455.28 137.165 455.28 M137.165 451.577 Q142.975 451.577 146.031 456.183 Q149.109 460.766 149.109 469.516 Q149.109 478.243 146.031 482.85 Q142.975 487.433 137.165 487.433 Q131.355 487.433 128.276 482.85 Q125.221 478.243 125.221 469.516 Q125.221 460.766 128.276 456.183 Q131.355 451.577 137.165 451.577 Z" fill="#000000" fill-rule="evenodd" fill-opacity="1" /><path clip-path="url(#clip100)" d="M185.498 461.299 L174.919 471.924 L185.498 482.502 L182.743 485.303 L172.119 474.678 L161.494 485.303 L158.762 482.502 L169.318 471.924 L158.762 461.299 L161.494 458.498 L172.119 469.123 L182.743 458.498 L185.498 461.299 Z" fill="#000000" fill-rule="evenodd" fill-opacity="1" /><path clip-path="url(#clip100)" d="M197.859 482.827 L205.498 482.827 L205.498 456.461 L197.188 458.128 L197.188 453.868 L205.452 452.202 L210.128 452.202 L210.128 482.827 L217.766 482.827 L217.766 486.762 L197.859 486.762 L197.859 482.827 Z" fill="#000000" fill-rule="evenodd" fill-opacity="1" /><path clip-path="url(#clip100)" d="M237.211 455.28 Q233.6 455.28 231.771 458.845 Q229.965 462.387 229.965 469.516 Q229.965 476.623 231.771 480.188 Q233.6 483.729 237.211 483.729 Q240.845 483.729 242.651 480.188 Q244.479 476.623 244.479 469.516 Q244.479 462.387 242.651 458.845 Q240.845 455.28 237.211 455.28 M237.211 451.577 Q243.021 451.577 246.076 456.183 Q249.155 460.766 249.155 469.516 Q249.155 478.243 246.076 482.85 Q243.021 487.433 237.211 487.433 Q231.401 487.433 228.322 482.85 Q225.266 478.243 225.266 469.516 Q225.266 460.766 228.322 456.183 Q231.401 451.577 237.211 451.577 Z" fill="#000000" fill-rule="evenodd" fill-opacity="1" /><path clip-path="url(#clip100)" d="M261.832 434.581 L252.24 449.571 L261.832 449.571 L261.832 434.581 M260.835 431.271 L265.612 431.271 L265.612 449.571 L269.618 449.571 L269.618 452.731 L265.612 452.731 L265.612 459.351 L261.832 459.351 L261.832 452.731 L249.155 452.731 L249.155 449.063 L260.835 431.271 Z" fill="#000000" fill-rule="evenodd" fill-opacity="1" /><path clip-path="url(#clip100)" d="M52.5821 290.797 L60.221 290.797 L60.221 264.432 L51.9108 266.098 L51.9108 261.839 L60.1747 260.173 L64.8506 260.173 L64.8506 290.797 L72.4894 290.797 L72.4894 294.733 L52.5821 294.733 L52.5821 290.797 Z" fill="#000000" fill-rule="evenodd" fill-opacity="1" /><path clip-path="url(#clip100)" d="M81.9338 288.853 L86.818 288.853 L86.818 294.733 L81.9338 294.733 L81.9338 288.853 Z" fill="#000000" fill-rule="evenodd" fill-opacity="1" /><path clip-path="url(#clip100)" d="M101.031 290.797 L117.35 290.797 L117.35 294.733 L95.406 294.733 L95.406 290.797 Q98.068 288.043 102.651 283.413 Q107.258 278.76 108.438 277.418 Q110.684 274.895 111.563 273.159 Q112.466 271.399 112.466 269.71 Q112.466 266.955 110.522 265.219 Q108.6 263.483 105.498 263.483 Q103.299 263.483 100.846 264.247 Q98.4152 265.011 95.6374 266.561 L95.6374 261.839 Q98.4615 260.705 100.915 260.126 Q103.369 259.548 105.406 259.548 Q110.776 259.548 113.971 262.233 Q117.165 264.918 117.165 269.409 Q117.165 271.538 116.355 273.46 Q115.568 275.358 113.461 277.95 Q112.883 278.622 109.781 281.839 Q106.679 285.034 101.031 290.797 Z" fill="#000000" fill-rule="evenodd" fill-opacity="1" /><path clip-path="url(#clip100)" d="M137.165 263.251 Q133.554 263.251 131.725 266.816 Q129.92 270.358 129.92 277.487 Q129.92 284.594 131.725 288.159 Q133.554 291.7 137.165 291.7 Q140.799 291.7 142.605 288.159 Q144.433 284.594 144.433 277.487 Q144.433 270.358 142.605 266.816 Q140.799 263.251 137.165 263.251 M137.165 259.548 Q142.975 259.548 146.031 264.154 Q149.109 268.737 149.109 277.487 Q149.109 286.214 146.031 290.821 Q142.975 295.404 137.165 295.404 Q131.355 295.404 128.276 290.821 Q125.221 286.214 125.221 277.487 Q125.221 268.737 128.276 264.154 Q131.355 259.548 137.165 259.548 Z" fill="#000000" fill-rule="evenodd" fill-opacity="1" /><path clip-path="url(#clip100)" d="M185.498 269.27 L174.919 279.895 L185.498 290.473 L182.743 293.274 L172.119 282.649 L161.494 293.274 L158.762 290.473 L169.318 279.895 L158.762 269.27 L161.494 266.469 L172.119 277.094 L182.743 266.469 L185.498 269.27 Z" fill="#000000" fill-rule="evenodd" fill-opacity="1" /><path clip-path="url(#clip100)" d="M197.859 290.797 L205.498 290.797 L205.498 264.432 L197.188 266.098 L197.188 261.839 L205.452 260.173 L210.128 260.173 L210.128 290.797 L217.766 290.797 L217.766 294.733 L197.859 294.733 L197.859 290.797 Z" fill="#000000" fill-rule="evenodd" fill-opacity="1" /><path clip-path="url(#clip100)" d="M237.211 263.251 Q233.6 263.251 231.771 266.816 Q229.965 270.358 229.965 277.487 Q229.965 284.594 231.771 288.159 Q233.6 291.7 237.211 291.7 Q240.845 291.7 242.651 288.159 Q244.479 284.594 244.479 277.487 Q244.479 270.358 242.651 266.816 Q240.845 263.251 237.211 263.251 M237.211 259.548 Q243.021 259.548 246.076 264.154 Q249.155 268.737 249.155 277.487 Q249.155 286.214 246.076 290.821 Q243.021 295.404 237.211 295.404 Q231.401 295.404 228.322 290.821 Q225.266 286.214 225.266 277.487 Q225.266 268.737 228.322 264.154 Q231.401 259.548 237.211 259.548 Z" fill="#000000" fill-rule="evenodd" fill-opacity="1" /><path clip-path="url(#clip100)" d="M261.832 242.552 L252.24 257.542 L261.832 257.542 L261.832 242.552 M260.835 239.242 L265.612 239.242 L265.612 257.542 L269.618 257.542 L269.618 260.702 L265.612 260.702 L265.612 267.322 L261.832 267.322 L261.832 260.702 L249.155 260.702 L249.155 257.034 L260.835 239.242 Z" fill="#000000" fill-rule="evenodd" fill-opacity="1" /><path clip-path="url(#clip102)" d="
M418.214 1366.05 L418.214 1423.18 L721.872 1423.18 L721.872 1366.05 L418.214 1366.05 L418.214 1366.05  Z
  " fill="#636875" fill-rule="evenodd" fill-opacity="1"/>
<polyline clip-path="url(#clip102)" style="stroke:#000000; stroke-linecap:butt; stroke-linejoin:round; stroke-width:4; stroke-opacity:1; fill:none" points="
  418.214,1366.05 418.214,1423.18 721.872,1423.18 721.872,1366.05 418.214,1366.05 
  "/>
<path clip-path="url(#clip102)" d="
M797.786 123.472 L797.786 1423.18 L1101.44 1423.18 L1101.44 123.472 L797.786 123.472 L797.786 123.472  Z
  " fill="#505664" fill-rule="evenodd" fill-opacity="1"/>
<polyline clip-path="url(#clip102)" style="stroke:#000000; stroke-linecap:butt; stroke-linejoin:round; stroke-width:4; stroke-opacity:1; fill:none" points="
  797.786,123.472 797.786,1423.18 1101.44,1423.18 1101.44,123.472 797.786,123.472 
  "/>
<path clip-path="url(#clip102)" d="
M1177.36 1261.88 L1177.36 1423.18 L1481.02 1423.18 L1481.02 1261.88 L1177.36 1261.88 L1177.36 1261.88  Z
  " fill="#157083" fill-rule="evenodd" fill-opacity="1"/>
<polyline clip-path="url(#clip102)" style="stroke:#000000; stroke-linecap:butt; stroke-linejoin:round; stroke-width:4; stroke-opacity:1; fill:none" points="
  1177.36,1261.88 1177.36,1423.18 1481.02,1423.18 1481.02,1261.88 1177.36,1261.88 
  "/>
<path clip-path="url(#clip102)" d="
M1556.93 1423.18 L1556.93 1423.18 L1860.59 1423.18 L1860.59 1423.18 L1556.93 1423.18 L1556.93 1423.18  Z
  " fill="#730000" fill-rule="evenodd" fill-opacity="1"/>
<polyline clip-path="url(#clip102)" style="stroke:#000000; stroke-linecap:butt; stroke-linejoin:round; stroke-width:4; stroke-opacity:1; fill:none" points="
  1556.93,1423.18 1556.93,1423.18 1860.59,1423.18 1860.59,1423.18 1556.93,1423.18 
  "/>
<path clip-path="url(#clip102)" d="
M1936.5 1384.77 L1936.5 1423.18 L2240.16 1423.18 L2240.16 1384.77 L1936.5 1384.77 L1936.5 1384.77  Z
  " fill="#50863c" fill-rule="evenodd" fill-opacity="1"/>
<polyline clip-path="url(#clip102)" style="stroke:#000000; stroke-linecap:butt; stroke-linejoin:round; stroke-width:4; stroke-opacity:1; fill:none" points="
  1936.5,1384.77 1936.5,1423.18 2240.16,1423.18 2240.16,1384.77 1936.5,1384.77 
  "/>
<circle clip-path="url(#clip102)" style="fill:#636875; stroke:none; fill-opacity:0" cx="570.043" cy="1366.05" r="2"/>
<circle clip-path="url(#clip102)" style="fill:#505664; stroke:none; fill-opacity:0" cx="949.615" cy="123.472" r="2"/>
<circle clip-path="url(#clip102)" style="fill:#157083; stroke:none; fill-opacity:0" cx="1329.19" cy="1261.88" r="2"/>
<circle clip-path="url(#clip102)" style="fill:#730000; stroke:none; fill-opacity:0" cx="1708.76" cy="1423.18" r="2"/>
<circle clip-path="url(#clip102)" style="fill:#50863c; stroke:none; fill-opacity:0" cx="2088.33" cy="1384.77" r="2"/>
</svg>
