<?xml version="1.0" encoding="utf-8"?>
<svg xmlns="http://www.w3.org/2000/svg" xmlns:xlink="http://www.w3.org/1999/xlink" width="600" height="400" viewBox="0 0 2400 1600">
<defs>
  <clipPath id="clip140">
    <rect x="0" y="0" width="2400" height="1600"/>
  </clipPath>
</defs>
<path clip-path="url(#clip140)" d="
M0 1600 L2400 1600 L2400 0 L0 0  Z
  " fill="#ffffff" fill-rule="evenodd" fill-opacity="1"/>
<defs>
  <clipPath id="clip141">
    <rect x="480" y="0" width="1681" height="1600"/>
  </clipPath>
</defs>
<path clip-path="url(#clip140)" d="
M172.015 1423.18 L1808.8 1423.18 L1808.8 123.472 L172.015 123.472  Z
  " fill="#ffffff" fill-rule="evenodd" fill-opacity="1"/>
<defs>
  <clipPath id="clip142">
    <rect x="172" y="123" width="1638" height="1301"/>
  </clipPath>
</defs>
<polyline clip-path="url(#clip140)" style="stroke:#000000; stroke-linecap:butt; stroke-linejoin:round; stroke-width:4; stroke-opacity:1; fill:none" points="
  172.015,1423.18 1808.8,1423.18 
  "/>
<polyline clip-path="url(#clip140)" style="stroke:#000000; stroke-linecap:butt; stroke-linejoin:round; stroke-width:4; stroke-opacity:1; fill:none" points="
  218.339,1423.18 218.339,1404.28 
  "/>
<polyline clip-path="url(#clip140)" style="stroke:#000000; stroke-linecap:butt; stroke-linejoin:round; stroke-width:4; stroke-opacity:1; fill:none" points="
  1762.48,1423.18 1762.48,1404.28 
  "/>
<path clip-path="url(#clip140)" d="M-31.4166 1481.64 L-15.0972 1481.64 L-15.0972 1485.58 L-37.0416 1485.58 L-37.0416 1481.64 Q-34.3795 1478.89 -29.7962 1474.26 Q-25.1898 1469.61 -24.0092 1468.27 Q-21.7639 1465.74 -20.8842 1464.01 Q-19.9815 1462.25 -19.9815 1460.56 Q-19.9815 1457.8 -21.9259 1456.07 Q-23.8472 1454.33 -26.949 1454.33 Q-29.1481 1454.33 -31.6018 1455.09 Q-34.0323 1455.86 -36.8101 1457.41 L-36.8101 1452.69 Q-33.986 1451.55 -31.5323 1450.97 Q-29.0786 1450.39 -27.0416 1450.39 Q-21.6713 1450.39 -18.4769 1453.08 Q-15.2824 1455.77 -15.2824 1460.26 Q-15.2824 1462.39 -16.0926 1464.31 Q-16.8796 1466.2 -18.9861 1468.8 Q-19.5648 1469.47 -22.6666 1472.69 Q-25.7685 1475.88 -31.4166 1481.64 Z" fill="#000000" fill-rule="evenodd" fill-opacity="1" /><path clip-path="url(#clip140)" d="M4.71747 1454.1 Q1.10638 1454.1 -0.722318 1457.66 Q-2.52786 1461.2 -2.52786 1468.33 Q-2.52786 1475.44 -0.722318 1479.01 Q1.10638 1482.55 4.71747 1482.55 Q8.35171 1482.55 10.1573 1479.01 Q11.9859 1475.44 11.9859 1468.33 Q11.9859 1461.2 10.1573 1457.66 Q8.35171 1454.1 4.71747 1454.1 M4.71747 1450.39 Q10.5276 1450.39 13.5832 1455 Q16.6618 1459.58 16.6618 1468.33 Q16.6618 1477.06 13.5832 1481.67 Q10.5276 1486.25 4.71747 1486.25 Q-1.09269 1486.25 -4.17137 1481.67 Q-7.22691 1477.06 -7.22691 1468.33 Q-7.22691 1459.58 -4.17137 1455 Q-1.09269 1450.39 4.71747 1450.39 Z" fill="#000000" fill-rule="evenodd" fill-opacity="1" /><path clip-path="url(#clip140)" d="M28.9072 1481.64 L45.2265 1481.64 L45.2265 1485.58 L23.2822 1485.58 L23.2822 1481.64 Q25.9442 1478.89 30.5275 1474.26 Q35.134 1469.61 36.3145 1468.27 Q38.5599 1465.74 39.4395 1464.01 Q40.3423 1462.25 40.3423 1460.56 Q40.3423 1457.8 38.3978 1456.07 Q36.4766 1454.33 33.3747 1454.33 Q31.1757 1454.33 28.722 1455.09 Q26.2914 1455.86 23.5137 1457.41 L23.5137 1452.69 Q26.3377 1451.55 28.7914 1450.97 Q31.2451 1450.39 33.2821 1450.39 Q38.6525 1450.39 41.8469 1453.08 Q45.0413 1455.77 45.0413 1460.26 Q45.0413 1462.39 44.2311 1464.31 Q43.4441 1466.2 41.3376 1468.8 Q40.7589 1469.47 37.6571 1472.69 Q34.5553 1475.88 28.9072 1481.64 Z" fill="#000000" fill-rule="evenodd" fill-opacity="1" /><path clip-path="url(#clip140)" d="M65.0412 1454.1 Q61.4301 1454.1 59.6014 1457.66 Q57.7959 1461.2 57.7959 1468.33 Q57.7959 1475.44 59.6014 1479.01 Q61.4301 1482.55 65.0412 1482.55 Q68.6755 1482.55 70.481 1479.01 Q72.3097 1475.44 72.3097 1468.33 Q72.3097 1461.2 70.481 1457.66 Q68.6755 1454.1 65.0412 1454.1 M65.0412 1450.39 Q70.8514 1450.39 73.9069 1455 Q76.9856 1459.58 76.9856 1468.33 Q76.9856 1477.06 73.9069 1481.67 Q70.8514 1486.25 65.0412 1486.25 Q59.2311 1486.25 56.1524 1481.67 Q53.0968 1477.06 53.0968 1468.33 Q53.0968 1459.58 56.1524 1455 Q59.2311 1450.39 65.0412 1450.39 Z" fill="#000000" fill-rule="evenodd" fill-opacity="1" /><path clip-path="url(#clip140)" d="M82.4485 1470.7 L94.9253 1470.7 L94.9253 1474.49 L82.4485 1474.49 L82.4485 1470.7 Z" fill="#000000" fill-rule="evenodd" fill-opacity="1" /><path clip-path="url(#clip140)" d="M112.309 1454.1 Q108.698 1454.1 106.87 1457.66 Q105.064 1461.2 105.064 1468.33 Q105.064 1475.44 106.87 1479.01 Q108.698 1482.55 112.309 1482.55 Q115.944 1482.55 117.749 1479.01 Q119.578 1475.44 119.578 1468.33 Q119.578 1461.2 117.749 1457.66 Q115.944 1454.1 112.309 1454.1 M112.309 1450.39 Q118.12 1450.39 121.175 1455 Q124.254 1459.58 124.254 1468.33 Q124.254 1477.06 121.175 1481.67 Q118.12 1486.25 112.309 1486.25 Q106.499 1486.25 103.421 1481.67 Q100.365 1477.06 100.365 1468.33 Q100.365 1459.58 103.421 1455 Q106.499 1450.39 112.309 1450.39 Z" fill="#000000" fill-rule="evenodd" fill-opacity="1" /><path clip-path="url(#clip140)" d="M133.282 1481.64 L140.92 1481.64 L140.92 1455.28 L132.61 1456.95 L132.61 1452.69 L140.874 1451.02 L145.55 1451.02 L145.55 1481.64 L153.189 1481.64 L153.189 1485.58 L133.282 1485.58 L133.282 1481.64 Z" fill="#000000" fill-rule="evenodd" fill-opacity="1" /><path clip-path="url(#clip140)" d="M159.879 1470.7 L172.355 1470.7 L172.355 1474.49 L159.879 1474.49 L159.879 1470.7 Z" fill="#000000" fill-rule="evenodd" fill-opacity="1" /><path clip-path="url(#clip140)" d="M189.74 1454.1 Q186.129 1454.1 184.3 1457.66 Q182.494 1461.2 182.494 1468.33 Q182.494 1475.44 184.3 1479.01 Q186.129 1482.55 189.74 1482.55 Q193.374 1482.55 195.179 1479.01 Q197.008 1475.44 197.008 1468.33 Q197.008 1461.2 195.179 1457.66 Q193.374 1454.1 189.74 1454.1 M189.74 1450.39 Q195.55 1450.39 198.605 1455 Q201.684 1459.58 201.684 1468.33 Q201.684 1477.06 198.605 1481.67 Q195.55 1486.25 189.74 1486.25 Q183.929 1486.25 180.851 1481.67 Q177.795 1477.06 177.795 1468.33 Q177.795 1459.58 180.851 1455 Q183.929 1450.39 189.74 1450.39 Z" fill="#000000" fill-rule="evenodd" fill-opacity="1" /><path clip-path="url(#clip140)" d="M210.712 1481.64 L218.351 1481.64 L218.351 1455.28 L210.04 1456.95 L210.04 1452.69 L218.304 1451.02 L222.98 1451.02 L222.98 1481.64 L230.619 1481.64 L230.619 1485.58 L210.712 1485.58 L210.712 1481.64 Z" fill="#000000" fill-rule="evenodd" fill-opacity="1" /><path clip-path="url(#clip140)" d="M234.855 1451.02 L264.091 1451.02 L264.091 1454.96 L251.823 1454.96 L251.823 1485.58 L247.124 1485.58 L247.124 1454.96 L234.855 1454.96 L234.855 1451.02 Z" fill="#000000" fill-rule="evenodd" fill-opacity="1" /><path clip-path="url(#clip140)" d="M279.022 1454.1 Q275.41 1454.1 273.582 1457.66 Q271.776 1461.2 271.776 1468.33 Q271.776 1475.44 273.582 1479.01 Q275.41 1482.55 279.022 1482.55 Q282.656 1482.55 284.461 1479.01 Q286.29 1475.44 286.29 1468.33 Q286.29 1461.2 284.461 1457.66 Q282.656 1454.1 279.022 1454.1 M279.022 1450.39 Q284.832 1450.39 287.887 1455 Q290.966 1459.58 290.966 1468.33 Q290.966 1477.06 287.887 1481.67 Q284.832 1486.25 279.022 1486.25 Q273.211 1486.25 270.133 1481.67 Q267.077 1477.06 267.077 1468.33 Q267.077 1459.58 270.133 1455 Q273.211 1450.39 279.022 1450.39 Z" fill="#000000" fill-rule="evenodd" fill-opacity="1" /><path clip-path="url(#clip140)" d="M309.183 1454.1 Q305.572 1454.1 303.744 1457.66 Q301.938 1461.2 301.938 1468.33 Q301.938 1475.44 303.744 1479.01 Q305.572 1482.55 309.183 1482.55 Q312.818 1482.55 314.623 1479.01 Q316.452 1475.44 316.452 1468.33 Q316.452 1461.2 314.623 1457.66 Q312.818 1454.1 309.183 1454.1 M309.183 1450.39 Q314.994 1450.39 318.049 1455 Q321.128 1459.58 321.128 1468.33 Q321.128 1477.06 318.049 1481.67 Q314.994 1486.25 309.183 1486.25 Q303.373 1486.25 300.295 1481.67 Q297.239 1477.06 297.239 1468.33 Q297.239 1459.58 300.295 1455 Q303.373 1450.39 309.183 1450.39 Z" fill="#000000" fill-rule="evenodd" fill-opacity="1" /><path clip-path="url(#clip140)" d="M329.831 1479.7 L334.716 1479.7 L334.716 1485.58 L329.831 1485.58 L329.831 1479.7 M329.831 1461.07 L334.716 1461.07 L334.716 1466.95 L329.831 1466.95 L329.831 1461.07 Z" fill="#000000" fill-rule="evenodd" fill-opacity="1" /><path clip-path="url(#clip140)" d="M355.317 1454.1 Q351.706 1454.1 349.878 1457.66 Q348.072 1461.2 348.072 1468.33 Q348.072 1475.44 349.878 1479.01 Q351.706 1482.55 355.317 1482.55 Q358.952 1482.55 360.757 1479.01 Q362.586 1475.44 362.586 1468.33 Q362.586 1461.2 360.757 1457.66 Q358.952 1454.1 355.317 1454.1 M355.317 1450.39 Q361.128 1450.39 364.183 1455 Q367.262 1459.58 367.262 1468.33 Q367.262 1477.06 364.183 1481.67 Q361.128 1486.25 355.317 1486.25 Q349.507 1486.25 346.429 1481.67 Q343.373 1477.06 343.373 1468.33 Q343.373 1459.58 346.429 1455 Q349.507 1450.39 355.317 1450.39 Z" fill="#000000" fill-rule="evenodd" fill-opacity="1" /><path clip-path="url(#clip140)" d="M385.479 1454.1 Q381.868 1454.1 380.04 1457.66 Q378.234 1461.2 378.234 1468.33 Q378.234 1475.44 380.04 1479.01 Q381.868 1482.55 385.479 1482.55 Q389.114 1482.55 390.919 1479.01 Q392.748 1475.44 392.748 1468.33 Q392.748 1461.2 390.919 1457.66 Q389.114 1454.1 385.479 1454.1 M385.479 1450.39 Q391.289 1450.39 394.345 1455 Q397.424 1459.58 397.424 1468.33 Q397.424 1477.06 394.345 1481.67 Q391.289 1486.25 385.479 1486.25 Q379.669 1486.25 376.59 1481.67 Q373.535 1477.06 373.535 1468.33 Q373.535 1459.58 376.59 1455 Q379.669 1450.39 385.479 1450.39 Z" fill="#000000" fill-rule="evenodd" fill-opacity="1" /><path clip-path="url(#clip140)" d="M406.127 1479.7 L411.012 1479.7 L411.012 1485.58 L406.127 1485.58 L406.127 1479.7 M406.127 1461.07 L411.012 1461.07 L411.012 1466.95 L406.127 1466.95 L406.127 1461.07 Z" fill="#000000" fill-rule="evenodd" fill-opacity="1" /><path clip-path="url(#clip140)" d="M431.613 1454.1 Q428.002 1454.1 426.174 1457.66 Q424.368 1461.2 424.368 1468.33 Q424.368 1475.44 426.174 1479.01 Q428.002 1482.55 431.613 1482.55 Q435.248 1482.55 437.053 1479.01 Q438.882 1475.44 438.882 1468.33 Q438.882 1461.2 437.053 1457.66 Q435.248 1454.1 431.613 1454.1 M431.613 1450.39 Q437.423 1450.39 440.479 1455 Q443.558 1459.58 443.558 1468.33 Q443.558 1477.06 440.479 1481.67 Q437.423 1486.25 431.613 1486.25 Q425.803 1486.25 422.724 1481.67 Q419.669 1477.06 419.669 1468.33 Q419.669 1459.58 422.724 1455 Q425.803 1450.39 431.613 1450.39 Z" fill="#000000" fill-rule="evenodd" fill-opacity="1" /><path clip-path="url(#clip140)" d="M461.775 1454.1 Q458.164 1454.1 456.335 1457.66 Q454.53 1461.2 454.53 1468.33 Q454.53 1475.44 456.335 1479.01 Q458.164 1482.55 461.775 1482.55 Q465.409 1482.55 467.215 1479.01 Q469.044 1475.44 469.044 1468.33 Q469.044 1461.2 467.215 1457.66 Q465.409 1454.1 461.775 1454.1 M461.775 1450.39 Q467.585 1450.39 470.641 1455 Q473.72 1459.58 473.72 1468.33 Q473.72 1477.06 470.641 1481.67 Q467.585 1486.25 461.775 1486.25 Q455.965 1486.25 452.886 1481.67 Q449.831 1477.06 449.831 1468.33 Q449.831 1459.58 452.886 1455 Q455.965 1450.39 461.775 1450.39 Z" fill="#000000" fill-rule="evenodd" fill-opacity="1" /><path clip-path="url(#clip140)" d="M1512.72 1481.64 L1529.04 1481.64 L1529.04 1485.58 L1507.1 1485.58 L1507.1 1481.64 Q1509.76 1478.89 1514.34 1474.26 Q1518.95 1469.61 1520.13 1468.27 Q1522.38 1465.74 1523.26 1464.01 Q1524.16 1462.25 1524.16 1460.56 Q1524.16 1457.8 1522.21 1456.07 Q1520.29 1454.33 1517.19 1454.33 Q1514.99 1454.33 1512.54 1455.09 Q1510.11 1455.86 1507.33 1457.41 L1507.33 1452.69 Q1510.15 1451.55 1512.61 1450.97 Q1515.06 1450.39 1517.1 1450.39 Q1522.47 1450.39 1525.66 1453.08 Q1528.86 1455.77 1528.86 1460.26 Q1528.86 1462.39 1528.05 1464.31 Q1527.26 1466.2 1525.15 1468.8 Q1524.57 1469.47 1521.47 1472.69 Q1518.37 1475.88 1512.72 1481.64 Z" fill="#000000" fill-rule="evenodd" fill-opacity="1" /><path clip-path="url(#clip140)" d="M1548.86 1454.1 Q1545.25 1454.1 1543.42 1457.66 Q1541.61 1461.2 1541.61 1468.33 Q1541.61 1475.44 1543.42 1479.01 Q1545.25 1482.55 1548.86 1482.55 Q1552.49 1482.55 1554.3 1479.01 Q1556.13 1475.44 1556.13 1468.33 Q1556.13 1461.2 1554.3 1457.66 Q1552.49 1454.1 1548.86 1454.1 M1548.86 1450.39 Q1554.67 1450.39 1557.72 1455 Q1560.8 1459.58 1560.8 1468.33 Q1560.8 1477.06 1557.72 1481.67 Q1554.67 1486.25 1548.86 1486.25 Q1543.05 1486.25 1539.97 1481.67 Q1536.91 1477.06 1536.91 1468.33 Q1536.91 1459.58 1539.97 1455 Q1543.05 1450.39 1548.86 1450.39 Z" fill="#000000" fill-rule="evenodd" fill-opacity="1" /><path clip-path="url(#clip140)" d="M1573.05 1481.64 L1589.37 1481.64 L1589.37 1485.58 L1567.42 1485.58 L1567.42 1481.64 Q1570.08 1478.89 1574.67 1474.26 Q1579.27 1469.61 1580.45 1468.27 Q1582.7 1465.74 1583.58 1464.01 Q1584.48 1462.25 1584.48 1460.56 Q1584.48 1457.8 1582.54 1456.07 Q1580.62 1454.33 1577.51 1454.33 Q1575.32 1454.33 1572.86 1455.09 Q1570.43 1455.86 1567.65 1457.41 L1567.65 1452.69 Q1570.48 1451.55 1572.93 1450.97 Q1575.38 1450.39 1577.42 1450.39 Q1582.79 1450.39 1585.99 1453.08 Q1589.18 1455.77 1589.18 1460.26 Q1589.18 1462.39 1588.37 1464.31 Q1587.58 1466.2 1585.48 1468.8 Q1584.9 1469.47 1581.8 1472.69 Q1578.69 1475.88 1573.05 1481.64 Z" fill="#000000" fill-rule="evenodd" fill-opacity="1" /><path clip-path="url(#clip140)" d="M1609.18 1454.1 Q1605.57 1454.1 1603.74 1457.66 Q1601.94 1461.2 1601.94 1468.33 Q1601.94 1475.44 1603.74 1479.01 Q1605.57 1482.55 1609.18 1482.55 Q1612.82 1482.55 1614.62 1479.01 Q1616.45 1475.44 1616.45 1468.33 Q1616.45 1461.2 1614.62 1457.66 Q1612.82 1454.1 1609.18 1454.1 M1609.18 1450.39 Q1614.99 1450.39 1618.05 1455 Q1621.13 1459.58 1621.13 1468.33 Q1621.13 1477.06 1618.05 1481.67 Q1614.99 1486.25 1609.18 1486.25 Q1603.37 1486.25 1600.29 1481.67 Q1597.24 1477.06 1597.24 1468.33 Q1597.24 1459.58 1600.29 1455 Q1603.37 1450.39 1609.18 1450.39 Z" fill="#000000" fill-rule="evenodd" fill-opacity="1" /><path clip-path="url(#clip140)" d="M1626.59 1470.7 L1639.06 1470.7 L1639.06 1474.49 L1626.59 1474.49 L1626.59 1470.7 Z" fill="#000000" fill-rule="evenodd" fill-opacity="1" /><path clip-path="url(#clip140)" d="M1656.45 1454.1 Q1652.84 1454.1 1651.01 1457.66 Q1649.2 1461.2 1649.2 1468.33 Q1649.2 1475.44 1651.01 1479.01 Q1652.84 1482.55 1656.45 1482.55 Q1660.08 1482.55 1661.89 1479.01 Q1663.72 1475.44 1663.72 1468.33 Q1663.72 1461.2 1661.89 1457.66 Q1660.08 1454.1 1656.45 1454.1 M1656.45 1450.39 Q1662.26 1450.39 1665.31 1455 Q1668.39 1459.58 1668.39 1468.33 Q1668.39 1477.06 1665.31 1481.67 Q1662.26 1486.25 1656.45 1486.25 Q1650.64 1486.25 1647.56 1481.67 Q1644.5 1477.06 1644.5 1468.33 Q1644.5 1459.58 1647.56 1455 Q1650.64 1450.39 1656.45 1450.39 Z" fill="#000000" fill-rule="evenodd" fill-opacity="1" /><path clip-path="url(#clip140)" d="M1677.42 1481.64 L1685.06 1481.64 L1685.06 1455.28 L1676.75 1456.95 L1676.75 1452.69 L1685.01 1451.02 L1689.69 1451.02 L1689.69 1481.64 L1697.33 1481.64 L1697.33 1485.58 L1677.42 1485.58 L1677.42 1481.64 Z" fill="#000000" fill-rule="evenodd" fill-opacity="1" /><path clip-path="url(#clip140)" d="M1704.02 1470.7 L1716.5 1470.7 L1716.5 1474.49 L1704.02 1474.49 L1704.02 1470.7 Z" fill="#000000" fill-rule="evenodd" fill-opacity="1" /><path clip-path="url(#clip140)" d="M1733.88 1454.1 Q1730.27 1454.1 1728.44 1457.66 Q1726.63 1461.2 1726.63 1468.33 Q1726.63 1475.44 1728.44 1479.01 Q1730.27 1482.55 1733.88 1482.55 Q1737.51 1482.55 1739.32 1479.01 Q1741.15 1475.44 1741.15 1468.33 Q1741.15 1461.2 1739.32 1457.66 Q1737.51 1454.1 1733.88 1454.1 M1733.88 1450.39 Q1739.69 1450.39 1742.74 1455 Q1745.82 1459.58 1745.82 1468.33 Q1745.82 1477.06 1742.74 1481.67 Q1739.69 1486.25 1733.88 1486.25 Q1728.07 1486.25 1724.99 1481.67 Q1721.93 1477.06 1721.93 1468.33 Q1721.93 1459.58 1724.99 1455 Q1728.07 1450.39 1733.88 1450.39 Z" fill="#000000" fill-rule="evenodd" fill-opacity="1" /><path clip-path="url(#clip140)" d="M1754.85 1481.64 L1762.49 1481.64 L1762.49 1455.28 L1754.18 1456.95 L1754.18 1452.69 L1762.44 1451.02 L1767.12 1451.02 L1767.12 1481.64 L1774.76 1481.64 L1774.76 1485.58 L1754.85 1485.58 L1754.85 1481.64 Z" fill="#000000" fill-rule="evenodd" fill-opacity="1" /><path clip-path="url(#clip140)" d="M1778.99 1451.02 L1808.23 1451.02 L1808.23 1454.96 L1795.96 1454.96 L1795.96 1485.58 L1791.26 1485.58 L1791.26 1454.96 L1778.99 1454.96 L1778.99 1451.02 Z" fill="#000000" fill-rule="evenodd" fill-opacity="1" /><path clip-path="url(#clip140)" d="M1817.19 1481.64 L1833.51 1481.64 L1833.51 1485.58 L1811.56 1485.58 L1811.56 1481.64 Q1814.23 1478.89 1818.81 1474.26 Q1823.42 1469.61 1824.6 1468.27 Q1826.84 1465.74 1827.72 1464.01 Q1828.62 1462.25 1828.62 1460.56 Q1828.62 1457.8 1826.68 1456.07 Q1824.76 1454.33 1821.66 1454.33 Q1819.46 1454.33 1817 1455.09 Q1814.57 1455.86 1811.8 1457.41 L1811.8 1452.69 Q1814.62 1451.55 1817.07 1450.97 Q1819.53 1450.39 1821.56 1450.39 Q1826.93 1450.39 1830.13 1453.08 Q1833.32 1455.77 1833.32 1460.26 Q1833.32 1462.39 1832.51 1464.31 Q1831.73 1466.2 1829.62 1468.8 Q1829.04 1469.47 1825.94 1472.69 Q1822.84 1475.88 1817.19 1481.64 Z" fill="#000000" fill-rule="evenodd" fill-opacity="1" /><path clip-path="url(#clip140)" d="M1857.49 1466.95 Q1860.85 1467.66 1862.72 1469.93 Q1864.62 1472.2 1864.62 1475.53 Q1864.62 1480.65 1861.1 1483.45 Q1857.58 1486.25 1851.1 1486.25 Q1848.92 1486.25 1846.61 1485.81 Q1844.32 1485.39 1841.86 1484.54 L1841.86 1480.02 Q1843.81 1481.16 1846.12 1481.74 Q1848.44 1482.32 1850.96 1482.32 Q1855.36 1482.32 1857.65 1480.58 Q1859.97 1478.84 1859.97 1475.53 Q1859.97 1472.48 1857.81 1470.77 Q1855.68 1469.03 1851.86 1469.03 L1847.84 1469.03 L1847.84 1465.19 L1852.05 1465.19 Q1855.5 1465.19 1857.33 1463.82 Q1859.16 1462.43 1859.16 1459.84 Q1859.16 1457.18 1857.26 1455.77 Q1855.38 1454.33 1851.86 1454.33 Q1849.94 1454.33 1847.74 1454.75 Q1845.55 1455.16 1842.91 1456.04 L1842.91 1451.88 Q1845.57 1451.14 1847.88 1450.77 Q1850.22 1450.39 1852.28 1450.39 Q1857.61 1450.39 1860.71 1452.83 Q1863.81 1455.23 1863.81 1459.35 Q1863.81 1462.22 1862.17 1464.21 Q1860.52 1466.18 1857.49 1466.95 Z" fill="#000000" fill-rule="evenodd" fill-opacity="1" /><path clip-path="url(#clip140)" d="M1873.97 1479.7 L1878.86 1479.7 L1878.86 1485.58 L1873.97 1485.58 L1873.97 1479.7 M1873.97 1461.07 L1878.86 1461.07 L1878.86 1466.95 L1873.97 1466.95 L1873.97 1461.07 Z" fill="#000000" fill-rule="evenodd" fill-opacity="1" /><path clip-path="url(#clip140)" d="M1899.46 1454.1 Q1895.85 1454.1 1894.02 1457.66 Q1892.21 1461.2 1892.21 1468.33 Q1892.21 1475.44 1894.02 1479.01 Q1895.85 1482.55 1899.46 1482.55 Q1903.09 1482.55 1904.9 1479.01 Q1906.73 1475.44 1906.73 1468.33 Q1906.73 1461.2 1904.9 1457.66 Q1903.09 1454.1 1899.46 1454.1 M1899.46 1450.39 Q1905.27 1450.39 1908.32 1455 Q1911.4 1459.58 1911.4 1468.33 Q1911.4 1477.06 1908.32 1481.67 Q1905.27 1486.25 1899.46 1486.25 Q1893.65 1486.25 1890.57 1481.67 Q1887.51 1477.06 1887.51 1468.33 Q1887.51 1459.58 1890.57 1455 Q1893.65 1450.39 1899.46 1450.39 Z" fill="#000000" fill-rule="evenodd" fill-opacity="1" /><path clip-path="url(#clip140)" d="M1929.62 1454.1 Q1926.01 1454.1 1924.18 1457.66 Q1922.37 1461.2 1922.37 1468.33 Q1922.37 1475.44 1924.18 1479.01 Q1926.01 1482.55 1929.62 1482.55 Q1933.25 1482.55 1935.06 1479.01 Q1936.89 1475.44 1936.89 1468.33 Q1936.89 1461.2 1935.06 1457.66 Q1933.25 1454.1 1929.62 1454.1 M1929.62 1450.39 Q1935.43 1450.39 1938.48 1455 Q1941.56 1459.58 1941.56 1468.33 Q1941.56 1477.06 1938.48 1481.67 Q1935.43 1486.25 1929.62 1486.25 Q1923.81 1486.25 1920.73 1481.67 Q1917.67 1477.06 1917.67 1468.33 Q1917.67 1459.58 1920.73 1455 Q1923.81 1450.39 1929.62 1450.39 Z" fill="#000000" fill-rule="evenodd" fill-opacity="1" /><path clip-path="url(#clip140)" d="M1950.27 1479.7 L1955.15 1479.7 L1955.15 1485.58 L1950.27 1485.58 L1950.27 1479.7 M1950.27 1461.07 L1955.15 1461.07 L1955.15 1466.95 L1950.27 1466.95 L1950.27 1461.07 Z" fill="#000000" fill-rule="evenodd" fill-opacity="1" /><path clip-path="url(#clip140)" d="M1975.75 1454.1 Q1972.14 1454.1 1970.31 1457.66 Q1968.51 1461.2 1968.51 1468.33 Q1968.51 1475.44 1970.31 1479.01 Q1972.14 1482.55 1975.75 1482.55 Q1979.39 1482.55 1981.19 1479.01 Q1983.02 1475.44 1983.02 1468.33 Q1983.02 1461.2 1981.19 1457.66 Q1979.39 1454.1 1975.75 1454.1 M1975.75 1450.39 Q1981.56 1450.39 1984.62 1455 Q1987.7 1459.58 1987.7 1468.33 Q1987.7 1477.06 1984.62 1481.67 Q1981.56 1486.25 1975.75 1486.25 Q1969.94 1486.25 1966.86 1481.67 Q1963.81 1477.06 1963.81 1468.33 Q1963.81 1459.58 1966.86 1455 Q1969.94 1450.39 1975.75 1450.39 Z" fill="#000000" fill-rule="evenodd" fill-opacity="1" /><path clip-path="url(#clip140)" d="M2005.91 1454.1 Q2002.3 1454.1 2000.48 1457.66 Q1998.67 1461.2 1998.67 1468.33 Q1998.67 1475.44 2000.48 1479.01 Q2002.3 1482.55 2005.91 1482.55 Q2009.55 1482.55 2011.35 1479.01 Q2013.18 1475.44 2013.18 1468.33 Q2013.18 1461.2 2011.35 1457.66 Q2009.55 1454.1 2005.91 1454.1 M2005.91 1450.39 Q2011.73 1450.39 2014.78 1455 Q2017.86 1459.58 2017.86 1468.33 Q2017.86 1477.06 2014.78 1481.67 Q2011.73 1486.25 2005.91 1486.25 Q2000.1 1486.25 1997.03 1481.67 Q1993.97 1477.06 1993.97 1468.33 Q1993.97 1459.58 1997.03 1455 Q2000.1 1450.39 2005.91 1450.39 Z" fill="#000000" fill-rule="evenodd" fill-opacity="1" /><path clip-path="url(#clip140)" d="M904.838 1562.63 L915.341 1562.63 L915.341 1526.38 L903.915 1528.67 L903.915 1522.82 L915.278 1520.52 L921.707 1520.52 L921.707 1562.63 L932.21 1562.63 L932.21 1568.04 L904.838 1568.04 L904.838 1562.63 Z" fill="#000000" fill-rule="evenodd" fill-opacity="1" /><path clip-path="url(#clip140)" d="M988.547 1537.81 L988.547 1518.52 L994.403 1518.52 L994.403 1568.04 L988.547 1568.04 L988.547 1562.7 Q986.701 1565.88 983.868 1567.44 Q981.067 1568.97 977.12 1568.97 Q970.659 1568.97 966.585 1563.81 Q962.543 1558.65 962.543 1550.25 Q962.543 1541.85 966.585 1536.69 Q970.659 1531.54 977.12 1531.54 Q981.067 1531.54 983.868 1533.1 Q986.701 1534.62 988.547 1537.81 M968.59 1550.25 Q968.59 1556.71 971.232 1560.4 Q973.906 1564.07 978.553 1564.07 Q983.2 1564.07 985.873 1560.4 Q988.547 1556.71 988.547 1550.25 Q988.547 1543.79 985.873 1540.13 Q983.2 1536.44 978.553 1536.44 Q973.906 1536.44 971.232 1540.13 Q968.59 1543.79 968.59 1550.25 Z" fill="#000000" fill-rule="evenodd" fill-opacity="1" /><path clip-path="url(#clip140)" d="M1022.67 1550.12 Q1015.57 1550.12 1012.83 1551.75 Q1010.09 1553.37 1010.09 1557.29 Q1010.09 1560.4 1012.13 1562.25 Q1014.2 1564.07 1017.73 1564.07 Q1022.6 1564.07 1025.53 1560.63 Q1028.49 1557.16 1028.49 1551.43 L1028.49 1550.12 L1022.67 1550.12 M1034.35 1547.71 L1034.35 1568.04 L1028.49 1568.04 L1028.49 1562.63 Q1026.49 1565.88 1023.49 1567.44 Q1020.5 1568.97 1016.17 1568.97 Q1010.7 1568.97 1007.45 1565.91 Q1004.24 1562.82 1004.24 1557.67 Q1004.24 1551.65 1008.25 1548.6 Q1012.29 1545.54 1020.28 1545.54 L1028.49 1545.54 L1028.49 1544.97 Q1028.49 1540.93 1025.82 1538.73 Q1023.18 1536.5 1018.37 1536.5 Q1015.31 1536.5 1012.42 1537.23 Q1009.52 1537.97 1006.85 1539.43 L1006.85 1534.02 Q1010.06 1532.78 1013.09 1532.17 Q1016.11 1531.54 1018.97 1531.54 Q1026.71 1531.54 1030.53 1535.55 Q1034.35 1539.56 1034.35 1547.71 Z" fill="#000000" fill-rule="evenodd" fill-opacity="1" /><path clip-path="url(#clip140)" d="M1061.24 1571.35 Q1058.76 1577.72 1056.41 1579.66 Q1054.05 1581.6 1050.1 1581.6 L1045.42 1581.6 L1045.42 1576.7 L1048.86 1576.7 Q1051.28 1576.7 1052.62 1575.56 Q1053.95 1574.41 1055.58 1570.14 L1056.63 1567.47 L1042.21 1532.4 L1048.42 1532.4 L1059.56 1560.28 L1070.7 1532.4 L1076.9 1532.4 L1061.24 1571.35 Z" fill="#000000" fill-rule="evenodd" fill-opacity="1" /><polyline clip-path="url(#clip140)" style="stroke:#000000; stroke-linecap:butt; stroke-linejoin:round; stroke-width:4; stroke-opacity:1; fill:none" points="
  172.015,1423.18 172.015,123.472 
  "/>
<polyline clip-path="url(#clip140)" style="stroke:#000000; stroke-linecap:butt; stroke-linejoin:round; stroke-width:4; stroke-opacity:1; fill:none" points="
  172.015,1423.18 186.199,1423.18 
  "/>
<polyline clip-path="url(#clip140)" style="stroke:#000000; stroke-linecap:butt; stroke-linejoin:round; stroke-width:4; stroke-opacity:1; fill:none" points="
  172.015,1206.56 186.199,1206.56 
  "/>
<polyline clip-path="url(#clip140)" style="stroke:#000000; stroke-linecap:butt; stroke-linejoin:round; stroke-width:4; stroke-opacity:1; fill:none" points="
  172.015,989.944 186.199,989.944 
  "/>
<polyline clip-path="url(#clip140)" style="stroke:#000000; stroke-linecap:butt; stroke-linejoin:round; stroke-width:4; stroke-opacity:1; fill:none" points="
  172.015,773.326 186.199,773.326 
  "/>
<polyline clip-path="url(#clip140)" style="stroke:#000000; stroke-linecap:butt; stroke-linejoin:round; stroke-width:4; stroke-opacity:1; fill:none" points="
  172.015,556.708 186.199,556.708 
  "/>
<polyline clip-path="url(#clip140)" style="stroke:#000000; stroke-linecap:butt; stroke-linejoin:round; stroke-width:4; stroke-opacity:1; fill:none" points="
  172.015,340.09 186.199,340.09 
  "/>
<polyline clip-path="url(#clip140)" style="stroke:#000000; stroke-linecap:butt; stroke-linejoin:round; stroke-width:4; stroke-opacity:1; fill:none" points="
  172.015,123.472 186.199,123.472 
  "/>
<path clip-path="url(#clip140)" d="M124.07 1408.98 Q120.459 1408.98 118.631 1412.54 Q116.825 1416.08 116.825 1423.21 Q116.825 1430.32 118.631 1433.89 Q120.459 1437.43 124.07 1437.43 Q127.705 1437.43 129.51 1433.89 Q131.339 1430.32 131.339 1423.21 Q131.339 1416.08 129.51 1412.54 Q127.705 1408.98 124.07 1408.98 M124.07 1405.27 Q129.881 1405.27 132.936 1409.88 Q136.015 1414.46 136.015 1423.21 Q136.015 1431.94 132.936 1436.55 Q129.881 1441.13 124.07 1441.13 Q118.26 1441.13 115.182 1436.55 Q112.126 1431.94 112.126 1423.21 Q112.126 1414.46 115.182 1409.88 Q118.26 1405.27 124.07 1405.27 Z" fill="#000000" fill-rule="evenodd" fill-opacity="1" /><path clip-path="url(#clip140)" d="M54.5569 1219.91 L62.1958 1219.91 L62.1958 1193.54 L53.8856 1195.21 L53.8856 1190.95 L62.1495 1189.28 L66.8254 1189.28 L66.8254 1219.91 L74.4642 1219.91 L74.4642 1223.84 L54.5569 1223.84 L54.5569 1219.91 Z" fill="#000000" fill-rule="evenodd" fill-opacity="1" /><path clip-path="url(#clip140)" d="M93.9086 1192.36 Q90.2975 1192.36 88.4688 1195.93 Q86.6632 1199.47 86.6632 1206.6 Q86.6632 1213.7 88.4688 1217.27 Q90.2975 1220.81 93.9086 1220.81 Q97.5428 1220.81 99.3483 1217.27 Q101.177 1213.7 101.177 1206.6 Q101.177 1199.47 99.3483 1195.93 Q97.5428 1192.36 93.9086 1192.36 M93.9086 1188.66 Q99.7187 1188.66 102.774 1193.26 Q105.853 1197.85 105.853 1206.6 Q105.853 1215.32 102.774 1219.93 Q99.7187 1224.51 93.9086 1224.51 Q88.0984 1224.51 85.0197 1219.93 Q81.9642 1215.32 81.9642 1206.6 Q81.9642 1197.85 85.0197 1193.26 Q88.0984 1188.66 93.9086 1188.66 Z" fill="#000000" fill-rule="evenodd" fill-opacity="1" /><path clip-path="url(#clip140)" d="M124.07 1192.36 Q120.459 1192.36 118.631 1195.93 Q116.825 1199.47 116.825 1206.6 Q116.825 1213.7 118.631 1217.27 Q120.459 1220.81 124.07 1220.81 Q127.705 1220.81 129.51 1217.27 Q131.339 1213.7 131.339 1206.6 Q131.339 1199.47 129.51 1195.93 Q127.705 1192.36 124.07 1192.36 M124.07 1188.66 Q129.881 1188.66 132.936 1193.26 Q136.015 1197.85 136.015 1206.6 Q136.015 1215.32 132.936 1219.93 Q129.881 1224.51 124.07 1224.51 Q118.26 1224.51 115.182 1219.93 Q112.126 1215.32 112.126 1206.6 Q112.126 1197.85 115.182 1193.26 Q118.26 1188.66 124.07 1188.66 Z" fill="#000000" fill-rule="evenodd" fill-opacity="1" /><path clip-path="url(#clip140)" d="M57.7745 1003.29 L74.0939 1003.29 L74.0939 1007.22 L52.1495 1007.22 L52.1495 1003.29 Q54.8115 1000.53 59.3949 995.905 Q64.0013 991.252 65.1819 989.909 Q67.4272 987.386 68.3068 985.65 Q69.2096 983.891 69.2096 982.201 Q69.2096 979.446 67.2652 977.71 Q65.3439 975.974 62.2421 975.974 Q60.043 975.974 57.5893 976.738 Q55.1588 977.502 52.381 979.053 L52.381 974.331 Q55.2051 973.196 57.6588 972.618 Q60.1124 972.039 62.1495 972.039 Q67.5198 972.039 70.7142 974.724 Q73.9087 977.409 73.9087 981.9 Q73.9087 984.03 73.0985 985.951 Q72.3115 987.849 70.205 990.442 Q69.6263 991.113 66.5245 994.33 Q63.4226 997.525 57.7745 1003.29 Z" fill="#000000" fill-rule="evenodd" fill-opacity="1" /><path clip-path="url(#clip140)" d="M93.9086 975.743 Q90.2975 975.743 88.4688 979.307 Q86.6632 982.849 86.6632 989.979 Q86.6632 997.085 88.4688 1000.65 Q90.2975 1004.19 93.9086 1004.19 Q97.5428 1004.19 99.3483 1000.65 Q101.177 997.085 101.177 989.979 Q101.177 982.849 99.3483 979.307 Q97.5428 975.743 93.9086 975.743 M93.9086 972.039 Q99.7187 972.039 102.774 976.645 Q105.853 981.229 105.853 989.979 Q105.853 998.705 102.774 1003.31 Q99.7187 1007.9 93.9086 1007.9 Q88.0984 1007.9 85.0197 1003.31 Q81.9642 998.705 81.9642 989.979 Q81.9642 981.229 85.0197 976.645 Q88.0984 972.039 93.9086 972.039 Z" fill="#000000" fill-rule="evenodd" fill-opacity="1" /><path clip-path="url(#clip140)" d="M124.07 975.743 Q120.459 975.743 118.631 979.307 Q116.825 982.849 116.825 989.979 Q116.825 997.085 118.631 1000.65 Q120.459 1004.19 124.07 1004.19 Q127.705 1004.19 129.51 1000.65 Q131.339 997.085 131.339 989.979 Q131.339 982.849 129.51 979.307 Q127.705 975.743 124.07 975.743 M124.07 972.039 Q129.881 972.039 132.936 976.645 Q136.015 981.229 136.015 989.979 Q136.015 998.705 132.936 1003.31 Q129.881 1007.9 124.07 1007.9 Q118.26 1007.9 115.182 1003.31 Q112.126 998.705 112.126 989.979 Q112.126 981.229 115.182 976.645 Q118.26 972.039 124.07 972.039 Z" fill="#000000" fill-rule="evenodd" fill-opacity="1" /><path clip-path="url(#clip140)" d="M67.9133 771.972 Q71.2698 772.689 73.1448 774.958 Q75.0429 777.226 75.0429 780.56 Q75.0429 785.675 71.5244 788.476 Q68.0059 791.277 61.5245 791.277 Q59.3486 791.277 57.0338 790.837 Q54.7421 790.421 52.2884 789.564 L52.2884 785.05 Q54.2328 786.185 56.5477 786.763 Q58.8625 787.342 61.3856 787.342 Q65.7837 787.342 68.0754 785.606 Q70.3902 783.87 70.3902 780.56 Q70.3902 777.504 68.2374 775.791 Q66.1078 774.055 62.2884 774.055 L58.2606 774.055 L58.2606 770.213 L62.4735 770.213 Q65.9226 770.213 67.7513 768.847 Q69.58 767.458 69.58 764.865 Q69.58 762.203 67.6819 760.791 Q65.8069 759.356 62.2884 759.356 Q60.3671 759.356 58.168 759.773 Q55.969 760.189 53.3301 761.069 L53.3301 756.902 Q55.9921 756.162 58.3069 755.791 Q60.6449 755.421 62.705 755.421 Q68.0291 755.421 71.1309 757.852 Q74.2327 760.259 74.2327 764.379 Q74.2327 767.25 72.5892 769.24 Q70.9457 771.208 67.9133 771.972 Z" fill="#000000" fill-rule="evenodd" fill-opacity="1" /><path clip-path="url(#clip140)" d="M93.9086 759.125 Q90.2975 759.125 88.4688 762.689 Q86.6632 766.231 86.6632 773.361 Q86.6632 780.467 88.4688 784.032 Q90.2975 787.574 93.9086 787.574 Q97.5428 787.574 99.3483 784.032 Q101.177 780.467 101.177 773.361 Q101.177 766.231 99.3483 762.689 Q97.5428 759.125 93.9086 759.125 M93.9086 755.421 Q99.7187 755.421 102.774 760.027 Q105.853 764.611 105.853 773.361 Q105.853 782.088 102.774 786.694 Q99.7187 791.277 93.9086 791.277 Q88.0984 791.277 85.0197 786.694 Q81.9642 782.088 81.9642 773.361 Q81.9642 764.611 85.0197 760.027 Q88.0984 755.421 93.9086 755.421 Z" fill="#000000" fill-rule="evenodd" fill-opacity="1" /><path clip-path="url(#clip140)" d="M124.07 759.125 Q120.459 759.125 118.631 762.689 Q116.825 766.231 116.825 773.361 Q116.825 780.467 118.631 784.032 Q120.459 787.574 124.07 787.574 Q127.705 787.574 129.51 784.032 Q131.339 780.467 131.339 773.361 Q131.339 766.231 129.51 762.689 Q127.705 759.125 124.07 759.125 M124.07 755.421 Q129.881 755.421 132.936 760.027 Q136.015 764.611 136.015 773.361 Q136.015 782.088 132.936 786.694 Q129.881 791.277 124.07 791.277 Q118.26 791.277 115.182 786.694 Q112.126 782.088 112.126 773.361 Q112.126 764.611 115.182 760.027 Q118.26 755.421 124.07 755.421 Z" fill="#000000" fill-rule="evenodd" fill-opacity="1" /><path clip-path="url(#clip140)" d="M66.5939 543.502 L54.7884 561.951 L66.5939 561.951 L66.5939 543.502 M65.367 539.428 L71.2466 539.428 L71.2466 561.951 L76.1772 561.951 L76.1772 565.84 L71.2466 565.84 L71.2466 573.988 L66.5939 573.988 L66.5939 565.84 L50.9921 565.84 L50.9921 561.326 L65.367 539.428 Z" fill="#000000" fill-rule="evenodd" fill-opacity="1" /><path clip-path="url(#clip140)" d="M93.9086 542.507 Q90.2975 542.507 88.4688 546.072 Q86.6632 549.613 86.6632 556.743 Q86.6632 563.849 88.4688 567.414 Q90.2975 570.956 93.9086 570.956 Q97.5428 570.956 99.3483 567.414 Q101.177 563.849 101.177 556.743 Q101.177 549.613 99.3483 546.072 Q97.5428 542.507 93.9086 542.507 M93.9086 538.803 Q99.7187 538.803 102.774 543.409 Q105.853 547.993 105.853 556.743 Q105.853 565.47 102.774 570.076 Q99.7187 574.659 93.9086 574.659 Q88.0984 574.659 85.0197 570.076 Q81.9642 565.47 81.9642 556.743 Q81.9642 547.993 85.0197 543.409 Q88.0984 538.803 93.9086 538.803 Z" fill="#000000" fill-rule="evenodd" fill-opacity="1" /><path clip-path="url(#clip140)" d="M124.07 542.507 Q120.459 542.507 118.631 546.072 Q116.825 549.613 116.825 556.743 Q116.825 563.849 118.631 567.414 Q120.459 570.956 124.07 570.956 Q127.705 570.956 129.51 567.414 Q131.339 563.849 131.339 556.743 Q131.339 549.613 129.51 546.072 Q127.705 542.507 124.07 542.507 M124.07 538.803 Q129.881 538.803 132.936 543.409 Q136.015 547.993 136.015 556.743 Q136.015 565.47 132.936 570.076 Q129.881 574.659 124.07 574.659 Q118.26 574.659 115.182 570.076 Q112.126 565.47 112.126 556.743 Q112.126 547.993 115.182 543.409 Q118.26 538.803 124.07 538.803 Z" fill="#000000" fill-rule="evenodd" fill-opacity="1" /><path clip-path="url(#clip140)" d="M53.793 322.81 L72.1494 322.81 L72.1494 326.745 L58.0754 326.745 L58.0754 335.217 Q59.0939 334.87 60.1124 334.708 Q61.131 334.523 62.1495 334.523 Q67.9365 334.523 71.3161 337.694 Q74.6957 340.866 74.6957 346.282 Q74.6957 351.861 71.2235 354.963 Q67.7513 358.041 61.4319 358.041 Q59.256 358.041 56.9875 357.671 Q54.7421 357.301 52.3347 356.56 L52.3347 351.861 Q54.418 352.995 56.6402 353.551 Q58.8625 354.106 61.3393 354.106 Q65.3439 354.106 67.6819 352 Q70.0198 349.893 70.0198 346.282 Q70.0198 342.671 67.6819 340.565 Q65.3439 338.458 61.3393 338.458 Q59.4643 338.458 57.5893 338.875 Q55.7375 339.291 53.793 340.171 L53.793 322.81 Z" fill="#000000" fill-rule="evenodd" fill-opacity="1" /><path clip-path="url(#clip140)" d="M93.9086 325.889 Q90.2975 325.889 88.4688 329.454 Q86.6632 332.995 86.6632 340.125 Q86.6632 347.231 88.4688 350.796 Q90.2975 354.338 93.9086 354.338 Q97.5428 354.338 99.3483 350.796 Q101.177 347.231 101.177 340.125 Q101.177 332.995 99.3483 329.454 Q97.5428 325.889 93.9086 325.889 M93.9086 322.185 Q99.7187 322.185 102.774 326.792 Q105.853 331.375 105.853 340.125 Q105.853 348.852 102.774 353.458 Q99.7187 358.041 93.9086 358.041 Q88.0984 358.041 85.0197 353.458 Q81.9642 348.852 81.9642 340.125 Q81.9642 331.375 85.0197 326.792 Q88.0984 322.185 93.9086 322.185 Z" fill="#000000" fill-rule="evenodd" fill-opacity="1" /><path clip-path="url(#clip140)" d="M124.07 325.889 Q120.459 325.889 118.631 329.454 Q116.825 332.995 116.825 340.125 Q116.825 347.231 118.631 350.796 Q120.459 354.338 124.07 354.338 Q127.705 354.338 129.51 350.796 Q131.339 347.231 131.339 340.125 Q131.339 332.995 129.51 329.454 Q127.705 325.889 124.07 325.889 M124.07 322.185 Q129.881 322.185 132.936 326.792 Q136.015 331.375 136.015 340.125 Q136.015 348.852 132.936 353.458 Q129.881 358.041 124.07 358.041 Q118.26 358.041 115.182 353.458 Q112.126 348.852 112.126 340.125 Q112.126 331.375 115.182 326.792 Q118.26 322.185 124.07 322.185 Z" fill="#000000" fill-rule="evenodd" fill-opacity="1" /><path clip-path="url(#clip140)" d="M64.3254 121.609 Q61.1773 121.609 59.3254 123.761 Q57.4967 125.914 57.4967 129.664 Q57.4967 133.391 59.3254 135.567 Q61.1773 137.72 64.3254 137.72 Q67.4735 137.72 69.3022 135.567 Q71.1541 133.391 71.1541 129.664 Q71.1541 125.914 69.3022 123.761 Q67.4735 121.609 64.3254 121.609 M73.6077 106.956 L73.6077 111.215 Q71.8485 110.382 70.0429 109.942 Q68.2606 109.502 66.5013 109.502 Q61.8717 109.502 59.418 112.627 Q56.9875 115.752 56.6402 122.072 Q58.006 120.058 60.0662 118.993 Q62.1263 117.905 64.6032 117.905 Q69.8115 117.905 72.8207 121.076 Q75.8531 124.224 75.8531 129.664 Q75.8531 134.988 72.705 138.206 Q69.5568 141.423 64.3254 141.423 Q58.33 141.423 55.1588 136.84 Q51.9875 132.234 51.9875 123.507 Q51.9875 115.312 55.8764 110.451 Q59.7652 105.567 66.3161 105.567 Q68.0754 105.567 69.8578 105.914 Q71.6633 106.262 73.6077 106.956 Z" fill="#000000" fill-rule="evenodd" fill-opacity="1" /><path clip-path="url(#clip140)" d="M93.9086 109.271 Q90.2975 109.271 88.4688 112.836 Q86.6632 116.377 86.6632 123.507 Q86.6632 130.613 88.4688 134.178 Q90.2975 137.72 93.9086 137.72 Q97.5428 137.72 99.3483 134.178 Q101.177 130.613 101.177 123.507 Q101.177 116.377 99.3483 112.836 Q97.5428 109.271 93.9086 109.271 M93.9086 105.567 Q99.7187 105.567 102.774 110.174 Q105.853 114.757 105.853 123.507 Q105.853 132.234 102.774 136.84 Q99.7187 141.423 93.9086 141.423 Q88.0984 141.423 85.0197 136.84 Q81.9642 132.234 81.9642 123.507 Q81.9642 114.757 85.0197 110.174 Q88.0984 105.567 93.9086 105.567 Z" fill="#000000" fill-rule="evenodd" fill-opacity="1" /><path clip-path="url(#clip140)" d="M124.07 109.271 Q120.459 109.271 118.631 112.836 Q116.825 116.377 116.825 123.507 Q116.825 130.613 118.631 134.178 Q120.459 137.72 124.07 137.72 Q127.705 137.72 129.51 134.178 Q131.339 130.613 131.339 123.507 Q131.339 116.377 129.51 112.836 Q127.705 109.271 124.07 109.271 M124.07 105.567 Q129.881 105.567 132.936 110.174 Q136.015 114.757 136.015 123.507 Q136.015 132.234 132.936 136.84 Q129.881 141.423 124.07 141.423 Q118.26 141.423 115.182 136.84 Q112.126 132.234 112.126 123.507 Q112.126 114.757 115.182 110.174 Q118.26 105.567 124.07 105.567 Z" fill="#000000" fill-rule="evenodd" fill-opacity="1" /><polyline clip-path="url(#clip142)" style="stroke:#636875; stroke-linecap:butt; stroke-linejoin:round; stroke-width:4; stroke-opacity:1; fill:none" points="
  218.339,1423.18 285.476,1423.18 352.612,1423.18 419.749,1423.18 486.885,1423.18 554.022,1423.18 621.158,1423.18 688.295,1423.18 755.431,1336.53 822.568,1336.53 
  889.704,1336.53 956.841,1336.53 1023.98,1336.53 1091.11,1336.53 1158.25,1336.53 1225.39,1336.53 1292.52,1336.53 1359.66,1336.53 1426.8,1336.53 1493.93,1336.53 
  1561.07,1336.53 1628.21,1336.53 1695.34,1377.61 1762.48,1392.96 
  "/>
<polyline clip-path="url(#clip142)" style="stroke:#505664; stroke-linecap:butt; stroke-linejoin:round; stroke-width:4; stroke-opacity:1; fill:none" points="
  218.339,268.951 285.476,365.93 352.612,429.345 419.749,464.32 486.885,461.515 554.022,419.557 621.158,283.816 688.295,164.694 755.431,123.472 822.568,123.472 
  889.704,123.472 956.841,123.472 1023.98,123.472 1091.11,123.472 1158.25,123.472 1225.39,123.472 1292.52,123.472 1359.66,123.472 1426.8,123.472 1493.93,123.472 
  1561.07,123.472 1628.21,123.472 1695.34,123.472 1762.48,123.472 
  "/>
<polyline clip-path="url(#clip142)" style="stroke:#157083; stroke-linecap:butt; stroke-linejoin:round; stroke-width:4; stroke-opacity:1; fill:none" points="
  218.339,1423.18 285.476,1423.18 352.612,1423.18 419.749,1423.18 486.885,1423.18 554.022,1423.18 621.158,1423.18 688.295,1314.87 755.431,1214.14 822.568,1151.43 
  889.704,1126.63 956.841,1138.52 1023.98,1120.03 1091.11,1161.87 1158.25,1146.31 1225.39,1171.46 1292.52,1148.91 1359.66,1293.91 1426.8,1160.11 1493.93,1170.24 
  1561.07,1288.3 1628.21,1210.08 1695.34,1314.87 1762.48,1423.18 
  "/>
<polyline clip-path="url(#clip142)" style="stroke:#730000; stroke-linecap:butt; stroke-linejoin:round; stroke-width:4; stroke-opacity:1; fill:none" points="
  218.339,1423.18 285.476,1423.18 352.612,1423.18 419.749,1423.18 486.885,1423.18 554.022,1423.18 621.158,1423.18 688.295,1423.18 755.431,1423.18 822.568,1423.18 
  889.704,1423.18 956.841,1423.18 1023.98,1423.18 1091.11,1423.18 1158.25,1423.18 1225.39,1423.18 1292.52,1423.18 1359.66,1423.18 1426.8,1423.18 1493.93,1423.18 
  1561.07,1423.18 1628.21,1423.18 1695.34,1423.18 1762.48,1423.18 
  "/>
<polyline clip-path="url(#clip142)" style="stroke:#50863c; stroke-linecap:butt; stroke-linejoin:round; stroke-width:4; stroke-opacity:1; fill:none" points="
  218.339,1423.18 285.476,1423.18 352.612,1423.18 419.749,1423.18 486.885,1423.18 554.022,1423.18 621.158,1423.18 688.295,1423.18 755.431,1423.18 822.568,1423.18 
  889.704,1423.18 956.841,1423.18 1023.98,1423.18 1091.11,1423.18 1158.25,1423.18 1225.39,1423.18 1292.52,1423.18 1359.66,1206.56 1426.8,1206.56 1493.93,1206.56 
  1561.07,1206.56 1628.21,1423.18 1695.34,1423.18 1762.48,1423.18 
  "/>
<path clip-path="url(#clip140)" d="
M1881.49 902.926 L2352.76 902.926 L2352.76 591.886 L1881.49 591.886  Z
  " fill="#ffffff" fill-rule="evenodd" fill-opacity="1"/>
<polyline clip-path="url(#clip140)" style="stroke:#000000; stroke-linecap:butt; stroke-linejoin:round; stroke-width:4; stroke-opacity:1; fill:none" points="
  1881.49,902.926 2352.76,902.926 2352.76,591.886 1881.49,591.886 1881.49,902.926 
  "/>
<polyline clip-path="url(#clip140)" style="stroke:#636875; stroke-linecap:butt; stroke-linejoin:round; stroke-width:4; stroke-opacity:1; fill:none" points="
  1905.72,643.726 2051.11,643.726 
  "/>
<path clip-path="url(#clip140)" d="M2091.17 631.052 L2084.83 648.251 L2097.54 648.251 L2091.17 631.052 M2088.53 626.446 L2093.83 626.446 L2107 661.006 L2102.14 661.006 L2099 652.14 L2083.42 652.14 L2080.27 661.006 L2075.34 661.006 L2088.53 626.446 Z" fill="#000000" fill-rule="evenodd" fill-opacity="1" /><path clip-path="url(#clip140)" d="M2111.87 624.988 L2116.12 624.988 L2116.12 661.006 L2111.87 661.006 L2111.87 624.988 Z" fill="#000000" fill-rule="evenodd" fill-opacity="1" /><path clip-path="url(#clip140)" d="M2129.25 627.719 L2129.25 635.08 L2138.02 635.08 L2138.02 638.39 L2129.25 638.39 L2129.25 652.464 Q2129.25 655.636 2130.11 656.538 Q2130.99 657.441 2133.65 657.441 L2138.02 657.441 L2138.02 661.006 L2133.65 661.006 Q2128.72 661.006 2126.84 659.177 Q2124.97 657.325 2124.97 652.464 L2124.97 638.39 L2121.84 638.39 L2121.84 635.08 L2124.97 635.08 L2124.97 627.719 L2129.25 627.719 Z" fill="#000000" fill-rule="evenodd" fill-opacity="1" /><path clip-path="url(#clip140)" d="M2155.41 647.974 Q2150.24 647.974 2148.25 649.154 Q2146.26 650.335 2146.26 653.182 Q2146.26 655.45 2147.74 656.793 Q2149.25 658.112 2151.82 658.112 Q2155.36 658.112 2157.49 655.612 Q2159.64 653.089 2159.64 648.923 L2159.64 647.974 L2155.41 647.974 M2163.9 646.214 L2163.9 661.006 L2159.64 661.006 L2159.64 657.071 Q2158.18 659.432 2156.01 660.566 Q2153.83 661.677 2150.68 661.677 Q2146.7 661.677 2144.34 659.455 Q2142 657.21 2142 653.46 Q2142 649.085 2144.92 646.863 Q2147.86 644.64 2153.67 644.64 L2159.64 644.64 L2159.64 644.224 Q2159.64 641.284 2157.7 639.687 Q2155.78 638.066 2152.28 638.066 Q2150.06 638.066 2147.95 638.599 Q2145.85 639.131 2143.9 640.196 L2143.9 636.261 Q2146.24 635.358 2148.44 634.918 Q2150.64 634.455 2152.72 634.455 Q2158.35 634.455 2161.12 637.372 Q2163.9 640.289 2163.9 646.214 Z" fill="#000000" fill-rule="evenodd" fill-opacity="1" /><polyline clip-path="url(#clip140)" style="stroke:#505664; stroke-linecap:butt; stroke-linejoin:round; stroke-width:4; stroke-opacity:1; fill:none" points="
  1905.72,695.566 2051.11,695.566 
  "/>
<path clip-path="url(#clip140)" d="M2080.01 696.341 L2080.01 709.003 L2087.51 709.003 Q2091.29 709.003 2093.09 707.452 Q2094.92 705.878 2094.92 702.661 Q2094.92 699.42 2093.09 697.892 Q2091.29 696.341 2087.51 696.341 L2080.01 696.341 M2080.01 682.129 L2080.01 692.545 L2086.94 692.545 Q2090.36 692.545 2092.03 691.272 Q2093.72 689.976 2093.72 687.337 Q2093.72 684.721 2092.03 683.425 Q2090.36 682.129 2086.94 682.129 L2080.01 682.129 M2075.34 678.286 L2087.28 678.286 Q2092.63 678.286 2095.52 680.508 Q2098.42 682.73 2098.42 686.828 Q2098.42 689.999 2096.93 691.874 Q2095.45 693.749 2092.58 694.212 Q2096.03 694.953 2097.93 697.314 Q2099.85 699.652 2099.85 703.17 Q2099.85 707.8 2096.7 710.323 Q2093.56 712.846 2087.75 712.846 L2075.34 712.846 L2075.34 678.286 Z" fill="#000000" fill-rule="evenodd" fill-opacity="1" /><path clip-path="url(#clip140)" d="M2122.7 690.902 Q2121.98 690.485 2121.12 690.3 Q2120.29 690.091 2119.27 690.091 Q2115.66 690.091 2113.72 692.453 Q2111.8 694.791 2111.8 699.189 L2111.8 712.846 L2107.51 712.846 L2107.51 686.92 L2111.8 686.92 L2111.8 690.948 Q2113.14 688.587 2115.29 687.453 Q2117.44 686.295 2120.52 686.295 Q2120.96 686.295 2121.5 686.365 Q2122.03 686.411 2122.68 686.527 L2122.7 690.902 Z" fill="#000000" fill-rule="evenodd" fill-opacity="1" /><path clip-path="url(#clip140)" d="M2127.17 686.92 L2131.43 686.92 L2131.43 712.846 L2127.17 712.846 L2127.17 686.92 M2127.17 676.828 L2131.43 676.828 L2131.43 682.221 L2127.17 682.221 L2127.17 676.828 Z" fill="#000000" fill-rule="evenodd" fill-opacity="1" /><path clip-path="url(#clip140)" d="M2157.4 699.582 Q2157.4 694.953 2155.48 692.406 Q2153.58 689.86 2150.13 689.86 Q2146.7 689.86 2144.78 692.406 Q2142.88 694.953 2142.88 699.582 Q2142.88 704.189 2144.78 706.735 Q2146.7 709.281 2150.13 709.281 Q2153.58 709.281 2155.48 706.735 Q2157.4 704.189 2157.4 699.582 M2161.66 709.628 Q2161.66 716.249 2158.72 719.466 Q2155.78 722.707 2149.71 722.707 Q2147.47 722.707 2145.48 722.36 Q2143.49 722.036 2141.61 721.341 L2141.61 717.198 Q2143.49 718.216 2145.31 718.702 Q2147.14 719.189 2149.04 719.189 Q2153.23 719.189 2155.31 716.989 Q2157.4 714.814 2157.4 710.392 L2157.4 708.286 Q2156.08 710.577 2154.02 711.712 Q2151.96 712.846 2149.09 712.846 Q2144.32 712.846 2141.4 709.212 Q2138.49 705.578 2138.49 699.582 Q2138.49 693.564 2141.4 689.929 Q2144.32 686.295 2149.09 686.295 Q2151.96 686.295 2154.02 687.429 Q2156.08 688.564 2157.4 690.855 L2157.4 686.92 L2161.66 686.92 L2161.66 709.628 Z" fill="#000000" fill-rule="evenodd" fill-opacity="1" /><path clip-path="url(#clip140)" d="M2191.98 697.198 L2191.98 712.846 L2187.72 712.846 L2187.72 697.337 Q2187.72 693.656 2186.29 691.828 Q2184.85 689.999 2181.98 689.999 Q2178.53 689.999 2176.54 692.198 Q2174.55 694.397 2174.55 698.193 L2174.55 712.846 L2170.27 712.846 L2170.27 676.828 L2174.55 676.828 L2174.55 690.948 Q2176.08 688.61 2178.14 687.453 Q2180.22 686.295 2182.93 686.295 Q2187.4 686.295 2189.69 689.073 Q2191.98 691.828 2191.98 697.198 Z" fill="#000000" fill-rule="evenodd" fill-opacity="1" /><path clip-path="url(#clip140)" d="M2204.69 679.559 L2204.69 686.92 L2213.46 686.92 L2213.46 690.23 L2204.69 690.23 L2204.69 704.304 Q2204.69 707.476 2205.55 708.378 Q2206.43 709.281 2209.09 709.281 L2213.46 709.281 L2213.46 712.846 L2209.09 712.846 Q2204.16 712.846 2202.28 711.017 Q2200.41 709.165 2200.41 704.304 L2200.41 690.23 L2197.28 690.23 L2197.28 686.92 L2200.41 686.92 L2200.41 679.559 L2204.69 679.559 Z" fill="#000000" fill-rule="evenodd" fill-opacity="1" /><path clip-path="url(#clip140)" d="M2229.11 689.906 Q2225.68 689.906 2223.69 692.591 Q2221.7 695.253 2221.7 699.906 Q2221.7 704.559 2223.67 707.244 Q2225.66 709.906 2229.11 709.906 Q2232.51 709.906 2234.5 707.221 Q2236.49 704.536 2236.49 699.906 Q2236.49 695.3 2234.5 692.615 Q2232.51 689.906 2229.11 689.906 M2229.11 686.295 Q2234.67 686.295 2237.84 689.906 Q2241.01 693.517 2241.01 699.906 Q2241.01 706.272 2237.84 709.906 Q2234.67 713.517 2229.11 713.517 Q2223.53 713.517 2220.36 709.906 Q2217.21 706.272 2217.21 699.906 Q2217.21 693.517 2220.36 689.906 Q2223.53 686.295 2229.11 686.295 Z" fill="#000000" fill-rule="evenodd" fill-opacity="1" /><path clip-path="url(#clip140)" d="M2269.62 697.198 L2269.62 712.846 L2265.36 712.846 L2265.36 697.337 Q2265.36 693.656 2263.92 691.828 Q2262.49 689.999 2259.62 689.999 Q2256.17 689.999 2254.18 692.198 Q2252.19 694.397 2252.19 698.193 L2252.19 712.846 L2247.91 712.846 L2247.91 686.92 L2252.19 686.92 L2252.19 690.948 Q2253.72 688.61 2255.78 687.453 Q2257.86 686.295 2260.57 686.295 Q2265.04 686.295 2267.33 689.073 Q2269.62 691.828 2269.62 697.198 Z" fill="#000000" fill-rule="evenodd" fill-opacity="1" /><polyline clip-path="url(#clip140)" style="stroke:#157083; stroke-linecap:butt; stroke-linejoin:round; stroke-width:4; stroke-opacity:1; fill:none" points="
  1905.72,747.406 2051.11,747.406 
  "/>
<path clip-path="url(#clip140)" d="M2080.01 733.969 L2080.01 746.955 L2085.89 746.955 Q2089.16 746.955 2090.94 745.265 Q2092.72 743.575 2092.72 740.45 Q2092.72 737.348 2090.94 735.658 Q2089.16 733.969 2085.89 733.969 L2080.01 733.969 M2075.34 730.126 L2085.89 730.126 Q2091.7 730.126 2094.67 732.765 Q2097.65 735.381 2097.65 740.45 Q2097.65 745.566 2094.67 748.181 Q2091.7 750.797 2085.89 750.797 L2080.01 750.797 L2080.01 764.686 L2075.34 764.686 L2075.34 730.126 Z" fill="#000000" fill-rule="evenodd" fill-opacity="1" /><path clip-path="url(#clip140)" d="M2113.39 751.654 Q2108.23 751.654 2106.24 752.834 Q2104.25 754.015 2104.25 756.862 Q2104.25 759.13 2105.73 760.473 Q2107.24 761.792 2109.81 761.792 Q2113.35 761.792 2115.48 759.292 Q2117.63 756.769 2117.63 752.603 L2117.63 751.654 L2113.39 751.654 M2121.89 749.894 L2121.89 764.686 L2117.63 764.686 L2117.63 760.751 Q2116.17 763.112 2114 764.246 Q2111.82 765.357 2108.67 765.357 Q2104.69 765.357 2102.33 763.135 Q2099.99 760.89 2099.99 757.14 Q2099.99 752.765 2102.91 750.543 Q2105.85 748.32 2111.66 748.32 L2117.63 748.32 L2117.63 747.904 Q2117.63 744.964 2115.68 743.367 Q2113.76 741.746 2110.27 741.746 Q2108.05 741.746 2105.94 742.279 Q2103.83 742.811 2101.89 743.876 L2101.89 739.941 Q2104.23 739.038 2106.43 738.598 Q2108.62 738.135 2110.71 738.135 Q2116.33 738.135 2119.11 741.052 Q2121.89 743.969 2121.89 749.894 Z" fill="#000000" fill-rule="evenodd" fill-opacity="1" /><path clip-path="url(#clip140)" d="M2145.68 742.742 Q2144.97 742.325 2144.11 742.14 Q2143.28 741.931 2142.26 741.931 Q2138.65 741.931 2136.7 744.293 Q2134.78 746.631 2134.78 751.029 L2134.78 764.686 L2130.5 764.686 L2130.5 738.76 L2134.78 738.76 L2134.78 742.788 Q2136.12 740.427 2138.28 739.293 Q2140.43 738.135 2143.51 738.135 Q2143.95 738.135 2144.48 738.205 Q2145.01 738.251 2145.66 738.367 L2145.68 742.742 Z" fill="#000000" fill-rule="evenodd" fill-opacity="1" /><path clip-path="url(#clip140)" d="M2149.99 728.668 L2154.27 728.668 L2154.27 749.941 L2166.98 738.76 L2172.42 738.76 L2158.67 750.89 L2173 764.686 L2167.44 764.686 L2154.27 752.024 L2154.27 764.686 L2149.99 764.686 L2149.99 728.668 Z" fill="#000000" fill-rule="evenodd" fill-opacity="1" /><path clip-path="url(#clip140)" d="M2218.74 732.788 L2218.74 737.719 Q2216.38 735.519 2213.69 734.432 Q2211.03 733.344 2208.02 733.344 Q2202.1 733.344 2198.95 736.978 Q2195.8 740.589 2195.8 747.441 Q2195.8 754.269 2198.95 757.904 Q2202.1 761.515 2208.02 761.515 Q2211.03 761.515 2213.69 760.427 Q2216.38 759.339 2218.74 757.14 L2218.74 762.024 Q2216.29 763.691 2213.53 764.524 Q2210.8 765.357 2207.74 765.357 Q2199.9 765.357 2195.38 760.566 Q2190.87 755.751 2190.87 747.441 Q2190.87 739.107 2195.38 734.316 Q2199.9 729.501 2207.74 729.501 Q2210.85 729.501 2213.58 730.334 Q2216.33 731.144 2218.74 732.788 Z" fill="#000000" fill-rule="evenodd" fill-opacity="1" /><path clip-path="url(#clip140)" d="M2225.78 738.76 L2230.04 738.76 L2230.04 764.686 L2225.78 764.686 L2225.78 738.76 M2225.78 728.668 L2230.04 728.668 L2230.04 734.061 L2225.78 734.061 L2225.78 728.668 Z" fill="#000000" fill-rule="evenodd" fill-opacity="1" /><path clip-path="url(#clip140)" d="M2243.16 731.399 L2243.16 738.76 L2251.93 738.76 L2251.93 742.07 L2243.16 742.07 L2243.16 756.144 Q2243.16 759.316 2244.02 760.218 Q2244.9 761.121 2247.56 761.121 L2251.93 761.121 L2251.93 764.686 L2247.56 764.686 Q2242.63 764.686 2240.75 762.857 Q2238.88 761.005 2238.88 756.144 L2238.88 742.07 L2235.75 742.07 L2235.75 738.76 L2238.88 738.76 L2238.88 731.399 L2243.16 731.399 Z" fill="#000000" fill-rule="evenodd" fill-opacity="1" /><path clip-path="url(#clip140)" d="M2268.32 767.093 Q2266.52 771.723 2264.8 773.135 Q2263.09 774.547 2260.22 774.547 L2256.82 774.547 L2256.82 770.982 L2259.32 770.982 Q2261.08 770.982 2262.05 770.149 Q2263.02 769.316 2264.2 766.214 L2264.97 764.269 L2254.48 738.76 L2258.99 738.76 L2267.1 759.038 L2275.2 738.76 L2279.71 738.76 L2268.32 767.093 Z" fill="#000000" fill-rule="evenodd" fill-opacity="1" /><polyline clip-path="url(#clip140)" style="stroke:#730000; stroke-linecap:butt; stroke-linejoin:round; stroke-width:4; stroke-opacity:1; fill:none" points="
  1905.72,799.246 2051.11,799.246 
  "/>
<path clip-path="url(#clip140)" d="M2097.58 783.1 L2097.58 787.66 Q2094.92 786.387 2092.56 785.762 Q2090.2 785.137 2088 785.137 Q2084.18 785.137 2082.1 786.619 Q2080.04 788.1 2080.04 790.832 Q2080.04 793.123 2081.4 794.304 Q2082.79 795.461 2086.63 796.179 L2089.46 796.758 Q2094.69 797.753 2097.17 800.276 Q2099.67 802.776 2099.67 806.989 Q2099.67 812.012 2096.29 814.605 Q2092.93 817.197 2086.43 817.197 Q2083.97 817.197 2081.19 816.642 Q2078.44 816.086 2075.48 814.998 L2075.48 810.183 Q2078.32 811.781 2081.06 812.591 Q2083.79 813.401 2086.43 813.401 Q2090.43 813.401 2092.61 811.827 Q2094.78 810.253 2094.78 807.336 Q2094.78 804.79 2093.21 803.355 Q2091.66 801.92 2088.09 801.202 L2085.25 800.646 Q2080.01 799.605 2077.68 797.383 Q2075.34 795.16 2075.34 791.202 Q2075.34 786.619 2078.56 783.98 Q2081.8 781.341 2087.47 781.341 Q2089.9 781.341 2092.42 781.781 Q2094.94 782.221 2097.58 783.1 Z" fill="#000000" fill-rule="evenodd" fill-opacity="1" /><path clip-path="url(#clip140)" d="M2116.82 793.586 Q2113.39 793.586 2111.4 796.271 Q2109.41 798.933 2109.41 803.586 Q2109.41 808.239 2111.38 810.924 Q2113.37 813.586 2116.82 813.586 Q2120.22 813.586 2122.21 810.901 Q2124.2 808.216 2124.2 803.586 Q2124.2 798.98 2122.21 796.295 Q2120.22 793.586 2116.82 793.586 M2116.82 789.975 Q2122.37 789.975 2125.55 793.586 Q2128.72 797.197 2128.72 803.586 Q2128.72 809.952 2125.55 813.586 Q2122.37 817.197 2116.82 817.197 Q2111.24 817.197 2108.07 813.586 Q2104.92 809.952 2104.92 803.586 Q2104.92 797.197 2108.07 793.586 Q2111.24 789.975 2116.82 789.975 Z" fill="#000000" fill-rule="evenodd" fill-opacity="1" /><path clip-path="url(#clip140)" d="M2135.78 780.508 L2140.04 780.508 L2140.04 816.526 L2135.78 816.526 L2135.78 780.508 Z" fill="#000000" fill-rule="evenodd" fill-opacity="1" /><path clip-path="url(#clip140)" d="M2148.95 790.6 L2153.21 790.6 L2153.21 816.526 L2148.95 816.526 L2148.95 790.6 M2148.95 780.508 L2153.21 780.508 L2153.21 785.901 L2148.95 785.901 L2148.95 780.508 Z" fill="#000000" fill-rule="evenodd" fill-opacity="1" /><path clip-path="url(#clip140)" d="M2166.33 783.239 L2166.33 790.6 L2175.11 790.6 L2175.11 793.91 L2166.33 793.91 L2166.33 807.984 Q2166.33 811.156 2167.19 812.058 Q2168.07 812.961 2170.73 812.961 L2175.11 812.961 L2175.11 816.526 L2170.73 816.526 Q2165.8 816.526 2163.93 814.697 Q2162.05 812.845 2162.05 807.984 L2162.05 793.91 L2158.93 793.91 L2158.93 790.6 L2162.05 790.6 L2162.05 783.239 L2166.33 783.239 Z" fill="#000000" fill-rule="evenodd" fill-opacity="1" /><path clip-path="url(#clip140)" d="M2180.27 806.295 L2180.27 790.6 L2184.53 790.6 L2184.53 806.133 Q2184.53 809.813 2185.96 811.665 Q2187.4 813.494 2190.27 813.494 Q2193.72 813.494 2195.71 811.295 Q2197.72 809.095 2197.72 805.299 L2197.72 790.6 L2201.98 790.6 L2201.98 816.526 L2197.72 816.526 L2197.72 812.545 Q2196.17 814.906 2194.11 816.063 Q2192.07 817.197 2189.37 817.197 Q2184.9 817.197 2182.58 814.42 Q2180.27 811.642 2180.27 806.295 M2190.99 789.975 L2190.99 789.975 Z" fill="#000000" fill-rule="evenodd" fill-opacity="1" /><path clip-path="url(#clip140)" d="M2227.81 794.535 L2227.81 780.508 L2232.07 780.508 L2232.07 816.526 L2227.81 816.526 L2227.81 812.637 Q2226.47 814.952 2224.41 816.086 Q2222.37 817.197 2219.5 817.197 Q2214.8 817.197 2211.84 813.447 Q2208.9 809.697 2208.9 803.586 Q2208.9 797.475 2211.84 793.725 Q2214.8 789.975 2219.5 789.975 Q2222.37 789.975 2224.41 791.109 Q2226.47 792.221 2227.81 794.535 M2213.3 803.586 Q2213.3 808.285 2215.22 810.97 Q2217.17 813.632 2220.55 813.632 Q2223.93 813.632 2225.87 810.97 Q2227.81 808.285 2227.81 803.586 Q2227.81 798.887 2225.87 796.225 Q2223.93 793.54 2220.55 793.54 Q2217.17 793.54 2215.22 796.225 Q2213.3 798.887 2213.3 803.586 Z" fill="#000000" fill-rule="evenodd" fill-opacity="1" /><path clip-path="url(#clip140)" d="M2263.02 802.498 L2263.02 804.582 L2243.44 804.582 Q2243.72 808.98 2246.08 811.295 Q2248.46 813.586 2252.7 813.586 Q2255.15 813.586 2257.44 812.984 Q2259.76 812.382 2262.03 811.179 L2262.03 815.207 Q2259.74 816.179 2257.33 816.688 Q2254.92 817.197 2252.44 817.197 Q2246.24 817.197 2242.61 813.586 Q2238.99 809.975 2238.99 803.818 Q2238.99 797.452 2242.42 793.725 Q2245.87 789.975 2251.7 789.975 Q2256.93 789.975 2259.97 793.355 Q2263.02 796.711 2263.02 802.498 M2258.76 801.248 Q2258.72 797.753 2256.8 795.67 Q2254.9 793.586 2251.75 793.586 Q2248.18 793.586 2246.03 795.6 Q2243.9 797.614 2243.58 801.271 L2258.76 801.248 Z" fill="#000000" fill-rule="evenodd" fill-opacity="1" /><polyline clip-path="url(#clip140)" style="stroke:#50863c; stroke-linecap:butt; stroke-linejoin:round; stroke-width:4; stroke-opacity:1; fill:none" points="
  1905.72,851.086 2051.11,851.086 
  "/>
<path clip-path="url(#clip140)" d="M2097.58 834.94 L2097.58 839.5 Q2094.92 838.227 2092.56 837.602 Q2090.2 836.977 2088 836.977 Q2084.18 836.977 2082.1 838.459 Q2080.04 839.94 2080.04 842.672 Q2080.04 844.963 2081.4 846.144 Q2082.79 847.301 2086.63 848.019 L2089.46 848.598 Q2094.69 849.593 2097.17 852.116 Q2099.67 854.616 2099.67 858.829 Q2099.67 863.852 2096.29 866.445 Q2092.93 869.037 2086.43 869.037 Q2083.97 869.037 2081.19 868.482 Q2078.44 867.926 2075.48 866.838 L2075.48 862.023 Q2078.32 863.621 2081.06 864.431 Q2083.79 865.241 2086.43 865.241 Q2090.43 865.241 2092.61 863.667 Q2094.78 862.093 2094.78 859.176 Q2094.78 856.63 2093.21 855.195 Q2091.66 853.76 2088.09 853.042 L2085.25 852.486 Q2080.01 851.445 2077.68 849.223 Q2075.34 847 2075.34 843.042 Q2075.34 838.459 2078.56 835.82 Q2081.8 833.181 2087.47 833.181 Q2089.9 833.181 2092.42 833.621 Q2094.94 834.061 2097.58 834.94 Z" fill="#000000" fill-rule="evenodd" fill-opacity="1" /><path clip-path="url(#clip140)" d="M2106.33 858.135 L2106.33 842.44 L2110.59 842.44 L2110.59 857.973 Q2110.59 861.653 2112.03 863.505 Q2113.46 865.334 2116.33 865.334 Q2119.78 865.334 2121.77 863.135 Q2123.79 860.935 2123.79 857.139 L2123.79 842.44 L2128.05 842.44 L2128.05 868.366 L2123.79 868.366 L2123.79 864.385 Q2122.24 866.746 2120.18 867.903 Q2118.14 869.037 2115.43 869.037 Q2110.96 869.037 2108.65 866.26 Q2106.33 863.482 2106.33 858.135 M2117.05 841.815 L2117.05 841.815 Z" fill="#000000" fill-rule="evenodd" fill-opacity="1" /><path clip-path="url(#clip140)" d="M2158.37 852.718 L2158.37 868.366 L2154.11 868.366 L2154.11 852.857 Q2154.11 849.176 2152.68 847.348 Q2151.24 845.519 2148.37 845.519 Q2144.92 845.519 2142.93 847.718 Q2140.94 849.917 2140.94 853.713 L2140.94 868.366 L2136.66 868.366 L2136.66 842.44 L2140.94 842.44 L2140.94 846.468 Q2142.47 844.13 2144.53 842.973 Q2146.61 841.815 2149.32 841.815 Q2153.79 841.815 2156.08 844.593 Q2158.37 847.348 2158.37 852.718 Z" fill="#000000" fill-rule="evenodd" fill-opacity="1" /><path clip-path="url(#clip140)" d="M2183.93 846.375 L2183.93 832.348 L2188.18 832.348 L2188.18 868.366 L2183.93 868.366 L2183.93 864.477 Q2182.58 866.792 2180.52 867.926 Q2178.49 869.037 2175.62 869.037 Q2170.92 869.037 2167.95 865.287 Q2165.01 861.537 2165.01 855.426 Q2165.01 849.315 2167.95 845.565 Q2170.92 841.815 2175.62 841.815 Q2178.49 841.815 2180.52 842.949 Q2182.58 844.061 2183.93 846.375 M2169.41 855.426 Q2169.41 860.125 2171.33 862.81 Q2173.28 865.472 2176.66 865.472 Q2180.04 865.472 2181.98 862.81 Q2183.93 860.125 2183.93 855.426 Q2183.93 850.727 2181.98 848.065 Q2180.04 845.38 2176.66 845.38 Q2173.28 845.38 2171.33 848.065 Q2169.41 850.727 2169.41 855.426 Z" fill="#000000" fill-rule="evenodd" fill-opacity="1" /><path clip-path="url(#clip140)" d="M2208.74 855.334 Q2203.58 855.334 2201.59 856.514 Q2199.6 857.695 2199.6 860.542 Q2199.6 862.81 2201.08 864.153 Q2202.58 865.472 2205.15 865.472 Q2208.69 865.472 2210.82 862.972 Q2212.98 860.449 2212.98 856.283 L2212.98 855.334 L2208.74 855.334 M2217.24 853.574 L2217.24 868.366 L2212.98 868.366 L2212.98 864.431 Q2211.52 866.792 2209.34 867.926 Q2207.17 869.037 2204.02 869.037 Q2200.04 869.037 2197.68 866.815 Q2195.34 864.57 2195.34 860.82 Q2195.34 856.445 2198.25 854.223 Q2201.19 852 2207 852 L2212.98 852 L2212.98 851.584 Q2212.98 848.644 2211.03 847.047 Q2209.11 845.426 2205.61 845.426 Q2203.39 845.426 2201.29 845.959 Q2199.18 846.491 2197.24 847.556 L2197.24 843.621 Q2199.57 842.718 2201.77 842.278 Q2203.97 841.815 2206.05 841.815 Q2211.68 841.815 2214.46 844.732 Q2217.24 847.649 2217.24 853.574 Z" fill="#000000" fill-rule="evenodd" fill-opacity="1" /><path clip-path="url(#clip140)" d="M2247.56 852.718 L2247.56 868.366 L2243.3 868.366 L2243.3 852.857 Q2243.3 849.176 2241.86 847.348 Q2240.43 845.519 2237.56 845.519 Q2234.11 845.519 2232.12 847.718 Q2230.13 849.917 2230.13 853.713 L2230.13 868.366 L2225.85 868.366 L2225.85 842.44 L2230.13 842.44 L2230.13 846.468 Q2231.66 844.13 2233.72 842.973 Q2235.8 841.815 2238.51 841.815 Q2242.98 841.815 2245.27 844.593 Q2247.56 847.348 2247.56 852.718 Z" fill="#000000" fill-rule="evenodd" fill-opacity="1" /><path clip-path="url(#clip140)" d="M2274.71 843.436 L2274.71 847.417 Q2272.91 846.422 2271.08 845.936 Q2269.27 845.426 2267.42 845.426 Q2263.28 845.426 2260.99 848.065 Q2258.69 850.681 2258.69 855.426 Q2258.69 860.172 2260.99 862.81 Q2263.28 865.426 2267.42 865.426 Q2269.27 865.426 2271.08 864.94 Q2272.91 864.431 2274.71 863.435 L2274.71 867.371 Q2272.93 868.204 2271.01 868.621 Q2269.11 869.037 2266.96 869.037 Q2261.1 869.037 2257.65 865.357 Q2254.2 861.676 2254.2 855.426 Q2254.2 849.084 2257.67 845.449 Q2261.17 841.815 2267.24 841.815 Q2269.2 841.815 2271.08 842.232 Q2272.95 842.625 2274.71 843.436 Z" fill="#000000" fill-rule="evenodd" fill-opacity="1" /><path clip-path="url(#clip140)" d="M2304.29 854.338 L2304.29 856.422 L2284.71 856.422 Q2284.99 860.82 2287.35 863.135 Q2289.73 865.426 2293.97 865.426 Q2296.42 865.426 2298.72 864.824 Q2301.03 864.222 2303.3 863.019 L2303.3 867.047 Q2301.01 868.019 2298.6 868.528 Q2296.19 869.037 2293.72 869.037 Q2287.51 869.037 2283.88 865.426 Q2280.27 861.815 2280.27 855.658 Q2280.27 849.292 2283.69 845.565 Q2287.14 841.815 2292.98 841.815 Q2298.21 841.815 2301.24 845.195 Q2304.29 848.551 2304.29 854.338 M2300.04 853.088 Q2299.99 849.593 2298.07 847.51 Q2296.17 845.426 2293.02 845.426 Q2289.46 845.426 2287.3 847.44 Q2285.17 849.454 2284.85 853.111 L2300.04 853.088 Z" fill="#000000" fill-rule="evenodd" fill-opacity="1" /></svg>
