<?xml version="1.0" encoding="utf-8"?>
<svg xmlns="http://www.w3.org/2000/svg" xmlns:xlink="http://www.w3.org/1999/xlink" width="600" height="400" viewBox="0 0 2400 1600">
<defs>
  <clipPath id="clip610">
    <rect x="0" y="0" width="2400" height="1600"/>
  </clipPath>
</defs>
<path clip-path="url(#clip610)" d="
M0 1600 L2400 1600 L2400 0 L0 0  Z
  " fill="#ffffff" fill-rule="evenodd" fill-opacity="1"/>
<defs>
  <clipPath id="clip611">
    <rect x="480" y="0" width="1681" height="1600"/>
  </clipPath>
</defs>
<path clip-path="url(#clip610)" d="
M304.699 1423.18 L1827.97 1423.18 L1827.97 123.472 L304.699 123.472  Z
  " fill="#ffffff" fill-rule="evenodd" fill-opacity="1"/>
<defs>
  <clipPath id="clip612">
    <rect x="304" y="123" width="1524" height="1301"/>
  </clipPath>
</defs>
<polyline clip-path="url(#clip610)" style="stroke:#000000; stroke-linecap:butt; stroke-linejoin:round; stroke-width:4; stroke-opacity:1; fill:none" points="
  304.699,1423.18 1827.97,1423.18 
  "/>
<polyline clip-path="url(#clip610)" style="stroke:#000000; stroke-linecap:butt; stroke-linejoin:round; stroke-width:4; stroke-opacity:1; fill:none" points="
  388.482,1423.18 388.482,1404.28 
  "/>
<polyline clip-path="url(#clip610)" style="stroke:#000000; stroke-linecap:butt; stroke-linejoin:round; stroke-width:4; stroke-opacity:1; fill:none" points="
  727.408,1423.18 727.408,1404.28 
  "/>
<polyline clip-path="url(#clip610)" style="stroke:#000000; stroke-linecap:butt; stroke-linejoin:round; stroke-width:4; stroke-opacity:1; fill:none" points="
  1066.33,1423.18 1066.33,1404.28 
  "/>
<polyline clip-path="url(#clip610)" style="stroke:#000000; stroke-linecap:butt; stroke-linejoin:round; stroke-width:4; stroke-opacity:1; fill:none" points="
  1405.26,1423.18 1405.26,1404.28 
  "/>
<polyline clip-path="url(#clip610)" style="stroke:#000000; stroke-linecap:butt; stroke-linejoin:round; stroke-width:4; stroke-opacity:1; fill:none" points="
  1744.19,1423.18 1744.19,1404.28 
  "/>
<path clip-path="url(#clip610)" d="M365.785 1454.1 Q362.174 1454.1 360.345 1457.66 Q358.54 1461.2 358.54 1468.33 Q358.54 1475.44 360.345 1479.01 Q362.174 1482.55 365.785 1482.55 Q369.419 1482.55 371.225 1479.01 Q373.054 1475.44 373.054 1468.33 Q373.054 1461.2 371.225 1457.66 Q369.419 1454.1 365.785 1454.1 M365.785 1450.39 Q371.595 1450.39 374.651 1455 Q377.73 1459.58 377.73 1468.33 Q377.73 1477.06 374.651 1481.67 Q371.595 1486.25 365.785 1486.25 Q359.975 1486.25 356.896 1481.67 Q353.841 1477.06 353.841 1468.33 Q353.841 1459.58 356.896 1455 Q359.975 1450.39 365.785 1450.39 Z" fill="#000000" fill-rule="evenodd" fill-opacity="1" /><path clip-path="url(#clip610)" d="M385.947 1479.7 L390.831 1479.7 L390.831 1485.58 L385.947 1485.58 L385.947 1479.7 Z" fill="#000000" fill-rule="evenodd" fill-opacity="1" /><path clip-path="url(#clip610)" d="M411.595 1466.44 Q408.447 1466.44 406.595 1468.59 Q404.766 1470.74 404.766 1474.49 Q404.766 1478.22 406.595 1480.39 Q408.447 1482.55 411.595 1482.55 Q414.743 1482.55 416.572 1480.39 Q418.424 1478.22 418.424 1474.49 Q418.424 1470.74 416.572 1468.59 Q414.743 1466.44 411.595 1466.44 M420.877 1451.78 L420.877 1456.04 Q419.118 1455.21 417.313 1454.77 Q415.53 1454.33 413.771 1454.33 Q409.141 1454.33 406.688 1457.45 Q404.257 1460.58 403.91 1466.9 Q405.276 1464.89 407.336 1463.82 Q409.396 1462.73 411.873 1462.73 Q417.081 1462.73 420.09 1465.9 Q423.123 1469.05 423.123 1474.49 Q423.123 1479.82 419.975 1483.03 Q416.827 1486.25 411.595 1486.25 Q405.6 1486.25 402.428 1481.67 Q399.257 1477.06 399.257 1468.33 Q399.257 1460.14 403.146 1455.28 Q407.035 1450.39 413.586 1450.39 Q415.345 1450.39 417.127 1450.74 Q418.933 1451.09 420.877 1451.78 Z" fill="#000000" fill-rule="evenodd" fill-opacity="1" /><path clip-path="url(#clip610)" d="M704.839 1454.1 Q701.227 1454.1 699.399 1457.66 Q697.593 1461.2 697.593 1468.33 Q697.593 1475.44 699.399 1479.01 Q701.227 1482.55 704.839 1482.55 Q708.473 1482.55 710.278 1479.01 Q712.107 1475.44 712.107 1468.33 Q712.107 1461.2 710.278 1457.66 Q708.473 1454.1 704.839 1454.1 M704.839 1450.39 Q710.649 1450.39 713.704 1455 Q716.783 1459.58 716.783 1468.33 Q716.783 1477.06 713.704 1481.67 Q710.649 1486.25 704.839 1486.25 Q699.028 1486.25 695.95 1481.67 Q692.894 1477.06 692.894 1468.33 Q692.894 1459.58 695.95 1455 Q699.028 1450.39 704.839 1450.39 Z" fill="#000000" fill-rule="evenodd" fill-opacity="1" /><path clip-path="url(#clip610)" d="M725 1479.7 L729.885 1479.7 L729.885 1485.58 L725 1485.58 L725 1479.7 Z" fill="#000000" fill-rule="evenodd" fill-opacity="1" /><path clip-path="url(#clip610)" d="M750.07 1469.17 Q746.736 1469.17 744.815 1470.95 Q742.917 1472.73 742.917 1475.86 Q742.917 1478.98 744.815 1480.77 Q746.736 1482.55 750.07 1482.55 Q753.403 1482.55 755.324 1480.77 Q757.246 1478.96 757.246 1475.86 Q757.246 1472.73 755.324 1470.95 Q753.426 1469.17 750.07 1469.17 M745.394 1467.18 Q742.385 1466.44 740.695 1464.38 Q739.028 1462.32 739.028 1459.35 Q739.028 1455.21 741.968 1452.8 Q744.931 1450.39 750.07 1450.39 Q755.232 1450.39 758.172 1452.8 Q761.111 1455.21 761.111 1459.35 Q761.111 1462.32 759.422 1464.38 Q757.755 1466.44 754.769 1467.18 Q758.148 1467.96 760.023 1470.26 Q761.922 1472.55 761.922 1475.86 Q761.922 1480.88 758.843 1483.57 Q755.787 1486.25 750.07 1486.25 Q744.352 1486.25 741.273 1483.57 Q738.218 1480.88 738.218 1475.86 Q738.218 1472.55 740.116 1470.26 Q742.014 1467.96 745.394 1467.18 M743.681 1459.79 Q743.681 1462.48 745.348 1463.98 Q747.037 1465.49 750.07 1465.49 Q753.079 1465.49 754.769 1463.98 Q756.482 1462.48 756.482 1459.79 Q756.482 1457.11 754.769 1455.6 Q753.079 1454.1 750.07 1454.1 Q747.037 1454.1 745.348 1455.6 Q743.681 1457.11 743.681 1459.79 Z" fill="#000000" fill-rule="evenodd" fill-opacity="1" /><path clip-path="url(#clip610)" d="M1033.49 1481.64 L1041.13 1481.64 L1041.13 1455.28 L1032.82 1456.95 L1032.82 1452.69 L1041.08 1451.02 L1045.76 1451.02 L1045.76 1481.64 L1053.39 1481.64 L1053.39 1485.58 L1033.49 1485.58 L1033.49 1481.64 Z" fill="#000000" fill-rule="evenodd" fill-opacity="1" /><path clip-path="url(#clip610)" d="M1062.84 1479.7 L1067.72 1479.7 L1067.72 1485.58 L1062.84 1485.58 L1062.84 1479.7 Z" fill="#000000" fill-rule="evenodd" fill-opacity="1" /><path clip-path="url(#clip610)" d="M1087.91 1454.1 Q1084.3 1454.1 1082.47 1457.66 Q1080.66 1461.2 1080.66 1468.33 Q1080.66 1475.44 1082.47 1479.01 Q1084.3 1482.55 1087.91 1482.55 Q1091.54 1482.55 1093.35 1479.01 Q1095.18 1475.44 1095.18 1468.33 Q1095.18 1461.2 1093.35 1457.66 Q1091.54 1454.1 1087.91 1454.1 M1087.91 1450.39 Q1093.72 1450.39 1096.77 1455 Q1099.85 1459.58 1099.85 1468.33 Q1099.85 1477.06 1096.77 1481.67 Q1093.72 1486.25 1087.91 1486.25 Q1082.1 1486.25 1079.02 1481.67 Q1075.96 1477.06 1075.96 1468.33 Q1075.96 1459.58 1079.02 1455 Q1082.1 1450.39 1087.91 1450.39 Z" fill="#000000" fill-rule="evenodd" fill-opacity="1" /><path clip-path="url(#clip610)" d="M1373.21 1481.64 L1380.85 1481.64 L1380.85 1455.28 L1372.54 1456.95 L1372.54 1452.69 L1380.8 1451.02 L1385.48 1451.02 L1385.48 1481.64 L1393.12 1481.64 L1393.12 1485.58 L1373.21 1485.58 L1373.21 1481.64 Z" fill="#000000" fill-rule="evenodd" fill-opacity="1" /><path clip-path="url(#clip610)" d="M1402.56 1479.7 L1407.45 1479.7 L1407.45 1485.58 L1402.56 1485.58 L1402.56 1479.7 Z" fill="#000000" fill-rule="evenodd" fill-opacity="1" /><path clip-path="url(#clip610)" d="M1421.66 1481.64 L1437.98 1481.64 L1437.98 1485.58 L1416.04 1485.58 L1416.04 1481.64 Q1418.7 1478.89 1423.28 1474.26 Q1427.89 1469.61 1429.07 1468.27 Q1431.31 1465.74 1432.19 1464.01 Q1433.1 1462.25 1433.1 1460.56 Q1433.1 1457.8 1431.15 1456.07 Q1429.23 1454.33 1426.13 1454.33 Q1423.93 1454.33 1421.48 1455.09 Q1419.04 1455.86 1416.27 1457.41 L1416.27 1452.69 Q1419.09 1451.55 1421.54 1450.97 Q1424 1450.39 1426.04 1450.39 Q1431.41 1450.39 1434.6 1453.08 Q1437.79 1455.77 1437.79 1460.26 Q1437.79 1462.39 1436.98 1464.31 Q1436.2 1466.2 1434.09 1468.8 Q1433.51 1469.47 1430.41 1472.69 Q1427.31 1475.88 1421.66 1481.64 Z" fill="#000000" fill-rule="evenodd" fill-opacity="1" /><path clip-path="url(#clip610)" d="M1711.1 1481.64 L1718.73 1481.64 L1718.73 1455.28 L1710.42 1456.95 L1710.42 1452.69 L1718.69 1451.02 L1723.36 1451.02 L1723.36 1481.64 L1731 1481.64 L1731 1485.58 L1711.1 1485.58 L1711.1 1481.64 Z" fill="#000000" fill-rule="evenodd" fill-opacity="1" /><path clip-path="url(#clip610)" d="M1740.45 1479.7 L1745.33 1479.7 L1745.33 1485.58 L1740.45 1485.58 L1740.45 1479.7 Z" fill="#000000" fill-rule="evenodd" fill-opacity="1" /><path clip-path="url(#clip610)" d="M1768.36 1455.09 L1756.56 1473.54 L1768.36 1473.54 L1768.36 1455.09 M1767.14 1451.02 L1773.02 1451.02 L1773.02 1473.54 L1777.95 1473.54 L1777.95 1477.43 L1773.02 1477.43 L1773.02 1485.58 L1768.36 1485.58 L1768.36 1477.43 L1752.76 1477.43 L1752.76 1472.92 L1767.14 1451.02 Z" fill="#000000" fill-rule="evenodd" fill-opacity="1" /><path clip-path="url(#clip610)" d="M980.763 1562.63 L991.266 1562.63 L991.266 1526.38 L979.84 1528.67 L979.84 1522.82 L991.203 1520.52 L997.632 1520.52 L997.632 1562.63 L1008.14 1562.63 L1008.14 1568.04 L980.763 1568.04 L980.763 1562.63 Z" fill="#000000" fill-rule="evenodd" fill-opacity="1" /><path clip-path="url(#clip610)" d="M1064.47 1537.81 L1064.47 1518.52 L1070.33 1518.52 L1070.33 1568.04 L1064.47 1568.04 L1064.47 1562.7 Q1062.63 1565.88 1059.79 1567.44 Q1056.99 1568.97 1053.05 1568.97 Q1046.58 1568.97 1042.51 1563.81 Q1038.47 1558.65 1038.47 1550.25 Q1038.47 1541.85 1042.51 1536.69 Q1046.58 1531.54 1053.05 1531.54 Q1056.99 1531.54 1059.79 1533.1 Q1062.63 1534.62 1064.47 1537.81 M1044.52 1550.25 Q1044.52 1556.71 1047.16 1560.4 Q1049.83 1564.07 1054.48 1564.07 Q1059.12 1564.07 1061.8 1560.4 Q1064.47 1556.71 1064.47 1550.25 Q1064.47 1543.79 1061.8 1540.13 Q1059.12 1536.44 1054.48 1536.44 Q1049.83 1536.44 1047.16 1540.13 Q1044.52 1543.79 1044.52 1550.25 Z" fill="#000000" fill-rule="evenodd" fill-opacity="1" /><path clip-path="url(#clip610)" d="M1098.59 1550.12 Q1091.49 1550.12 1088.76 1551.75 Q1086.02 1553.37 1086.02 1557.29 Q1086.02 1560.4 1088.06 1562.25 Q1090.13 1564.07 1093.66 1564.07 Q1098.53 1564.07 1101.46 1560.63 Q1104.42 1557.16 1104.42 1551.43 L1104.42 1550.12 L1098.59 1550.12 M1110.27 1547.71 L1110.27 1568.04 L1104.42 1568.04 L1104.42 1562.63 Q1102.41 1565.88 1099.42 1567.44 Q1096.43 1568.97 1092.1 1568.97 Q1086.62 1568.97 1083.38 1565.91 Q1080.16 1562.82 1080.16 1557.67 Q1080.16 1551.65 1084.17 1548.6 Q1088.22 1545.54 1096.2 1545.54 L1104.42 1545.54 L1104.42 1544.97 Q1104.42 1540.93 1101.74 1538.73 Q1099.1 1536.5 1094.3 1536.5 Q1091.24 1536.5 1088.34 1537.23 Q1085.45 1537.97 1082.77 1539.43 L1082.77 1534.02 Q1085.99 1532.78 1089.01 1532.17 Q1092.04 1531.54 1094.9 1531.54 Q1102.63 1531.54 1106.45 1535.55 Q1110.27 1539.56 1110.27 1547.71 Z" fill="#000000" fill-rule="evenodd" fill-opacity="1" /><path clip-path="url(#clip610)" d="M1137.17 1571.35 Q1134.69 1577.72 1132.33 1579.66 Q1129.97 1581.6 1126.03 1581.6 L1121.35 1581.6 L1121.35 1576.7 L1124.79 1576.7 Q1127.21 1576.7 1128.54 1575.56 Q1129.88 1574.41 1131.5 1570.14 L1132.55 1567.47 L1118.13 1532.4 L1124.34 1532.4 L1135.48 1560.28 L1146.62 1532.4 L1152.83 1532.4 L1137.17 1571.35 Z" fill="#000000" fill-rule="evenodd" fill-opacity="1" /><polyline clip-path="url(#clip610)" style="stroke:#000000; stroke-linecap:butt; stroke-linejoin:round; stroke-width:4; stroke-opacity:1; fill:none" points="
  304.699,1423.18 304.699,123.472 
  "/>
<polyline clip-path="url(#clip610)" style="stroke:#000000; stroke-linecap:butt; stroke-linejoin:round; stroke-width:4; stroke-opacity:1; fill:none" points="
  304.699,1423.18 318.755,1423.18 
  "/>
<polyline clip-path="url(#clip610)" style="stroke:#000000; stroke-linecap:butt; stroke-linejoin:round; stroke-width:4; stroke-opacity:1; fill:none" points="
  304.699,1022.32 318.755,1022.32 
  "/>
<polyline clip-path="url(#clip610)" style="stroke:#000000; stroke-linecap:butt; stroke-linejoin:round; stroke-width:4; stroke-opacity:1; fill:none" points="
  304.699,621.463 318.755,621.463 
  "/>
<polyline clip-path="url(#clip610)" style="stroke:#000000; stroke-linecap:butt; stroke-linejoin:round; stroke-width:4; stroke-opacity:1; fill:none" points="
  304.699,220.604 318.755,220.604 
  "/>
<path clip-path="url(#clip610)" d="M256.755 1408.98 Q253.144 1408.98 251.315 1412.54 Q249.51 1416.08 249.51 1423.21 Q249.51 1430.32 251.315 1433.89 Q253.144 1437.43 256.755 1437.43 Q260.389 1437.43 262.195 1433.89 Q264.023 1430.32 264.023 1423.21 Q264.023 1416.08 262.195 1412.54 Q260.389 1408.98 256.755 1408.98 M256.755 1405.27 Q262.565 1405.27 265.621 1409.88 Q268.699 1414.46 268.699 1423.21 Q268.699 1431.94 265.621 1436.55 Q262.565 1441.13 256.755 1441.13 Q250.945 1441.13 247.866 1436.55 Q244.811 1431.94 244.811 1423.21 Q244.811 1414.46 247.866 1409.88 Q250.945 1405.27 256.755 1405.27 Z" fill="#000000" fill-rule="evenodd" fill-opacity="1" /><path clip-path="url(#clip610)" d="M52.8743 1011.49 L71.2307 1011.49 L71.2307 1015.42 L57.1567 1015.42 L57.1567 1023.9 Q58.1752 1023.55 59.1938 1023.39 Q60.2123 1023.2 61.2308 1023.2 Q67.0178 1023.2 70.3974 1026.37 Q73.777 1029.54 73.777 1034.96 Q73.777 1040.54 70.3048 1043.64 Q66.8326 1046.72 60.5132 1046.72 Q58.3373 1046.72 56.0688 1046.35 Q53.8234 1045.98 51.416 1045.24 L51.416 1040.54 Q53.4993 1041.67 55.7216 1042.23 Q57.9438 1042.79 60.4206 1042.79 Q64.4252 1042.79 66.7632 1040.68 Q69.1011 1038.57 69.1011 1034.96 Q69.1011 1031.35 66.7632 1029.24 Q64.4252 1027.14 60.4206 1027.14 Q58.5456 1027.14 56.6706 1027.55 Q54.8188 1027.97 52.8743 1028.85 L52.8743 1011.49 Z" fill="#000000" fill-rule="evenodd" fill-opacity="1" /><path clip-path="url(#clip610)" d="M82.9899 1040.17 L87.8742 1040.17 L87.8742 1046.05 L82.9899 1046.05 L82.9899 1040.17 Z" fill="#000000" fill-rule="evenodd" fill-opacity="1" /><path clip-path="url(#clip610)" d="M108.059 1014.57 Q104.448 1014.57 102.619 1018.13 Q100.814 1021.67 100.814 1028.8 Q100.814 1035.91 102.619 1039.47 Q104.448 1043.02 108.059 1043.02 Q111.693 1043.02 113.499 1039.47 Q115.328 1035.91 115.328 1028.8 Q115.328 1021.67 113.499 1018.13 Q111.693 1014.57 108.059 1014.57 M108.059 1010.86 Q113.869 1010.86 116.925 1015.47 Q120.004 1020.05 120.004 1028.8 Q120.004 1037.53 116.925 1042.14 Q113.869 1046.72 108.059 1046.72 Q102.249 1046.72 99.1704 1042.14 Q96.1149 1037.53 96.1149 1028.8 Q96.1149 1020.05 99.1704 1015.47 Q102.249 1010.86 108.059 1010.86 Z" fill="#000000" fill-rule="evenodd" fill-opacity="1" /><path clip-path="url(#clip610)" d="M138.221 1014.57 Q134.61 1014.57 132.781 1018.13 Q130.976 1021.67 130.976 1028.8 Q130.976 1035.91 132.781 1039.47 Q134.61 1043.02 138.221 1043.02 Q141.855 1043.02 143.661 1039.47 Q145.49 1035.91 145.49 1028.8 Q145.49 1021.67 143.661 1018.13 Q141.855 1014.57 138.221 1014.57 M138.221 1010.86 Q144.031 1010.86 147.087 1015.47 Q150.165 1020.05 150.165 1028.8 Q150.165 1037.53 147.087 1042.14 Q144.031 1046.72 138.221 1046.72 Q132.411 1046.72 129.332 1042.14 Q126.277 1037.53 126.277 1028.8 Q126.277 1020.05 129.332 1015.47 Q132.411 1010.86 138.221 1010.86 Z" fill="#000000" fill-rule="evenodd" fill-opacity="1" /><path clip-path="url(#clip610)" d="M186.554 1020.59 L175.976 1031.21 L186.554 1041.79 L183.8 1044.59 L173.175 1033.97 L162.55 1044.59 L159.818 1041.79 L170.374 1031.21 L159.818 1020.59 L162.55 1017.79 L173.175 1028.41 L183.8 1017.79 L186.554 1020.59 Z" fill="#000000" fill-rule="evenodd" fill-opacity="1" /><path clip-path="url(#clip610)" d="M198.915 1042.11 L206.554 1042.11 L206.554 1015.75 L198.244 1017.41 L198.244 1013.16 L206.508 1011.49 L211.184 1011.49 L211.184 1042.11 L218.823 1042.11 L218.823 1046.05 L198.915 1046.05 L198.915 1042.11 Z" fill="#000000" fill-rule="evenodd" fill-opacity="1" /><path clip-path="url(#clip610)" d="M238.267 1014.57 Q234.656 1014.57 232.827 1018.13 Q231.022 1021.67 231.022 1028.8 Q231.022 1035.91 232.827 1039.47 Q234.656 1043.02 238.267 1043.02 Q241.901 1043.02 243.707 1039.47 Q245.535 1035.91 245.535 1028.8 Q245.535 1021.67 243.707 1018.13 Q241.901 1014.57 238.267 1014.57 M238.267 1010.86 Q244.077 1010.86 247.133 1015.47 Q250.211 1020.05 250.211 1028.8 Q250.211 1037.53 247.133 1042.14 Q244.077 1046.72 238.267 1046.72 Q232.457 1046.72 229.378 1042.14 Q226.322 1037.53 226.322 1028.8 Q226.322 1020.05 229.378 1015.47 Q232.457 1010.86 238.267 1010.86 Z" fill="#000000" fill-rule="evenodd" fill-opacity="1" /><path clip-path="url(#clip610)" d="M262.906 1003.5 Q265.634 1004.08 267.157 1005.92 Q268.699 1007.77 268.699 1010.48 Q268.699 1014.63 265.841 1016.91 Q262.982 1019.18 257.716 1019.18 Q255.948 1019.18 254.067 1018.83 Q252.205 1018.49 250.211 1017.79 L250.211 1014.12 Q251.791 1015.05 253.672 1015.52 Q255.553 1015.99 257.603 1015.99 Q261.176 1015.99 263.038 1014.58 Q264.919 1013.17 264.919 1010.48 Q264.919 1007.99 263.17 1006.6 Q261.439 1005.19 258.336 1005.19 L255.064 1005.19 L255.064 1002.07 L258.487 1002.07 Q261.289 1002.07 262.775 1000.96 Q264.261 999.831 264.261 997.724 Q264.261 995.561 262.718 994.414 Q261.195 993.248 258.336 993.248 Q256.775 993.248 254.988 993.587 Q253.202 993.925 251.058 994.64 L251.058 991.254 Q253.22 990.653 255.101 990.352 Q257.001 990.051 258.675 990.051 Q263.001 990.051 265.521 992.026 Q268.041 993.982 268.041 997.329 Q268.041 999.662 266.706 1001.28 Q265.37 1002.88 262.906 1003.5 Z" fill="#000000" fill-rule="evenodd" fill-opacity="1" /><path clip-path="url(#clip610)" d="M51.6634 641.255 L59.3023 641.255 L59.3023 614.89 L50.9921 616.556 L50.9921 612.297 L59.256 610.63 L63.9319 610.63 L63.9319 641.255 L71.5707 641.255 L71.5707 645.19 L51.6634 645.19 L51.6634 641.255 Z" fill="#000000" fill-rule="evenodd" fill-opacity="1" /><path clip-path="url(#clip610)" d="M81.0151 639.311 L85.8993 639.311 L85.8993 645.19 L81.0151 645.19 L81.0151 639.311 Z" fill="#000000" fill-rule="evenodd" fill-opacity="1" /><path clip-path="url(#clip610)" d="M106.084 613.709 Q102.473 613.709 100.645 617.274 Q98.8391 620.816 98.8391 627.945 Q98.8391 635.052 100.645 638.616 Q102.473 642.158 106.084 642.158 Q109.719 642.158 111.524 638.616 Q113.353 635.052 113.353 627.945 Q113.353 620.816 111.524 617.274 Q109.719 613.709 106.084 613.709 M106.084 610.005 Q111.895 610.005 114.95 614.612 Q118.029 619.195 118.029 627.945 Q118.029 636.672 114.95 641.278 Q111.895 645.862 106.084 645.862 Q100.274 645.862 97.1956 641.278 Q94.14 636.672 94.14 627.945 Q94.14 619.195 97.1956 614.612 Q100.274 610.005 106.084 610.005 Z" fill="#000000" fill-rule="evenodd" fill-opacity="1" /><path clip-path="url(#clip610)" d="M136.246 613.709 Q132.635 613.709 130.807 617.274 Q129.001 620.816 129.001 627.945 Q129.001 635.052 130.807 638.616 Q132.635 642.158 136.246 642.158 Q139.881 642.158 141.686 638.616 Q143.515 635.052 143.515 627.945 Q143.515 620.816 141.686 617.274 Q139.881 613.709 136.246 613.709 M136.246 610.005 Q142.056 610.005 145.112 614.612 Q148.191 619.195 148.191 627.945 Q148.191 636.672 145.112 641.278 Q142.056 645.862 136.246 645.862 Q130.436 645.862 127.357 641.278 Q124.302 636.672 124.302 627.945 Q124.302 619.195 127.357 614.612 Q130.436 610.005 136.246 610.005 Z" fill="#000000" fill-rule="evenodd" fill-opacity="1" /><path clip-path="url(#clip610)" d="M184.579 619.728 L174.001 630.353 L184.579 640.931 L181.825 643.732 L171.2 633.107 L160.575 643.732 L157.843 640.931 L168.399 630.353 L157.843 619.728 L160.575 616.927 L171.2 627.552 L181.825 616.927 L184.579 619.728 Z" fill="#000000" fill-rule="evenodd" fill-opacity="1" /><path clip-path="url(#clip610)" d="M196.94 641.255 L204.579 641.255 L204.579 614.89 L196.269 616.556 L196.269 612.297 L204.533 610.63 L209.209 610.63 L209.209 641.255 L216.848 641.255 L216.848 645.19 L196.94 645.19 L196.94 641.255 Z" fill="#000000" fill-rule="evenodd" fill-opacity="1" /><path clip-path="url(#clip610)" d="M236.292 613.709 Q232.681 613.709 230.852 617.274 Q229.047 620.816 229.047 627.945 Q229.047 635.052 230.852 638.616 Q232.681 642.158 236.292 642.158 Q239.926 642.158 241.732 638.616 Q243.561 635.052 243.561 627.945 Q243.561 620.816 241.732 617.274 Q239.926 613.709 236.292 613.709 M236.292 610.005 Q242.102 610.005 245.158 614.612 Q248.236 619.195 248.236 627.945 Q248.236 636.672 245.158 641.278 Q242.102 645.862 236.292 645.862 Q230.482 645.862 227.403 641.278 Q224.348 636.672 224.348 627.945 Q224.348 619.195 227.403 614.612 Q230.482 610.005 236.292 610.005 Z" fill="#000000" fill-rule="evenodd" fill-opacity="1" /><path clip-path="url(#clip610)" d="M260.913 593.01 L251.321 608 L260.913 608 L260.913 593.01 M259.916 589.7 L264.693 589.7 L264.693 608 L268.699 608 L268.699 611.16 L264.693 611.16 L264.693 617.78 L260.913 617.78 L260.913 611.16 L248.236 611.16 L248.236 607.492 L259.916 589.7 Z" fill="#000000" fill-rule="evenodd" fill-opacity="1" /><path clip-path="url(#clip610)" d="M51.6634 240.397 L59.3023 240.397 L59.3023 214.031 L50.9921 215.698 L50.9921 211.439 L59.256 209.772 L63.9319 209.772 L63.9319 240.397 L71.5707 240.397 L71.5707 244.332 L51.6634 244.332 L51.6634 240.397 Z" fill="#000000" fill-rule="evenodd" fill-opacity="1" /><path clip-path="url(#clip610)" d="M81.0151 238.452 L85.8993 238.452 L85.8993 244.332 L81.0151 244.332 L81.0151 238.452 Z" fill="#000000" fill-rule="evenodd" fill-opacity="1" /><path clip-path="url(#clip610)" d="M96.1308 209.772 L114.487 209.772 L114.487 213.707 L100.413 213.707 L100.413 222.179 Q101.432 221.832 102.45 221.67 Q103.469 221.485 104.487 221.485 Q110.274 221.485 113.654 224.656 Q117.033 227.827 117.033 233.244 Q117.033 238.823 113.561 241.925 Q110.089 245.003 103.77 245.003 Q101.594 245.003 99.3252 244.633 Q97.0798 244.263 94.6724 243.522 L94.6724 238.823 Q96.7558 239.957 98.978 240.513 Q101.2 241.068 103.677 241.068 Q107.682 241.068 110.02 238.962 Q112.358 236.855 112.358 233.244 Q112.358 229.633 110.02 227.526 Q107.682 225.42 103.677 225.42 Q101.802 225.42 99.927 225.837 Q98.0752 226.253 96.1308 227.133 L96.1308 209.772 Z" fill="#000000" fill-rule="evenodd" fill-opacity="1" /><path clip-path="url(#clip610)" d="M136.246 212.851 Q132.635 212.851 130.807 216.415 Q129.001 219.957 129.001 227.087 Q129.001 234.193 130.807 237.758 Q132.635 241.3 136.246 241.3 Q139.881 241.3 141.686 237.758 Q143.515 234.193 143.515 227.087 Q143.515 219.957 141.686 216.415 Q139.881 212.851 136.246 212.851 M136.246 209.147 Q142.056 209.147 145.112 213.753 Q148.191 218.337 148.191 227.087 Q148.191 235.813 145.112 240.42 Q142.056 245.003 136.246 245.003 Q130.436 245.003 127.357 240.42 Q124.302 235.813 124.302 227.087 Q124.302 218.337 127.357 213.753 Q130.436 209.147 136.246 209.147 Z" fill="#000000" fill-rule="evenodd" fill-opacity="1" /><path clip-path="url(#clip610)" d="M184.579 218.869 L174.001 229.494 L184.579 240.073 L181.825 242.874 L171.2 232.249 L160.575 242.874 L157.843 240.073 L168.399 229.494 L157.843 218.869 L160.575 216.068 L171.2 226.693 L181.825 216.068 L184.579 218.869 Z" fill="#000000" fill-rule="evenodd" fill-opacity="1" /><path clip-path="url(#clip610)" d="M196.94 240.397 L204.579 240.397 L204.579 214.031 L196.269 215.698 L196.269 211.439 L204.533 209.772 L209.209 209.772 L209.209 240.397 L216.848 240.397 L216.848 244.332 L196.94 244.332 L196.94 240.397 Z" fill="#000000" fill-rule="evenodd" fill-opacity="1" /><path clip-path="url(#clip610)" d="M236.292 212.851 Q232.681 212.851 230.852 216.415 Q229.047 219.957 229.047 227.087 Q229.047 234.193 230.852 237.758 Q232.681 241.3 236.292 241.3 Q239.926 241.3 241.732 237.758 Q243.561 234.193 243.561 227.087 Q243.561 219.957 241.732 216.415 Q239.926 212.851 236.292 212.851 M236.292 209.147 Q242.102 209.147 245.158 213.753 Q248.236 218.337 248.236 227.087 Q248.236 235.813 245.158 240.42 Q242.102 245.003 236.292 245.003 Q230.482 245.003 227.403 240.42 Q224.348 235.813 224.348 227.087 Q224.348 218.337 227.403 213.753 Q230.482 209.147 236.292 209.147 Z" fill="#000000" fill-rule="evenodd" fill-opacity="1" /><path clip-path="url(#clip610)" d="M260.913 192.152 L251.321 207.142 L260.913 207.142 L260.913 192.152 M259.916 188.842 L264.693 188.842 L264.693 207.142 L268.699 207.142 L268.699 210.301 L264.693 210.301 L264.693 216.922 L260.913 216.922 L260.913 210.301 L248.236 210.301 L248.236 206.634 L259.916 188.842 Z" fill="#000000" fill-rule="evenodd" fill-opacity="1" /><path clip-path="url(#clip612)" d="
M388.482 123.472 L388.482 1423.18 L1744.19 1423.18 L1744.19 123.472 L388.482 123.472 L388.482 123.472  Z
  " fill="#50863c" fill-rule="evenodd" fill-opacity="1"/>
<polyline clip-path="url(#clip612)" style="stroke:#000000; stroke-linecap:butt; stroke-linejoin:round; stroke-width:4; stroke-opacity:1; fill:none" points="
  388.482,123.472 388.482,1423.18 1744.19,1423.18 1744.19,123.472 388.482,123.472 
  "/>
<circle clip-path="url(#clip612)" style="fill:#50863c; stroke:none; fill-opacity:0" cx="1066.33" cy="123.472" r="2"/>
<path clip-path="url(#clip612)" d="
M388.482 155.541 L388.482 1423.18 L1744.19 1423.18 L1744.19 155.541 L388.482 155.541 L388.482 155.541  Z
  " fill="#730000" fill-rule="evenodd" fill-opacity="1"/>
<polyline clip-path="url(#clip612)" style="stroke:#000000; stroke-linecap:butt; stroke-linejoin:round; stroke-width:4; stroke-opacity:1; fill:none" points="
  388.482,155.541 388.482,1423.18 1744.19,1423.18 1744.19,155.541 388.482,155.541 
  "/>
<circle clip-path="url(#clip612)" style="fill:#730000; stroke:none; fill-opacity:0" cx="1066.33" cy="155.541" r="2"/>
<path clip-path="url(#clip612)" d="
M388.482 155.541 L388.482 1380.46 L1744.19 1380.46 L1744.19 155.541 L388.482 155.541 L388.482 155.541  Z
  " fill="#157083" fill-rule="evenodd" fill-opacity="1"/>
<polyline clip-path="url(#clip612)" style="stroke:#000000; stroke-linecap:butt; stroke-linejoin:round; stroke-width:4; stroke-opacity:1; fill:none" points="
  388.482,155.541 388.482,1380.46 1744.19,1380.46 1744.19,155.541 388.482,155.541 
  "/>
<circle clip-path="url(#clip612)" style="fill:#157083; stroke:none; fill-opacity:0" cx="1066.33" cy="155.541" r="2"/>
<path clip-path="url(#clip612)" d="
M388.482 290.229 L388.482 1380.46 L1744.19 1380.46 L1744.19 290.229 L388.482 290.229 L388.482 290.229  Z
  " fill="#505664" fill-rule="evenodd" fill-opacity="1"/>
<polyline clip-path="url(#clip612)" style="stroke:#000000; stroke-linecap:butt; stroke-linejoin:round; stroke-width:4; stroke-opacity:1; fill:none" points="
  388.482,290.229 388.482,1380.46 1744.19,1380.46 1744.19,290.229 388.482,290.229 
  "/>
<circle clip-path="url(#clip612)" style="fill:#505664; stroke:none; fill-opacity:0" cx="1066.33" cy="290.229" r="2"/>
<path clip-path="url(#clip612)" d="
M388.482 1375.48 L388.482 1380.46 L1744.19 1380.46 L1744.19 1375.48 L388.482 1375.48 L388.482 1375.48  Z
  " fill="#636875" fill-rule="evenodd" fill-opacity="1"/>
<polyline clip-path="url(#clip612)" style="stroke:#000000; stroke-linecap:butt; stroke-linejoin:round; stroke-width:4; stroke-opacity:1; fill:none" points="
  388.482,1375.48 388.482,1380.46 1744.19,1380.46 1744.19,1375.48 388.482,1375.48 
  "/>
<circle clip-path="url(#clip612)" style="fill:#636875; stroke:none; fill-opacity:0" cx="1066.33" cy="1375.48" r="2"/>
<path clip-path="url(#clip610)" d="
M1896.24 902.926 L2352.76 902.926 L2352.76 591.886 L1896.24 591.886  Z
  " fill="#ffffff" fill-rule="evenodd" fill-opacity="1"/>
<polyline clip-path="url(#clip610)" style="stroke:#000000; stroke-linecap:butt; stroke-linejoin:round; stroke-width:4; stroke-opacity:1; fill:none" points="
  1896.24,902.926 2352.76,902.926 2352.76,591.886 1896.24,591.886 1896.24,902.926 
  "/>
<path clip-path="url(#clip610)" d="
M1918.99 664.462 L2055.53 664.462 L2055.53 622.99 L1918.99 622.99 L1918.99 664.462  Z
  " fill="#50863c" fill-rule="evenodd" fill-opacity="1"/>
<polyline clip-path="url(#clip610)" style="stroke:#000000; stroke-linecap:butt; stroke-linejoin:round; stroke-width:4; stroke-opacity:1; fill:none" points="
  1918.99,664.462 2055.53,664.462 2055.53,622.99 1918.99,622.99 1918.99,664.462 
  "/>
<path clip-path="url(#clip610)" d="M2100.53 627.58 L2100.53 632.14 Q2097.87 630.867 2095.51 630.242 Q2093.15 629.617 2090.95 629.617 Q2087.13 629.617 2085.05 631.099 Q2082.99 632.58 2082.99 635.312 Q2082.99 637.603 2084.35 638.784 Q2085.74 639.941 2089.58 640.659 L2092.41 641.238 Q2097.64 642.233 2100.12 644.756 Q2102.62 647.256 2102.62 651.469 Q2102.62 656.492 2099.24 659.085 Q2095.88 661.677 2089.37 661.677 Q2086.92 661.677 2084.14 661.122 Q2081.39 660.566 2078.43 659.478 L2078.43 654.663 Q2081.27 656.261 2084 657.071 Q2086.74 657.881 2089.37 657.881 Q2093.38 657.881 2095.55 656.307 Q2097.73 654.733 2097.73 651.816 Q2097.73 649.27 2096.16 647.835 Q2094.61 646.4 2091.04 645.682 L2088.19 645.126 Q2082.96 644.085 2080.62 641.863 Q2078.29 639.64 2078.29 635.682 Q2078.29 631.099 2081.5 628.46 Q2084.74 625.821 2090.42 625.821 Q2092.85 625.821 2095.37 626.261 Q2097.89 626.701 2100.53 627.58 Z" fill="#000000" fill-rule="evenodd" fill-opacity="1" /><path clip-path="url(#clip610)" d="M2109.28 650.775 L2109.28 635.08 L2113.54 635.08 L2113.54 650.613 Q2113.54 654.293 2114.98 656.145 Q2116.41 657.974 2119.28 657.974 Q2122.73 657.974 2124.72 655.775 Q2126.74 653.575 2126.74 649.779 L2126.74 635.08 L2130.99 635.08 L2130.99 661.006 L2126.74 661.006 L2126.74 657.025 Q2125.18 659.386 2123.12 660.543 Q2121.09 661.677 2118.38 661.677 Q2113.91 661.677 2111.6 658.9 Q2109.28 656.122 2109.28 650.775 M2120 634.455 L2120 634.455 Z" fill="#000000" fill-rule="evenodd" fill-opacity="1" /><path clip-path="url(#clip610)" d="M2161.32 645.358 L2161.32 661.006 L2157.06 661.006 L2157.06 645.497 Q2157.06 641.816 2155.62 639.988 Q2154.19 638.159 2151.32 638.159 Q2147.87 638.159 2145.88 640.358 Q2143.89 642.557 2143.89 646.353 L2143.89 661.006 L2139.61 661.006 L2139.61 635.08 L2143.89 635.08 L2143.89 639.108 Q2145.42 636.77 2147.48 635.613 Q2149.56 634.455 2152.27 634.455 Q2156.74 634.455 2159.03 637.233 Q2161.32 639.988 2161.32 645.358 Z" fill="#000000" fill-rule="evenodd" fill-opacity="1" /><path clip-path="url(#clip610)" d="M2186.87 639.015 L2186.87 624.988 L2191.13 624.988 L2191.13 661.006 L2186.87 661.006 L2186.87 657.117 Q2185.53 659.432 2183.47 660.566 Q2181.43 661.677 2178.56 661.677 Q2173.86 661.677 2170.9 657.927 Q2167.96 654.177 2167.96 648.066 Q2167.96 641.955 2170.9 638.205 Q2173.86 634.455 2178.56 634.455 Q2181.43 634.455 2183.47 635.589 Q2185.53 636.701 2186.87 639.015 M2172.36 648.066 Q2172.36 652.765 2174.28 655.45 Q2176.23 658.112 2179.61 658.112 Q2182.98 658.112 2184.93 655.45 Q2186.87 652.765 2186.87 648.066 Q2186.87 643.367 2184.93 640.705 Q2182.98 638.02 2179.61 638.02 Q2176.23 638.02 2174.28 640.705 Q2172.36 643.367 2172.36 648.066 Z" fill="#000000" fill-rule="evenodd" fill-opacity="1" /><path clip-path="url(#clip610)" d="M2211.69 647.974 Q2206.53 647.974 2204.54 649.154 Q2202.55 650.335 2202.55 653.182 Q2202.55 655.45 2204.03 656.793 Q2205.53 658.112 2208.1 658.112 Q2211.64 658.112 2213.77 655.612 Q2215.92 653.089 2215.92 648.923 L2215.92 647.974 L2211.69 647.974 M2220.18 646.214 L2220.18 661.006 L2215.92 661.006 L2215.92 657.071 Q2214.47 659.432 2212.29 660.566 Q2210.11 661.677 2206.97 661.677 Q2202.98 661.677 2200.62 659.455 Q2198.29 657.21 2198.29 653.46 Q2198.29 649.085 2201.2 646.863 Q2204.14 644.64 2209.95 644.64 L2215.92 644.64 L2215.92 644.224 Q2215.92 641.284 2213.98 639.687 Q2212.06 638.066 2208.56 638.066 Q2206.34 638.066 2204.23 638.599 Q2202.13 639.131 2200.18 640.196 L2200.18 636.261 Q2202.52 635.358 2204.72 634.918 Q2206.92 634.455 2209 634.455 Q2214.63 634.455 2217.41 637.372 Q2220.18 640.289 2220.18 646.214 Z" fill="#000000" fill-rule="evenodd" fill-opacity="1" /><path clip-path="url(#clip610)" d="M2250.51 645.358 L2250.51 661.006 L2246.25 661.006 L2246.25 645.497 Q2246.25 641.816 2244.81 639.988 Q2243.38 638.159 2240.51 638.159 Q2237.06 638.159 2235.07 640.358 Q2233.08 642.557 2233.08 646.353 L2233.08 661.006 L2228.79 661.006 L2228.79 635.08 L2233.08 635.08 L2233.08 639.108 Q2234.61 636.77 2236.67 635.613 Q2238.75 634.455 2241.46 634.455 Q2245.92 634.455 2248.22 637.233 Q2250.51 639.988 2250.51 645.358 Z" fill="#000000" fill-rule="evenodd" fill-opacity="1" /><path clip-path="url(#clip610)" d="M2277.66 636.076 L2277.66 640.057 Q2275.85 639.062 2274.03 638.576 Q2272.22 638.066 2270.37 638.066 Q2266.23 638.066 2263.93 640.705 Q2261.64 643.321 2261.64 648.066 Q2261.64 652.812 2263.93 655.45 Q2266.23 658.066 2270.37 658.066 Q2272.22 658.066 2274.03 657.58 Q2275.85 657.071 2277.66 656.075 L2277.66 660.011 Q2275.88 660.844 2273.96 661.261 Q2272.06 661.677 2269.91 661.677 Q2264.05 661.677 2260.6 657.997 Q2257.15 654.316 2257.15 648.066 Q2257.15 641.724 2260.62 638.089 Q2264.12 634.455 2270.18 634.455 Q2272.15 634.455 2274.03 634.872 Q2275.9 635.265 2277.66 636.076 Z" fill="#000000" fill-rule="evenodd" fill-opacity="1" /><path clip-path="url(#clip610)" d="M2307.24 646.978 L2307.24 649.062 L2287.66 649.062 Q2287.94 653.46 2290.3 655.775 Q2292.68 658.066 2296.92 658.066 Q2299.37 658.066 2301.66 657.464 Q2303.98 656.862 2306.25 655.659 L2306.25 659.687 Q2303.96 660.659 2301.55 661.168 Q2299.14 661.677 2296.66 661.677 Q2290.46 661.677 2286.83 658.066 Q2283.22 654.455 2283.22 648.298 Q2283.22 641.932 2286.64 638.205 Q2290.09 634.455 2295.92 634.455 Q2301.16 634.455 2304.19 637.835 Q2307.24 641.191 2307.24 646.978 M2302.98 645.728 Q2302.94 642.233 2301.02 640.15 Q2299.12 638.066 2295.97 638.066 Q2292.41 638.066 2290.25 640.08 Q2288.12 642.094 2287.8 645.751 L2302.98 645.728 Z" fill="#000000" fill-rule="evenodd" fill-opacity="1" /><path clip-path="url(#clip610)" d="
M1918.99 716.302 L2055.53 716.302 L2055.53 674.83 L1918.99 674.83 L1918.99 716.302  Z
  " fill="#730000" fill-rule="evenodd" fill-opacity="1"/>
<polyline clip-path="url(#clip610)" style="stroke:#000000; stroke-linecap:butt; stroke-linejoin:round; stroke-width:4; stroke-opacity:1; fill:none" points="
  1918.99,716.302 2055.53,716.302 2055.53,674.83 1918.99,674.83 1918.99,716.302 
  "/>
<path clip-path="url(#clip610)" d="M2100.53 679.42 L2100.53 683.98 Q2097.87 682.707 2095.51 682.082 Q2093.15 681.457 2090.95 681.457 Q2087.13 681.457 2085.05 682.939 Q2082.99 684.42 2082.99 687.152 Q2082.99 689.443 2084.35 690.624 Q2085.74 691.781 2089.58 692.499 L2092.41 693.078 Q2097.64 694.073 2100.12 696.596 Q2102.62 699.096 2102.62 703.309 Q2102.62 708.332 2099.24 710.925 Q2095.88 713.517 2089.37 713.517 Q2086.92 713.517 2084.14 712.962 Q2081.39 712.406 2078.43 711.318 L2078.43 706.503 Q2081.27 708.101 2084 708.911 Q2086.74 709.721 2089.37 709.721 Q2093.38 709.721 2095.55 708.147 Q2097.73 706.573 2097.73 703.656 Q2097.73 701.11 2096.16 699.675 Q2094.61 698.24 2091.04 697.522 L2088.19 696.966 Q2082.96 695.925 2080.62 693.703 Q2078.29 691.48 2078.29 687.522 Q2078.29 682.939 2081.5 680.3 Q2084.74 677.661 2090.42 677.661 Q2092.85 677.661 2095.37 678.101 Q2097.89 678.541 2100.53 679.42 Z" fill="#000000" fill-rule="evenodd" fill-opacity="1" /><path clip-path="url(#clip610)" d="M2119.77 689.906 Q2116.34 689.906 2114.35 692.591 Q2112.36 695.253 2112.36 699.906 Q2112.36 704.559 2114.33 707.244 Q2116.32 709.906 2119.77 709.906 Q2123.17 709.906 2125.16 707.221 Q2127.15 704.536 2127.15 699.906 Q2127.15 695.3 2125.16 692.615 Q2123.17 689.906 2119.77 689.906 M2119.77 686.295 Q2125.32 686.295 2128.49 689.906 Q2131.67 693.517 2131.67 699.906 Q2131.67 706.272 2128.49 709.906 Q2125.32 713.517 2119.77 713.517 Q2114.19 713.517 2111.02 709.906 Q2107.87 706.272 2107.87 699.906 Q2107.87 693.517 2111.02 689.906 Q2114.19 686.295 2119.77 686.295 Z" fill="#000000" fill-rule="evenodd" fill-opacity="1" /><path clip-path="url(#clip610)" d="M2138.73 676.828 L2142.99 676.828 L2142.99 712.846 L2138.73 712.846 L2138.73 676.828 Z" fill="#000000" fill-rule="evenodd" fill-opacity="1" /><path clip-path="url(#clip610)" d="M2151.9 686.92 L2156.16 686.92 L2156.16 712.846 L2151.9 712.846 L2151.9 686.92 M2151.9 676.828 L2156.16 676.828 L2156.16 682.221 L2151.9 682.221 L2151.9 676.828 Z" fill="#000000" fill-rule="evenodd" fill-opacity="1" /><path clip-path="url(#clip610)" d="M2169.28 679.559 L2169.28 686.92 L2178.05 686.92 L2178.05 690.23 L2169.28 690.23 L2169.28 704.304 Q2169.28 707.476 2170.14 708.378 Q2171.02 709.281 2173.68 709.281 L2178.05 709.281 L2178.05 712.846 L2173.68 712.846 Q2168.75 712.846 2166.87 711.017 Q2165 709.165 2165 704.304 L2165 690.23 L2161.87 690.23 L2161.87 686.92 L2165 686.92 L2165 679.559 L2169.28 679.559 Z" fill="#000000" fill-rule="evenodd" fill-opacity="1" /><path clip-path="url(#clip610)" d="M2183.22 702.615 L2183.22 686.92 L2187.48 686.92 L2187.48 702.453 Q2187.48 706.133 2188.91 707.985 Q2190.35 709.814 2193.22 709.814 Q2196.67 709.814 2198.66 707.615 Q2200.67 705.415 2200.67 701.619 L2200.67 686.92 L2204.93 686.92 L2204.93 712.846 L2200.67 712.846 L2200.67 708.865 Q2199.12 711.226 2197.06 712.383 Q2195.02 713.517 2192.31 713.517 Q2187.85 713.517 2185.53 710.74 Q2183.22 707.962 2183.22 702.615 M2193.93 686.295 L2193.93 686.295 Z" fill="#000000" fill-rule="evenodd" fill-opacity="1" /><path clip-path="url(#clip610)" d="M2230.76 690.855 L2230.76 676.828 L2235.02 676.828 L2235.02 712.846 L2230.76 712.846 L2230.76 708.957 Q2229.42 711.272 2227.36 712.406 Q2225.32 713.517 2222.45 713.517 Q2217.75 713.517 2214.79 709.767 Q2211.85 706.017 2211.85 699.906 Q2211.85 693.795 2214.79 690.045 Q2217.75 686.295 2222.45 686.295 Q2225.32 686.295 2227.36 687.429 Q2229.42 688.541 2230.76 690.855 M2216.25 699.906 Q2216.25 704.605 2218.17 707.29 Q2220.11 709.952 2223.49 709.952 Q2226.87 709.952 2228.82 707.29 Q2230.76 704.605 2230.76 699.906 Q2230.76 695.207 2228.82 692.545 Q2226.87 689.86 2223.49 689.86 Q2220.11 689.86 2218.17 692.545 Q2216.25 695.207 2216.25 699.906 Z" fill="#000000" fill-rule="evenodd" fill-opacity="1" /><path clip-path="url(#clip610)" d="M2265.97 698.818 L2265.97 700.902 L2246.39 700.902 Q2246.67 705.3 2249.03 707.615 Q2251.41 709.906 2255.65 709.906 Q2258.1 709.906 2260.39 709.304 Q2262.71 708.702 2264.98 707.499 L2264.98 711.527 Q2262.68 712.499 2260.28 713.008 Q2257.87 713.517 2255.39 713.517 Q2249.19 713.517 2245.55 709.906 Q2241.94 706.295 2241.94 700.138 Q2241.94 693.772 2245.37 690.045 Q2248.82 686.295 2254.65 686.295 Q2259.88 686.295 2262.92 689.675 Q2265.97 693.031 2265.97 698.818 M2261.71 697.568 Q2261.67 694.073 2259.74 691.99 Q2257.85 689.906 2254.7 689.906 Q2251.13 689.906 2248.98 691.92 Q2246.85 693.934 2246.53 697.591 L2261.71 697.568 Z" fill="#000000" fill-rule="evenodd" fill-opacity="1" /><path clip-path="url(#clip610)" d="
M1918.99 768.142 L2055.53 768.142 L2055.53 726.67 L1918.99 726.67 L1918.99 768.142  Z
  " fill="#157083" fill-rule="evenodd" fill-opacity="1"/>
<polyline clip-path="url(#clip610)" style="stroke:#000000; stroke-linecap:butt; stroke-linejoin:round; stroke-width:4; stroke-opacity:1; fill:none" points="
  1918.99,768.142 2055.53,768.142 2055.53,726.67 1918.99,726.67 1918.99,768.142 
  "/>
<path clip-path="url(#clip610)" d="M2082.96 733.969 L2082.96 746.955 L2088.84 746.955 Q2092.11 746.955 2093.89 745.265 Q2095.67 743.575 2095.67 740.45 Q2095.67 737.348 2093.89 735.658 Q2092.11 733.969 2088.84 733.969 L2082.96 733.969 M2078.29 730.126 L2088.84 730.126 Q2094.65 730.126 2097.62 732.765 Q2100.6 735.381 2100.6 740.45 Q2100.6 745.566 2097.62 748.181 Q2094.65 750.797 2088.84 750.797 L2082.96 750.797 L2082.96 764.686 L2078.29 764.686 L2078.29 730.126 Z" fill="#000000" fill-rule="evenodd" fill-opacity="1" /><path clip-path="url(#clip610)" d="M2116.34 751.654 Q2111.18 751.654 2109.19 752.834 Q2107.2 754.015 2107.2 756.862 Q2107.2 759.13 2108.68 760.473 Q2110.18 761.792 2112.75 761.792 Q2116.3 761.792 2118.43 759.292 Q2120.58 756.769 2120.58 752.603 L2120.58 751.654 L2116.34 751.654 M2124.84 749.894 L2124.84 764.686 L2120.58 764.686 L2120.58 760.751 Q2119.12 763.112 2116.94 764.246 Q2114.77 765.357 2111.62 765.357 Q2107.64 765.357 2105.28 763.135 Q2102.94 760.89 2102.94 757.14 Q2102.94 752.765 2105.86 750.543 Q2108.8 748.32 2114.61 748.32 L2120.58 748.32 L2120.58 747.904 Q2120.58 744.964 2118.63 743.367 Q2116.71 741.746 2113.22 741.746 Q2110.99 741.746 2108.89 742.279 Q2106.78 742.811 2104.84 743.876 L2104.84 739.941 Q2107.18 739.038 2109.37 738.598 Q2111.57 738.135 2113.66 738.135 Q2119.28 738.135 2122.06 741.052 Q2124.84 743.969 2124.84 749.894 Z" fill="#000000" fill-rule="evenodd" fill-opacity="1" /><path clip-path="url(#clip610)" d="M2148.63 742.742 Q2147.92 742.325 2147.06 742.14 Q2146.23 741.931 2145.21 741.931 Q2141.6 741.931 2139.65 744.293 Q2137.73 746.631 2137.73 751.029 L2137.73 764.686 L2133.45 764.686 L2133.45 738.76 L2137.73 738.76 L2137.73 742.788 Q2139.07 740.427 2141.23 739.293 Q2143.38 738.135 2146.46 738.135 Q2146.9 738.135 2147.43 738.205 Q2147.96 738.251 2148.61 738.367 L2148.63 742.742 Z" fill="#000000" fill-rule="evenodd" fill-opacity="1" /><path clip-path="url(#clip610)" d="M2152.94 728.668 L2157.22 728.668 L2157.22 749.941 L2169.93 738.76 L2175.37 738.76 L2161.62 750.89 L2175.95 764.686 L2170.39 764.686 L2157.22 752.024 L2157.22 764.686 L2152.94 764.686 L2152.94 728.668 Z" fill="#000000" fill-rule="evenodd" fill-opacity="1" /><path clip-path="url(#clip610)" d="M2221.69 732.788 L2221.69 737.719 Q2219.33 735.519 2216.64 734.432 Q2213.98 733.344 2210.97 733.344 Q2205.05 733.344 2201.9 736.978 Q2198.75 740.589 2198.75 747.441 Q2198.75 754.269 2201.9 757.904 Q2205.05 761.515 2210.97 761.515 Q2213.98 761.515 2216.64 760.427 Q2219.33 759.339 2221.69 757.14 L2221.69 762.024 Q2219.23 763.691 2216.48 764.524 Q2213.75 765.357 2210.69 765.357 Q2202.85 765.357 2198.33 760.566 Q2193.82 755.751 2193.82 747.441 Q2193.82 739.107 2198.33 734.316 Q2202.85 729.501 2210.69 729.501 Q2213.79 729.501 2216.53 730.334 Q2219.28 731.144 2221.69 732.788 Z" fill="#000000" fill-rule="evenodd" fill-opacity="1" /><path clip-path="url(#clip610)" d="M2228.73 738.76 L2232.98 738.76 L2232.98 764.686 L2228.73 764.686 L2228.73 738.76 M2228.73 728.668 L2232.98 728.668 L2232.98 734.061 L2228.73 734.061 L2228.73 728.668 Z" fill="#000000" fill-rule="evenodd" fill-opacity="1" /><path clip-path="url(#clip610)" d="M2246.11 731.399 L2246.11 738.76 L2254.88 738.76 L2254.88 742.07 L2246.11 742.07 L2246.11 756.144 Q2246.11 759.316 2246.97 760.218 Q2247.85 761.121 2250.51 761.121 L2254.88 761.121 L2254.88 764.686 L2250.51 764.686 Q2245.58 764.686 2243.7 762.857 Q2241.83 761.005 2241.83 756.144 L2241.83 742.07 L2238.7 742.07 L2238.7 738.76 L2241.83 738.76 L2241.83 731.399 L2246.11 731.399 Z" fill="#000000" fill-rule="evenodd" fill-opacity="1" /><path clip-path="url(#clip610)" d="M2271.27 767.093 Q2269.47 771.723 2267.75 773.135 Q2266.04 774.547 2263.17 774.547 L2259.77 774.547 L2259.77 770.982 L2262.27 770.982 Q2264.03 770.982 2265 770.149 Q2265.97 769.316 2267.15 766.214 L2267.92 764.269 L2257.43 738.76 L2261.94 738.76 L2270.04 759.038 L2278.15 738.76 L2282.66 738.76 L2271.27 767.093 Z" fill="#000000" fill-rule="evenodd" fill-opacity="1" /><path clip-path="url(#clip610)" d="
M1918.99 819.982 L2055.53 819.982 L2055.53 778.51 L1918.99 778.51 L1918.99 819.982  Z
  " fill="#505664" fill-rule="evenodd" fill-opacity="1"/>
<polyline clip-path="url(#clip610)" style="stroke:#000000; stroke-linecap:butt; stroke-linejoin:round; stroke-width:4; stroke-opacity:1; fill:none" points="
  1918.99,819.982 2055.53,819.982 2055.53,778.51 1918.99,778.51 1918.99,819.982 
  "/>
<path clip-path="url(#clip610)" d="M2082.96 800.021 L2082.96 812.683 L2090.46 812.683 Q2094.24 812.683 2096.04 811.132 Q2097.87 809.558 2097.87 806.341 Q2097.87 803.1 2096.04 801.572 Q2094.24 800.021 2090.46 800.021 L2082.96 800.021 M2082.96 785.809 L2082.96 796.225 L2089.88 796.225 Q2093.31 796.225 2094.98 794.952 Q2096.67 793.656 2096.67 791.017 Q2096.67 788.401 2094.98 787.105 Q2093.31 785.809 2089.88 785.809 L2082.96 785.809 M2078.29 781.966 L2090.23 781.966 Q2095.58 781.966 2098.47 784.188 Q2101.37 786.41 2101.37 790.508 Q2101.37 793.679 2099.88 795.554 Q2098.4 797.429 2095.53 797.892 Q2098.98 798.633 2100.88 800.994 Q2102.8 803.332 2102.8 806.85 Q2102.8 811.48 2099.65 814.003 Q2096.5 816.526 2090.69 816.526 L2078.29 816.526 L2078.29 781.966 Z" fill="#000000" fill-rule="evenodd" fill-opacity="1" /><path clip-path="url(#clip610)" d="M2125.65 794.582 Q2124.93 794.165 2124.07 793.98 Q2123.24 793.771 2122.22 793.771 Q2118.61 793.771 2116.67 796.133 Q2114.74 798.471 2114.74 802.869 L2114.74 816.526 L2110.46 816.526 L2110.46 790.6 L2114.74 790.6 L2114.74 794.628 Q2116.09 792.267 2118.24 791.133 Q2120.39 789.975 2123.47 789.975 Q2123.91 789.975 2124.44 790.045 Q2124.98 790.091 2125.62 790.207 L2125.65 794.582 Z" fill="#000000" fill-rule="evenodd" fill-opacity="1" /><path clip-path="url(#clip610)" d="M2130.11 790.6 L2134.37 790.6 L2134.37 816.526 L2130.11 816.526 L2130.11 790.6 M2130.11 780.508 L2134.37 780.508 L2134.37 785.901 L2130.11 785.901 L2130.11 780.508 Z" fill="#000000" fill-rule="evenodd" fill-opacity="1" /><path clip-path="url(#clip610)" d="M2160.35 803.262 Q2160.35 798.633 2158.42 796.086 Q2156.53 793.54 2153.08 793.54 Q2149.65 793.54 2147.73 796.086 Q2145.83 798.633 2145.83 803.262 Q2145.83 807.869 2147.73 810.415 Q2149.65 812.961 2153.08 812.961 Q2156.53 812.961 2158.42 810.415 Q2160.35 807.869 2160.35 803.262 M2164.61 813.308 Q2164.61 819.929 2161.67 823.146 Q2158.73 826.387 2152.66 826.387 Q2150.42 826.387 2148.42 826.04 Q2146.43 825.716 2144.56 825.021 L2144.56 820.878 Q2146.43 821.896 2148.26 822.382 Q2150.09 822.869 2151.99 822.869 Q2156.18 822.869 2158.26 820.669 Q2160.35 818.494 2160.35 814.072 L2160.35 811.966 Q2159.03 814.257 2156.97 815.392 Q2154.91 816.526 2152.04 816.526 Q2147.27 816.526 2144.35 812.892 Q2141.43 809.258 2141.43 803.262 Q2141.43 797.244 2144.35 793.609 Q2147.27 789.975 2152.04 789.975 Q2154.91 789.975 2156.97 791.109 Q2159.03 792.244 2160.35 794.535 L2160.35 790.6 L2164.61 790.6 L2164.61 813.308 Z" fill="#000000" fill-rule="evenodd" fill-opacity="1" /><path clip-path="url(#clip610)" d="M2194.93 800.878 L2194.93 816.526 L2190.67 816.526 L2190.67 801.017 Q2190.67 797.336 2189.23 795.508 Q2187.8 793.679 2184.93 793.679 Q2181.48 793.679 2179.49 795.878 Q2177.5 798.077 2177.5 801.873 L2177.5 816.526 L2173.22 816.526 L2173.22 780.508 L2177.5 780.508 L2177.5 794.628 Q2179.03 792.29 2181.09 791.133 Q2183.17 789.975 2185.88 789.975 Q2190.35 789.975 2192.64 792.753 Q2194.93 795.508 2194.93 800.878 Z" fill="#000000" fill-rule="evenodd" fill-opacity="1" /><path clip-path="url(#clip610)" d="M2207.64 783.239 L2207.64 790.6 L2216.41 790.6 L2216.41 793.91 L2207.64 793.91 L2207.64 807.984 Q2207.64 811.156 2208.49 812.058 Q2209.37 812.961 2212.04 812.961 L2216.41 812.961 L2216.41 816.526 L2212.04 816.526 Q2207.11 816.526 2205.23 814.697 Q2203.36 812.845 2203.36 807.984 L2203.36 793.91 L2200.23 793.91 L2200.23 790.6 L2203.36 790.6 L2203.36 783.239 L2207.64 783.239 Z" fill="#000000" fill-rule="evenodd" fill-opacity="1" /><path clip-path="url(#clip610)" d="M2232.06 793.586 Q2228.63 793.586 2226.64 796.271 Q2224.65 798.933 2224.65 803.586 Q2224.65 808.239 2226.62 810.924 Q2228.61 813.586 2232.06 813.586 Q2235.46 813.586 2237.45 810.901 Q2239.44 808.216 2239.44 803.586 Q2239.44 798.98 2237.45 796.295 Q2235.46 793.586 2232.06 793.586 M2232.06 789.975 Q2237.61 789.975 2240.79 793.586 Q2243.96 797.197 2243.96 803.586 Q2243.96 809.952 2240.79 813.586 Q2237.61 817.197 2232.06 817.197 Q2226.48 817.197 2223.31 813.586 Q2220.16 809.952 2220.16 803.586 Q2220.16 797.197 2223.31 793.586 Q2226.48 789.975 2232.06 789.975 Z" fill="#000000" fill-rule="evenodd" fill-opacity="1" /><path clip-path="url(#clip610)" d="M2272.57 800.878 L2272.57 816.526 L2268.31 816.526 L2268.31 801.017 Q2268.31 797.336 2266.87 795.508 Q2265.44 793.679 2262.57 793.679 Q2259.12 793.679 2257.13 795.878 Q2255.14 798.077 2255.14 801.873 L2255.14 816.526 L2250.85 816.526 L2250.85 790.6 L2255.14 790.6 L2255.14 794.628 Q2256.67 792.29 2258.73 791.133 Q2260.81 789.975 2263.52 789.975 Q2267.98 789.975 2270.28 792.753 Q2272.57 795.508 2272.57 800.878 Z" fill="#000000" fill-rule="evenodd" fill-opacity="1" /><path clip-path="url(#clip610)" d="
M1918.99 871.822 L2055.53 871.822 L2055.53 830.35 L1918.99 830.35 L1918.99 871.822  Z
  " fill="#636875" fill-rule="evenodd" fill-opacity="1"/>
<polyline clip-path="url(#clip610)" style="stroke:#000000; stroke-linecap:butt; stroke-linejoin:round; stroke-width:4; stroke-opacity:1; fill:none" points="
  1918.99,871.822 2055.53,871.822 2055.53,830.35 1918.99,830.35 1918.99,871.822 
  "/>
<path clip-path="url(#clip610)" d="M2094.12 838.412 L2087.78 855.611 L2100.49 855.611 L2094.12 838.412 M2091.48 833.806 L2096.78 833.806 L2109.95 868.366 L2105.09 868.366 L2101.94 859.5 L2086.37 859.5 L2083.22 868.366 L2078.29 868.366 L2091.48 833.806 Z" fill="#000000" fill-rule="evenodd" fill-opacity="1" /><path clip-path="url(#clip610)" d="M2114.81 832.348 L2119.07 832.348 L2119.07 868.366 L2114.81 868.366 L2114.81 832.348 Z" fill="#000000" fill-rule="evenodd" fill-opacity="1" /><path clip-path="url(#clip610)" d="M2132.2 835.079 L2132.2 842.44 L2140.97 842.44 L2140.97 845.75 L2132.2 845.75 L2132.2 859.824 Q2132.2 862.996 2133.05 863.898 Q2133.93 864.801 2136.6 864.801 L2140.97 864.801 L2140.97 868.366 L2136.6 868.366 Q2131.67 868.366 2129.79 866.537 Q2127.92 864.685 2127.92 859.824 L2127.92 845.75 L2124.79 845.75 L2124.79 842.44 L2127.92 842.44 L2127.92 835.079 L2132.2 835.079 Z" fill="#000000" fill-rule="evenodd" fill-opacity="1" /><path clip-path="url(#clip610)" d="M2158.36 855.334 Q2153.19 855.334 2151.2 856.514 Q2149.21 857.695 2149.21 860.542 Q2149.21 862.81 2150.69 864.153 Q2152.2 865.472 2154.77 865.472 Q2158.31 865.472 2160.44 862.972 Q2162.59 860.449 2162.59 856.283 L2162.59 855.334 L2158.36 855.334 M2166.85 853.574 L2166.85 868.366 L2162.59 868.366 L2162.59 864.431 Q2161.13 866.792 2158.96 867.926 Q2156.78 869.037 2153.63 869.037 Q2149.65 869.037 2147.29 866.815 Q2144.95 864.57 2144.95 860.82 Q2144.95 856.445 2147.87 854.223 Q2150.81 852 2156.62 852 L2162.59 852 L2162.59 851.584 Q2162.59 848.644 2160.65 847.047 Q2158.73 845.426 2155.23 845.426 Q2153.01 845.426 2150.9 845.959 Q2148.8 846.491 2146.85 847.556 L2146.85 843.621 Q2149.19 842.718 2151.39 842.278 Q2153.59 841.815 2155.67 841.815 Q2161.3 841.815 2164.07 844.732 Q2166.85 847.649 2166.85 853.574 Z" fill="#000000" fill-rule="evenodd" fill-opacity="1" /></svg>
