<?xml version="1.0" encoding="utf-8"?>
<svg xmlns="http://www.w3.org/2000/svg" xmlns:xlink="http://www.w3.org/1999/xlink" width="600" height="400" viewBox="0 0 2400 1600">
<defs>
  <clipPath id="clip220">
    <rect x="0" y="0" width="2400" height="1600"/>
  </clipPath>
</defs>
<path clip-path="url(#clip220)" d="
M0 1600 L2400 1600 L2400 0 L0 0  Z
  " fill="#ffffff" fill-rule="evenodd" fill-opacity="1"/>
<defs>
  <clipPath id="clip221">
    <rect x="480" y="0" width="1681" height="1600"/>
  </clipPath>
</defs>
<path clip-path="url(#clip220)" d="
M235.283 1423.18 L1770.09 1423.18 L1770.09 123.472 L235.283 123.472  Z
  " fill="#ffffff" fill-rule="evenodd" fill-opacity="1"/>
<defs>
  <clipPath id="clip222">
    <rect x="235" y="123" width="1536" height="1301"/>
  </clipPath>
</defs>
<polyline clip-path="url(#clip220)" style="stroke:#000000; stroke-linecap:butt; stroke-linejoin:round; stroke-width:4; stroke-opacity:1; fill:none" points="
  235.283,1423.18 1770.09,1423.18 
  "/>
<polyline clip-path="url(#clip220)" style="stroke:#000000; stroke-linecap:butt; stroke-linejoin:round; stroke-width:4; stroke-opacity:1; fill:none" points="
  278.721,1423.18 278.721,1404.28 
  "/>
<polyline clip-path="url(#clip220)" style="stroke:#000000; stroke-linecap:butt; stroke-linejoin:round; stroke-width:4; stroke-opacity:1; fill:none" points="
  1726.66,1423.18 1726.66,1404.28 
  "/>
<path clip-path="url(#clip220)" d="M28.9653 1481.64 L45.2847 1481.64 L45.2847 1485.58 L23.3403 1485.58 L23.3403 1481.64 Q26.0024 1478.89 30.5857 1474.26 Q35.1921 1469.61 36.3727 1468.27 Q38.618 1465.74 39.4977 1464.01 Q40.4004 1462.25 40.4004 1460.56 Q40.4004 1457.8 38.456 1456.07 Q36.5347 1454.33 33.4329 1454.33 Q31.2338 1454.33 28.7801 1455.09 Q26.3496 1455.86 23.5718 1457.41 L23.5718 1452.69 Q26.3959 1451.55 28.8496 1450.97 Q31.3033 1450.39 33.3403 1450.39 Q38.7106 1450.39 41.9051 1453.08 Q45.0995 1455.77 45.0995 1460.26 Q45.0995 1462.39 44.2893 1464.31 Q43.5023 1466.2 41.3958 1468.8 Q40.8171 1469.47 37.7153 1472.69 Q34.6134 1475.88 28.9653 1481.64 Z" fill="#000000" fill-rule="evenodd" fill-opacity="1" /><path clip-path="url(#clip220)" d="M65.0994 1454.1 Q61.4883 1454.1 59.6596 1457.66 Q57.854 1461.2 57.854 1468.33 Q57.854 1475.44 59.6596 1479.01 Q61.4883 1482.55 65.0994 1482.55 Q68.7336 1482.55 70.5392 1479.01 Q72.3679 1475.44 72.3679 1468.33 Q72.3679 1461.2 70.5392 1457.66 Q68.7336 1454.1 65.0994 1454.1 M65.0994 1450.39 Q70.9095 1450.39 73.9651 1455 Q77.0438 1459.58 77.0438 1468.33 Q77.0438 1477.06 73.9651 1481.67 Q70.9095 1486.25 65.0994 1486.25 Q59.2892 1486.25 56.2105 1481.67 Q53.155 1477.06 53.155 1468.33 Q53.155 1459.58 56.2105 1455 Q59.2892 1450.39 65.0994 1450.39 Z" fill="#000000" fill-rule="evenodd" fill-opacity="1" /><path clip-path="url(#clip220)" d="M89.2891 1481.64 L105.608 1481.64 L105.608 1485.58 L83.6641 1485.58 L83.6641 1481.64 Q86.3261 1478.89 90.9094 1474.26 Q95.5159 1469.61 96.6964 1468.27 Q98.9418 1465.74 99.8214 1464.01 Q100.724 1462.25 100.724 1460.56 Q100.724 1457.8 98.7798 1456.07 Q96.8585 1454.33 93.7566 1454.33 Q91.5576 1454.33 89.1039 1455.09 Q86.6733 1455.86 83.8956 1457.41 L83.8956 1452.69 Q86.7196 1451.55 89.1733 1450.97 Q91.627 1450.39 93.664 1450.39 Q99.0344 1450.39 102.229 1453.08 Q105.423 1455.77 105.423 1460.26 Q105.423 1462.39 104.613 1464.31 Q103.826 1466.2 101.72 1468.8 Q101.141 1469.47 98.039 1472.69 Q94.9372 1475.88 89.2891 1481.64 Z" fill="#000000" fill-rule="evenodd" fill-opacity="1" /><path clip-path="url(#clip220)" d="M125.423 1454.1 Q121.812 1454.1 119.983 1457.66 Q118.178 1461.2 118.178 1468.33 Q118.178 1475.44 119.983 1479.01 Q121.812 1482.55 125.423 1482.55 Q129.057 1482.55 130.863 1479.01 Q132.692 1475.44 132.692 1468.33 Q132.692 1461.2 130.863 1457.66 Q129.057 1454.1 125.423 1454.1 M125.423 1450.39 Q131.233 1450.39 134.289 1455 Q137.368 1459.58 137.368 1468.33 Q137.368 1477.06 134.289 1481.67 Q131.233 1486.25 125.423 1486.25 Q119.613 1486.25 116.534 1481.67 Q113.479 1477.06 113.479 1468.33 Q113.479 1459.58 116.534 1455 Q119.613 1450.39 125.423 1450.39 Z" fill="#000000" fill-rule="evenodd" fill-opacity="1" /><path clip-path="url(#clip220)" d="M142.83 1470.7 L155.307 1470.7 L155.307 1474.49 L142.83 1474.49 L142.83 1470.7 Z" fill="#000000" fill-rule="evenodd" fill-opacity="1" /><path clip-path="url(#clip220)" d="M172.691 1454.1 Q169.08 1454.1 167.252 1457.66 Q165.446 1461.2 165.446 1468.33 Q165.446 1475.44 167.252 1479.01 Q169.08 1482.55 172.691 1482.55 Q176.326 1482.55 178.131 1479.01 Q179.96 1475.44 179.96 1468.33 Q179.96 1461.2 178.131 1457.66 Q176.326 1454.1 172.691 1454.1 M172.691 1450.39 Q178.502 1450.39 181.557 1455 Q184.636 1459.58 184.636 1468.33 Q184.636 1477.06 181.557 1481.67 Q178.502 1486.25 172.691 1486.25 Q166.881 1486.25 163.803 1481.67 Q160.747 1477.06 160.747 1468.33 Q160.747 1459.58 163.803 1455 Q166.881 1450.39 172.691 1450.39 Z" fill="#000000" fill-rule="evenodd" fill-opacity="1" /><path clip-path="url(#clip220)" d="M193.664 1481.64 L201.302 1481.64 L201.302 1455.28 L192.992 1456.95 L192.992 1452.69 L201.256 1451.02 L205.932 1451.02 L205.932 1481.64 L213.571 1481.64 L213.571 1485.58 L193.664 1485.58 L193.664 1481.64 Z" fill="#000000" fill-rule="evenodd" fill-opacity="1" /><path clip-path="url(#clip220)" d="M220.261 1470.7 L232.737 1470.7 L232.737 1474.49 L220.261 1474.49 L220.261 1470.7 Z" fill="#000000" fill-rule="evenodd" fill-opacity="1" /><path clip-path="url(#clip220)" d="M250.122 1454.1 Q246.51 1454.1 244.682 1457.66 Q242.876 1461.2 242.876 1468.33 Q242.876 1475.44 244.682 1479.01 Q246.51 1482.55 250.122 1482.55 Q253.756 1482.55 255.561 1479.01 Q257.39 1475.44 257.39 1468.33 Q257.39 1461.2 255.561 1457.66 Q253.756 1454.1 250.122 1454.1 M250.122 1450.39 Q255.932 1450.39 258.987 1455 Q262.066 1459.58 262.066 1468.33 Q262.066 1477.06 258.987 1481.67 Q255.932 1486.25 250.122 1486.25 Q244.311 1486.25 241.233 1481.67 Q238.177 1477.06 238.177 1468.33 Q238.177 1459.58 241.233 1455 Q244.311 1450.39 250.122 1450.39 Z" fill="#000000" fill-rule="evenodd" fill-opacity="1" /><path clip-path="url(#clip220)" d="M271.094 1481.64 L278.732 1481.64 L278.732 1455.28 L270.422 1456.95 L270.422 1452.69 L278.686 1451.02 L283.362 1451.02 L283.362 1481.64 L291.001 1481.64 L291.001 1485.58 L271.094 1485.58 L271.094 1481.64 Z" fill="#000000" fill-rule="evenodd" fill-opacity="1" /><path clip-path="url(#clip220)" d="M295.237 1451.02 L324.473 1451.02 L324.473 1454.96 L312.205 1454.96 L312.205 1485.58 L307.505 1485.58 L307.505 1454.96 L295.237 1454.96 L295.237 1451.02 Z" fill="#000000" fill-rule="evenodd" fill-opacity="1" /><path clip-path="url(#clip220)" d="M339.403 1454.1 Q335.792 1454.1 333.964 1457.66 Q332.158 1461.2 332.158 1468.33 Q332.158 1475.44 333.964 1479.01 Q335.792 1482.55 339.403 1482.55 Q343.038 1482.55 344.843 1479.01 Q346.672 1475.44 346.672 1468.33 Q346.672 1461.2 344.843 1457.66 Q343.038 1454.1 339.403 1454.1 M339.403 1450.39 Q345.214 1450.39 348.269 1455 Q351.348 1459.58 351.348 1468.33 Q351.348 1477.06 348.269 1481.67 Q345.214 1486.25 339.403 1486.25 Q333.593 1486.25 330.515 1481.67 Q327.459 1477.06 327.459 1468.33 Q327.459 1459.58 330.515 1455 Q333.593 1450.39 339.403 1450.39 Z" fill="#000000" fill-rule="evenodd" fill-opacity="1" /><path clip-path="url(#clip220)" d="M369.565 1454.1 Q365.954 1454.1 364.126 1457.66 Q362.32 1461.2 362.32 1468.33 Q362.32 1475.44 364.126 1479.01 Q365.954 1482.55 369.565 1482.55 Q373.2 1482.55 375.005 1479.01 Q376.834 1475.44 376.834 1468.33 Q376.834 1461.2 375.005 1457.66 Q373.2 1454.1 369.565 1454.1 M369.565 1450.39 Q375.375 1450.39 378.431 1455 Q381.51 1459.58 381.51 1468.33 Q381.51 1477.06 378.431 1481.67 Q375.375 1486.25 369.565 1486.25 Q363.755 1486.25 360.676 1481.67 Q357.621 1477.06 357.621 1468.33 Q357.621 1459.58 360.676 1455 Q363.755 1450.39 369.565 1450.39 Z" fill="#000000" fill-rule="evenodd" fill-opacity="1" /><path clip-path="url(#clip220)" d="M390.213 1479.7 L395.098 1479.7 L395.098 1485.58 L390.213 1485.58 L390.213 1479.7 M390.213 1461.07 L395.098 1461.07 L395.098 1466.95 L390.213 1466.95 L390.213 1461.07 Z" fill="#000000" fill-rule="evenodd" fill-opacity="1" /><path clip-path="url(#clip220)" d="M415.699 1454.1 Q412.088 1454.1 410.26 1457.66 Q408.454 1461.2 408.454 1468.33 Q408.454 1475.44 410.26 1479.01 Q412.088 1482.55 415.699 1482.55 Q419.334 1482.55 421.139 1479.01 Q422.968 1475.44 422.968 1468.33 Q422.968 1461.2 421.139 1457.66 Q419.334 1454.1 415.699 1454.1 M415.699 1450.39 Q421.51 1450.39 424.565 1455 Q427.644 1459.58 427.644 1468.33 Q427.644 1477.06 424.565 1481.67 Q421.51 1486.25 415.699 1486.25 Q409.889 1486.25 406.811 1481.67 Q403.755 1477.06 403.755 1468.33 Q403.755 1459.58 406.811 1455 Q409.889 1450.39 415.699 1450.39 Z" fill="#000000" fill-rule="evenodd" fill-opacity="1" /><path clip-path="url(#clip220)" d="M445.861 1454.1 Q442.25 1454.1 440.421 1457.66 Q438.616 1461.2 438.616 1468.33 Q438.616 1475.44 440.421 1479.01 Q442.25 1482.55 445.861 1482.55 Q449.495 1482.55 451.301 1479.01 Q453.13 1475.44 453.13 1468.33 Q453.13 1461.2 451.301 1457.66 Q449.495 1454.1 445.861 1454.1 M445.861 1450.39 Q451.671 1450.39 454.727 1455 Q457.806 1459.58 457.806 1468.33 Q457.806 1477.06 454.727 1481.67 Q451.671 1486.25 445.861 1486.25 Q440.051 1486.25 436.972 1481.67 Q433.917 1477.06 433.917 1468.33 Q433.917 1459.58 436.972 1455 Q440.051 1450.39 445.861 1450.39 Z" fill="#000000" fill-rule="evenodd" fill-opacity="1" /><path clip-path="url(#clip220)" d="M466.509 1479.7 L471.393 1479.7 L471.393 1485.58 L466.509 1485.58 L466.509 1479.7 M466.509 1461.07 L471.393 1461.07 L471.393 1466.95 L466.509 1466.95 L466.509 1461.07 Z" fill="#000000" fill-rule="evenodd" fill-opacity="1" /><path clip-path="url(#clip220)" d="M491.995 1454.1 Q488.384 1454.1 486.555 1457.66 Q484.75 1461.2 484.75 1468.33 Q484.75 1475.44 486.555 1479.01 Q488.384 1482.55 491.995 1482.55 Q495.629 1482.55 497.435 1479.01 Q499.264 1475.44 499.264 1468.33 Q499.264 1461.2 497.435 1457.66 Q495.629 1454.1 491.995 1454.1 M491.995 1450.39 Q497.805 1450.39 500.861 1455 Q503.94 1459.58 503.94 1468.33 Q503.94 1477.06 500.861 1481.67 Q497.805 1486.25 491.995 1486.25 Q486.185 1486.25 483.106 1481.67 Q480.051 1477.06 480.051 1468.33 Q480.051 1459.58 483.106 1455 Q486.185 1450.39 491.995 1450.39 Z" fill="#000000" fill-rule="evenodd" fill-opacity="1" /><path clip-path="url(#clip220)" d="M522.157 1454.1 Q518.546 1454.1 516.717 1457.66 Q514.912 1461.2 514.912 1468.33 Q514.912 1475.44 516.717 1479.01 Q518.546 1482.55 522.157 1482.55 Q525.791 1482.55 527.597 1479.01 Q529.426 1475.44 529.426 1468.33 Q529.426 1461.2 527.597 1457.66 Q525.791 1454.1 522.157 1454.1 M522.157 1450.39 Q527.967 1450.39 531.023 1455 Q534.101 1459.58 534.101 1468.33 Q534.101 1477.06 531.023 1481.67 Q527.967 1486.25 522.157 1486.25 Q516.347 1486.25 513.268 1481.67 Q510.213 1477.06 510.213 1468.33 Q510.213 1459.58 513.268 1455 Q516.347 1450.39 522.157 1450.39 Z" fill="#000000" fill-rule="evenodd" fill-opacity="1" /><path clip-path="url(#clip220)" d="M1476.9 1481.64 L1493.22 1481.64 L1493.22 1485.58 L1471.28 1485.58 L1471.28 1481.64 Q1473.94 1478.89 1478.52 1474.26 Q1483.13 1469.61 1484.31 1468.27 Q1486.55 1465.74 1487.43 1464.01 Q1488.34 1462.25 1488.34 1460.56 Q1488.34 1457.8 1486.39 1456.07 Q1484.47 1454.33 1481.37 1454.33 Q1479.17 1454.33 1476.72 1455.09 Q1474.29 1455.86 1471.51 1457.41 L1471.51 1452.69 Q1474.33 1451.55 1476.79 1450.97 Q1479.24 1450.39 1481.28 1450.39 Q1486.65 1450.39 1489.84 1453.08 Q1493.04 1455.77 1493.04 1460.26 Q1493.04 1462.39 1492.22 1464.31 Q1491.44 1466.2 1489.33 1468.8 Q1488.75 1469.47 1485.65 1472.69 Q1482.55 1475.88 1476.9 1481.64 Z" fill="#000000" fill-rule="evenodd" fill-opacity="1" /><path clip-path="url(#clip220)" d="M1513.04 1454.1 Q1509.42 1454.1 1507.6 1457.66 Q1505.79 1461.2 1505.79 1468.33 Q1505.79 1475.44 1507.6 1479.01 Q1509.42 1482.55 1513.04 1482.55 Q1516.67 1482.55 1518.47 1479.01 Q1520.3 1475.44 1520.3 1468.33 Q1520.3 1461.2 1518.47 1457.66 Q1516.67 1454.1 1513.04 1454.1 M1513.04 1450.39 Q1518.85 1450.39 1521.9 1455 Q1524.98 1459.58 1524.98 1468.33 Q1524.98 1477.06 1521.9 1481.67 Q1518.85 1486.25 1513.04 1486.25 Q1507.22 1486.25 1504.15 1481.67 Q1501.09 1477.06 1501.09 1468.33 Q1501.09 1459.58 1504.15 1455 Q1507.22 1450.39 1513.04 1450.39 Z" fill="#000000" fill-rule="evenodd" fill-opacity="1" /><path clip-path="url(#clip220)" d="M1537.22 1481.64 L1553.54 1481.64 L1553.54 1485.58 L1531.6 1485.58 L1531.6 1481.64 Q1534.26 1478.89 1538.85 1474.26 Q1543.45 1469.61 1544.63 1468.27 Q1546.88 1465.74 1547.76 1464.01 Q1548.66 1462.25 1548.66 1460.56 Q1548.66 1457.8 1546.72 1456.07 Q1544.79 1454.33 1541.69 1454.33 Q1539.49 1454.33 1537.04 1455.09 Q1534.61 1455.86 1531.83 1457.41 L1531.83 1452.69 Q1534.66 1451.55 1537.11 1450.97 Q1539.56 1450.39 1541.6 1450.39 Q1546.97 1450.39 1550.16 1453.08 Q1553.36 1455.77 1553.36 1460.26 Q1553.36 1462.39 1552.55 1464.31 Q1551.76 1466.2 1549.66 1468.8 Q1549.08 1469.47 1545.97 1472.69 Q1542.87 1475.88 1537.22 1481.64 Z" fill="#000000" fill-rule="evenodd" fill-opacity="1" /><path clip-path="url(#clip220)" d="M1573.36 1454.1 Q1569.75 1454.1 1567.92 1457.66 Q1566.11 1461.2 1566.11 1468.33 Q1566.11 1475.44 1567.92 1479.01 Q1569.75 1482.55 1573.36 1482.55 Q1576.99 1482.55 1578.8 1479.01 Q1580.63 1475.44 1580.63 1468.33 Q1580.63 1461.2 1578.8 1457.66 Q1576.99 1454.1 1573.36 1454.1 M1573.36 1450.39 Q1579.17 1450.39 1582.22 1455 Q1585.3 1459.58 1585.3 1468.33 Q1585.3 1477.06 1582.22 1481.67 Q1579.17 1486.25 1573.36 1486.25 Q1567.55 1486.25 1564.47 1481.67 Q1561.41 1477.06 1561.41 1468.33 Q1561.41 1459.58 1564.47 1455 Q1567.55 1450.39 1573.36 1450.39 Z" fill="#000000" fill-rule="evenodd" fill-opacity="1" /><path clip-path="url(#clip220)" d="M1590.77 1470.7 L1603.24 1470.7 L1603.24 1474.49 L1590.77 1474.49 L1590.77 1470.7 Z" fill="#000000" fill-rule="evenodd" fill-opacity="1" /><path clip-path="url(#clip220)" d="M1620.63 1454.1 Q1617.02 1454.1 1615.19 1457.66 Q1613.38 1461.2 1613.38 1468.33 Q1613.38 1475.44 1615.19 1479.01 Q1617.02 1482.55 1620.63 1482.55 Q1624.26 1482.55 1626.07 1479.01 Q1627.9 1475.44 1627.9 1468.33 Q1627.9 1461.2 1626.07 1457.66 Q1624.26 1454.1 1620.63 1454.1 M1620.63 1450.39 Q1626.44 1450.39 1629.49 1455 Q1632.57 1459.58 1632.57 1468.33 Q1632.57 1477.06 1629.49 1481.67 Q1626.44 1486.25 1620.63 1486.25 Q1614.82 1486.25 1611.74 1481.67 Q1608.68 1477.06 1608.68 1468.33 Q1608.68 1459.58 1611.74 1455 Q1614.82 1450.39 1620.63 1450.39 Z" fill="#000000" fill-rule="evenodd" fill-opacity="1" /><path clip-path="url(#clip220)" d="M1641.6 1481.64 L1649.24 1481.64 L1649.24 1455.28 L1640.93 1456.95 L1640.93 1452.69 L1649.19 1451.02 L1653.87 1451.02 L1653.87 1481.64 L1661.51 1481.64 L1661.51 1485.58 L1641.6 1485.58 L1641.6 1481.64 Z" fill="#000000" fill-rule="evenodd" fill-opacity="1" /><path clip-path="url(#clip220)" d="M1668.2 1470.7 L1680.67 1470.7 L1680.67 1474.49 L1668.2 1474.49 L1668.2 1470.7 Z" fill="#000000" fill-rule="evenodd" fill-opacity="1" /><path clip-path="url(#clip220)" d="M1698.06 1454.1 Q1694.45 1454.1 1692.62 1457.66 Q1690.81 1461.2 1690.81 1468.33 Q1690.81 1475.44 1692.62 1479.01 Q1694.45 1482.55 1698.06 1482.55 Q1701.69 1482.55 1703.5 1479.01 Q1705.33 1475.44 1705.33 1468.33 Q1705.33 1461.2 1703.5 1457.66 Q1701.69 1454.1 1698.06 1454.1 M1698.06 1450.39 Q1703.87 1450.39 1706.92 1455 Q1710 1459.58 1710 1468.33 Q1710 1477.06 1706.92 1481.67 Q1703.87 1486.25 1698.06 1486.25 Q1692.25 1486.25 1689.17 1481.67 Q1686.11 1477.06 1686.11 1468.33 Q1686.11 1459.58 1689.17 1455 Q1692.25 1450.39 1698.06 1450.39 Z" fill="#000000" fill-rule="evenodd" fill-opacity="1" /><path clip-path="url(#clip220)" d="M1719.03 1481.64 L1726.67 1481.64 L1726.67 1455.28 L1718.36 1456.95 L1718.36 1452.69 L1726.62 1451.02 L1731.3 1451.02 L1731.3 1481.64 L1738.94 1481.64 L1738.94 1485.58 L1719.03 1485.58 L1719.03 1481.64 Z" fill="#000000" fill-rule="evenodd" fill-opacity="1" /><path clip-path="url(#clip220)" d="M1743.17 1451.02 L1772.41 1451.02 L1772.41 1454.96 L1760.14 1454.96 L1760.14 1485.58 L1755.44 1485.58 L1755.44 1454.96 L1743.17 1454.96 L1743.17 1451.02 Z" fill="#000000" fill-rule="evenodd" fill-opacity="1" /><path clip-path="url(#clip220)" d="M1781.37 1481.64 L1797.69 1481.64 L1797.69 1485.58 L1775.74 1485.58 L1775.74 1481.64 Q1778.4 1478.89 1782.99 1474.26 Q1787.59 1469.61 1788.77 1468.27 Q1791.02 1465.74 1791.9 1464.01 Q1792.8 1462.25 1792.8 1460.56 Q1792.8 1457.8 1790.86 1456.07 Q1788.94 1454.33 1785.83 1454.33 Q1783.64 1454.33 1781.18 1455.09 Q1778.75 1455.86 1775.97 1457.41 L1775.97 1452.69 Q1778.8 1451.55 1781.25 1450.97 Q1783.7 1450.39 1785.74 1450.39 Q1791.11 1450.39 1794.31 1453.08 Q1797.5 1455.77 1797.5 1460.26 Q1797.5 1462.39 1796.69 1464.31 Q1795.9 1466.2 1793.8 1468.8 Q1793.22 1469.47 1790.12 1472.69 Q1787.02 1475.88 1781.37 1481.64 Z" fill="#000000" fill-rule="evenodd" fill-opacity="1" /><path clip-path="url(#clip220)" d="M1821.67 1466.95 Q1825.02 1467.66 1826.9 1469.93 Q1828.8 1472.2 1828.8 1475.53 Q1828.8 1480.65 1825.28 1483.45 Q1821.76 1486.25 1815.28 1486.25 Q1813.1 1486.25 1810.79 1485.81 Q1808.5 1485.39 1806.04 1484.54 L1806.04 1480.02 Q1807.99 1481.16 1810.3 1481.74 Q1812.62 1482.32 1815.14 1482.32 Q1819.54 1482.32 1821.83 1480.58 Q1824.14 1478.84 1824.14 1475.53 Q1824.14 1472.48 1821.99 1470.77 Q1819.86 1469.03 1816.04 1469.03 L1812.01 1469.03 L1812.01 1465.19 L1816.23 1465.19 Q1819.68 1465.19 1821.51 1463.82 Q1823.33 1462.43 1823.33 1459.84 Q1823.33 1457.18 1821.44 1455.77 Q1819.56 1454.33 1816.04 1454.33 Q1814.12 1454.33 1811.92 1454.75 Q1809.72 1455.16 1807.08 1456.04 L1807.08 1451.88 Q1809.75 1451.14 1812.06 1450.77 Q1814.4 1450.39 1816.46 1450.39 Q1821.78 1450.39 1824.89 1452.83 Q1827.99 1455.23 1827.99 1459.35 Q1827.99 1462.22 1826.34 1464.21 Q1824.7 1466.18 1821.67 1466.95 Z" fill="#000000" fill-rule="evenodd" fill-opacity="1" /><path clip-path="url(#clip220)" d="M1838.15 1479.7 L1843.03 1479.7 L1843.03 1485.58 L1838.15 1485.58 L1838.15 1479.7 M1838.15 1461.07 L1843.03 1461.07 L1843.03 1466.95 L1838.15 1466.95 L1838.15 1461.07 Z" fill="#000000" fill-rule="evenodd" fill-opacity="1" /><path clip-path="url(#clip220)" d="M1863.63 1454.1 Q1860.02 1454.1 1858.2 1457.66 Q1856.39 1461.2 1856.39 1468.33 Q1856.39 1475.44 1858.2 1479.01 Q1860.02 1482.55 1863.63 1482.55 Q1867.27 1482.55 1869.07 1479.01 Q1870.9 1475.44 1870.9 1468.33 Q1870.9 1461.2 1869.07 1457.66 Q1867.27 1454.1 1863.63 1454.1 M1863.63 1450.39 Q1869.45 1450.39 1872.5 1455 Q1875.58 1459.58 1875.58 1468.33 Q1875.58 1477.06 1872.5 1481.67 Q1869.45 1486.25 1863.63 1486.25 Q1857.82 1486.25 1854.75 1481.67 Q1851.69 1477.06 1851.69 1468.33 Q1851.69 1459.58 1854.75 1455 Q1857.82 1450.39 1863.63 1450.39 Z" fill="#000000" fill-rule="evenodd" fill-opacity="1" /><path clip-path="url(#clip220)" d="M1893.8 1454.1 Q1890.19 1454.1 1888.36 1457.66 Q1886.55 1461.2 1886.55 1468.33 Q1886.55 1475.44 1888.36 1479.01 Q1890.19 1482.55 1893.8 1482.55 Q1897.43 1482.55 1899.24 1479.01 Q1901.07 1475.44 1901.07 1468.33 Q1901.07 1461.2 1899.24 1457.66 Q1897.43 1454.1 1893.8 1454.1 M1893.8 1450.39 Q1899.61 1450.39 1902.66 1455 Q1905.74 1459.58 1905.74 1468.33 Q1905.74 1477.06 1902.66 1481.67 Q1899.61 1486.25 1893.8 1486.25 Q1887.99 1486.25 1884.91 1481.67 Q1881.85 1477.06 1881.85 1468.33 Q1881.85 1459.58 1884.91 1455 Q1887.99 1450.39 1893.8 1450.39 Z" fill="#000000" fill-rule="evenodd" fill-opacity="1" /><path clip-path="url(#clip220)" d="M1914.44 1479.7 L1919.33 1479.7 L1919.33 1485.58 L1914.44 1485.58 L1914.44 1479.7 M1914.44 1461.07 L1919.33 1461.07 L1919.33 1466.95 L1914.44 1466.95 L1914.44 1461.07 Z" fill="#000000" fill-rule="evenodd" fill-opacity="1" /><path clip-path="url(#clip220)" d="M1939.93 1454.1 Q1936.32 1454.1 1934.49 1457.66 Q1932.69 1461.2 1932.69 1468.33 Q1932.69 1475.44 1934.49 1479.01 Q1936.32 1482.55 1939.93 1482.55 Q1943.57 1482.55 1945.37 1479.01 Q1947.2 1475.44 1947.2 1468.33 Q1947.2 1461.2 1945.37 1457.66 Q1943.57 1454.1 1939.93 1454.1 M1939.93 1450.39 Q1945.74 1450.39 1948.8 1455 Q1951.88 1459.58 1951.88 1468.33 Q1951.88 1477.06 1948.8 1481.67 Q1945.74 1486.25 1939.93 1486.25 Q1934.12 1486.25 1931.04 1481.67 Q1927.99 1477.06 1927.99 1468.33 Q1927.99 1459.58 1931.04 1455 Q1934.12 1450.39 1939.93 1450.39 Z" fill="#000000" fill-rule="evenodd" fill-opacity="1" /><path clip-path="url(#clip220)" d="M1970.09 1454.1 Q1966.48 1454.1 1964.65 1457.66 Q1962.85 1461.2 1962.85 1468.33 Q1962.85 1475.44 1964.65 1479.01 Q1966.48 1482.55 1970.09 1482.55 Q1973.73 1482.55 1975.53 1479.01 Q1977.36 1475.44 1977.36 1468.33 Q1977.36 1461.2 1975.53 1457.66 Q1973.73 1454.1 1970.09 1454.1 M1970.09 1450.39 Q1975.9 1450.39 1978.96 1455 Q1982.04 1459.58 1982.04 1468.33 Q1982.04 1477.06 1978.96 1481.67 Q1975.9 1486.25 1970.09 1486.25 Q1964.28 1486.25 1961.2 1481.67 Q1958.15 1477.06 1958.15 1468.33 Q1958.15 1459.58 1961.2 1455 Q1964.28 1450.39 1970.09 1450.39 Z" fill="#000000" fill-rule="evenodd" fill-opacity="1" /><path clip-path="url(#clip220)" d="M917.118 1562.63 L927.621 1562.63 L927.621 1526.38 L916.195 1528.67 L916.195 1522.82 L927.557 1520.52 L933.987 1520.52 L933.987 1562.63 L944.49 1562.63 L944.49 1568.04 L917.118 1568.04 L917.118 1562.63 Z" fill="#000000" fill-rule="evenodd" fill-opacity="1" /><path clip-path="url(#clip220)" d="M1000.83 1537.81 L1000.83 1518.52 L1006.68 1518.52 L1006.68 1568.04 L1000.83 1568.04 L1000.83 1562.7 Q998.981 1565.88 996.148 1567.44 Q993.347 1568.97 989.4 1568.97 Q982.939 1568.97 978.865 1563.81 Q974.823 1558.65 974.823 1550.25 Q974.823 1541.85 978.865 1536.69 Q982.939 1531.54 989.4 1531.54 Q993.347 1531.54 996.148 1533.1 Q998.981 1534.62 1000.83 1537.81 M980.87 1550.25 Q980.87 1556.71 983.512 1560.4 Q986.186 1564.07 990.833 1564.07 Q995.48 1564.07 998.153 1560.4 Q1000.83 1556.71 1000.83 1550.25 Q1000.83 1543.79 998.153 1540.13 Q995.48 1536.44 990.833 1536.44 Q986.186 1536.44 983.512 1540.13 Q980.87 1543.79 980.87 1550.25 Z" fill="#000000" fill-rule="evenodd" fill-opacity="1" /><path clip-path="url(#clip220)" d="M1034.95 1550.12 Q1027.85 1550.12 1025.11 1551.75 Q1022.37 1553.37 1022.37 1557.29 Q1022.37 1560.4 1024.41 1562.25 Q1026.48 1564.07 1030.01 1564.07 Q1034.88 1564.07 1037.81 1560.63 Q1040.77 1557.16 1040.77 1551.43 L1040.77 1550.12 L1034.95 1550.12 M1046.63 1547.71 L1046.63 1568.04 L1040.77 1568.04 L1040.77 1562.63 Q1038.77 1565.88 1035.77 1567.44 Q1032.78 1568.97 1028.45 1568.97 Q1022.98 1568.97 1019.73 1565.91 Q1016.52 1562.82 1016.52 1557.67 Q1016.52 1551.65 1020.53 1548.6 Q1024.57 1545.54 1032.56 1545.54 L1040.77 1545.54 L1040.77 1544.97 Q1040.77 1540.93 1038.1 1538.73 Q1035.46 1536.5 1030.65 1536.5 Q1027.59 1536.5 1024.7 1537.23 Q1021.8 1537.97 1019.13 1539.43 L1019.13 1534.02 Q1022.34 1532.78 1025.37 1532.17 Q1028.39 1531.54 1031.25 1531.54 Q1038.99 1531.54 1042.81 1535.55 Q1046.63 1539.56 1046.63 1547.71 Z" fill="#000000" fill-rule="evenodd" fill-opacity="1" /><path clip-path="url(#clip220)" d="M1073.52 1571.35 Q1071.04 1577.72 1068.69 1579.66 Q1066.33 1581.6 1062.38 1581.6 L1057.7 1581.6 L1057.7 1576.7 L1061.14 1576.7 Q1063.56 1576.7 1064.9 1575.56 Q1066.23 1574.41 1067.86 1570.14 L1068.91 1567.47 L1054.49 1532.4 L1060.7 1532.4 L1071.84 1560.28 L1082.98 1532.4 L1089.18 1532.4 L1073.52 1571.35 Z" fill="#000000" fill-rule="evenodd" fill-opacity="1" /><polyline clip-path="url(#clip220)" style="stroke:#000000; stroke-linecap:butt; stroke-linejoin:round; stroke-width:4; stroke-opacity:1; fill:none" points="
  235.283,1423.18 235.283,123.472 
  "/>
<polyline clip-path="url(#clip220)" style="stroke:#000000; stroke-linecap:butt; stroke-linejoin:round; stroke-width:4; stroke-opacity:1; fill:none" points="
  235.283,1423.18 248.98,1423.18 
  "/>
<polyline clip-path="url(#clip220)" style="stroke:#000000; stroke-linecap:butt; stroke-linejoin:round; stroke-width:4; stroke-opacity:1; fill:none" points="
  235.283,1130.44 248.98,1130.44 
  "/>
<polyline clip-path="url(#clip220)" style="stroke:#000000; stroke-linecap:butt; stroke-linejoin:round; stroke-width:4; stroke-opacity:1; fill:none" points="
  235.283,837.707 248.98,837.707 
  "/>
<polyline clip-path="url(#clip220)" style="stroke:#000000; stroke-linecap:butt; stroke-linejoin:round; stroke-width:4; stroke-opacity:1; fill:none" points="
  235.283,544.971 248.98,544.971 
  "/>
<polyline clip-path="url(#clip220)" style="stroke:#000000; stroke-linecap:butt; stroke-linejoin:round; stroke-width:4; stroke-opacity:1; fill:none" points="
  235.283,252.235 248.98,252.235 
  "/>
<path clip-path="url(#clip220)" d="M187.338 1408.98 Q183.727 1408.98 181.899 1412.54 Q180.093 1416.08 180.093 1423.21 Q180.093 1430.32 181.899 1433.89 Q183.727 1437.43 187.338 1437.43 Q190.973 1437.43 192.778 1433.89 Q194.607 1430.32 194.607 1423.21 Q194.607 1416.08 192.778 1412.54 Q190.973 1408.98 187.338 1408.98 M187.338 1405.27 Q193.149 1405.27 196.204 1409.88 Q199.283 1414.46 199.283 1423.21 Q199.283 1431.94 196.204 1436.55 Q193.149 1441.13 187.338 1441.13 Q181.528 1441.13 178.45 1436.55 Q175.394 1431.94 175.394 1423.21 Q175.394 1414.46 178.45 1409.88 Q181.528 1405.27 187.338 1405.27 Z" fill="#000000" fill-rule="evenodd" fill-opacity="1" /><path clip-path="url(#clip220)" d="M121.043 1143.79 L137.362 1143.79 L137.362 1147.72 L115.418 1147.72 L115.418 1143.79 Q118.08 1141.03 122.663 1136.4 Q127.269 1131.75 128.45 1130.41 Q130.695 1127.89 131.575 1126.15 Q132.478 1124.39 132.478 1122.7 Q132.478 1119.95 130.533 1118.21 Q128.612 1116.47 125.51 1116.47 Q123.311 1116.47 120.857 1117.24 Q118.427 1118 115.649 1119.55 L115.649 1114.83 Q118.473 1113.7 120.927 1113.12 Q123.38 1112.54 125.418 1112.54 Q130.788 1112.54 133.982 1115.22 Q137.177 1117.91 137.177 1122.4 Q137.177 1124.53 136.367 1126.45 Q135.579 1128.35 133.473 1130.94 Q132.894 1131.61 129.792 1134.83 Q126.691 1138.02 121.043 1143.79 Z" fill="#000000" fill-rule="evenodd" fill-opacity="1" /><path clip-path="url(#clip220)" d="M157.177 1116.24 Q153.566 1116.24 151.737 1119.81 Q149.931 1123.35 149.931 1130.48 Q149.931 1137.58 151.737 1141.15 Q153.566 1144.69 157.177 1144.69 Q160.811 1144.69 162.616 1141.15 Q164.445 1137.58 164.445 1130.48 Q164.445 1123.35 162.616 1119.81 Q160.811 1116.24 157.177 1116.24 M157.177 1112.54 Q162.987 1112.54 166.042 1117.15 Q169.121 1121.73 169.121 1130.48 Q169.121 1139.21 166.042 1143.81 Q162.987 1148.39 157.177 1148.39 Q151.366 1148.39 148.288 1143.81 Q145.232 1139.21 145.232 1130.48 Q145.232 1121.73 148.288 1117.15 Q151.366 1112.54 157.177 1112.54 Z" fill="#000000" fill-rule="evenodd" fill-opacity="1" /><path clip-path="url(#clip220)" d="M187.338 1116.24 Q183.727 1116.24 181.899 1119.81 Q180.093 1123.35 180.093 1130.48 Q180.093 1137.58 181.899 1141.15 Q183.727 1144.69 187.338 1144.69 Q190.973 1144.69 192.778 1141.15 Q194.607 1137.58 194.607 1130.48 Q194.607 1123.35 192.778 1119.81 Q190.973 1116.24 187.338 1116.24 M187.338 1112.54 Q193.149 1112.54 196.204 1117.15 Q199.283 1121.73 199.283 1130.48 Q199.283 1139.21 196.204 1143.81 Q193.149 1148.39 187.338 1148.39 Q181.528 1148.39 178.45 1143.81 Q175.394 1139.21 175.394 1130.48 Q175.394 1121.73 178.45 1117.15 Q181.528 1112.54 187.338 1112.54 Z" fill="#000000" fill-rule="evenodd" fill-opacity="1" /><path clip-path="url(#clip220)" d="M129.862 824.501 L118.056 842.95 L129.862 842.95 L129.862 824.501 M128.635 820.427 L134.515 820.427 L134.515 842.95 L139.445 842.95 L139.445 846.839 L134.515 846.839 L134.515 854.987 L129.862 854.987 L129.862 846.839 L114.26 846.839 L114.26 842.325 L128.635 820.427 Z" fill="#000000" fill-rule="evenodd" fill-opacity="1" /><path clip-path="url(#clip220)" d="M157.177 823.506 Q153.566 823.506 151.737 827.071 Q149.931 830.613 149.931 837.742 Q149.931 844.849 151.737 848.413 Q153.566 851.955 157.177 851.955 Q160.811 851.955 162.616 848.413 Q164.445 844.849 164.445 837.742 Q164.445 830.613 162.616 827.071 Q160.811 823.506 157.177 823.506 M157.177 819.802 Q162.987 819.802 166.042 824.409 Q169.121 828.992 169.121 837.742 Q169.121 846.469 166.042 851.075 Q162.987 855.659 157.177 855.659 Q151.366 855.659 148.288 851.075 Q145.232 846.469 145.232 837.742 Q145.232 828.992 148.288 824.409 Q151.366 819.802 157.177 819.802 Z" fill="#000000" fill-rule="evenodd" fill-opacity="1" /><path clip-path="url(#clip220)" d="M187.338 823.506 Q183.727 823.506 181.899 827.071 Q180.093 830.613 180.093 837.742 Q180.093 844.849 181.899 848.413 Q183.727 851.955 187.338 851.955 Q190.973 851.955 192.778 848.413 Q194.607 844.849 194.607 837.742 Q194.607 830.613 192.778 827.071 Q190.973 823.506 187.338 823.506 M187.338 819.802 Q193.149 819.802 196.204 824.409 Q199.283 828.992 199.283 837.742 Q199.283 846.469 196.204 851.075 Q193.149 855.659 187.338 855.659 Q181.528 855.659 178.45 851.075 Q175.394 846.469 175.394 837.742 Q175.394 828.992 178.45 824.409 Q181.528 819.802 187.338 819.802 Z" fill="#000000" fill-rule="evenodd" fill-opacity="1" /><path clip-path="url(#clip220)" d="M127.593 543.108 Q124.445 543.108 122.593 545.261 Q120.765 547.413 120.765 551.163 Q120.765 554.89 122.593 557.066 Q124.445 559.219 127.593 559.219 Q130.742 559.219 132.57 557.066 Q134.422 554.89 134.422 551.163 Q134.422 547.413 132.57 545.261 Q130.742 543.108 127.593 543.108 M136.876 528.455 L136.876 532.714 Q135.117 531.881 133.311 531.441 Q131.529 531.001 129.769 531.001 Q125.14 531.001 122.686 534.126 Q120.255 537.251 119.908 543.571 Q121.274 541.557 123.334 540.492 Q125.394 539.404 127.871 539.404 Q133.08 539.404 136.089 542.575 Q139.121 545.723 139.121 551.163 Q139.121 556.487 135.973 559.705 Q132.825 562.922 127.593 562.922 Q121.598 562.922 118.427 558.339 Q115.256 553.733 115.256 545.006 Q115.256 536.812 119.144 531.95 Q123.033 527.066 129.584 527.066 Q131.343 527.066 133.126 527.413 Q134.931 527.761 136.876 528.455 Z" fill="#000000" fill-rule="evenodd" fill-opacity="1" /><path clip-path="url(#clip220)" d="M157.177 530.77 Q153.566 530.77 151.737 534.335 Q149.931 537.876 149.931 545.006 Q149.931 552.112 151.737 555.677 Q153.566 559.219 157.177 559.219 Q160.811 559.219 162.616 555.677 Q164.445 552.112 164.445 545.006 Q164.445 537.876 162.616 534.335 Q160.811 530.77 157.177 530.77 M157.177 527.066 Q162.987 527.066 166.042 531.673 Q169.121 536.256 169.121 545.006 Q169.121 553.733 166.042 558.339 Q162.987 562.922 157.177 562.922 Q151.366 562.922 148.288 558.339 Q145.232 553.733 145.232 545.006 Q145.232 536.256 148.288 531.673 Q151.366 527.066 157.177 527.066 Z" fill="#000000" fill-rule="evenodd" fill-opacity="1" /><path clip-path="url(#clip220)" d="M187.338 530.77 Q183.727 530.77 181.899 534.335 Q180.093 537.876 180.093 545.006 Q180.093 552.112 181.899 555.677 Q183.727 559.219 187.338 559.219 Q190.973 559.219 192.778 555.677 Q194.607 552.112 194.607 545.006 Q194.607 537.876 192.778 534.335 Q190.973 530.77 187.338 530.77 M187.338 527.066 Q193.149 527.066 196.204 531.673 Q199.283 536.256 199.283 545.006 Q199.283 553.733 196.204 558.339 Q193.149 562.922 187.338 562.922 Q181.528 562.922 178.45 558.339 Q175.394 553.733 175.394 545.006 Q175.394 536.256 178.45 531.673 Q181.528 527.066 187.338 527.066 Z" fill="#000000" fill-rule="evenodd" fill-opacity="1" /><path clip-path="url(#clip220)" d="M127.015 253.103 Q123.681 253.103 121.76 254.885 Q119.862 256.668 119.862 259.793 Q119.862 262.918 121.76 264.7 Q123.681 266.483 127.015 266.483 Q130.348 266.483 132.269 264.7 Q134.191 262.895 134.191 259.793 Q134.191 256.668 132.269 254.885 Q130.371 253.103 127.015 253.103 M122.339 251.112 Q119.33 250.372 117.64 248.311 Q115.973 246.251 115.973 243.288 Q115.973 239.145 118.913 236.737 Q121.876 234.33 127.015 234.33 Q132.177 234.33 135.117 236.737 Q138.056 239.145 138.056 243.288 Q138.056 246.251 136.367 248.311 Q134.7 250.372 131.714 251.112 Q135.093 251.899 136.968 254.191 Q138.867 256.483 138.867 259.793 Q138.867 264.816 135.788 267.501 Q132.732 270.186 127.015 270.186 Q121.297 270.186 118.218 267.501 Q115.163 264.816 115.163 259.793 Q115.163 256.483 117.061 254.191 Q118.959 251.899 122.339 251.112 M120.626 243.728 Q120.626 246.413 122.293 247.918 Q123.982 249.422 127.015 249.422 Q130.024 249.422 131.714 247.918 Q133.427 246.413 133.427 243.728 Q133.427 241.043 131.714 239.538 Q130.024 238.034 127.015 238.034 Q123.982 238.034 122.293 239.538 Q120.626 241.043 120.626 243.728 Z" fill="#000000" fill-rule="evenodd" fill-opacity="1" /><path clip-path="url(#clip220)" d="M157.177 238.034 Q153.566 238.034 151.737 241.598 Q149.931 245.14 149.931 252.27 Q149.931 259.376 151.737 262.941 Q153.566 266.483 157.177 266.483 Q160.811 266.483 162.616 262.941 Q164.445 259.376 164.445 252.27 Q164.445 245.14 162.616 241.598 Q160.811 238.034 157.177 238.034 M157.177 234.33 Q162.987 234.33 166.042 238.936 Q169.121 243.52 169.121 252.27 Q169.121 260.996 166.042 265.603 Q162.987 270.186 157.177 270.186 Q151.366 270.186 148.288 265.603 Q145.232 260.996 145.232 252.27 Q145.232 243.52 148.288 238.936 Q151.366 234.33 157.177 234.33 Z" fill="#000000" fill-rule="evenodd" fill-opacity="1" /><path clip-path="url(#clip220)" d="M187.338 238.034 Q183.727 238.034 181.899 241.598 Q180.093 245.14 180.093 252.27 Q180.093 259.376 181.899 262.941 Q183.727 266.483 187.338 266.483 Q190.973 266.483 192.778 262.941 Q194.607 259.376 194.607 252.27 Q194.607 245.14 192.778 241.598 Q190.973 238.034 187.338 238.034 M187.338 234.33 Q193.149 234.33 196.204 238.936 Q199.283 243.52 199.283 252.27 Q199.283 260.996 196.204 265.603 Q193.149 270.186 187.338 270.186 Q181.528 270.186 178.45 265.603 Q175.394 260.996 175.394 252.27 Q175.394 243.52 178.45 238.936 Q181.528 234.33 187.338 234.33 Z" fill="#000000" fill-rule="evenodd" fill-opacity="1" /><path clip-path="url(#clip220)" d="M16.4842 829.408 L16.4842 819.827 L48.8219 807.701 L16.4842 795.51 L16.4842 785.93 L64.0042 785.93 L64.0042 792.2 L22.277 792.2 L54.8694 804.454 L54.8694 810.915 L22.277 823.169 L64.0042 823.169 L64.0042 829.408 L16.4842 829.408 Z" fill="#000000" fill-rule="evenodd" fill-opacity="1" /><path clip-path="url(#clip220)" d="M16.4842 777.4 L16.4842 770.907 L56.6518 760.913 L16.4842 750.951 L16.4842 743.725 L56.6518 733.731 L16.4842 723.769 L16.4842 717.244 L64.0042 729.18 L64.0042 737.264 L22.7544 747.29 L64.0042 757.412 L64.0042 765.496 L16.4842 777.4 Z" fill="#000000" fill-rule="evenodd" fill-opacity="1" /><path clip-path="url(#clip220)" d="M925.722 12.096 L960.478 12.096 L960.478 18.9825 L933.904 18.9825 L933.904 36.8065 L957.886 36.8065 L957.886 43.6931 L933.904 43.6931 L933.904 72.576 L925.722 72.576 L925.722 12.096 Z" fill="#000000" fill-rule="evenodd" fill-opacity="1" /><path clip-path="url(#clip220)" d="M967.81 54.671 L967.81 27.2059 L975.264 27.2059 L975.264 54.3874 Q975.264 60.8284 977.776 64.0691 Q980.287 67.2693 985.31 67.2693 Q991.346 67.2693 994.83 63.421 Q998.354 59.5726 998.354 52.9291 L998.354 27.2059 L1005.81 27.2059 L1005.81 72.576 L998.354 72.576 L998.354 65.6084 Q995.64 69.7404 992.035 71.7658 Q988.47 73.7508 983.731 73.7508 Q975.912 73.7508 971.861 68.8897 Q967.81 64.0286 967.81 54.671 M986.566 26.1121 L986.566 26.1121 Z" fill="#000000" fill-rule="evenodd" fill-opacity="1" /><path clip-path="url(#clip220)" d="M1059.97 48.0275 L1059.97 51.6733 L1025.7 51.6733 Q1026.18 59.3701 1030.32 63.421 Q1034.49 67.4314 1041.9 67.4314 Q1046.2 67.4314 1050.21 66.3781 Q1054.26 65.3249 1058.23 63.2184 L1058.23 70.267 Q1054.22 71.9684 1050 72.8596 Q1045.79 73.7508 1041.46 73.7508 Q1030.6 73.7508 1024.24 67.4314 Q1017.92 61.1119 1017.92 50.3365 Q1017.92 39.1965 1023.92 32.6746 Q1029.95 26.1121 1040.16 26.1121 Q1049.31 26.1121 1054.62 32.0264 Q1059.97 37.9003 1059.97 48.0275 M1052.51 45.84 Q1052.43 39.7232 1049.07 36.0774 Q1045.75 32.4315 1040.24 32.4315 Q1034 32.4315 1030.23 35.9558 Q1026.51 39.4801 1025.94 45.8805 L1052.51 45.84 Z" fill="#000000" fill-rule="evenodd" fill-opacity="1" /><path clip-path="url(#clip220)" d="M1072.2 9.54393 L1079.66 9.54393 L1079.66 72.576 L1072.2 72.576 L1072.2 9.54393 Z" fill="#000000" fill-rule="evenodd" fill-opacity="1" /><path clip-path="url(#clip222)" d="
M278.721 1423.18 L341.675 1423.18 L404.628 1423.18 L467.582 1423.18 L530.536 1423.18 L593.49 1423.18 L656.443 1423.18 L719.397 1423.18 L782.351 1423.18 L845.304 1423.18 
  L908.258 1423.18 L971.212 1423.18 L1034.17 1423.18 L1097.12 1423.18 L1160.07 1423.18 L1223.03 1423.18 L1285.98 1423.18 L1348.93 1423.18 L1411.89 1423.18 L1474.84 1423.18 
  L1537.8 1423.18 L1600.75 1423.18 L1663.7 1423.18 L1726.66 1423.18 L1726.66 1423.18 L1663.7 1423.18 L1600.75 1423.18 L1537.8 1423.18 L1474.84 1423.18 L1411.89 1423.18 
  L1348.93 1423.18 L1285.98 1423.18 L1223.03 1423.18 L1160.07 1423.18 L1097.12 1423.18 L1034.17 1423.18 L971.212 1423.18 L908.258 1423.18 L845.304 1423.18 L782.351 1423.18 
  L719.397 1423.18 L656.443 1423.18 L593.49 1423.18 L530.536 1423.18 L467.582 1423.18 L404.628 1423.18 L341.675 1423.18 L278.721 1423.18  Z
  " fill="#505664" fill-rule="evenodd" fill-opacity="1"/>
<polyline clip-path="url(#clip222)" style="stroke:#505664; stroke-linecap:butt; stroke-linejoin:round; stroke-width:4; stroke-opacity:1; fill:none" points="
  278.721,1423.18 341.675,1423.18 404.628,1423.18 467.582,1423.18 530.536,1423.18 593.49,1423.18 656.443,1423.18 719.397,1423.18 782.351,1423.18 845.304,1423.18 
  908.258,1423.18 971.212,1423.18 1034.17,1423.18 1097.12,1423.18 1160.07,1423.18 1223.03,1423.18 1285.98,1423.18 1348.93,1423.18 1411.89,1423.18 1474.84,1423.18 
  1537.8,1423.18 1600.75,1423.18 1663.7,1423.18 1726.66,1423.18 
  "/>
<polyline clip-path="url(#clip222)" style="stroke:#000000; stroke-linecap:butt; stroke-linejoin:round; stroke-width:12; stroke-opacity:1; fill:none" stroke-dasharray="48, 30" points="
  278.721,555.45 341.675,627.281 404.628,678.96 467.582,710.104 530.536,715.389 593.49,695.53 656.443,608.455 719.397,454.786 782.351,297.872 845.304,230.898 
  908.258,200.292 971.212,181.949 1034.17,166.22 1097.12,197.274 1160.07,227.587 1223.03,247.22 1285.98,251.815 1348.93,212.583 1411.89,123.472 1474.84,133.024 
  1537.8,217.826 1600.75,307.798 1663.7,408.792 1726.66,491.744 
  "/>
<path clip-path="url(#clip220)" d="
M1840.68 825.166 L2352.76 825.166 L2352.76 669.646 L1840.68 669.646  Z
  " fill="#ffffff" fill-rule="evenodd" fill-opacity="1"/>
<polyline clip-path="url(#clip220)" style="stroke:#000000; stroke-linecap:butt; stroke-linejoin:round; stroke-width:4; stroke-opacity:1; fill:none" points="
  1840.68,825.166 2352.76,825.166 2352.76,669.646 1840.68,669.646 1840.68,825.166 
  "/>
<path clip-path="url(#clip220)" d="
M1864.2 742.222 L2005.37 742.222 L2005.37 700.75 L1864.2 700.75 L1864.2 742.222  Z
  " fill="#505664" fill-rule="evenodd" fill-opacity="1"/>
<polyline clip-path="url(#clip220)" style="stroke:#505664; stroke-linecap:butt; stroke-linejoin:round; stroke-width:4; stroke-opacity:1; fill:none" points="
  1864.2,700.75 2005.37,700.75 
  "/>
<path clip-path="url(#clip220)" d="M2056.77 706.868 L2056.77 711.799 Q2054.41 709.599 2051.72 708.512 Q2049.06 707.424 2046.05 707.424 Q2040.12 707.424 2036.98 711.058 Q2033.83 714.669 2033.83 721.521 Q2033.83 728.349 2036.98 731.984 Q2040.12 735.595 2046.05 735.595 Q2049.06 735.595 2051.72 734.507 Q2054.41 733.419 2056.77 731.22 L2056.77 736.104 Q2054.31 737.771 2051.56 738.604 Q2048.83 739.437 2045.77 739.437 Q2037.92 739.437 2033.41 734.646 Q2028.9 729.831 2028.9 721.521 Q2028.9 713.187 2033.41 708.396 Q2037.92 703.581 2045.77 703.581 Q2048.87 703.581 2051.61 704.414 Q2054.36 705.224 2056.77 706.868 Z" fill="#000000" fill-rule="evenodd" fill-opacity="1" /><path clip-path="url(#clip220)" d="M2063.36 728.535 L2063.36 712.84 L2067.62 712.84 L2067.62 728.373 Q2067.62 732.053 2069.06 733.905 Q2070.49 735.734 2073.36 735.734 Q2076.81 735.734 2078.8 733.535 Q2080.82 731.335 2080.82 727.539 L2080.82 712.84 L2085.08 712.84 L2085.08 738.766 L2080.82 738.766 L2080.82 734.785 Q2079.27 737.146 2077.21 738.303 Q2075.17 739.437 2072.46 739.437 Q2067.99 739.437 2065.68 736.66 Q2063.36 733.882 2063.36 728.535 M2074.08 712.215 L2074.08 712.215 Z" fill="#000000" fill-rule="evenodd" fill-opacity="1" /><path clip-path="url(#clip220)" d="M2108.87 716.822 Q2108.16 716.405 2107.3 716.22 Q2106.47 716.011 2105.45 716.011 Q2101.84 716.011 2099.89 718.373 Q2097.97 720.711 2097.97 725.109 L2097.97 738.766 L2093.69 738.766 L2093.69 712.84 L2097.97 712.84 L2097.97 716.868 Q2099.31 714.507 2101.47 713.373 Q2103.62 712.215 2106.7 712.215 Q2107.14 712.215 2107.67 712.285 Q2108.2 712.331 2108.85 712.447 L2108.87 716.822 Z" fill="#000000" fill-rule="evenodd" fill-opacity="1" /><path clip-path="url(#clip220)" d="M2117.55 705.479 L2117.55 712.84 L2126.33 712.84 L2126.33 716.15 L2117.55 716.15 L2117.55 730.224 Q2117.55 733.396 2118.41 734.298 Q2119.29 735.201 2121.95 735.201 L2126.33 735.201 L2126.33 738.766 L2121.95 738.766 Q2117.02 738.766 2115.15 736.937 Q2113.27 735.085 2113.27 730.224 L2113.27 716.15 L2110.15 716.15 L2110.15 712.84 L2113.27 712.84 L2113.27 705.479 L2117.55 705.479 Z" fill="#000000" fill-rule="evenodd" fill-opacity="1" /><path clip-path="url(#clip220)" d="M2143.71 725.734 Q2138.55 725.734 2136.56 726.914 Q2134.57 728.095 2134.57 730.942 Q2134.57 733.21 2136.05 734.553 Q2137.55 735.872 2140.12 735.872 Q2143.66 735.872 2145.79 733.372 Q2147.95 730.849 2147.95 726.683 L2147.95 725.734 L2143.71 725.734 M2152.21 723.974 L2152.21 738.766 L2147.95 738.766 L2147.95 734.831 Q2146.49 737.192 2144.31 738.326 Q2142.14 739.437 2138.99 739.437 Q2135.01 739.437 2132.65 737.215 Q2130.31 734.97 2130.31 731.22 Q2130.31 726.845 2133.23 724.623 Q2136.16 722.4 2141.97 722.4 L2147.95 722.4 L2147.95 721.984 Q2147.95 719.044 2146 717.447 Q2144.08 715.826 2140.59 715.826 Q2138.36 715.826 2136.26 716.359 Q2134.15 716.891 2132.21 717.956 L2132.21 714.021 Q2134.54 713.118 2136.74 712.678 Q2138.94 712.215 2141.03 712.215 Q2146.65 712.215 2149.43 715.132 Q2152.21 718.049 2152.21 723.974 Z" fill="#000000" fill-rule="evenodd" fill-opacity="1" /><path clip-path="url(#clip220)" d="M2160.98 712.84 L2165.24 712.84 L2165.24 738.766 L2160.98 738.766 L2160.98 712.84 M2160.98 702.748 L2165.24 702.748 L2165.24 708.141 L2160.98 708.141 L2160.98 702.748 Z" fill="#000000" fill-rule="evenodd" fill-opacity="1" /><path clip-path="url(#clip220)" d="M2174.15 702.748 L2178.41 702.748 L2178.41 738.766 L2174.15 738.766 L2174.15 702.748 Z" fill="#000000" fill-rule="evenodd" fill-opacity="1" /><path clip-path="url(#clip220)" d="M2207.51 717.817 Q2209.1 714.947 2211.33 713.581 Q2213.55 712.215 2216.56 712.215 Q2220.61 712.215 2222.81 715.062 Q2225.01 717.886 2225.01 723.118 L2225.01 738.766 L2220.72 738.766 L2220.72 723.257 Q2220.72 719.53 2219.41 717.724 Q2218.09 715.919 2215.38 715.919 Q2212.07 715.919 2210.15 718.118 Q2208.22 720.317 2208.22 724.113 L2208.22 738.766 L2203.94 738.766 L2203.94 723.257 Q2203.94 719.507 2202.62 717.724 Q2201.3 715.919 2198.55 715.919 Q2195.28 715.919 2193.36 718.141 Q2191.44 720.34 2191.44 724.113 L2191.44 738.766 L2187.16 738.766 L2187.16 712.84 L2191.44 712.84 L2191.44 716.868 Q2192.9 714.484 2194.94 713.349 Q2196.97 712.215 2199.78 712.215 Q2202.6 712.215 2204.57 713.65 Q2206.56 715.086 2207.51 717.817 Z" fill="#000000" fill-rule="evenodd" fill-opacity="1" /><path clip-path="url(#clip220)" d="M2255.68 724.738 L2255.68 726.822 L2236.09 726.822 Q2236.37 731.22 2238.73 733.535 Q2241.12 735.826 2245.35 735.826 Q2247.81 735.826 2250.1 735.224 Q2252.41 734.622 2254.68 733.419 L2254.68 737.447 Q2252.39 738.419 2249.98 738.928 Q2247.58 739.437 2245.1 739.437 Q2238.9 739.437 2235.26 735.826 Q2231.65 732.215 2231.65 726.058 Q2231.65 719.692 2235.08 715.965 Q2238.53 712.215 2244.36 712.215 Q2249.59 712.215 2252.62 715.595 Q2255.68 718.951 2255.68 724.738 M2251.42 723.488 Q2251.37 719.993 2249.45 717.91 Q2247.55 715.826 2244.4 715.826 Q2240.84 715.826 2238.69 717.84 Q2236.56 719.854 2236.23 723.511 L2251.42 723.488 Z" fill="#000000" fill-rule="evenodd" fill-opacity="1" /><path clip-path="url(#clip220)" d="M2284.22 723.118 L2284.22 738.766 L2279.96 738.766 L2279.96 723.257 Q2279.96 719.576 2278.53 717.748 Q2277.09 715.919 2274.22 715.919 Q2270.77 715.919 2268.78 718.118 Q2266.79 720.317 2266.79 724.113 L2266.79 738.766 L2262.51 738.766 L2262.51 712.84 L2266.79 712.84 L2266.79 716.868 Q2268.32 714.53 2270.38 713.373 Q2272.46 712.215 2275.17 712.215 Q2279.64 712.215 2281.93 714.993 Q2284.22 717.748 2284.22 723.118 Z" fill="#000000" fill-rule="evenodd" fill-opacity="1" /><path clip-path="url(#clip220)" d="M2296.93 705.479 L2296.93 712.84 L2305.7 712.84 L2305.7 716.15 L2296.93 716.15 L2296.93 730.224 Q2296.93 733.396 2297.78 734.298 Q2298.66 735.201 2301.33 735.201 L2305.7 735.201 L2305.7 738.766 L2301.33 738.766 Q2296.4 738.766 2294.52 736.937 Q2292.65 735.085 2292.65 730.224 L2292.65 716.15 L2289.52 716.15 L2289.52 712.84 L2292.65 712.84 L2292.65 705.479 L2296.93 705.479 Z" fill="#000000" fill-rule="evenodd" fill-opacity="1" /><polyline clip-path="url(#clip220)" style="stroke:#000000; stroke-linecap:butt; stroke-linejoin:round; stroke-width:4; stroke-opacity:1; fill:none" stroke-dasharray="16, 10" points="
  1864.2,773.326 2005.37,773.326 
  "/>
<path clip-path="url(#clip220)" d="M2028.9 756.046 L2033.57 756.046 L2033.57 786.671 L2050.4 786.671 L2050.4 790.606 L2028.9 790.606 L2028.9 756.046 Z" fill="#000000" fill-rule="evenodd" fill-opacity="1" /><path clip-path="url(#clip220)" d="M2064.34 767.666 Q2060.91 767.666 2058.92 770.351 Q2056.93 773.013 2056.93 777.666 Q2056.93 782.319 2058.9 785.004 Q2060.89 787.666 2064.34 787.666 Q2067.74 787.666 2069.73 784.981 Q2071.72 782.296 2071.72 777.666 Q2071.72 773.06 2069.73 770.375 Q2067.74 767.666 2064.34 767.666 M2064.34 764.055 Q2069.89 764.055 2073.06 767.666 Q2076.23 771.277 2076.23 777.666 Q2076.23 784.032 2073.06 787.666 Q2069.89 791.277 2064.34 791.277 Q2058.76 791.277 2055.59 787.666 Q2052.44 784.032 2052.44 777.666 Q2052.44 771.277 2055.59 767.666 Q2058.76 764.055 2064.34 764.055 Z" fill="#000000" fill-rule="evenodd" fill-opacity="1" /><path clip-path="url(#clip220)" d="M2095.08 777.574 Q2089.92 777.574 2087.92 778.754 Q2085.93 779.935 2085.93 782.782 Q2085.93 785.05 2087.42 786.393 Q2088.92 787.712 2091.49 787.712 Q2095.03 787.712 2097.16 785.212 Q2099.31 782.689 2099.31 778.523 L2099.31 777.574 L2095.08 777.574 M2103.57 775.814 L2103.57 790.606 L2099.31 790.606 L2099.31 786.671 Q2097.85 789.032 2095.68 790.166 Q2093.5 791.277 2090.35 791.277 Q2086.37 791.277 2084.01 789.055 Q2081.67 786.81 2081.67 783.06 Q2081.67 778.685 2084.59 776.463 Q2087.53 774.24 2093.34 774.24 L2099.31 774.24 L2099.31 773.824 Q2099.31 770.884 2097.37 769.287 Q2095.45 767.666 2091.95 767.666 Q2089.73 767.666 2087.62 768.199 Q2085.52 768.731 2083.57 769.796 L2083.57 765.861 Q2085.91 764.958 2088.11 764.518 Q2090.31 764.055 2092.39 764.055 Q2098.02 764.055 2100.79 766.972 Q2103.57 769.889 2103.57 775.814 Z" fill="#000000" fill-rule="evenodd" fill-opacity="1" /><path clip-path="url(#clip220)" d="M2129.41 768.615 L2129.41 754.588 L2133.66 754.588 L2133.66 790.606 L2129.41 790.606 L2129.41 786.717 Q2128.06 789.032 2126 790.166 Q2123.97 791.277 2121.1 791.277 Q2116.4 791.277 2113.43 787.527 Q2110.49 783.777 2110.49 777.666 Q2110.49 771.555 2113.43 767.805 Q2116.4 764.055 2121.1 764.055 Q2123.97 764.055 2126 765.189 Q2128.06 766.301 2129.41 768.615 M2114.89 777.666 Q2114.89 782.365 2116.81 785.05 Q2118.76 787.712 2122.14 787.712 Q2125.52 787.712 2127.46 785.05 Q2129.41 782.365 2129.41 777.666 Q2129.41 772.967 2127.46 770.305 Q2125.52 767.62 2122.14 767.62 Q2118.76 767.62 2116.81 770.305 Q2114.89 772.967 2114.89 777.666 Z" fill="#000000" fill-rule="evenodd" fill-opacity="1" /></svg>
