<?xml version="1.0" encoding="utf-8"?>
<svg xmlns="http://www.w3.org/2000/svg" xmlns:xlink="http://www.w3.org/1999/xlink" width="600" height="400" viewBox="0 0 2400 1600">
<defs>
  <clipPath id="clip090">
    <rect x="0" y="0" width="2400" height="1600"/>
  </clipPath>
</defs>
<path clip-path="url(#clip090)" d="
M0 1600 L2400 1600 L2400 0 L0 0  Z
  " fill="#ffffff" fill-rule="evenodd" fill-opacity="1"/>
<defs>
  <clipPath id="clip091">
    <rect x="480" y="0" width="1681" height="1600"/>
  </clipPath>
</defs>
<path clip-path="url(#clip090)" d="
M235.283 1423.18 L1942.13 1423.18 L1942.13 123.472 L235.283 123.472  Z
  " fill="#ffffff" fill-rule="evenodd" fill-opacity="1"/>
<defs>
  <clipPath id="clip092">
    <rect x="235" y="123" width="1708" height="1301"/>
  </clipPath>
</defs>
<polyline clip-path="url(#clip090)" style="stroke:#000000; stroke-linecap:butt; stroke-linejoin:round; stroke-width:4; stroke-opacity:1; fill:none" points="
  235.283,1423.18 1942.13,1423.18 
  "/>
<polyline clip-path="url(#clip090)" style="stroke:#000000; stroke-linecap:butt; stroke-linejoin:round; stroke-width:4; stroke-opacity:1; fill:none" points="
  283.59,1423.18 283.59,1404.28 
  "/>
<polyline clip-path="url(#clip090)" style="stroke:#000000; stroke-linecap:butt; stroke-linejoin:round; stroke-width:4; stroke-opacity:1; fill:none" points="
  1893.82,1423.18 1893.82,1404.28 
  "/>
<path clip-path="url(#clip090)" d="M33.8343 1481.64 L50.1536 1481.64 L50.1536 1485.58 L28.2093 1485.58 L28.2093 1481.64 Q30.8713 1478.89 35.4546 1474.26 Q40.0611 1469.61 41.2416 1468.27 Q43.487 1465.74 44.3666 1464.01 Q45.2694 1462.25 45.2694 1460.56 Q45.2694 1457.8 43.3249 1456.07 Q41.4037 1454.33 38.3018 1454.33 Q36.1028 1454.33 33.6491 1455.09 Q31.2185 1455.86 28.4408 1457.41 L28.4408 1452.69 Q31.2648 1451.55 33.7185 1450.97 Q36.1722 1450.39 38.2092 1450.39 Q43.5796 1450.39 46.774 1453.08 Q49.9684 1455.77 49.9684 1460.26 Q49.9684 1462.39 49.1583 1464.31 Q48.3712 1466.2 46.2647 1468.8 Q45.686 1469.47 42.5842 1472.69 Q39.4824 1475.88 33.8343 1481.64 Z" fill="#000000" fill-rule="evenodd" fill-opacity="1" /><path clip-path="url(#clip090)" d="M69.9683 1454.1 Q66.3572 1454.1 64.5285 1457.66 Q62.723 1461.2 62.723 1468.33 Q62.723 1475.44 64.5285 1479.01 Q66.3572 1482.55 69.9683 1482.55 Q73.6026 1482.55 75.4081 1479.01 Q77.2368 1475.44 77.2368 1468.33 Q77.2368 1461.2 75.4081 1457.66 Q73.6026 1454.1 69.9683 1454.1 M69.9683 1450.39 Q75.7785 1450.39 78.834 1455 Q81.9127 1459.58 81.9127 1468.33 Q81.9127 1477.06 78.834 1481.67 Q75.7785 1486.25 69.9683 1486.25 Q64.1582 1486.25 61.0795 1481.67 Q58.0239 1477.06 58.0239 1468.33 Q58.0239 1459.58 61.0795 1455 Q64.1582 1450.39 69.9683 1450.39 Z" fill="#000000" fill-rule="evenodd" fill-opacity="1" /><path clip-path="url(#clip090)" d="M94.158 1481.64 L110.477 1481.64 L110.477 1485.58 L88.533 1485.58 L88.533 1481.64 Q91.1951 1478.89 95.7784 1474.26 Q100.385 1469.61 101.565 1468.27 Q103.811 1465.74 104.69 1464.01 Q105.593 1462.25 105.593 1460.56 Q105.593 1457.8 103.649 1456.07 Q101.727 1454.33 98.6256 1454.33 Q96.4265 1454.33 93.9728 1455.09 Q91.5423 1455.86 88.7645 1457.41 L88.7645 1452.69 Q91.5886 1451.55 94.0423 1450.97 Q96.496 1450.39 98.533 1450.39 Q103.903 1450.39 107.098 1453.08 Q110.292 1455.77 110.292 1460.26 Q110.292 1462.39 109.482 1464.31 Q108.695 1466.2 106.588 1468.8 Q106.01 1469.47 102.908 1472.69 Q99.8061 1475.88 94.158 1481.64 Z" fill="#000000" fill-rule="evenodd" fill-opacity="1" /><path clip-path="url(#clip090)" d="M130.292 1454.1 Q126.681 1454.1 124.852 1457.66 Q123.047 1461.2 123.047 1468.33 Q123.047 1475.44 124.852 1479.01 Q126.681 1482.55 130.292 1482.55 Q133.926 1482.55 135.732 1479.01 Q137.561 1475.44 137.561 1468.33 Q137.561 1461.2 135.732 1457.66 Q133.926 1454.1 130.292 1454.1 M130.292 1450.39 Q136.102 1450.39 139.158 1455 Q142.236 1459.58 142.236 1468.33 Q142.236 1477.06 139.158 1481.67 Q136.102 1486.25 130.292 1486.25 Q124.482 1486.25 121.403 1481.67 Q118.348 1477.06 118.348 1468.33 Q118.348 1459.58 121.403 1455 Q124.482 1450.39 130.292 1450.39 Z" fill="#000000" fill-rule="evenodd" fill-opacity="1" /><path clip-path="url(#clip090)" d="M147.699 1470.7 L160.176 1470.7 L160.176 1474.49 L147.699 1474.49 L147.699 1470.7 Z" fill="#000000" fill-rule="evenodd" fill-opacity="1" /><path clip-path="url(#clip090)" d="M177.56 1454.1 Q173.949 1454.1 172.121 1457.66 Q170.315 1461.2 170.315 1468.33 Q170.315 1475.44 172.121 1479.01 Q173.949 1482.55 177.56 1482.55 Q181.195 1482.55 183 1479.01 Q184.829 1475.44 184.829 1468.33 Q184.829 1461.2 183 1457.66 Q181.195 1454.1 177.56 1454.1 M177.56 1450.39 Q183.37 1450.39 186.426 1455 Q189.505 1459.58 189.505 1468.33 Q189.505 1477.06 186.426 1481.67 Q183.37 1486.25 177.56 1486.25 Q171.75 1486.25 168.671 1481.67 Q165.616 1477.06 165.616 1468.33 Q165.616 1459.58 168.671 1455 Q171.75 1450.39 177.56 1450.39 Z" fill="#000000" fill-rule="evenodd" fill-opacity="1" /><path clip-path="url(#clip090)" d="M198.532 1481.64 L206.171 1481.64 L206.171 1455.28 L197.861 1456.95 L197.861 1452.69 L206.125 1451.02 L210.801 1451.02 L210.801 1481.64 L218.44 1481.64 L218.44 1485.58 L198.532 1485.58 L198.532 1481.64 Z" fill="#000000" fill-rule="evenodd" fill-opacity="1" /><path clip-path="url(#clip090)" d="M225.13 1470.7 L237.606 1470.7 L237.606 1474.49 L225.13 1474.49 L225.13 1470.7 Z" fill="#000000" fill-rule="evenodd" fill-opacity="1" /><path clip-path="url(#clip090)" d="M254.99 1454.1 Q251.379 1454.1 249.551 1457.66 Q247.745 1461.2 247.745 1468.33 Q247.745 1475.44 249.551 1479.01 Q251.379 1482.55 254.99 1482.55 Q258.625 1482.55 260.43 1479.01 Q262.259 1475.44 262.259 1468.33 Q262.259 1461.2 260.43 1457.66 Q258.625 1454.1 254.99 1454.1 M254.99 1450.39 Q260.801 1450.39 263.856 1455 Q266.935 1459.58 266.935 1468.33 Q266.935 1477.06 263.856 1481.67 Q260.801 1486.25 254.99 1486.25 Q249.18 1486.25 246.102 1481.67 Q243.046 1477.06 243.046 1468.33 Q243.046 1459.58 246.102 1455 Q249.18 1450.39 254.99 1450.39 Z" fill="#000000" fill-rule="evenodd" fill-opacity="1" /><path clip-path="url(#clip090)" d="M275.963 1481.64 L283.601 1481.64 L283.601 1455.28 L275.291 1456.95 L275.291 1452.69 L283.555 1451.02 L288.231 1451.02 L288.231 1481.64 L295.87 1481.64 L295.87 1485.58 L275.963 1485.58 L275.963 1481.64 Z" fill="#000000" fill-rule="evenodd" fill-opacity="1" /><path clip-path="url(#clip090)" d="M300.106 1451.02 L329.342 1451.02 L329.342 1454.96 L317.073 1454.96 L317.073 1485.58 L312.374 1485.58 L312.374 1454.96 L300.106 1454.96 L300.106 1451.02 Z" fill="#000000" fill-rule="evenodd" fill-opacity="1" /><path clip-path="url(#clip090)" d="M344.272 1454.1 Q340.661 1454.1 338.833 1457.66 Q337.027 1461.2 337.027 1468.33 Q337.027 1475.44 338.833 1479.01 Q340.661 1482.55 344.272 1482.55 Q347.907 1482.55 349.712 1479.01 Q351.541 1475.44 351.541 1468.33 Q351.541 1461.2 349.712 1457.66 Q347.907 1454.1 344.272 1454.1 M344.272 1450.39 Q350.083 1450.39 353.138 1455 Q356.217 1459.58 356.217 1468.33 Q356.217 1477.06 353.138 1481.67 Q350.083 1486.25 344.272 1486.25 Q338.462 1486.25 335.384 1481.67 Q332.328 1477.06 332.328 1468.33 Q332.328 1459.58 335.384 1455 Q338.462 1450.39 344.272 1450.39 Z" fill="#000000" fill-rule="evenodd" fill-opacity="1" /><path clip-path="url(#clip090)" d="M374.434 1454.1 Q370.823 1454.1 368.995 1457.66 Q367.189 1461.2 367.189 1468.33 Q367.189 1475.44 368.995 1479.01 Q370.823 1482.55 374.434 1482.55 Q378.069 1482.55 379.874 1479.01 Q381.703 1475.44 381.703 1468.33 Q381.703 1461.2 379.874 1457.66 Q378.069 1454.1 374.434 1454.1 M374.434 1450.39 Q380.244 1450.39 383.3 1455 Q386.379 1459.58 386.379 1468.33 Q386.379 1477.06 383.3 1481.67 Q380.244 1486.25 374.434 1486.25 Q368.624 1486.25 365.545 1481.67 Q362.49 1477.06 362.49 1468.33 Q362.49 1459.58 365.545 1455 Q368.624 1450.39 374.434 1450.39 Z" fill="#000000" fill-rule="evenodd" fill-opacity="1" /><path clip-path="url(#clip090)" d="M395.082 1479.7 L399.967 1479.7 L399.967 1485.58 L395.082 1485.58 L395.082 1479.7 M395.082 1461.07 L399.967 1461.07 L399.967 1466.95 L395.082 1466.95 L395.082 1461.07 Z" fill="#000000" fill-rule="evenodd" fill-opacity="1" /><path clip-path="url(#clip090)" d="M420.568 1454.1 Q416.957 1454.1 415.129 1457.66 Q413.323 1461.2 413.323 1468.33 Q413.323 1475.44 415.129 1479.01 Q416.957 1482.55 420.568 1482.55 Q424.203 1482.55 426.008 1479.01 Q427.837 1475.44 427.837 1468.33 Q427.837 1461.2 426.008 1457.66 Q424.203 1454.1 420.568 1454.1 M420.568 1450.39 Q426.378 1450.39 429.434 1455 Q432.513 1459.58 432.513 1468.33 Q432.513 1477.06 429.434 1481.67 Q426.378 1486.25 420.568 1486.25 Q414.758 1486.25 411.679 1481.67 Q408.624 1477.06 408.624 1468.33 Q408.624 1459.58 411.679 1455 Q414.758 1450.39 420.568 1450.39 Z" fill="#000000" fill-rule="evenodd" fill-opacity="1" /><path clip-path="url(#clip090)" d="M450.73 1454.1 Q447.119 1454.1 445.29 1457.66 Q443.485 1461.2 443.485 1468.33 Q443.485 1475.44 445.29 1479.01 Q447.119 1482.55 450.73 1482.55 Q454.364 1482.55 456.17 1479.01 Q457.999 1475.44 457.999 1468.33 Q457.999 1461.2 456.17 1457.66 Q454.364 1454.1 450.73 1454.1 M450.73 1450.39 Q456.54 1450.39 459.596 1455 Q462.675 1459.58 462.675 1468.33 Q462.675 1477.06 459.596 1481.67 Q456.54 1486.25 450.73 1486.25 Q444.92 1486.25 441.841 1481.67 Q438.786 1477.06 438.786 1468.33 Q438.786 1459.58 441.841 1455 Q444.92 1450.39 450.73 1450.39 Z" fill="#000000" fill-rule="evenodd" fill-opacity="1" /><path clip-path="url(#clip090)" d="M471.378 1479.7 L476.262 1479.7 L476.262 1485.58 L471.378 1485.58 L471.378 1479.7 M471.378 1461.07 L476.262 1461.07 L476.262 1466.95 L471.378 1466.95 L471.378 1461.07 Z" fill="#000000" fill-rule="evenodd" fill-opacity="1" /><path clip-path="url(#clip090)" d="M496.864 1454.1 Q493.253 1454.1 491.424 1457.66 Q489.619 1461.2 489.619 1468.33 Q489.619 1475.44 491.424 1479.01 Q493.253 1482.55 496.864 1482.55 Q500.498 1482.55 502.304 1479.01 Q504.133 1475.44 504.133 1468.33 Q504.133 1461.2 502.304 1457.66 Q500.498 1454.1 496.864 1454.1 M496.864 1450.39 Q502.674 1450.39 505.73 1455 Q508.809 1459.58 508.809 1468.33 Q508.809 1477.06 505.73 1481.67 Q502.674 1486.25 496.864 1486.25 Q491.054 1486.25 487.975 1481.67 Q484.92 1477.06 484.92 1468.33 Q484.92 1459.58 487.975 1455 Q491.054 1450.39 496.864 1450.39 Z" fill="#000000" fill-rule="evenodd" fill-opacity="1" /><path clip-path="url(#clip090)" d="M527.026 1454.1 Q523.415 1454.1 521.586 1457.66 Q519.781 1461.2 519.781 1468.33 Q519.781 1475.44 521.586 1479.01 Q523.415 1482.55 527.026 1482.55 Q530.66 1482.55 532.466 1479.01 Q534.295 1475.44 534.295 1468.33 Q534.295 1461.2 532.466 1457.66 Q530.66 1454.1 527.026 1454.1 M527.026 1450.39 Q532.836 1450.39 535.892 1455 Q538.97 1459.58 538.97 1468.33 Q538.97 1477.06 535.892 1481.67 Q532.836 1486.25 527.026 1486.25 Q521.216 1486.25 518.137 1481.67 Q515.082 1477.06 515.082 1468.33 Q515.082 1459.58 518.137 1455 Q521.216 1450.39 527.026 1450.39 Z" fill="#000000" fill-rule="evenodd" fill-opacity="1" /><path clip-path="url(#clip090)" d="M1644.07 1481.64 L1660.39 1481.64 L1660.39 1485.58 L1638.44 1485.58 L1638.44 1481.64 Q1641.11 1478.89 1645.69 1474.26 Q1650.29 1469.61 1651.48 1468.27 Q1653.72 1465.74 1654.6 1464.01 Q1655.5 1462.25 1655.5 1460.56 Q1655.5 1457.8 1653.56 1456.07 Q1651.64 1454.33 1648.54 1454.33 Q1646.34 1454.33 1643.88 1455.09 Q1641.45 1455.86 1638.67 1457.41 L1638.67 1452.69 Q1641.5 1451.55 1643.95 1450.97 Q1646.41 1450.39 1648.44 1450.39 Q1653.81 1450.39 1657.01 1453.08 Q1660.2 1455.77 1660.2 1460.26 Q1660.2 1462.39 1659.39 1464.31 Q1658.61 1466.2 1656.5 1468.8 Q1655.92 1469.47 1652.82 1472.69 Q1649.72 1475.88 1644.07 1481.64 Z" fill="#000000" fill-rule="evenodd" fill-opacity="1" /><path clip-path="url(#clip090)" d="M1680.2 1454.1 Q1676.59 1454.1 1674.76 1457.66 Q1672.96 1461.2 1672.96 1468.33 Q1672.96 1475.44 1674.76 1479.01 Q1676.59 1482.55 1680.2 1482.55 Q1683.84 1482.55 1685.64 1479.01 Q1687.47 1475.44 1687.47 1468.33 Q1687.47 1461.2 1685.64 1457.66 Q1683.84 1454.1 1680.2 1454.1 M1680.2 1450.39 Q1686.01 1450.39 1689.07 1455 Q1692.15 1459.58 1692.15 1468.33 Q1692.15 1477.06 1689.07 1481.67 Q1686.01 1486.25 1680.2 1486.25 Q1674.39 1486.25 1671.31 1481.67 Q1668.26 1477.06 1668.26 1468.33 Q1668.26 1459.58 1671.31 1455 Q1674.39 1450.39 1680.2 1450.39 Z" fill="#000000" fill-rule="evenodd" fill-opacity="1" /><path clip-path="url(#clip090)" d="M1704.39 1481.64 L1720.71 1481.64 L1720.71 1485.58 L1698.77 1485.58 L1698.77 1481.64 Q1701.43 1478.89 1706.01 1474.26 Q1710.62 1469.61 1711.8 1468.27 Q1714.04 1465.74 1714.92 1464.01 Q1715.83 1462.25 1715.83 1460.56 Q1715.83 1457.8 1713.88 1456.07 Q1711.96 1454.33 1708.86 1454.33 Q1706.66 1454.33 1704.21 1455.09 Q1701.78 1455.86 1699 1457.41 L1699 1452.69 Q1701.82 1451.55 1704.28 1450.97 Q1706.73 1450.39 1708.77 1450.39 Q1714.14 1450.39 1717.33 1453.08 Q1720.53 1455.77 1720.53 1460.26 Q1720.53 1462.39 1719.72 1464.31 Q1718.93 1466.2 1716.82 1468.8 Q1716.24 1469.47 1713.14 1472.69 Q1710.04 1475.88 1704.39 1481.64 Z" fill="#000000" fill-rule="evenodd" fill-opacity="1" /><path clip-path="url(#clip090)" d="M1740.53 1454.1 Q1736.91 1454.1 1735.09 1457.66 Q1733.28 1461.2 1733.28 1468.33 Q1733.28 1475.44 1735.09 1479.01 Q1736.91 1482.55 1740.53 1482.55 Q1744.16 1482.55 1745.97 1479.01 Q1747.79 1475.44 1747.79 1468.33 Q1747.79 1461.2 1745.97 1457.66 Q1744.16 1454.1 1740.53 1454.1 M1740.53 1450.39 Q1746.34 1450.39 1749.39 1455 Q1752.47 1459.58 1752.47 1468.33 Q1752.47 1477.06 1749.39 1481.67 Q1746.34 1486.25 1740.53 1486.25 Q1734.72 1486.25 1731.64 1481.67 Q1728.58 1477.06 1728.58 1468.33 Q1728.58 1459.58 1731.64 1455 Q1734.72 1450.39 1740.53 1450.39 Z" fill="#000000" fill-rule="evenodd" fill-opacity="1" /><path clip-path="url(#clip090)" d="M1757.93 1470.7 L1770.41 1470.7 L1770.41 1474.49 L1757.93 1474.49 L1757.93 1470.7 Z" fill="#000000" fill-rule="evenodd" fill-opacity="1" /><path clip-path="url(#clip090)" d="M1787.79 1454.1 Q1784.18 1454.1 1782.35 1457.66 Q1780.55 1461.2 1780.55 1468.33 Q1780.55 1475.44 1782.35 1479.01 Q1784.18 1482.55 1787.79 1482.55 Q1791.43 1482.55 1793.23 1479.01 Q1795.06 1475.44 1795.06 1468.33 Q1795.06 1461.2 1793.23 1457.66 Q1791.43 1454.1 1787.79 1454.1 M1787.79 1450.39 Q1793.6 1450.39 1796.66 1455 Q1799.74 1459.58 1799.74 1468.33 Q1799.74 1477.06 1796.66 1481.67 Q1793.6 1486.25 1787.79 1486.25 Q1781.98 1486.25 1778.91 1481.67 Q1775.85 1477.06 1775.85 1468.33 Q1775.85 1459.58 1778.91 1455 Q1781.98 1450.39 1787.79 1450.39 Z" fill="#000000" fill-rule="evenodd" fill-opacity="1" /><path clip-path="url(#clip090)" d="M1808.77 1481.64 L1816.41 1481.64 L1816.41 1455.28 L1808.1 1456.95 L1808.1 1452.69 L1816.36 1451.02 L1821.03 1451.02 L1821.03 1481.64 L1828.67 1481.64 L1828.67 1485.58 L1808.77 1485.58 L1808.77 1481.64 Z" fill="#000000" fill-rule="evenodd" fill-opacity="1" /><path clip-path="url(#clip090)" d="M1835.36 1470.7 L1847.84 1470.7 L1847.84 1474.49 L1835.36 1474.49 L1835.36 1470.7 Z" fill="#000000" fill-rule="evenodd" fill-opacity="1" /><path clip-path="url(#clip090)" d="M1865.22 1454.1 Q1861.61 1454.1 1859.78 1457.66 Q1857.98 1461.2 1857.98 1468.33 Q1857.98 1475.44 1859.78 1479.01 Q1861.61 1482.55 1865.22 1482.55 Q1868.86 1482.55 1870.66 1479.01 Q1872.49 1475.44 1872.49 1468.33 Q1872.49 1461.2 1870.66 1457.66 Q1868.86 1454.1 1865.22 1454.1 M1865.22 1450.39 Q1871.03 1450.39 1874.09 1455 Q1877.17 1459.58 1877.17 1468.33 Q1877.17 1477.06 1874.09 1481.67 Q1871.03 1486.25 1865.22 1486.25 Q1859.41 1486.25 1856.34 1481.67 Q1853.28 1477.06 1853.28 1468.33 Q1853.28 1459.58 1856.34 1455 Q1859.41 1450.39 1865.22 1450.39 Z" fill="#000000" fill-rule="evenodd" fill-opacity="1" /><path clip-path="url(#clip090)" d="M1886.2 1481.64 L1893.84 1481.64 L1893.84 1455.28 L1885.53 1456.95 L1885.53 1452.69 L1893.79 1451.02 L1898.46 1451.02 L1898.46 1481.64 L1906.1 1481.64 L1906.1 1485.58 L1886.2 1485.58 L1886.2 1481.64 Z" fill="#000000" fill-rule="evenodd" fill-opacity="1" /><path clip-path="url(#clip090)" d="M1910.34 1451.02 L1939.58 1451.02 L1939.58 1454.96 L1927.31 1454.96 L1927.31 1485.58 L1922.61 1485.58 L1922.61 1454.96 L1910.34 1454.96 L1910.34 1451.02 Z" fill="#000000" fill-rule="evenodd" fill-opacity="1" /><path clip-path="url(#clip090)" d="M1948.53 1481.64 L1964.85 1481.64 L1964.85 1485.58 L1942.91 1485.58 L1942.91 1481.64 Q1945.57 1478.89 1950.15 1474.26 Q1954.76 1469.61 1955.94 1468.27 Q1958.19 1465.74 1959.07 1464.01 Q1959.97 1462.25 1959.97 1460.56 Q1959.97 1457.8 1958.02 1456.07 Q1956.1 1454.33 1953 1454.33 Q1950.8 1454.33 1948.35 1455.09 Q1945.92 1455.86 1943.14 1457.41 L1943.14 1452.69 Q1945.96 1451.55 1948.42 1450.97 Q1950.87 1450.39 1952.91 1450.39 Q1958.28 1450.39 1961.47 1453.08 Q1964.67 1455.77 1964.67 1460.26 Q1964.67 1462.39 1963.86 1464.31 Q1963.07 1466.2 1960.96 1468.8 Q1960.39 1469.47 1957.28 1472.69 Q1954.18 1475.88 1948.53 1481.64 Z" fill="#000000" fill-rule="evenodd" fill-opacity="1" /><path clip-path="url(#clip090)" d="M1988.83 1466.95 Q1992.19 1467.66 1994.07 1469.93 Q1995.96 1472.2 1995.96 1475.53 Q1995.96 1480.65 1992.45 1483.45 Q1988.93 1486.25 1982.45 1486.25 Q1980.27 1486.25 1977.96 1485.81 Q1975.66 1485.39 1973.21 1484.54 L1973.21 1480.02 Q1975.15 1481.16 1977.47 1481.74 Q1979.78 1482.32 1982.31 1482.32 Q1986.71 1482.32 1989 1480.58 Q1991.31 1478.84 1991.31 1475.53 Q1991.31 1472.48 1989.16 1470.77 Q1987.03 1469.03 1983.21 1469.03 L1979.18 1469.03 L1979.18 1465.19 L1983.39 1465.19 Q1986.84 1465.19 1988.67 1463.82 Q1990.5 1462.43 1990.5 1459.84 Q1990.5 1457.18 1988.6 1455.77 Q1986.73 1454.33 1983.21 1454.33 Q1981.29 1454.33 1979.09 1454.75 Q1976.89 1455.16 1974.25 1456.04 L1974.25 1451.88 Q1976.91 1451.14 1979.23 1450.77 Q1981.57 1450.39 1983.63 1450.39 Q1988.95 1450.39 1992.05 1452.83 Q1995.15 1455.23 1995.15 1459.35 Q1995.15 1462.22 1993.51 1464.21 Q1991.87 1466.18 1988.83 1466.95 Z" fill="#000000" fill-rule="evenodd" fill-opacity="1" /><path clip-path="url(#clip090)" d="M2005.32 1479.7 L2010.2 1479.7 L2010.2 1485.58 L2005.32 1485.58 L2005.32 1479.7 M2005.32 1461.07 L2010.2 1461.07 L2010.2 1466.95 L2005.32 1466.95 L2005.32 1461.07 Z" fill="#000000" fill-rule="evenodd" fill-opacity="1" /><path clip-path="url(#clip090)" d="M2030.8 1454.1 Q2027.19 1454.1 2025.36 1457.66 Q2023.56 1461.2 2023.56 1468.33 Q2023.56 1475.44 2025.36 1479.01 Q2027.19 1482.55 2030.8 1482.55 Q2034.44 1482.55 2036.24 1479.01 Q2038.07 1475.44 2038.07 1468.33 Q2038.07 1461.2 2036.24 1457.66 Q2034.44 1454.1 2030.8 1454.1 M2030.8 1450.39 Q2036.61 1450.39 2039.67 1455 Q2042.75 1459.58 2042.75 1468.33 Q2042.75 1477.06 2039.67 1481.67 Q2036.61 1486.25 2030.8 1486.25 Q2024.99 1486.25 2021.91 1481.67 Q2018.86 1477.06 2018.86 1468.33 Q2018.86 1459.58 2021.91 1455 Q2024.99 1450.39 2030.8 1450.39 Z" fill="#000000" fill-rule="evenodd" fill-opacity="1" /><path clip-path="url(#clip090)" d="M2060.96 1454.1 Q2057.35 1454.1 2055.52 1457.66 Q2053.72 1461.2 2053.72 1468.33 Q2053.72 1475.44 2055.52 1479.01 Q2057.35 1482.55 2060.96 1482.55 Q2064.6 1482.55 2066.4 1479.01 Q2068.23 1475.44 2068.23 1468.33 Q2068.23 1461.2 2066.4 1457.66 Q2064.6 1454.1 2060.96 1454.1 M2060.96 1450.39 Q2066.77 1450.39 2069.83 1455 Q2072.91 1459.58 2072.91 1468.33 Q2072.91 1477.06 2069.83 1481.67 Q2066.77 1486.25 2060.96 1486.25 Q2055.15 1486.25 2052.08 1481.67 Q2049.02 1477.06 2049.02 1468.33 Q2049.02 1459.58 2052.08 1455 Q2055.15 1450.39 2060.96 1450.39 Z" fill="#000000" fill-rule="evenodd" fill-opacity="1" /><path clip-path="url(#clip090)" d="M2081.61 1479.7 L2086.5 1479.7 L2086.5 1485.58 L2081.61 1485.58 L2081.61 1479.7 M2081.61 1461.07 L2086.5 1461.07 L2086.5 1466.95 L2081.61 1466.95 L2081.61 1461.07 Z" fill="#000000" fill-rule="evenodd" fill-opacity="1" /><path clip-path="url(#clip090)" d="M2107.1 1454.1 Q2103.49 1454.1 2101.66 1457.66 Q2099.85 1461.2 2099.85 1468.33 Q2099.85 1475.44 2101.66 1479.01 Q2103.49 1482.55 2107.1 1482.55 Q2110.73 1482.55 2112.54 1479.01 Q2114.37 1475.44 2114.37 1468.33 Q2114.37 1461.2 2112.54 1457.66 Q2110.73 1454.1 2107.1 1454.1 M2107.1 1450.39 Q2112.91 1450.39 2115.96 1455 Q2119.04 1459.58 2119.04 1468.33 Q2119.04 1477.06 2115.96 1481.67 Q2112.91 1486.25 2107.1 1486.25 Q2101.29 1486.25 2098.21 1481.67 Q2095.15 1477.06 2095.15 1468.33 Q2095.15 1459.58 2098.21 1455 Q2101.29 1450.39 2107.1 1450.39 Z" fill="#000000" fill-rule="evenodd" fill-opacity="1" /><path clip-path="url(#clip090)" d="M2137.26 1454.1 Q2133.65 1454.1 2131.82 1457.66 Q2130.01 1461.2 2130.01 1468.33 Q2130.01 1475.44 2131.82 1479.01 Q2133.65 1482.55 2137.26 1482.55 Q2140.89 1482.55 2142.7 1479.01 Q2144.53 1475.44 2144.53 1468.33 Q2144.53 1461.2 2142.7 1457.66 Q2140.89 1454.1 2137.26 1454.1 M2137.26 1450.39 Q2143.07 1450.39 2146.13 1455 Q2149.2 1459.58 2149.2 1468.33 Q2149.2 1477.06 2146.13 1481.67 Q2143.07 1486.25 2137.26 1486.25 Q2131.45 1486.25 2128.37 1481.67 Q2125.32 1477.06 2125.32 1468.33 Q2125.32 1459.58 2128.37 1455 Q2131.45 1450.39 2137.26 1450.39 Z" fill="#000000" fill-rule="evenodd" fill-opacity="1" /><path clip-path="url(#clip090)" d="M1003.14 1562.63 L1013.64 1562.63 L1013.64 1526.38 L1002.21 1528.67 L1002.21 1522.82 L1013.58 1520.52 L1020 1520.52 L1020 1562.63 L1030.51 1562.63 L1030.51 1568.04 L1003.14 1568.04 L1003.14 1562.63 Z" fill="#000000" fill-rule="evenodd" fill-opacity="1" /><path clip-path="url(#clip090)" d="M1086.84 1537.81 L1086.84 1518.52 L1092.7 1518.52 L1092.7 1568.04 L1086.84 1568.04 L1086.84 1562.7 Q1085 1565.88 1082.17 1567.44 Q1079.37 1568.97 1075.42 1568.97 Q1068.96 1568.97 1064.88 1563.81 Q1060.84 1558.65 1060.84 1550.25 Q1060.84 1541.85 1064.88 1536.69 Q1068.96 1531.54 1075.42 1531.54 Q1079.37 1531.54 1082.17 1533.1 Q1085 1534.62 1086.84 1537.81 M1066.89 1550.25 Q1066.89 1556.71 1069.53 1560.4 Q1072.2 1564.07 1076.85 1564.07 Q1081.5 1564.07 1084.17 1560.4 Q1086.84 1556.71 1086.84 1550.25 Q1086.84 1543.79 1084.17 1540.13 Q1081.5 1536.44 1076.85 1536.44 Q1072.2 1536.44 1069.53 1540.13 Q1066.89 1543.79 1066.89 1550.25 Z" fill="#000000" fill-rule="evenodd" fill-opacity="1" /><path clip-path="url(#clip090)" d="M1120.97 1550.12 Q1113.87 1550.12 1111.13 1551.75 Q1108.39 1553.37 1108.39 1557.29 Q1108.39 1560.4 1110.43 1562.25 Q1112.5 1564.07 1116.03 1564.07 Q1120.9 1564.07 1123.83 1560.63 Q1126.79 1557.16 1126.79 1551.43 L1126.79 1550.12 L1120.97 1550.12 M1132.65 1547.71 L1132.65 1568.04 L1126.79 1568.04 L1126.79 1562.63 Q1124.78 1565.88 1121.79 1567.44 Q1118.8 1568.97 1114.47 1568.97 Q1109 1568.97 1105.75 1565.91 Q1102.54 1562.82 1102.54 1557.67 Q1102.54 1551.65 1106.55 1548.6 Q1110.59 1545.54 1118.58 1545.54 L1126.79 1545.54 L1126.79 1544.97 Q1126.79 1540.93 1124.12 1538.73 Q1121.47 1536.5 1116.67 1536.5 Q1113.61 1536.5 1110.72 1537.23 Q1107.82 1537.97 1105.15 1539.43 L1105.15 1534.02 Q1108.36 1532.78 1111.38 1532.17 Q1114.41 1531.54 1117.27 1531.54 Q1125.01 1531.54 1128.83 1535.55 Q1132.65 1539.56 1132.65 1547.71 Z" fill="#000000" fill-rule="evenodd" fill-opacity="1" /><path clip-path="url(#clip090)" d="M1159.54 1571.35 Q1157.06 1577.72 1154.7 1579.66 Q1152.35 1581.6 1148.4 1581.6 L1143.72 1581.6 L1143.72 1576.7 L1147.16 1576.7 Q1149.58 1576.7 1150.92 1575.56 Q1152.25 1574.41 1153.88 1570.14 L1154.93 1567.47 L1140.51 1532.4 L1146.71 1532.4 L1157.85 1560.28 L1168.99 1532.4 L1175.2 1532.4 L1159.54 1571.35 Z" fill="#000000" fill-rule="evenodd" fill-opacity="1" /><polyline clip-path="url(#clip090)" style="stroke:#000000; stroke-linecap:butt; stroke-linejoin:round; stroke-width:4; stroke-opacity:1; fill:none" points="
  235.283,1423.18 235.283,123.472 
  "/>
<polyline clip-path="url(#clip090)" style="stroke:#000000; stroke-linecap:butt; stroke-linejoin:round; stroke-width:4; stroke-opacity:1; fill:none" points="
  235.283,1423.18 250.516,1423.18 
  "/>
<polyline clip-path="url(#clip090)" style="stroke:#000000; stroke-linecap:butt; stroke-linejoin:round; stroke-width:4; stroke-opacity:1; fill:none" points="
  235.283,1130.44 250.516,1130.44 
  "/>
<polyline clip-path="url(#clip090)" style="stroke:#000000; stroke-linecap:butt; stroke-linejoin:round; stroke-width:4; stroke-opacity:1; fill:none" points="
  235.283,837.707 250.516,837.707 
  "/>
<polyline clip-path="url(#clip090)" style="stroke:#000000; stroke-linecap:butt; stroke-linejoin:round; stroke-width:4; stroke-opacity:1; fill:none" points="
  235.283,544.971 250.516,544.971 
  "/>
<polyline clip-path="url(#clip090)" style="stroke:#000000; stroke-linecap:butt; stroke-linejoin:round; stroke-width:4; stroke-opacity:1; fill:none" points="
  235.283,252.235 250.516,252.235 
  "/>
<path clip-path="url(#clip090)" d="M187.338 1408.98 Q183.727 1408.98 181.899 1412.54 Q180.093 1416.08 180.093 1423.21 Q180.093 1430.32 181.899 1433.89 Q183.727 1437.43 187.338 1437.43 Q190.973 1437.43 192.778 1433.89 Q194.607 1430.32 194.607 1423.21 Q194.607 1416.08 192.778 1412.54 Q190.973 1408.98 187.338 1408.98 M187.338 1405.27 Q193.149 1405.27 196.204 1409.88 Q199.283 1414.46 199.283 1423.21 Q199.283 1431.94 196.204 1436.55 Q193.149 1441.13 187.338 1441.13 Q181.528 1441.13 178.45 1436.55 Q175.394 1431.94 175.394 1423.21 Q175.394 1414.46 178.45 1409.88 Q181.528 1405.27 187.338 1405.27 Z" fill="#000000" fill-rule="evenodd" fill-opacity="1" /><path clip-path="url(#clip090)" d="M121.043 1143.79 L137.362 1143.79 L137.362 1147.72 L115.418 1147.72 L115.418 1143.79 Q118.08 1141.03 122.663 1136.4 Q127.269 1131.75 128.45 1130.41 Q130.695 1127.89 131.575 1126.15 Q132.478 1124.39 132.478 1122.7 Q132.478 1119.95 130.533 1118.21 Q128.612 1116.47 125.51 1116.47 Q123.311 1116.47 120.857 1117.24 Q118.427 1118 115.649 1119.55 L115.649 1114.83 Q118.473 1113.7 120.927 1113.12 Q123.38 1112.54 125.418 1112.54 Q130.788 1112.54 133.982 1115.22 Q137.177 1117.91 137.177 1122.4 Q137.177 1124.53 136.367 1126.45 Q135.579 1128.35 133.473 1130.94 Q132.894 1131.61 129.792 1134.83 Q126.691 1138.02 121.043 1143.79 Z" fill="#000000" fill-rule="evenodd" fill-opacity="1" /><path clip-path="url(#clip090)" d="M157.177 1116.24 Q153.566 1116.24 151.737 1119.81 Q149.931 1123.35 149.931 1130.48 Q149.931 1137.58 151.737 1141.15 Q153.566 1144.69 157.177 1144.69 Q160.811 1144.69 162.616 1141.15 Q164.445 1137.58 164.445 1130.48 Q164.445 1123.35 162.616 1119.81 Q160.811 1116.24 157.177 1116.24 M157.177 1112.54 Q162.987 1112.54 166.042 1117.15 Q169.121 1121.73 169.121 1130.48 Q169.121 1139.21 166.042 1143.81 Q162.987 1148.39 157.177 1148.39 Q151.366 1148.39 148.288 1143.81 Q145.232 1139.21 145.232 1130.48 Q145.232 1121.73 148.288 1117.15 Q151.366 1112.54 157.177 1112.54 Z" fill="#000000" fill-rule="evenodd" fill-opacity="1" /><path clip-path="url(#clip090)" d="M187.338 1116.24 Q183.727 1116.24 181.899 1119.81 Q180.093 1123.35 180.093 1130.48 Q180.093 1137.58 181.899 1141.15 Q183.727 1144.69 187.338 1144.69 Q190.973 1144.69 192.778 1141.15 Q194.607 1137.58 194.607 1130.48 Q194.607 1123.35 192.778 1119.81 Q190.973 1116.24 187.338 1116.24 M187.338 1112.54 Q193.149 1112.54 196.204 1117.15 Q199.283 1121.73 199.283 1130.48 Q199.283 1139.21 196.204 1143.81 Q193.149 1148.39 187.338 1148.39 Q181.528 1148.39 178.45 1143.81 Q175.394 1139.21 175.394 1130.48 Q175.394 1121.73 178.45 1117.15 Q181.528 1112.54 187.338 1112.54 Z" fill="#000000" fill-rule="evenodd" fill-opacity="1" /><path clip-path="url(#clip090)" d="M129.862 824.501 L118.056 842.95 L129.862 842.95 L129.862 824.501 M128.635 820.427 L134.515 820.427 L134.515 842.95 L139.445 842.95 L139.445 846.839 L134.515 846.839 L134.515 854.987 L129.862 854.987 L129.862 846.839 L114.26 846.839 L114.26 842.325 L128.635 820.427 Z" fill="#000000" fill-rule="evenodd" fill-opacity="1" /><path clip-path="url(#clip090)" d="M157.177 823.506 Q153.566 823.506 151.737 827.071 Q149.931 830.613 149.931 837.742 Q149.931 844.849 151.737 848.413 Q153.566 851.955 157.177 851.955 Q160.811 851.955 162.616 848.413 Q164.445 844.849 164.445 837.742 Q164.445 830.613 162.616 827.071 Q160.811 823.506 157.177 823.506 M157.177 819.802 Q162.987 819.802 166.042 824.409 Q169.121 828.992 169.121 837.742 Q169.121 846.469 166.042 851.075 Q162.987 855.659 157.177 855.659 Q151.366 855.659 148.288 851.075 Q145.232 846.469 145.232 837.742 Q145.232 828.992 148.288 824.409 Q151.366 819.802 157.177 819.802 Z" fill="#000000" fill-rule="evenodd" fill-opacity="1" /><path clip-path="url(#clip090)" d="M187.338 823.506 Q183.727 823.506 181.899 827.071 Q180.093 830.613 180.093 837.742 Q180.093 844.849 181.899 848.413 Q183.727 851.955 187.338 851.955 Q190.973 851.955 192.778 848.413 Q194.607 844.849 194.607 837.742 Q194.607 830.613 192.778 827.071 Q190.973 823.506 187.338 823.506 M187.338 819.802 Q193.149 819.802 196.204 824.409 Q199.283 828.992 199.283 837.742 Q199.283 846.469 196.204 851.075 Q193.149 855.659 187.338 855.659 Q181.528 855.659 178.45 851.075 Q175.394 846.469 175.394 837.742 Q175.394 828.992 178.45 824.409 Q181.528 819.802 187.338 819.802 Z" fill="#000000" fill-rule="evenodd" fill-opacity="1" /><path clip-path="url(#clip090)" d="M127.593 543.108 Q124.445 543.108 122.593 545.261 Q120.765 547.413 120.765 551.163 Q120.765 554.89 122.593 557.066 Q124.445 559.219 127.593 559.219 Q130.742 559.219 132.57 557.066 Q134.422 554.89 134.422 551.163 Q134.422 547.413 132.57 545.261 Q130.742 543.108 127.593 543.108 M136.876 528.455 L136.876 532.714 Q135.117 531.881 133.311 531.441 Q131.529 531.001 129.769 531.001 Q125.14 531.001 122.686 534.126 Q120.255 537.251 119.908 543.571 Q121.274 541.557 123.334 540.492 Q125.394 539.404 127.871 539.404 Q133.08 539.404 136.089 542.575 Q139.121 545.723 139.121 551.163 Q139.121 556.487 135.973 559.705 Q132.825 562.922 127.593 562.922 Q121.598 562.922 118.427 558.339 Q115.256 553.733 115.256 545.006 Q115.256 536.812 119.144 531.95 Q123.033 527.066 129.584 527.066 Q131.343 527.066 133.126 527.413 Q134.931 527.761 136.876 528.455 Z" fill="#000000" fill-rule="evenodd" fill-opacity="1" /><path clip-path="url(#clip090)" d="M157.177 530.77 Q153.566 530.77 151.737 534.335 Q149.931 537.876 149.931 545.006 Q149.931 552.112 151.737 555.677 Q153.566 559.219 157.177 559.219 Q160.811 559.219 162.616 555.677 Q164.445 552.112 164.445 545.006 Q164.445 537.876 162.616 534.335 Q160.811 530.77 157.177 530.77 M157.177 527.066 Q162.987 527.066 166.042 531.673 Q169.121 536.256 169.121 545.006 Q169.121 553.733 166.042 558.339 Q162.987 562.922 157.177 562.922 Q151.366 562.922 148.288 558.339 Q145.232 553.733 145.232 545.006 Q145.232 536.256 148.288 531.673 Q151.366 527.066 157.177 527.066 Z" fill="#000000" fill-rule="evenodd" fill-opacity="1" /><path clip-path="url(#clip090)" d="M187.338 530.77 Q183.727 530.77 181.899 534.335 Q180.093 537.876 180.093 545.006 Q180.093 552.112 181.899 555.677 Q183.727 559.219 187.338 559.219 Q190.973 559.219 192.778 555.677 Q194.607 552.112 194.607 545.006 Q194.607 537.876 192.778 534.335 Q190.973 530.77 187.338 530.77 M187.338 527.066 Q193.149 527.066 196.204 531.673 Q199.283 536.256 199.283 545.006 Q199.283 553.733 196.204 558.339 Q193.149 562.922 187.338 562.922 Q181.528 562.922 178.45 558.339 Q175.394 553.733 175.394 545.006 Q175.394 536.256 178.45 531.673 Q181.528 527.066 187.338 527.066 Z" fill="#000000" fill-rule="evenodd" fill-opacity="1" /><path clip-path="url(#clip090)" d="M127.015 253.103 Q123.681 253.103 121.76 254.885 Q119.862 256.668 119.862 259.793 Q119.862 262.918 121.76 264.7 Q123.681 266.483 127.015 266.483 Q130.348 266.483 132.269 264.7 Q134.191 262.895 134.191 259.793 Q134.191 256.668 132.269 254.885 Q130.371 253.103 127.015 253.103 M122.339 251.112 Q119.33 250.372 117.64 248.311 Q115.973 246.251 115.973 243.288 Q115.973 239.145 118.913 236.737 Q121.876 234.33 127.015 234.33 Q132.177 234.33 135.117 236.737 Q138.056 239.145 138.056 243.288 Q138.056 246.251 136.367 248.311 Q134.7 250.372 131.714 251.112 Q135.093 251.899 136.968 254.191 Q138.867 256.483 138.867 259.793 Q138.867 264.816 135.788 267.501 Q132.732 270.186 127.015 270.186 Q121.297 270.186 118.218 267.501 Q115.163 264.816 115.163 259.793 Q115.163 256.483 117.061 254.191 Q118.959 251.899 122.339 251.112 M120.626 243.728 Q120.626 246.413 122.293 247.918 Q123.982 249.422 127.015 249.422 Q130.024 249.422 131.714 247.918 Q133.427 246.413 133.427 243.728 Q133.427 241.043 131.714 239.538 Q130.024 238.034 127.015 238.034 Q123.982 238.034 122.293 239.538 Q120.626 241.043 120.626 243.728 Z" fill="#000000" fill-rule="evenodd" fill-opacity="1" /><path clip-path="url(#clip090)" d="M157.177 238.034 Q153.566 238.034 151.737 241.598 Q149.931 245.14 149.931 252.27 Q149.931 259.376 151.737 262.941 Q153.566 266.483 157.177 266.483 Q160.811 266.483 162.616 262.941 Q164.445 259.376 164.445 252.27 Q164.445 245.14 162.616 241.598 Q160.811 238.034 157.177 238.034 M157.177 234.33 Q162.987 234.33 166.042 238.936 Q169.121 243.52 169.121 252.27 Q169.121 260.996 166.042 265.603 Q162.987 270.186 157.177 270.186 Q151.366 270.186 148.288 265.603 Q145.232 260.996 145.232 252.27 Q145.232 243.52 148.288 238.936 Q151.366 234.33 157.177 234.33 Z" fill="#000000" fill-rule="evenodd" fill-opacity="1" /><path clip-path="url(#clip090)" d="M187.338 238.034 Q183.727 238.034 181.899 241.598 Q180.093 245.14 180.093 252.27 Q180.093 259.376 181.899 262.941 Q183.727 266.483 187.338 266.483 Q190.973 266.483 192.778 262.941 Q194.607 259.376 194.607 252.27 Q194.607 245.14 192.778 241.598 Q190.973 238.034 187.338 238.034 M187.338 234.33 Q193.149 234.33 196.204 238.936 Q199.283 243.52 199.283 252.27 Q199.283 260.996 196.204 265.603 Q193.149 270.186 187.338 270.186 Q181.528 270.186 178.45 265.603 Q175.394 260.996 175.394 252.27 Q175.394 243.52 178.45 238.936 Q181.528 234.33 187.338 234.33 Z" fill="#000000" fill-rule="evenodd" fill-opacity="1" /><path clip-path="url(#clip090)" d="M16.4842 829.408 L16.4842 819.827 L48.8219 807.701 L16.4842 795.51 L16.4842 785.93 L64.0042 785.93 L64.0042 792.2 L22.277 792.2 L54.8694 804.454 L54.8694 810.915 L22.277 823.169 L64.0042 823.169 L64.0042 829.408 L16.4842 829.408 Z" fill="#000000" fill-rule="evenodd" fill-opacity="1" /><path clip-path="url(#clip090)" d="M16.4842 777.4 L16.4842 770.907 L56.6518 760.913 L16.4842 750.951 L16.4842 743.725 L56.6518 733.731 L16.4842 723.769 L16.4842 717.244 L64.0042 729.18 L64.0042 737.264 L22.7544 747.29 L64.0042 757.412 L64.0042 765.496 L16.4842 777.4 Z" fill="#000000" fill-rule="evenodd" fill-opacity="1" /><path clip-path="url(#clip090)" d="M928.818 18.8205 L928.818 65.8515 L938.702 65.8515 Q951.219 65.8515 957.012 60.1802 Q962.845 54.509 962.845 42.2752 Q962.845 30.1225 957.012 24.4918 Q951.219 18.8205 938.702 18.8205 L928.818 18.8205 M920.635 12.096 L937.446 12.096 Q955.027 12.096 963.25 19.4281 Q971.474 26.7198 971.474 42.2752 Q971.474 57.9117 963.21 65.2439 Q954.946 72.576 937.446 72.576 L920.635 72.576 L920.635 12.096 Z" fill="#000000" fill-rule="evenodd" fill-opacity="1" /><path clip-path="url(#clip090)" d="M1023 48.0275 L1023 51.6733 L988.73 51.6733 Q989.217 59.3701 993.349 63.421 Q997.521 67.4314 1004.93 67.4314 Q1009.23 67.4314 1013.24 66.3781 Q1017.29 65.3249 1021.26 63.2184 L1021.26 70.267 Q1017.25 71.9684 1013.04 72.8596 Q1008.82 73.7508 1004.49 73.7508 Q993.632 73.7508 987.272 67.4314 Q980.953 61.1119 980.953 50.3365 Q980.953 39.1965 986.948 32.6746 Q992.984 26.1121 1003.19 26.1121 Q1012.35 26.1121 1017.65 32.0264 Q1023 37.9003 1023 48.0275 M1015.55 45.84 Q1015.47 39.7232 1012.1 36.0774 Q1008.78 32.4315 1003.27 32.4315 Q997.035 32.4315 993.267 35.9558 Q989.541 39.4801 988.974 45.8805 L1015.55 45.84 Z" fill="#000000" fill-rule="evenodd" fill-opacity="1" /><path clip-path="url(#clip090)" d="M1070.56 35.9153 Q1073.35 30.8922 1077.24 28.5022 Q1081.13 26.1121 1086.4 26.1121 Q1093.49 26.1121 1097.34 31.0947 Q1101.18 36.0368 1101.18 45.1919 L1101.18 72.576 L1093.69 72.576 L1093.69 45.4349 Q1093.69 38.913 1091.38 35.7533 Q1089.07 32.5936 1084.33 32.5936 Q1078.54 32.5936 1075.18 36.4419 Q1071.81 40.2903 1071.81 46.9338 L1071.81 72.576 L1064.32 72.576 L1064.32 45.4349 Q1064.32 38.8725 1062.01 35.7533 Q1059.7 32.5936 1054.88 32.5936 Q1049.17 32.5936 1045.81 36.4824 Q1042.45 40.3308 1042.45 46.9338 L1042.45 72.576 L1034.95 72.576 L1034.95 27.2059 L1042.45 27.2059 L1042.45 34.2544 Q1045 30.082 1048.56 28.0971 Q1052.13 26.1121 1057.03 26.1121 Q1061.97 26.1121 1065.41 28.6237 Q1068.9 31.1352 1070.56 35.9153 Z" fill="#000000" fill-rule="evenodd" fill-opacity="1" /><path clip-path="url(#clip090)" d="M1136.67 49.7694 Q1127.64 49.7694 1124.15 51.8354 Q1120.67 53.9013 1120.67 58.8839 Q1120.67 62.8538 1123.26 65.2034 Q1125.89 67.5124 1130.39 67.5124 Q1136.59 67.5124 1140.32 63.1374 Q1144.08 58.7219 1144.08 51.4303 L1144.08 49.7694 L1136.67 49.7694 M1151.54 46.6907 L1151.54 72.576 L1144.08 72.576 L1144.08 65.6895 Q1141.53 69.8214 1137.72 71.8063 Q1133.91 73.7508 1128.41 73.7508 Q1121.44 73.7508 1117.31 69.8619 Q1113.21 65.9325 1113.21 59.3701 Q1113.21 51.7138 1118.32 47.825 Q1123.46 43.9361 1133.63 43.9361 L1144.08 43.9361 L1144.08 43.2069 Q1144.08 38.0623 1140.68 35.2672 Q1137.32 32.4315 1131.2 32.4315 Q1127.31 32.4315 1123.63 33.3632 Q1119.94 34.295 1116.54 36.1584 L1116.54 29.2718 Q1120.63 27.692 1124.48 26.9223 Q1128.32 26.1121 1131.97 26.1121 Q1141.81 26.1121 1146.68 31.2163 Q1151.54 36.3204 1151.54 46.6907 Z" fill="#000000" fill-rule="evenodd" fill-opacity="1" /><path clip-path="url(#clip090)" d="M1204.6 45.1919 L1204.6 72.576 L1197.15 72.576 L1197.15 45.4349 Q1197.15 38.994 1194.64 35.7938 Q1192.13 32.5936 1187.1 32.5936 Q1181.07 32.5936 1177.58 36.4419 Q1174.1 40.2903 1174.1 46.9338 L1174.1 72.576 L1166.61 72.576 L1166.61 27.2059 L1174.1 27.2059 L1174.1 34.2544 Q1176.77 30.163 1180.38 28.1376 Q1184.02 26.1121 1188.76 26.1121 Q1196.58 26.1121 1200.59 30.9732 Q1204.6 35.7938 1204.6 45.1919 Z" fill="#000000" fill-rule="evenodd" fill-opacity="1" /><path clip-path="url(#clip090)" d="M1249.33 34.0924 L1249.33 9.54393 L1256.78 9.54393 L1256.78 72.576 L1249.33 72.576 L1249.33 65.7705 Q1246.98 69.8214 1243.37 71.8063 Q1239.81 73.7508 1234.78 73.7508 Q1226.56 73.7508 1221.37 67.1883 Q1216.23 60.6258 1216.23 49.9314 Q1216.23 39.2371 1221.37 32.6746 Q1226.56 26.1121 1234.78 26.1121 Q1239.81 26.1121 1243.37 28.0971 Q1246.98 30.0415 1249.33 34.0924 M1223.93 49.9314 Q1223.93 58.1548 1227.29 62.8538 Q1230.69 67.5124 1236.61 67.5124 Q1242.52 67.5124 1245.92 62.8538 Q1249.33 58.1548 1249.33 49.9314 Q1249.33 41.7081 1245.92 37.0496 Q1242.52 32.3505 1236.61 32.3505 Q1230.69 32.3505 1227.29 37.0496 Q1223.93 41.7081 1223.93 49.9314 Z" fill="#000000" fill-rule="evenodd" fill-opacity="1" /><polyline clip-path="url(#clip092)" style="stroke:#636875; stroke-linecap:butt; stroke-linejoin:round; stroke-width:4; stroke-opacity:1; fill:none" points="
  283.59,555.45 353.6,627.281 423.61,678.96 493.62,710.104 563.631,715.389 633.641,695.53 703.651,608.455 773.661,454.786 843.671,297.872 913.681,230.898 
  983.692,200.292 1053.7,181.949 1123.71,166.22 1193.72,197.274 1263.73,227.587 1333.74,247.22 1403.75,251.815 1473.76,212.583 1543.77,123.472 1613.78,133.024 
  1683.79,217.826 1753.8,307.798 1823.81,408.792 1893.82,491.744 
  "/>
<path clip-path="url(#clip090)" d="
M2012.71 799.246 L2352.76 799.246 L2352.76 695.566 L2012.71 695.566  Z
  " fill="#ffffff" fill-rule="evenodd" fill-opacity="1"/>
<polyline clip-path="url(#clip090)" style="stroke:#000000; stroke-linecap:butt; stroke-linejoin:round; stroke-width:4; stroke-opacity:1; fill:none" points="
  2012.71,799.246 2352.76,799.246 2352.76,695.566 2012.71,695.566 2012.71,799.246 
  "/>
<polyline clip-path="url(#clip090)" style="stroke:#636875; stroke-linecap:butt; stroke-linejoin:round; stroke-width:4; stroke-opacity:1; fill:none" points="
  2036.24,747.406 2177.41,747.406 
  "/>
<path clip-path="url(#clip090)" d="M2200.93 730.126 L2205.61 730.126 L2205.61 760.751 L2222.44 760.751 L2222.44 764.686 L2200.93 764.686 L2200.93 730.126 Z" fill="#000000" fill-rule="evenodd" fill-opacity="1" /><path clip-path="url(#clip090)" d="M2236.37 741.746 Q2232.95 741.746 2230.96 744.431 Q2228.97 747.093 2228.97 751.746 Q2228.97 756.399 2230.93 759.084 Q2232.92 761.746 2236.37 761.746 Q2239.78 761.746 2241.77 759.061 Q2243.76 756.376 2243.76 751.746 Q2243.76 747.14 2241.77 744.455 Q2239.78 741.746 2236.37 741.746 M2236.37 738.135 Q2241.93 738.135 2245.1 741.746 Q2248.27 745.357 2248.27 751.746 Q2248.27 758.112 2245.1 761.746 Q2241.93 765.357 2236.37 765.357 Q2230.79 765.357 2227.62 761.746 Q2224.47 758.112 2224.47 751.746 Q2224.47 745.357 2227.62 741.746 Q2230.79 738.135 2236.37 738.135 Z" fill="#000000" fill-rule="evenodd" fill-opacity="1" /><path clip-path="url(#clip090)" d="M2267.11 751.654 Q2261.95 751.654 2259.96 752.834 Q2257.97 754.015 2257.97 756.862 Q2257.97 759.13 2259.45 760.473 Q2260.96 761.792 2263.53 761.792 Q2267.07 761.792 2269.2 759.292 Q2271.35 756.769 2271.35 752.603 L2271.35 751.654 L2267.11 751.654 M2275.61 749.894 L2275.61 764.686 L2271.35 764.686 L2271.35 760.751 Q2269.89 763.112 2267.72 764.246 Q2265.54 765.357 2262.39 765.357 Q2258.41 765.357 2256.05 763.135 Q2253.71 760.89 2253.71 757.14 Q2253.71 752.765 2256.63 750.543 Q2259.57 748.32 2265.38 748.32 L2271.35 748.32 L2271.35 747.904 Q2271.35 744.964 2269.4 743.367 Q2267.48 741.746 2263.99 741.746 Q2261.77 741.746 2259.66 742.279 Q2257.55 742.811 2255.61 743.876 L2255.61 739.941 Q2257.95 739.038 2260.15 738.598 Q2262.34 738.135 2264.43 738.135 Q2270.05 738.135 2272.83 741.052 Q2275.61 743.969 2275.61 749.894 Z" fill="#000000" fill-rule="evenodd" fill-opacity="1" /><path clip-path="url(#clip090)" d="M2301.44 742.695 L2301.44 728.668 L2305.7 728.668 L2305.7 764.686 L2301.44 764.686 L2301.44 760.797 Q2300.1 763.112 2298.04 764.246 Q2296 765.357 2293.13 765.357 Q2288.43 765.357 2285.47 761.607 Q2282.53 757.857 2282.53 751.746 Q2282.53 745.635 2285.47 741.885 Q2288.43 738.135 2293.13 738.135 Q2296 738.135 2298.04 739.269 Q2300.1 740.381 2301.44 742.695 M2286.93 751.746 Q2286.93 756.445 2288.85 759.13 Q2290.79 761.792 2294.17 761.792 Q2297.55 761.792 2299.5 759.13 Q2301.44 756.445 2301.44 751.746 Q2301.44 747.047 2299.5 744.385 Q2297.55 741.7 2294.17 741.7 Q2290.79 741.7 2288.85 744.385 Q2286.93 747.047 2286.93 751.746 Z" fill="#000000" fill-rule="evenodd" fill-opacity="1" /></svg>
